<svg width="39" height="40" viewBox="0 0 39 40" fill="none" xmlns="http://www.w3.org/2000/svg">
<path d="M30.8314 18.564H14.843L20.1032 13.3038C20.2531 13.1552 20.372 12.9783 20.4532 12.7835C20.5343 12.5887 20.5761 12.3797 20.5761 12.1686C20.5761 11.9575 20.5343 11.7486 20.4532 11.5537C20.372 11.3589 20.2531 11.1821 20.1032 11.0334C19.8036 10.7356 19.3984 10.5685 18.976 10.5685C18.5536 10.5685 18.1484 10.7356 17.8488 11.0334L10.9898 17.9084C10.3893 18.5054 10.0501 19.3161 10.0465 20.1628C10.0543 21.004 10.3932 21.8082 10.9898 22.4012L17.8488 29.2762C17.9979 29.4242 18.1747 29.5414 18.369 29.6211C18.5634 29.7008 18.7716 29.7415 18.9817 29.7407C19.1917 29.74 19.3996 29.6979 19.5934 29.6168C19.7872 29.5357 19.9632 29.4172 20.1112 29.2682C20.2592 29.1191 20.3764 28.9423 20.4561 28.748C20.5358 28.5536 20.5765 28.3454 20.5757 28.1353C20.575 27.9253 20.5329 27.7174 20.4518 27.5236C20.3707 27.3298 20.2523 27.1538 20.1032 27.0058L14.843 21.7616H30.8314C31.2554 21.7616 31.6621 21.5932 31.9619 21.2933C32.2618 20.9935 32.4302 20.5868 32.4302 20.1628C32.4302 19.7388 32.2618 19.3321 31.9619 19.0322C31.6621 18.7324 31.2554 18.564 30.8314 18.564Z" fill="#000231"/>
</svg>
