<svg width="23" height="25" viewBox="0 0 23 25" fill="none" xmlns="http://www.w3.org/2000/svg">
<path d="M22.5762 14.1226L20.6431 7.16736C20.0764 5.12977 18.845 3.34004 17.1444 2.08267C15.4439 0.825297 13.3718 0.172439 11.2576 0.227869C9.14345 0.283299 7.10846 1.04384 5.47613 2.38859C3.8438 3.73335 2.70781 5.58514 2.24874 7.64963L0.752079 14.38C0.586761 15.1237 0.590583 15.895 0.763264 16.637C0.935945 17.379 1.27308 18.0728 1.74976 18.6671C2.22645 19.2613 2.83053 19.741 3.5174 20.0705C4.20426 20.4001 4.95638 20.5712 5.71821 20.5711H6.85164C7.08516 21.7211 7.70907 22.7551 8.61766 23.4977C9.52625 24.2403 10.6636 24.646 11.8371 24.646C13.0106 24.646 14.148 24.2403 15.0566 23.4977C15.9651 22.7551 16.5891 21.7211 16.8226 20.5711H17.6752C18.4594 20.5712 19.2331 20.3899 19.9357 20.0415C20.6383 19.6931 21.2508 19.1869 21.7254 18.5626C22.2001 17.9382 22.5239 17.2126 22.6716 16.4424C22.8194 15.6722 22.7861 14.8783 22.5762 14.1226ZM11.8371 22.606C11.2081 22.6034 10.5952 22.4065 10.0823 22.0423C9.56947 21.678 9.18167 21.1642 8.97199 20.5711H14.7022C14.4925 21.1642 14.1048 21.678 13.5919 22.0423C13.079 22.4065 12.4662 22.6034 11.8371 22.606ZM20.1048 17.3306C19.8213 17.7067 19.454 18.0115 19.0321 18.2208C18.6101 18.4301 18.1452 18.5381 17.6742 18.5363H5.71821C5.26116 18.5362 4.80996 18.4335 4.39792 18.2357C3.98588 18.0379 3.62351 17.7501 3.33756 17.3936C3.05162 17.037 2.84939 16.6208 2.74582 16.1756C2.64224 15.7305 2.63996 15.2677 2.73914 14.8216L4.23478 8.09018C4.59532 6.46859 5.48757 5.01406 6.76969 3.95779C8.05182 2.90153 9.65024 2.30417 11.3109 2.26066C12.9715 2.21716 14.599 2.73001 15.9347 3.7177C17.2703 4.70538 18.2375 6.11121 18.6825 7.7117L20.6156 14.6669C20.7433 15.1201 20.7637 15.5967 20.675 16.0591C20.5864 16.5215 20.3911 16.9568 20.1048 17.3306Z" fill="#000231"/>
</svg>
