<svg width="22" height="22" viewBox="0 0 22 22" fill="none" xmlns="http://www.w3.org/2000/svg">
<path d="M21.1686 11.2628C21.1686 5.45004 16.4803 0.732605 10.7035 0.732605C4.92669 0.732605 0.238403 5.45004 0.238403 11.2628C0.238403 16.5225 4.06447 20.882 9.07609 21.6628V14.2993H6.40323V11.2628H9.07609V8.94203C9.07609 6.30677 10.6281 4.84274 13.0207 4.84274C14.1632 4.84274 15.3487 5.05963 15.3487 5.05963V7.62982H14.0338C12.7297 7.62982 12.3202 8.45402 12.3202 9.27821V11.2519H15.2301L14.7667 14.2885H12.3202V21.652C17.3426 20.882 21.1686 16.5225 21.1686 11.2628Z" fill="#1877F2"/>
<path d="M14.7772 14.2192L15.2406 11.203H12.3306V9.24244C12.3306 8.41298 12.751 7.60507 14.0443 7.60507H15.3592V5.04131C15.3592 5.04131 14.1736 4.82587 13.0312 4.82587C10.6385 4.82587 9.08656 6.2801 9.08656 8.89773V11.203H6.4137V14.2192H9.08656V21.5334C9.61466 21.6196 10.1643 21.6627 10.714 21.6627C11.2636 21.6627 11.8133 21.6196 12.3414 21.5334V14.2192H14.7772Z" fill="white"/>
</svg>
