<svg width="22" height="22" viewBox="0 0 22 22" fill="none" xmlns="http://www.w3.org/2000/svg">
<path fill-rule="evenodd" clip-rule="evenodd" d="M21.186 11.203C21.186 10.461 21.1194 9.74743 20.9958 9.06244H11.1395V13.1105H16.7717C16.5291 14.4187 15.7917 15.527 14.6834 16.2691V18.8949H18.0655C20.0444 17.073 21.186 14.3901 21.186 11.203Z" fill="#4285F4"/>
<path fill-rule="evenodd" clip-rule="evenodd" d="M11.1396 21.4302C13.9652 21.4302 16.3341 20.4931 18.0656 18.8948L14.6835 16.269C13.7464 16.8969 12.5476 17.268 11.1396 17.268C8.41392 17.268 6.10684 15.4271 5.2839 12.9535H1.7876V15.6649C3.50959 19.0851 7.0487 21.4302 11.1396 21.4302Z" fill="#34A853"/>
<path fill-rule="evenodd" clip-rule="evenodd" d="M5.28385 12.9535C5.07454 12.3256 4.95562 11.6549 4.95562 10.9652C4.95562 10.2754 5.07454 9.6047 5.28385 8.9768V6.26538H1.78755C1.07877 7.67817 0.674438 9.27648 0.674438 10.9652C0.674438 12.6539 1.07877 14.2522 1.78755 15.665L5.28385 12.9535Z" fill="#FBBC05"/>
<path fill-rule="evenodd" clip-rule="evenodd" d="M11.1396 4.66232C12.6761 4.66232 14.0556 5.19034 15.1401 6.22733L18.1417 3.22575C16.3294 1.53706 13.9604 0.500061 11.1396 0.500061C7.0487 0.500061 3.50958 2.8452 1.7876 6.26539L5.2839 8.97681C6.10684 6.50323 8.41392 4.66232 11.1396 4.66232Z" fill="#EA4335"/>
</svg>
