<svg width="178" height="182" viewBox="0 0 178 182" fill="none" xmlns="http://www.w3.org/2000/svg">
<g clip-path="url(#clip0_1_21492)">
<path d="M157.864 125.648H169.104V120.879H157.864V125.648Z" fill="#EBEBEB"/>
<path d="M164.139 131.661L169.806 131.542L172.599 131.495C173.528 131.474 174.453 131.495 175.379 131.469L175.188 131.661V126.892L175.4 127.105L169.78 127.08C167.908 127.08 166.032 127.029 164.161 127.007L164.275 126.892C164.275 127.672 164.241 128.456 164.22 129.249L164.139 131.661ZM164.139 131.661L164.063 129.321C164.042 128.529 164.012 127.723 164.008 126.914V126.765H164.127C165.998 126.739 167.874 126.696 169.746 126.692L175.366 126.667H175.578V126.88L175.553 131.648V131.84H175.366C174.419 131.84 173.469 131.84 172.522 131.819L169.695 131.772L164.139 131.661Z" fill="#EBEBEB"/>
<path d="M81.3548 84.8226L87.0254 84.7032L89.814 84.6564C90.7435 84.6351 91.6688 84.6564 92.5941 84.6351L92.4031 84.8226L92.3818 80.0539L92.5941 80.267L86.9745 80.2414C85.1027 80.2414 83.2266 80.1945 81.3548 80.169L81.4694 80.0539C81.4694 80.8338 81.4355 81.6179 81.4143 82.4148L81.3548 84.8226ZM81.3548 84.8226L81.2954 82.4659C81.2742 81.669 81.2487 80.8636 81.2402 80.0539V79.9388H81.3591C83.2309 79.9175 85.1069 79.8707 86.9787 79.8664L92.5983 79.8408H92.8105V80.0539L92.7893 84.8226V85.0016H92.6026C91.6561 85.0016 90.7053 85.0016 89.763 84.976L86.932 84.9291L81.3548 84.8226Z" fill="#EBEBEB"/>
<path d="M87.624 90.8354H98.8633V86.0668H87.624V90.8354Z" fill="#EBEBEB"/>
<path d="M74.9876 90.8353L80.6582 90.7159L83.451 90.6691C84.3806 90.6478 85.3016 90.6691 86.2269 90.6478L86.0401 90.8353L86.0147 86.0666L86.2269 86.2797L80.6073 86.2541C78.7355 86.2541 76.8637 86.2072 74.9876 86.1817L75.1065 86.0666C75.1065 86.8465 75.0683 87.6306 75.0513 88.4275L74.9876 90.8353ZM74.9876 90.8353L74.9282 88.4744C74.9282 87.6817 74.8815 86.8763 74.873 86.0666V85.9515H74.9876C76.8637 85.9515 78.7355 85.8833 80.6073 85.8791L86.2269 85.8535H86.4433V86.0666L86.4221 90.8353V91.027H86.2311C85.2846 91.027 84.3339 91.027 83.3916 91.0015L80.5648 90.9546L74.9876 90.8353Z" fill="#EBEBEB"/>
<path d="M98.6592 30.4365H109.898V25.6679H98.6592V30.4365Z" fill="#EBEBEB"/>
<path d="M2.49351 131.661L8.16406 131.542L10.9569 131.495C11.8822 131.474 12.8075 131.495 13.7327 131.469L13.546 131.661L13.5205 126.892L13.7327 127.105L8.11312 127.08C6.24133 127.08 4.3653 127.029 2.49351 127.007L2.60811 126.892C2.60811 127.672 2.57415 128.456 2.55293 129.249L2.49351 131.661ZM2.49351 131.661L2.43408 129.321C2.41286 128.529 2.3874 127.723 2.37891 126.914V126.765H2.49351C4.3653 126.739 6.24133 126.696 8.11312 126.692L13.7327 126.667H13.945V126.88V131.648V131.84H13.754C12.8075 131.84 11.8567 131.84 10.9144 131.819L8.08766 131.772L2.49351 131.661Z" fill="#EBEBEB"/>
<path d="M8.76202 10.9358L14.4326 10.8165L17.2254 10.7696C18.1549 10.7483 19.076 10.7696 20.0013 10.7441L19.8145 10.9358L19.789 6.16292L20.0013 6.376L14.3816 6.35043C12.5098 6.35043 10.6381 6.29929 8.76202 6.27798L8.88087 6.16292C8.88087 6.94278 8.84267 7.7269 8.82144 8.52381L8.76202 10.9358ZM8.76202 10.9358L8.71533 8.57495C8.71533 7.7823 8.66865 6.97687 8.66016 6.16718V6.05212H8.77476C10.6508 6.03081 12.5226 5.98393 14.3944 5.97967L20.014 5.9541H20.2305V6.16292L20.1753 10.9358V11.1276H19.9843C19.0378 11.1276 18.087 11.1276 17.1448 11.102L14.318 11.0552L8.76202 10.9358Z" fill="#EBEBEB"/>
<path d="M2.49319 16.9487H13.7324V12.1801L2.49319 12.1801V16.9487Z" fill="#EBEBEB"/>
<path d="M164.139 10.9358L169.806 10.8165L172.599 10.7696C173.528 10.7483 174.453 10.7696 175.379 10.7441L175.188 10.9358V6.16718L175.4 6.38026L169.78 6.35469C167.908 6.35469 166.032 6.30355 164.161 6.28224L164.275 6.16718C164.275 6.94704 164.241 7.73117 164.22 8.52807L164.139 10.9358ZM164.139 10.9358L164.063 8.57495C164.042 7.7823 164.012 6.97687 164.008 6.16718V6.05212H164.127C165.998 6.03081 167.874 5.98393 169.746 5.97967L175.366 5.9541H175.578V6.16292L175.565 10.9358V11.1276H175.379C174.432 11.1276 173.481 11.1276 172.535 11.102L169.708 11.0552L164.139 10.9358Z" fill="#EBEBEB"/>
<path d="M54.6714 147.122H24.1328V181.074H54.6714V147.122Z" fill="#EBEBEB"/>
<path d="M8.36673 181.078H24.1348L24.1348 147.122H8.36673L8.36673 181.078Z" fill="#DBDBDB"/>
<path d="M9.44922 178.755C10.6207 176.34 11.778 173.926 12.9212 171.511L16.3549 164.168L19.7504 156.834C20.8823 154.385 21.9915 151.927 23.0781 149.461C21.9066 151.876 20.7493 154.298 19.6061 156.727L16.1851 164.032L12.7896 171.366C11.6606 173.818 10.5471 176.281 9.44922 178.755Z" fill="#EBEBEB"/>
<path d="M9.44922 149.461C10.5471 151.93 11.6563 154.388 12.7768 156.834L16.1724 164.168L19.5934 171.472C20.7394 173.901 21.8967 176.316 23.0653 178.717C21.9674 176.251 20.8582 173.793 19.7377 171.344L16.3422 164.01L12.9212 156.706C11.7752 154.291 10.6178 151.876 9.44922 149.461Z" fill="#EBEBEB"/>
<path d="M54.6714 95.8428H24.1328V127.455H54.6714V95.8428Z" fill="#EBEBEB"/>
<path d="M8.36673 127.459H24.1348L24.1348 95.8426H8.36673L8.36673 127.459Z" fill="#DBDBDB"/>
<path d="M36.8105 103.181H37.4557H37.9438L38.2197 102.619L38.6102 103.181L39.1365 102.018L39.6373 103.181H41.0677H41.7171L41.9548 102.406L42.1755 103.181H42.5999V95.8428H36.8105V103.181Z" fill="#DBDBDB"/>
<path d="M9.44922 125.443C10.6207 123.199 11.778 120.94 12.9212 118.667L16.3422 111.849L19.7377 105.03C20.8695 102.758 21.9788 100.469 23.0653 98.165C21.8939 100.415 20.7366 102.671 19.5934 104.932L16.1724 111.73L12.7768 118.548C11.6563 120.846 10.5471 123.145 9.44922 125.443Z" fill="#EBEBEB"/>
<path d="M9.44922 98.1821C10.5471 100.475 11.6563 102.758 12.7768 105.03L16.1724 111.849L19.5934 118.667C20.7394 120.94 21.8967 123.196 23.0653 125.435C21.9674 123.139 20.8582 120.851 19.7377 118.569L16.3422 111.751L12.9212 104.954C11.7752 102.689 10.6178 100.432 9.44922 98.1821Z" fill="#EBEBEB"/>
<path d="M26.1439 125.495H29.5352V122.09H26.1439V125.495Z" fill="white"/>
<path d="M52.6363 127.459H22.0977V147.122H52.6363V127.459Z" fill="#DBDBDB"/>
<path d="M6.32963 147.122H22.0977L22.0977 127.459H6.32963L6.32963 147.122Z" fill="#C7C7C7"/>
<path d="M34.7754 134.797H35.4205H35.9044L36.1845 134.231L36.5708 134.797L37.1013 133.634L37.5979 134.797H39.0283H39.6819L39.9154 134.022L40.1403 134.797H40.5648V127.459H34.7754V134.797Z" fill="white"/>
<path d="M7.41797 145.941C8.5866 144.521 9.74391 143.087 10.8899 141.641L14.3109 137.32L17.7065 132.978C18.8213 131.529 19.9291 130.074 21.0298 128.614C19.864 130.034 18.7067 131.468 17.5579 132.914L14.1369 137.239L10.7414 141.577C9.62365 143.035 8.51586 144.489 7.41797 145.941Z" fill="#DBDBDB"/>
<path d="M7.41797 128.626C8.51869 130.087 9.6279 131.541 10.7456 132.99L14.1411 137.333L17.5621 141.654C18.694 143.092 19.8485 144.521 21.0256 145.941C19.9305 144.481 18.8227 143.026 17.7022 141.577L14.3067 137.239L10.8857 132.914C9.7425 131.487 8.5866 130.058 7.41797 128.626Z" fill="#DBDBDB"/>
<path d="M171.541 151.375H141.002V181.078H171.541V151.375Z" fill="#DBDBDB"/>
<path d="M125.234 181.078H141.002V151.375H125.234V181.078Z" fill="#C7C7C7"/>
<path d="M153.68 158.713H154.325H154.813L155.089 158.147L155.475 158.713L156.006 157.55L156.506 158.713H157.933H158.586L158.82 157.938L159.045 158.713H159.469V151.375H153.68V158.713Z" fill="white"/>
<path d="M126.32 179.309C127.489 177.153 128.646 174.988 129.792 172.815L133.213 166.286L136.609 159.732C137.741 157.541 138.848 155.345 139.932 153.144C138.766 155.3 137.609 157.465 136.46 159.638L133.039 166.163L129.665 172.721C128.544 174.912 127.43 177.108 126.32 179.309Z" fill="#DBDBDB"/>
<path d="M126.32 153.144C127.421 155.345 128.53 157.541 129.648 159.732L133.022 166.286L136.443 172.815C137.589 174.988 138.747 177.153 139.915 179.309C138.82 177.105 137.712 174.909 136.592 172.721L133.196 166.163L129.775 159.638C128.641 157.465 127.489 155.3 126.32 153.144Z" fill="#DBDBDB"/>
<path d="M118.443 4.45801V76.9469H168.129V4.45801H118.443ZM166.295 75.0846H120.277V6.27769H166.295V75.0846Z" fill="#EBEBEB"/>
<path d="M166.29 6.27783H120.271V75.0847H166.29V6.27783Z" fill="white"/>
<path d="M120.277 43.7324L166.295 43.7324V41.8914L120.277 41.8914V43.7324Z" fill="#EBEBEB"/>
<path d="M115.064 82.2056H171.502V76.9213H115.064V82.2056Z" fill="#DBDBDB"/>
<path d="M116.562 84.3193L170.008 85.4443V82.2056H116.562V84.3193Z" fill="#EBEBEB"/>
<path d="M120.277 6.27783H166.295V53.5511H120.277V6.27783ZM164.598 7.98245H121.975V51.8465H164.598V7.98245Z" fill="#DBDBDB"/>
<path d="M151.608 6.27783H150.691V51.8465H151.608V6.27783Z" fill="#DBDBDB"/>
<path d="M135.88 6.27783H134.963V51.8465H135.88V6.27783Z" fill="#DBDBDB"/>
<path d="M9.74219 4.45801V76.9469H59.4274V4.45801H9.74219ZM57.5938 75.0846H11.5758V6.27769H57.5938V75.0846Z" fill="#EBEBEB"/>
<path d="M57.5942 6.27783H11.5762V75.0847H57.5942V6.27783Z" fill="white"/>
<path d="M11.5777 43.7324L57.5957 43.7324V41.8914L11.5777 41.8914V43.7324Z" fill="#EBEBEB"/>
<path d="M6.36465 82.2056H62.8027V76.9213H6.36465V82.2056Z" fill="#DBDBDB"/>
<path d="M7.86133 84.3193L61.3071 85.4443V82.2056H7.86133V84.3193Z" fill="#EBEBEB"/>
<path d="M11.5762 6.27783H57.5942V53.5511H11.5762V6.27783ZM55.8964 7.98245H13.2739V51.8465H55.8964V7.98245Z" fill="#DBDBDB"/>
<path d="M42.909 6.27783H41.9922V51.8465H42.909V6.27783Z" fill="#DBDBDB"/>
<path d="M27.1805 6.27783H26.2637V51.8465H27.1805V6.27783Z" fill="#DBDBDB"/>
<path d="M126.588 145.967H84.2793V181.065H126.588V145.967Z" fill="#4479F0"/>
<path opacity="0.1" d="M126.588 145.967H84.2793V181.065H126.588V145.967Z" fill="black"/>
<path d="M143.353 145.967H126.588V181.065H143.353V145.967Z" fill="#4479F0"/>
<path opacity="0.2" d="M143.353 145.967H126.588V181.065H143.353V145.967Z" fill="black"/>
<path d="M142.194 178.645C140.955 176.15 139.726 173.647 138.506 171.136L134.869 163.584L131.278 156.003C130.089 153.472 128.911 150.932 127.742 148.383C128.987 150.881 130.218 153.384 131.435 155.892L135.068 163.444L138.659 171.025C139.853 173.556 141.031 176.096 142.194 178.645Z" fill="#4479F0"/>
<path d="M142.194 148.383C141.029 150.94 139.85 153.48 138.659 156.003L135.068 163.584L131.435 171.136C130.215 173.644 128.984 176.147 127.742 178.645C128.911 176.088 130.089 173.548 131.278 171.025L134.869 163.444L138.506 155.896C139.726 153.382 140.955 150.878 142.194 148.383Z" fill="#4479F0"/>
<path d="M108.426 153.548H107.755H107.255L106.966 152.964L106.567 153.548L106.019 152.346L105.506 153.548H104.029H103.354L103.108 152.747L102.879 153.548H102.441V145.967H108.426V153.548Z" fill="white"/>
<path d="M129.14 110.869H97.5742V145.962H129.14V110.869Z" fill="#4479F0"/>
<path d="M145.437 110.869H129.139V145.967H145.437V110.869Z" fill="#4479F0"/>
<path opacity="0.1" d="M145.437 110.869H129.139V145.967H145.437V110.869Z" fill="black"/>
<g opacity="0.1">
<path d="M126.825 143.546C124.508 141.049 122.21 138.546 119.932 136.038L113.129 128.469L106.427 120.888C104.203 118.356 102.001 115.816 99.8223 113.268C102.143 115.765 104.44 118.27 106.715 120.781L113.506 128.328L120.208 135.91C122.441 138.452 124.646 140.998 126.825 143.546Z" fill="black"/>
<path d="M126.826 113.285C124.645 115.842 122.443 118.382 120.222 120.905L113.52 128.469L106.729 136.02C104.465 138.529 102.168 141.032 99.8359 143.529C102.018 140.972 104.219 138.433 106.44 135.91L113.129 128.345L119.921 120.798C122.204 118.284 124.506 115.78 126.826 113.285Z" fill="black"/>
</g>
<path d="M143.14 140.026H140.283V144.075H143.14V140.026Z" fill="white"/>
<path d="M0.419922 181.077L22.5503 180.975L44.6765 180.937L88.9374 180.864L133.194 180.937L155.324 180.971L177.455 181.077L155.324 181.18L133.194 181.218L88.9374 181.29L44.6765 181.218L22.5503 181.18L0.419922 181.077Z" fill="#263238"/>
<path d="M105.162 59.6108C105.404 59.76 105.646 59.9092 105.884 60.0668" stroke="#263238" stroke-width="0.65407" stroke-miterlimit="10"/>
<path d="M107.298 61.0513C114.976 66.7532 120.952 77.1215 114.263 87.2555C110.32 93.2217 103.652 90.7627 101.334 88.6277C98.7877 86.2626 101.131 83.8463 103.673 85.4614C108.079 88.2655 108.698 94.7516 103.817 99.5245C100.638 102.652 96.5 102.844 94.2207 102.661" stroke="#263238" stroke-width="0.65407" stroke-miterlimit="10" stroke-dasharray="3.54 3.54"/>
<path d="M93.3665 102.589C92.8402 102.516 92.5176 102.439 92.5176 102.439" stroke="#263238" stroke-width="0.65407" stroke-miterlimit="10"/>
<path d="M89.063 102.111C88.8635 103.816 92.3312 104.771 92.5943 102.538C92.8575 100.304 89.2625 100.394 89.063 102.111Z" fill="#263238"/>
<path d="M93.604 104.932C93.2814 105.576 92.1397 105.665 90.9597 104.839C90.1584 104.224 89.4813 103.462 88.9648 102.593C89.9627 102.488 90.9712 102.577 91.9359 102.853C93.3324 103.326 93.9435 104.28 93.604 104.932Z" fill="#EBEBEB"/>
<path d="M88.9766 102.593C89.6472 102.895 90.3051 103.223 90.9629 103.547C91.6208 103.871 92.2702 104.216 92.9111 104.574C92.2405 104.272 91.5826 103.944 90.9248 103.62C90.2669 103.296 89.6175 102.951 88.9766 102.593Z" fill="#263238"/>
<path d="M92.0596 104.92C91.9072 104.742 91.7655 104.556 91.6351 104.362C91.507 104.169 91.3907 103.968 91.2871 103.761C91.4395 103.938 91.5812 104.125 91.7116 104.319C91.8407 104.511 91.9569 104.712 92.0596 104.92Z" fill="#263238"/>
<path d="M90.6328 103.424C90.8663 103.363 91.103 103.314 91.3416 103.279C91.5823 103.245 91.8245 103.223 92.0674 103.215C91.5974 103.332 91.1168 103.402 90.6328 103.424Z" fill="#263238"/>
<path d="M90.2646 103.705C90.1186 103.523 90.0142 103.31 89.959 103.083C90.105 103.265 90.2093 103.478 90.2646 103.705Z" fill="#263238"/>
<path d="M94.1641 100.47C93.9986 99.7671 92.912 99.4177 91.575 99.9461C90.6524 100.359 89.8168 100.944 89.1133 101.672C90.0673 102.004 91.076 102.148 92.0844 102.098C93.5148 101.979 94.3339 101.195 94.1641 100.47Z" fill="#EBEBEB"/>
<path d="M89.1133 101.672C89.8348 101.536 90.5521 101.365 91.2652 101.199C91.9783 101.033 92.6913 100.854 93.3874 100.654C92.6701 100.79 91.9528 100.961 91.2397 101.127C90.5267 101.293 89.8221 101.472 89.1133 101.672Z" fill="#263238"/>
<path d="M92.6488 100.121C92.4641 100.253 92.287 100.395 92.1183 100.547C91.9499 100.706 91.7898 100.874 91.6387 101.05C91.8253 100.921 92.0025 100.778 92.1692 100.624C92.3387 100.466 92.4989 100.298 92.6488 100.121Z" fill="#263238"/>
<path d="M90.9082 101.246C91.3382 101.471 91.7906 101.649 92.2579 101.779C91.8288 101.552 91.3762 101.374 90.9082 101.246Z" fill="#263238"/>
<path d="M90.6328 100.888C90.5404 100.958 90.4563 101.038 90.3824 101.127C90.3091 101.218 90.2451 101.317 90.1914 101.421C90.284 101.35 90.368 101.268 90.4418 101.178C90.5189 101.091 90.5832 100.993 90.6328 100.888Z" fill="#263238"/>
<path d="M89.0624 102.111C89.184 102.125 89.2987 102.175 89.392 102.255C89.4853 102.335 89.553 102.44 89.5866 102.558C89.6203 102.676 89.6183 102.802 89.5809 102.919C89.5436 103.036 89.4726 103.139 89.3768 103.216C89.281 103.292 89.1649 103.339 89.0429 103.349C88.9209 103.359 88.7986 103.333 88.6914 103.274C88.5843 103.215 88.497 103.125 88.4407 103.016C88.3843 102.906 88.3614 102.783 88.3748 102.661C88.394 102.497 88.4771 102.347 88.6059 102.244C88.7347 102.141 88.8988 102.093 89.0624 102.111Z" fill="#455A64"/>
<path d="M89.2056 100.871C89.2867 100.881 89.3652 100.906 89.4365 100.946C89.5078 100.986 89.5705 101.04 89.6212 101.104C89.6718 101.169 89.7094 101.242 89.7317 101.321C89.7539 101.4 89.7605 101.482 89.7511 101.564C89.7416 101.645 89.7162 101.724 89.6764 101.796C89.6366 101.867 89.5832 101.93 89.5191 101.981C89.4551 102.032 89.3817 102.07 89.3032 102.092C89.2246 102.114 89.1424 102.121 89.0613 102.112C88.8975 102.092 88.7481 102.009 88.6458 101.879C88.5435 101.749 88.4968 101.583 88.5159 101.419C88.5351 101.255 88.6185 101.104 88.7478 101.002C88.8772 100.899 89.0419 100.852 89.2056 100.871Z" fill="#455A64"/>
<path d="M50.7339 142.238C50.7339 142.238 41.6848 160.431 41.6806 160.431C40.9336 164.185 40.3478 167.496 40.1993 169.235C40.1971 169.245 40.1971 169.255 40.1993 169.265C40.1209 169.668 40.1369 170.084 40.246 170.48C40.2438 170.489 40.2438 170.5 40.246 170.509C41.2095 171.49 70.9459 178.363 72.0791 178.253C73.2124 178.142 72.9705 174.933 72.0282 173.744C71.086 172.555 60.8696 164.795 60.8696 164.795L69.715 146.572L50.7339 142.238Z" fill="#D3766A"/>
<path d="M71.6308 178.27C70.5146 178.381 41.2238 171.502 40.2646 170.526C40.2632 170.517 40.2632 170.507 40.2646 170.497C40.1535 170.101 40.136 169.685 40.2136 169.282C40.21 169.272 40.21 169.262 40.2136 169.252C40.3579 167.514 40.9479 164.202 41.6907 160.444L43.8553 156.088L62.6199 161.253L60.8882 164.825C60.8882 164.825 70.6504 172.568 71.5969 173.774C72.5434 174.98 72.7514 178.163 71.6308 178.27Z" fill="#EBEBEB"/>
<path d="M72.0384 177.792C70.9052 177.877 41.0966 170.249 40.1458 169.235C39.7808 168.856 40.6339 164.428 41.8181 159.11L41.8563 158.943L61.143 163.652L61.0539 163.976C61.0539 163.976 71.1598 172.022 72.0894 173.249C73.0189 174.477 73.1674 177.711 72.0384 177.792Z" fill="#263238"/>
<path d="M71.9907 176.544C66.9992 175.138 46.7279 169.921 41.6855 168.907C41.643 168.907 41.6345 168.929 41.6855 168.941C46.6048 170.446 66.9186 175.496 71.9822 176.612C72.0798 176.65 72.0968 176.574 71.9907 176.544Z" fill="white"/>
<path d="M62.6532 164.45C60.7687 163.572 58.273 163.256 56.4054 164.288C56.3333 164.326 56.4054 164.428 56.4564 164.424C58.5018 164.295 60.5551 164.387 62.5811 164.697C62.6108 164.698 62.6403 164.69 62.6647 164.673C62.6891 164.656 62.7069 164.631 62.7153 164.602C62.7237 164.573 62.7221 164.543 62.7108 164.515C62.6995 164.487 62.6792 164.464 62.6532 164.45Z" fill="white"/>
<path d="M63.8582 165.677C61.9779 164.803 59.4822 164.488 57.6104 165.515C57.5383 165.553 57.6104 165.656 57.6656 165.656C59.711 165.525 61.7645 165.616 63.7903 165.928C63.8212 165.931 63.8522 165.923 63.8778 165.905C63.9034 165.888 63.9219 165.861 63.93 165.831C63.9382 165.801 63.9354 165.769 63.9223 165.741C63.9091 165.713 63.8864 165.69 63.8582 165.677Z" fill="white"/>
<path d="M65.0672 166.908C63.1827 166.03 60.6869 165.715 58.8194 166.742C58.7472 166.785 58.8194 166.887 58.8746 166.883C60.9186 166.754 62.9704 166.845 64.995 167.155C65.0248 167.157 65.0542 167.149 65.0786 167.132C65.103 167.114 65.1208 167.089 65.1292 167.061C65.1376 167.032 65.136 167.001 65.1248 166.974C65.1135 166.946 65.0932 166.923 65.0672 166.908Z" fill="white"/>
<path d="M72.7635 176.838C73.2431 177.179 72.6702 178.947 72.25 178.994C71.8298 179.041 39.3642 170.578 38.8506 170.309C38.337 170.041 39.0416 168.106 39.6995 168.178C40.3574 168.251 72.7635 176.838 72.7635 176.838Z" fill="#4479F0"/>
<path d="M45.926 163.554C44.0414 161.918 41.5033 164.858 43.3793 166.499C45.2553 168.14 47.8147 165.195 45.926 163.554Z" fill="white"/>
<path d="M43.9102 154.635L65.6586 160.141C65.6586 160.141 85.9299 123.411 85.4758 114.074C84.8519 101.195 69.7926 61.5972 69.7926 61.5972H51.7623C51.7623 61.5972 63.7274 104.404 63.8929 111.606C63.9651 115.374 43.9102 154.635 43.9102 154.635Z" fill="#455A64"/>
<path d="M66.5872 155.709C65.4285 155.245 55.0763 152.244 47.3515 150.595C47.343 150.598 47.3356 150.603 47.3303 150.611C47.3251 150.618 47.3223 150.627 47.3223 150.636C47.3223 150.645 47.3251 150.653 47.3303 150.661C47.3356 150.668 47.343 150.673 47.3515 150.676C49.7835 151.528 65.1313 155.59 66.5702 155.79C66.6042 155.803 66.6381 155.743 66.5872 155.709Z" fill="#263238"/>
<path d="M65.386 102.41C63.9514 96.3671 62.4149 90.3413 60.802 84.3538C59.1891 78.3663 57.4617 72.3235 55.5644 66.3829C55.3352 65.6542 55.0933 64.934 54.8598 64.2095C54.8531 64.1863 54.8374 64.1668 54.8163 64.1552C54.7952 64.1436 54.7704 64.1409 54.7473 64.1477C54.7243 64.1545 54.7048 64.1702 54.6933 64.1914C54.6817 64.2126 54.679 64.2375 54.6858 64.2606C56.3836 70.1799 58.0813 76.0864 59.69 82.027C61.2986 87.9676 62.8308 93.9252 64.274 99.9255C64.6347 101.409 64.987 102.887 65.3308 104.375C65.7304 105.899 66.0394 107.446 66.2561 109.007C66.4345 110.499 66.3323 112.011 65.9547 113.464C65.5452 114.893 65.0097 116.282 64.3546 117.615C61.7542 123.283 59.1552 128.952 56.5576 134.623C53.96 140.308 53.5398 141.603 51.0398 147.335C50.73 148.047 50.4202 148.759 50.123 149.466C50.123 149.513 50.1697 149.555 50.1952 149.504C53.039 143.888 53.4761 142.537 56.1374 136.818C58.7986 131.099 61.4429 125.312 64.083 119.554C65.2714 116.955 66.6678 114.304 66.8461 111.398C67.0243 108.363 66.0736 105.321 65.386 102.41Z" fill="#263238"/>
<path d="M66.3711 149.432L67.0672 169.461C67.1818 173.296 67.3473 176.65 67.5977 178.376C67.5957 178.386 67.5957 178.396 67.5977 178.406C67.612 178.815 67.7194 179.216 67.9118 179.578L67.9373 179.603C69.096 180.341 99.6092 180.324 100.675 179.961C101.74 179.599 100.798 176.531 99.6134 175.58C98.4292 174.63 86.7401 169.393 86.7401 169.393L85.853 149.385L66.3711 149.432Z" fill="#D3766A"/>
<path d="M66.9238 165.361C66.9238 165.361 67.0681 169.461 67.0681 169.474C67.1827 173.309 67.3483 176.663 67.5987 178.389C67.5966 178.399 67.5966 178.409 67.5987 178.419C67.6567 178.82 67.7621 179.214 67.9128 179.591L67.9382 179.616C69.097 180.353 99.6101 180.336 100.675 179.974C101.741 179.612 100.799 176.544 99.6144 175.593C98.4302 174.643 86.741 169.405 86.741 169.405L86.6519 165.233L66.9238 165.361Z" fill="#EBEBEB"/>
<path d="M100.692 179.94C99.6136 180.285 68.8585 179.808 67.6955 179.041C67.271 178.755 67.0588 174.255 66.9824 168.813V168.643L86.8293 168.728V169.069C86.8293 169.069 98.5227 174.536 99.7069 175.512C100.891 176.488 101.774 179.608 100.692 179.94Z" fill="#263238"/>
<path d="M100.365 178.755C95.1828 178.546 74.2578 178.197 69.1178 178.389C69.0753 178.389 69.0753 178.418 69.1178 178.418C74.2493 178.738 95.1785 178.921 100.365 178.845C100.471 178.819 100.476 178.755 100.365 178.755Z" fill="white"/>
<path d="M88.4858 169.145C86.4528 168.719 83.9485 169.005 82.3696 170.424C82.3059 170.479 82.3696 170.564 82.4545 170.547C84.4141 169.947 86.4316 169.557 88.4731 169.384C88.4977 169.376 88.5193 169.361 88.5351 169.34C88.5508 169.32 88.56 169.295 88.5614 169.269C88.5628 169.243 88.5563 169.217 88.5428 169.195C88.5293 169.173 88.5094 169.156 88.4858 169.145Z" fill="white"/>
<path d="M89.9449 170.058C87.9076 169.631 85.4076 169.921 83.8287 171.357C83.765 171.413 83.8287 171.498 83.9093 171.477C85.87 170.876 87.8891 170.487 89.9322 170.318C89.9629 170.314 89.9913 170.299 90.0124 170.276C90.0334 170.254 90.0458 170.224 90.0473 170.193C90.0489 170.162 90.0394 170.131 90.0207 170.107C90.0019 170.082 89.9751 170.064 89.9449 170.058Z" fill="white"/>
<path d="M91.4019 170.974C89.3689 170.548 86.8689 170.833 85.2857 172.252C85.2263 172.308 85.2857 172.393 85.3706 172.376C87.3303 171.776 89.3477 171.386 91.3892 171.212C91.4138 171.205 91.4354 171.189 91.4512 171.169C91.467 171.148 91.4761 171.123 91.4775 171.098C91.4789 171.072 91.4724 171.046 91.4589 171.024C91.4454 171.002 91.4256 170.984 91.4019 170.974Z" fill="white"/>
<path d="M101.179 178.841C101.727 179.062 101.578 180.916 101.179 181.057C100.78 181.197 67.2239 180.528 66.6764 180.392C66.1289 180.255 66.3496 178.206 67.0159 178.108C67.6823 178.01 101.179 178.841 101.179 178.841Z" fill="#4479F0"/>
<path d="M72.0076 172.171C69.7963 171.016 68.0052 174.468 70.2207 175.623C72.4363 176.778 74.2232 173.326 72.0076 172.171Z" fill="white"/>
<path d="M69.5683 61.5629C69.4876 61.9337 64.9928 79.7768 64.4325 80.1092C63.7959 80.4885 80.7651 103.411 82.7769 114.666C84.0503 121.864 87.0214 163.819 87.0214 163.819H65.3833C65.3833 163.819 63.2611 128.188 62.5565 116.447C62.2806 111.892 45.2605 90.8312 43.6434 76.7894C43.134 72.366 46.3004 61.5459 46.3004 61.5459L69.5683 61.5629Z" fill="#455A64"/>
<path d="M64.8349 146.866C64.5802 140.964 64.3467 135.049 63.9181 129.156C63.6761 125.814 63.2007 122.58 62.8697 119.252C62.8697 119.077 62.7126 119.034 62.7169 119.213C62.8697 125.141 63.3578 131.005 63.6719 136.929C63.986 142.852 64.2873 144.233 64.6226 150.139C64.8094 153.48 64.9749 156.821 65.2338 160.158C65.2366 160.167 65.242 160.174 65.2493 160.179C65.2565 160.185 65.2652 160.188 65.2742 160.188C65.2831 160.188 65.2918 160.185 65.299 160.179C65.3063 160.174 65.3117 160.167 65.3145 160.158C65.3272 154.226 65.0938 152.79 64.8349 146.866Z" fill="#263238"/>
<path d="M82.7971 114.947C82.612 113.389 82.3112 111.846 81.8972 110.332C81.4515 108.865 80.8644 107.445 80.1443 106.092C78.6715 103.254 76.9949 100.509 75.3778 97.7521C73.7607 94.9948 72.0757 92.178 70.3694 89.425C69.4102 87.8795 68.4467 86.3354 67.4789 84.7927C66.4942 83.2372 65.4544 81.7116 64.4399 80.1774C64.4321 80.1644 64.4194 80.1551 64.4046 80.1515C64.3899 80.1479 64.3744 80.1504 64.3614 80.1583C64.3485 80.1662 64.3392 80.1789 64.3356 80.1937C64.332 80.2085 64.3344 80.2241 64.3423 80.2371C65.9976 83.0242 67.636 85.8155 69.2913 88.6025C70.9466 91.3896 72.5765 94.1851 74.2064 96.9807C75.8362 99.7763 77.4194 102.487 78.9559 105.282C79.7124 106.61 80.3638 107.995 80.9041 109.424C81.4065 110.906 81.7717 112.431 81.9949 113.98C82.5721 117.59 83.0432 121.225 83.7648 124.8C83.7676 124.809 83.773 124.816 83.7802 124.821C83.7875 124.827 83.7962 124.829 83.8051 124.829C83.8141 124.829 83.8228 124.827 83.83 124.821C83.8372 124.816 83.8426 124.809 83.8454 124.8C83.6205 121.51 83.23 118.216 82.7971 114.947Z" fill="#263238"/>
<path d="M85.114 160.094C83.8789 159.932 74.4521 159.604 66.5659 159.945C66.515 159.945 66.5192 160.021 66.5659 160.026C69.1338 160.251 83.654 160.354 85.1013 160.183C85.1395 160.179 85.1565 160.102 85.114 160.094Z" fill="#263238"/>
<path d="M67.2548 78.8906C65.0502 79.697 62.9199 80.6952 60.8882 81.8737C60.8707 81.8816 60.8571 81.8961 60.8504 81.9141C60.8436 81.9321 60.8442 81.952 60.8521 81.9695C60.86 81.9871 60.8745 82.0007 60.8924 82.0075C60.9103 82.0143 60.9301 82.0137 60.9476 82.0058C63.0953 81.0767 65.2896 80.1903 67.3864 79.1463C67.4202 79.1287 67.4456 79.0985 67.4572 79.0621C67.4687 79.0257 67.4654 78.9863 67.4479 78.9524C67.4305 78.9185 67.4003 78.8929 67.3641 78.8813C67.3279 78.8697 67.2886 78.8731 67.2548 78.8906Z" fill="#263238"/>
<path d="M67.9027 64.12C67.9027 64.0475 67.7669 64.0305 67.7669 64.12C67.7673 66.528 67.6469 68.9346 67.4061 71.3305C67.3042 72.4428 66.4129 78.5751 64.4944 78.149C64.1718 78.0723 64.0106 77.7569 63.9596 77.2668C63.965 76.6307 64.0505 75.9978 64.2143 75.3832C64.4265 74.1048 64.5963 72.8263 64.7066 71.5095C64.9317 69.09 64.9061 66.6535 64.6303 64.2393C64.6267 64.2257 64.6187 64.2136 64.6075 64.205C64.5964 64.1964 64.5828 64.1917 64.5687 64.1917C64.5547 64.1917 64.541 64.1964 64.5299 64.205C64.5187 64.2136 64.5108 64.2257 64.5072 64.2393C64.5627 67.5932 64.367 70.9466 63.9214 74.271C63.6795 75.8691 62.8773 78.2768 64.5454 78.5325C66.2134 78.7882 67.3382 74.7525 67.5419 73.6488C68.0729 70.5016 68.1941 67.2985 67.9027 64.12Z" fill="#263238"/>
<path d="M64.5463 78.2807C64.3762 78.6968 64.2344 79.1239 64.1218 79.5592C63.9997 79.8935 63.9393 80.2473 63.9436 80.6033C63.9456 80.6178 63.9521 80.6314 63.962 80.6422C63.9719 80.653 63.9849 80.6605 63.9991 80.6638C64.0134 80.667 64.0283 80.6658 64.0419 80.6603C64.0555 80.6549 64.0671 80.6454 64.0752 80.6331C64.2757 80.319 64.426 79.9754 64.5208 79.6146C64.6694 79.2183 64.8222 78.8305 64.9453 78.4299C64.965 78.3768 64.9628 78.318 64.9394 78.2664C64.9159 78.2149 64.873 78.1748 64.82 78.155C64.7671 78.1353 64.7086 78.1374 64.6572 78.161C64.6059 78.1845 64.566 78.2276 64.5463 78.2807Z" fill="#263238"/>
<path d="M65.4507 122.175C65.247 119.141 65.2597 115.94 63.9736 113.128C63.2906 111.757 62.5045 110.441 61.6222 109.19C60.745 107.843 59.8792 106.489 59.0246 105.129C55.6291 99.6866 52.3524 94.1338 49.3686 88.4447C47.9297 85.7045 46.6055 82.8748 45.8839 79.8491C45.1803 76.6652 45.0466 73.3809 45.4892 70.1499C45.591 69.3444 45.7014 68.5433 45.833 67.7421C45.8334 67.7312 45.8301 67.7206 45.8235 67.7119C45.817 67.7033 45.8077 67.6972 45.7971 67.6946C45.7866 67.6921 45.7755 67.6933 45.7658 67.6981C45.7561 67.7029 45.7483 67.7109 45.7438 67.7208C45.0455 70.7933 44.8066 73.9531 45.035 77.0962C45.3616 80.1013 46.2046 83.0268 47.5265 85.7429C48.8423 88.6024 50.4085 91.3553 51.9534 94.0955C53.5465 96.9365 55.1863 99.7363 56.8727 102.495C58.5705 105.248 60.3192 107.946 62.0721 110.656C62.9663 111.934 63.6631 113.341 64.1392 114.828C64.5251 116.38 64.747 117.968 64.8013 119.567C65.2257 126.274 66.9235 148.575 67.5262 155.249C67.5984 156.101 67.6748 156.953 67.7554 157.806C67.753 157.814 67.7526 157.824 67.7544 157.833C67.7561 157.842 67.7599 157.85 67.7655 157.858C67.771 157.865 67.7782 157.871 67.7864 157.875C67.7946 157.879 67.8036 157.881 67.8127 157.881C67.8219 157.881 67.8309 157.879 67.8391 157.875C67.8473 157.871 67.8544 157.865 67.86 157.858C67.8655 157.85 67.8693 157.842 67.8711 157.833C67.8728 157.824 67.8724 157.814 67.87 157.806C67.6154 151.106 65.8879 128.861 65.4507 122.175Z" fill="#263238"/>
<path d="M55.0637 67.4437C55.0637 67.3968 54.9873 67.4138 54.9873 67.4437C54.9236 69.306 54.9873 71.2322 54.2615 72.9837C53.6079 74.5988 52.2921 75.7324 50.8193 76.5804C49.9628 77.063 49.0799 77.4969 48.175 77.8802C48.1113 77.91 48.1368 78.0123 48.209 77.991C49.9067 77.4455 51.6597 76.8531 53.0816 75.7111C54.6011 74.4837 55.2674 72.7067 55.3396 70.789C55.3656 69.6672 55.2731 68.5458 55.0637 67.4437Z" fill="#263238"/>
<path d="M64.483 37.0891C66.9108 44.5724 73.4684 57.3186 75.8113 58.8571C77.8869 60.2165 87.6533 58.6994 91.9401 57.6638C93.536 57.276 89.9453 45.0624 88.2432 45.5099C86.2017 46.0469 80.1194 47.4233 79.678 47.0824C79.2366 46.7415 73.1034 39.1559 68.7571 34.6898C64.8013 30.6456 63.5662 34.2594 64.483 37.0891Z" fill="#D3766A"/>
<path d="M91.0027 57.7576C91.8219 57.6553 98.753 57.3315 101.932 55.597C103.63 54.6723 107.963 51.6125 107.531 50.513C107.136 49.5115 105.744 50.057 105.744 50.057C105.744 50.057 107.658 48.6635 107.098 47.2742C106.537 45.885 104.224 46.929 104.224 46.929C104.224 46.929 106.087 45.3523 105.43 44.0099C104.772 42.6675 102.624 44.1036 102.624 44.1036C102.624 44.1036 104.394 42.7442 103.388 41.8663C102.174 40.8095 99.1902 43.6903 97.1741 44.3636C96.7157 44.517 87.6836 46.8097 87.6836 46.8097L91.0027 57.7576Z" fill="#D3766A"/>
<path d="M102.547 44.0651C100.348 46.1745 99.0199 46.7157 96.0828 47.3124C96.0276 47.3124 96.0318 47.4146 96.0828 47.4061C99.0114 47.0865 100.773 46.6476 102.645 44.1673C102.747 44.0437 102.649 43.9628 102.547 44.0651Z" fill="#263238"/>
<path d="M104.151 46.8774C101.677 48.8718 100.242 49.4684 97.2118 50.3207C97.1694 50.3207 97.1863 50.4102 97.233 50.4017C100.272 49.8136 102.021 49.3363 104.232 47.018C104.334 46.9158 104.266 46.7879 104.151 46.8774Z" fill="#263238"/>
<path d="M105.594 50.0909C103.047 51.8466 101.515 52.5753 98.4673 53.0228C98.4527 53.0228 98.4386 53.0286 98.4283 53.039C98.4179 53.0494 98.4121 53.0635 98.4121 53.0782C98.4121 53.0929 98.4179 53.107 98.4283 53.1174C98.4386 53.1278 98.4527 53.1336 98.4673 53.1336C101.621 52.9802 103.561 52.0895 105.628 50.1761C105.78 50.0568 105.751 49.9843 105.594 50.0909Z" fill="#263238"/>
<path d="M85.3145 47.2018C85.3145 47.2018 87.8399 44.3338 89.2236 43.3196C90.6072 42.3053 97.1606 40.4302 97.6445 41.828C98.2684 43.6349 94.6989 45.4631 92.8356 46.1279C92.8356 46.1279 94.2829 50.3042 91.9867 52.1708C89.6905 54.0373 85.3145 47.2018 85.3145 47.2018Z" fill="#D3766A"/>
<path d="M97.6566 42.3857C97.0412 44.4441 94.5369 45.16 92.7755 45.9399C92.7495 45.9512 92.7264 45.9684 92.7081 45.9902C92.6899 46.012 92.6769 46.0378 92.6703 46.0656C92.6637 46.0933 92.6637 46.1221 92.6701 46.1499C92.6766 46.1776 92.6894 46.2035 92.7076 46.2254C93.2 48.0152 93.3697 50.683 92.1219 52.1916C92.0879 52.2342 92.1431 52.2938 92.1855 52.2555C93.7432 50.8236 93.7857 48.1857 93.1236 46.2595C94.9444 45.4881 97.4232 44.6571 97.6736 42.3943C97.6778 42.3857 97.6608 42.3857 97.6566 42.3857Z" fill="#263238"/>
<path d="M90.9969 59.8583L87.7966 45.2242L79.8766 46.6688C76.7527 43.0763 70.5091 35.8956 67.9922 33.7393C65.0211 31.2079 63.0771 33.1086 64.1722 36.944C66.6467 45.71 73.8834 58.5798 75.7764 59.7944C78.5226 61.5629 90.9969 59.8583 90.9969 59.8583Z" fill="#4479F0"/>
<path opacity="0.1" d="M79.6898 51.1219C80.0819 51.2074 80.4813 51.2545 80.8825 51.2625C81.7313 51.3776 82.1049 52.6347 81.3324 53.112C80.9267 53.3629 80.4681 53.5148 79.9934 53.5555C79.5187 53.5962 79.0411 53.5246 78.599 53.3464C77.7501 53.014 77.0328 52.1872 77.2153 51.2156C77.2469 51.0345 77.3246 50.8646 77.441 50.7226C77.5573 50.5806 77.7083 50.4712 77.8792 50.4052C78.0501 50.3391 78.2352 50.3186 78.4164 50.3456C78.5975 50.3726 78.7686 50.4462 78.913 50.5593C79.1483 50.7778 79.4091 50.9667 79.6898 51.1219ZM77.4997 47.6402C77.1941 49.0891 79.4266 50.3335 80.5684 49.5621C80.6604 49.4921 80.7355 49.4022 80.7882 49.2991C80.8409 49.1959 80.8697 49.0822 80.8726 48.9663C80.8754 48.8504 80.8522 48.7354 80.8047 48.6297C80.7572 48.5241 80.6866 48.4306 80.5981 48.3561C80.2628 48.0834 79.9826 48.0408 79.6855 47.7936C79.5817 47.7122 79.4902 47.616 79.4139 47.5081C79.2455 47.2751 79.03 47.0805 78.7815 46.937C78.6522 46.8815 78.512 46.8563 78.3715 46.8631C78.2311 46.8698 78.094 46.9085 77.9706 46.9762C77.8472 47.0439 77.7407 47.1389 77.6591 47.2539C77.5775 47.3689 77.523 47.501 77.4997 47.6402ZM73.9386 47.7169C73.4802 48.3178 73.824 49.2212 74.2272 49.7667C74.4087 50.0384 74.6587 50.2568 74.9518 50.3998C75.2448 50.5428 75.5704 50.6052 75.8953 50.5806C76.0137 50.5639 76.1247 50.5132 76.215 50.4345C76.3053 50.3558 76.371 50.2526 76.4042 50.1373C76.4374 50.022 76.4367 49.8995 76.4021 49.7846C76.3675 49.6697 76.3006 49.5673 76.2093 49.4897C75.9541 49.2948 75.7501 49.0402 75.6151 48.7482C75.4156 48.2965 75.2841 47.7126 74.7662 47.5166C74.6249 47.4582 74.4687 47.4461 74.3201 47.4821C74.1715 47.5181 74.0379 47.6002 73.9386 47.7169ZM83.34 57.1946C82.7415 58.4091 84.5624 59.7898 85.6659 59.5512C86.0352 59.4702 86.3917 58.9844 86.0649 58.635C85.8017 58.3537 85.4877 58.1321 85.2415 57.8338C84.9401 57.4716 84.7746 57.0071 84.3035 56.8238C84.1262 56.7493 83.9272 56.7463 83.7477 56.8153C83.5683 56.8844 83.4223 57.0202 83.34 57.1946ZM66.2434 42.3005C66.139 42.1009 65.9945 41.9253 65.819 41.7848C66.0567 42.3956 66.3071 43.0079 66.5703 43.6215C66.5844 43.1594 66.4713 42.7023 66.2434 42.3005ZM68.6076 41.022C68.5245 39.9693 68.1148 38.9692 67.4361 38.1625C66.9268 37.502 66.044 36.4579 65.1102 36.6837C65.0109 36.7149 64.9243 36.7773 64.8631 36.8617C64.802 36.9462 64.7695 37.0481 64.7706 37.1525C64.7112 37.8727 65.5346 38.6441 65.8912 39.2194C66.3156 39.9438 66.6509 40.745 67.1093 41.4652C67.2051 41.6133 67.3461 41.7262 67.5111 41.7872C67.6762 41.8482 67.8564 41.854 68.025 41.8037C68.1936 41.7533 68.3414 41.6496 68.4464 41.5079C68.5514 41.3663 68.6079 41.1943 68.6076 41.0177V41.022ZM68.3317 45.6032C68.4976 45.5946 68.6563 45.5328 68.7846 45.427C68.913 45.3211 69.0041 45.1768 69.0448 45.0151C69.1107 44.6842 69.0888 44.3418 68.9811 44.0221C68.9176 43.7177 68.7706 43.4373 68.5567 43.2124C68.48 43.1413 68.3863 43.0913 68.2847 43.0674C68.1831 43.0435 68.077 43.0465 67.9769 43.0762C67.8767 43.1058 67.786 43.1611 67.7135 43.2365C67.6411 43.3119 67.5894 43.405 67.5635 43.5065C67.5295 43.7553 67.5295 44.0077 67.5635 44.2565C67.5635 44.363 67.5635 44.4696 67.5635 44.5804C67.5613 44.741 67.5784 44.9012 67.6144 45.0577C67.6601 45.2134 67.7545 45.3501 67.8837 45.4476C68.013 45.5451 68.1701 45.5982 68.3317 45.5989V45.6032Z" fill="#030402"/>
<path d="M88.225 58.5799C87.8599 57.7276 86.9516 53.9434 86.7521 53.0016C86.5527 52.0598 85.8141 48.25 85.5977 47.2826C85.5977 47.2272 85.6571 47.1974 85.6698 47.2485C85.899 48.2031 86.9219 51.9618 87.1469 52.8993C87.3718 53.8368 88.2165 57.6168 88.2759 58.5672C88.2767 58.5705 88.2769 58.574 88.2764 58.5774C88.2759 58.5809 88.2747 58.5841 88.2729 58.5871C88.2694 58.5931 88.2635 58.5974 88.2568 58.5991C88.25 58.6008 88.2429 58.5998 88.2369 58.5962C88.2309 58.5926 88.2266 58.5867 88.225 58.5799Z" fill="#263238"/>
<path opacity="0.1" d="M80.8705 60.5913C78.6422 60.5913 76.6855 60.3783 75.7772 59.7944C73.8715 58.5586 66.6347 45.7313 64.1433 36.9483C63.5151 34.7493 63.8928 33.1811 64.886 32.7251L80.8705 60.5913Z" fill="black"/>
<path d="M44.9555 63.5702C45.0107 63.6512 71.4959 67.0604 71.7802 66.8133C71.93 66.073 72.0363 65.3245 72.0986 64.5717C72.0986 64.5717 69.6708 35.6188 68.4144 33.9184C67.3151 32.4354 63.979 31.3615 61.7082 32.3289C56.9417 34.3574 45.5285 60.2249 45.6516 61.3074C45.6431 61.2946 44.8876 63.468 44.9555 63.5702Z" fill="#4479F0"/>
<path opacity="0.1" d="M54.5039 60.0462C54.9123 60.2453 55.3387 60.4051 55.7772 60.5235C56.66 60.8772 56.7407 62.3559 55.7772 62.6542C55.265 62.8174 54.7219 62.858 54.1913 62.7729C53.6607 62.6879 53.1573 62.4794 52.7212 62.1642C51.8723 61.5675 51.3248 60.4595 51.7832 59.4709C51.8673 59.2827 51.9982 59.1195 52.1634 58.9969C52.3285 58.8742 52.5223 58.7963 52.7261 58.7707C52.9298 58.745 53.1368 58.7724 53.327 58.8502C53.5172 58.9281 53.6842 59.0538 53.812 59.2152C54.0497 59.4922 54.194 59.8587 54.5039 60.0462ZM53.0523 55.644C52.3265 57.1483 54.4275 59.1129 55.8833 58.5802C56.0053 58.5312 56.1142 58.4545 56.2017 58.3561C56.2891 58.2577 56.3526 58.1403 56.3871 58.0131C56.4217 57.8858 56.4264 57.7523 56.4008 57.623C56.3753 57.4936 56.3202 57.372 56.2398 57.2676C55.9512 56.8798 55.6541 56.7563 55.391 56.4153C55.3001 56.2975 55.2272 56.1668 55.1745 56.0275C55.049 55.73 54.8658 55.4605 54.6355 55.2349C54.1304 54.7448 53.3197 55.09 53.0523 55.644ZM50.599 54.0417C49.8053 54.34 49.6016 55.4139 49.661 56.1724C49.6732 56.5409 49.7826 56.8996 49.9779 57.2118C50.1733 57.524 50.4477 57.7785 50.773 57.9495C50.8958 58.0046 51.0319 58.0227 51.1647 58.0018C51.2976 57.9809 51.4216 57.9218 51.5217 57.8317C51.6218 57.7415 51.6938 57.6242 51.7289 57.4938C51.764 57.3635 51.7608 57.2257 51.7195 57.0972C51.5848 56.7564 51.538 56.387 51.5837 56.0233C51.6559 55.4778 51.8723 54.8386 51.5116 54.3485C51.4111 54.2072 51.2688 54.1014 51.1049 54.0463C50.941 53.9912 50.7639 53.9896 50.599 54.0417ZM59.3001 59.1129C59.0991 59.0956 58.8993 59.1562 58.7414 59.2822C58.5836 59.4082 58.4797 59.59 58.4512 59.7905C58.4295 60.0058 58.4833 60.222 58.6034 60.4017C58.7235 60.5815 58.9024 60.7134 59.1091 60.7749C59.3985 60.8708 59.711 60.8708 60.0004 60.7749C60.1485 60.7161 60.2706 60.6056 60.3442 60.4638C60.4294 60.3266 60.464 60.1637 60.4418 60.0035C60.4183 59.8541 60.3501 59.7154 60.2463 59.6058C60.1424 59.4962 60.0078 59.4209 59.8603 59.3899C59.8336 59.3545 59.8022 59.323 59.767 59.2961C59.6322 59.191 59.4701 59.1274 59.3001 59.1129ZM52.7934 48.8298C52.0803 49.5628 52.3689 51.229 53.1839 51.7916C53.2888 51.8716 53.4127 51.9228 53.5434 51.9399C53.6741 51.957 53.807 51.9395 53.9289 51.889C54.0507 51.8386 54.1573 51.7571 54.2381 51.6525C54.3189 51.548 54.371 51.424 54.3893 51.293C54.4018 51.1241 54.4018 50.9546 54.3893 50.7858C54.3893 50.6026 54.3638 50.4875 54.3893 50.3597C54.4528 49.9953 54.4656 49.6239 54.4275 49.2559C54.3945 49.0814 54.3128 48.9199 54.192 48.7902C54.0711 48.6605 53.916 48.568 53.7448 48.5233C53.5736 48.4787 53.3933 48.4838 53.2248 48.538C53.0564 48.5923 52.9068 48.6935 52.7934 48.8298ZM48.1882 59.4325C47.2077 60.6002 48.8248 62.6031 50.0939 62.6414C50.5184 62.6414 51.0404 62.2153 50.7773 61.7465C50.5651 61.3715 50.2807 61.0391 50.0939 60.6513C49.8647 60.174 49.8095 59.6157 49.3427 59.2919C49.1685 59.1634 48.9522 59.1064 48.7377 59.1325C48.5231 59.1586 48.3266 59.2659 48.1882 59.4325ZM71.6047 59.0618C71.4449 59.0858 71.2958 59.1569 71.1764 59.2662C71.057 59.3755 70.9726 59.5179 70.934 59.6754C70.7982 60.1484 70.7812 60.5703 70.4289 60.9539C70.0477 61.255 69.7055 61.6029 69.4103 61.9894C69.361 62.0859 69.3376 62.1937 69.3422 62.302C69.3469 62.4104 69.3794 62.5156 69.4368 62.6076C69.4941 62.6995 69.5742 62.7749 69.6692 62.8264C69.7643 62.8779 69.871 62.9037 69.979 62.9014C70.7202 62.8099 71.3988 62.4381 71.8763 61.8616C71.7914 61.0519 71.7065 60.1016 71.6089 59.0447L71.6047 59.0618ZM69.4824 55.546C69.2448 56.1255 69.2872 56.7818 69.0877 57.387C68.9126 57.9417 68.7043 58.4854 68.4638 59.0149C68.2855 59.3984 68.642 60.0036 69.1047 59.799C69.8571 59.509 70.4726 58.9443 70.8279 58.218C71.1505 57.5489 71.507 56.4239 71.1972 55.7122C70.8873 55.0005 69.8347 54.6894 69.4739 55.5289L69.4824 55.546ZM67.0631 61.3545C66.7104 61.812 66.2591 62.1835 65.7431 62.4412C65.6201 62.4795 65.5067 62.5436 65.4103 62.6293C65.3139 62.715 65.2367 62.8202 65.1839 62.9381C65.1311 63.056 65.1039 63.1838 65.104 63.3131C65.1042 63.4424 65.1317 63.5701 65.1847 63.6879C65.2378 63.8057 65.3152 63.9108 65.4117 63.9963C65.5083 64.0817 65.6219 64.1456 65.7449 64.1837C65.868 64.2217 65.9976 64.2331 66.1254 64.217C66.2531 64.2009 66.376 64.1578 66.4859 64.0904C66.925 63.9013 67.3176 63.6179 67.6359 63.2601C67.9541 62.9023 68.1904 62.4787 68.328 62.0193C68.5274 61.282 67.5343 60.8005 67.0546 61.3374L67.0631 61.3545ZM63.1837 40.4729C63.4209 40.5233 63.6682 40.4795 63.874 40.3508C64.0797 40.2221 64.2278 40.0185 64.2873 39.7825C64.525 38.8663 63.71 37.9245 63.0649 37.3534C62.4197 36.7824 61.5114 36.2625 60.6073 36.5565C60.487 36.5957 60.3786 36.6651 60.2924 36.7581C60.2063 36.8511 60.1452 36.9647 60.115 37.0881C60.0848 37.2114 60.0865 37.3405 60.12 37.463C60.1534 37.5855 60.2174 37.6974 60.306 37.7881C60.7007 38.2825 61.2483 38.6404 61.6685 39.1263C62.0887 39.6121 62.4367 40.3323 63.1752 40.4558L63.1837 40.4729ZM66.4392 44.0909C66.7957 43.5753 66.5198 42.8125 66.2652 42.3224C66.1295 42.0521 65.9187 41.827 65.6582 41.6747C65.4829 41.562 65.2704 41.5235 65.0669 41.5674C64.8634 41.6112 64.6854 41.7341 64.5716 41.909C64.4559 42.1514 64.4376 42.4292 64.5207 42.6846C64.5562 42.8183 64.6045 42.9482 64.665 43.0724V43.1108V43.1449C64.7409 43.5518 64.9126 43.9347 65.1659 44.2614C65.2535 44.35 65.3604 44.4171 65.4782 44.4573C65.5959 44.4976 65.7214 44.51 65.8447 44.4935C65.968 44.4769 66.0858 44.432 66.1889 44.3622C66.2921 44.2924 66.3777 44.1995 66.4392 44.0909ZM68.6293 41.0397C68.5462 39.987 68.1365 38.9869 67.4578 38.1802C66.9485 37.5196 66.0657 36.4756 65.1319 36.7014C65.0327 36.7326 64.946 36.795 64.8849 36.8794C64.8237 36.9638 64.7913 37.0658 64.7924 37.1702C64.7329 37.8904 65.5563 38.6617 65.9129 39.237C66.3373 39.9615 66.6726 40.7627 67.131 41.4829C67.231 41.6228 67.3723 41.7275 67.5349 41.782C67.6976 41.8366 67.8732 41.8383 68.0368 41.7868C68.2005 41.7354 68.3438 41.6334 68.4463 41.4954C68.5489 41.3575 68.6055 41.1905 68.6081 41.0184L68.6293 41.0397ZM65.4248 48.3354C65.58 48.3695 65.7407 48.3695 65.8959 48.3354C66.1312 48.2627 66.33 48.1027 66.4519 47.888C66.566 47.6594 66.6228 47.4063 66.6175 47.1507C66.6098 46.9086 66.5443 46.6718 66.4265 46.4604L66.2864 46.2856L66.0996 46.1493C65.9828 46.0888 65.8539 46.0555 65.7225 46.0519C65.5911 46.0483 65.4606 46.0746 65.3407 46.1286C65.2208 46.1827 65.1145 46.2632 65.0299 46.3641C64.9453 46.4651 64.8844 46.5839 64.8518 46.7118C64.7811 46.96 64.7314 47.2138 64.7032 47.4703L64.7414 47.7047C64.7711 47.8223 64.8295 47.9307 64.9112 48.0201C65.0394 48.1689 65.2121 48.272 65.4035 48.3141L65.4248 48.3354ZM68.3534 45.6208C68.5193 45.6122 68.678 45.5505 68.8064 45.4446C68.9347 45.3388 69.0259 45.1944 69.0665 45.0328C69.1324 44.7019 69.1105 44.3594 69.0028 44.0398C68.9394 43.7354 68.7923 43.455 68.5784 43.2301C68.5018 43.1589 68.408 43.109 68.3064 43.0851C68.2048 43.0612 68.0987 43.0642 67.9986 43.0939C67.8985 43.1235 67.8077 43.1787 67.7353 43.2542C67.6628 43.3296 67.6111 43.4226 67.5852 43.5242C67.5512 43.773 67.5512 44.0253 67.5852 44.2742C67.5852 44.3807 67.5852 44.4873 67.5852 44.5981C67.583 44.7586 67.6001 44.9189 67.6361 45.0754C67.6836 45.2245 67.7762 45.355 67.9009 45.4489C68.0256 45.5429 68.1764 45.5955 68.3322 45.5995L68.3534 45.6208Z" fill="#030402"/>
<path d="M66.8651 38.4567C65.248 38.3076 63.1767 34.8387 62.782 32.6355C62.7565 32.4821 63.4017 31.1993 64.1105 29.6055C64.5349 28.6381 64.9933 27.5472 65.3329 26.5244L71.2072 30.2362C70.4145 31.394 69.766 32.6449 69.2759 33.9608C69.2321 34.0997 69.2008 34.2424 69.1826 34.387C69.1841 34.4111 69.1841 34.4353 69.1826 34.4594C69.034 35.3117 68.4313 38.6016 66.8651 38.4567Z" fill="#D3766A"/>
<path d="M69.1814 34.3955C69.1827 34.4196 69.1827 34.4438 69.1814 34.468C68.9551 34.4235 68.7323 34.3622 68.515 34.2847C64.8393 32.9551 65.4887 28.114 65.7476 26.7759L67.212 27.7049L71.2229 30.2618C70.4307 31.4192 69.7835 32.6701 69.296 33.9864C69.2454 34.119 69.2071 34.2559 69.1814 34.3955Z" fill="#263238"/>
<path d="M65.9466 19.6936C64.7327 21.8883 64.5205 28.9369 65.8659 30.8077C67.8099 33.518 71.7148 34.5749 74.1892 32.0861C76.5873 29.6485 76.6977 20.4564 75.1358 18.6836C72.8268 16.0499 67.7377 16.4505 65.9466 19.6936Z" fill="#D3766A"/>
<path d="M71.584 25.3911C71.584 25.3911 71.5458 25.3911 71.5458 25.4337C71.5458 25.9195 71.461 26.4735 71.0195 26.6184V26.6483C71.5586 26.5886 71.6604 25.8514 71.584 25.3911Z" fill="#263238"/>
<path d="M71.172 24.871C70.3953 24.7858 70.2807 26.3455 70.998 26.4265C71.7153 26.5075 71.8214 24.9435 71.172 24.871Z" fill="#263238"/>
<path d="M74.3686 25.5571C74.3686 25.5571 74.4025 25.5827 74.4025 25.604C74.3473 26.0856 74.3686 26.6481 74.7888 26.8399C74.7888 26.8399 74.7888 26.8739 74.7888 26.8697C74.2582 26.7504 74.2412 26.0046 74.3686 25.5571Z" fill="#263238"/>
<path d="M74.8389 25.0884C75.6157 25.0884 75.552 26.6524 74.8389 26.6524C74.1259 26.6524 74.1853 25.0841 74.8389 25.0884Z" fill="#263238"/>
<path d="M71.7992 24.5554C71.5828 24.6023 71.3748 24.6066 71.1626 24.6321C70.9427 24.6899 70.71 24.6734 70.5004 24.5852C70.4394 24.5449 70.3934 24.4853 70.3696 24.416C70.3458 24.3466 70.3455 24.2713 70.3688 24.2017C70.4384 24.0746 70.5403 23.9682 70.664 23.8934C70.7877 23.8186 70.929 23.7779 71.0734 23.7756C71.3666 23.719 71.6702 23.7769 71.9223 23.9375C71.9748 23.9771 72.015 24.0307 72.0384 24.0923C72.0617 24.1538 72.0673 24.2208 72.0545 24.2853C72.0416 24.3499 72.0108 24.4096 71.9656 24.4574C71.9205 24.5051 71.8628 24.5391 71.7992 24.5554Z" fill="#263238"/>
<path d="M75.5343 23.6351C75.3282 23.5771 75.1256 23.5074 74.9274 23.4263C74.7041 23.3841 74.5011 23.2687 74.3501 23.0982C74.3124 23.0357 74.2965 22.9624 74.305 22.8898C74.3134 22.8173 74.3457 22.7496 74.3968 22.6976C74.5128 22.6086 74.6506 22.5529 74.7956 22.5364C74.9406 22.5199 75.0874 22.5432 75.2202 22.6038C75.507 22.6826 75.7548 22.8647 75.9163 23.1152C75.9499 23.1747 75.9656 23.2426 75.9615 23.3108C75.9574 23.3791 75.9338 23.4446 75.8934 23.4996C75.8529 23.5546 75.7975 23.5967 75.7338 23.6207C75.6701 23.6448 75.6008 23.6498 75.5343 23.6351Z" fill="#263238"/>
<path d="M71.2307 29.235C71.8557 29.0848 72.5072 29.0848 73.1322 29.235C73.1874 29.235 73.2425 29.1242 73.2553 29.0731L73.2892 28.0503C73.4208 28.127 74.0829 28.4765 74.0829 28.289C74.152 26.6267 74.051 24.9616 73.7816 23.32C73.7786 23.3105 73.7727 23.3021 73.7647 23.2962C73.7567 23.2903 73.747 23.2871 73.737 23.2871C73.7271 23.2871 73.7174 23.2903 73.7094 23.2962C73.7013 23.3021 73.6954 23.3105 73.6924 23.32C73.6245 24.8584 73.8198 26.3926 73.7731 27.9395C73.5389 27.8092 73.2873 27.7131 73.0261 27.654C72.9709 27.654 73.0261 28.7407 73.0261 28.9026C72.4419 28.7006 71.8022 28.7358 71.2434 29.0007C71.0227 29.1413 70.9336 29.3288 71.2307 29.235Z" fill="#263238"/>
<path d="M69.9738 30.2488C70.0799 30.3681 70.186 30.5301 70.3558 30.5557C70.5342 30.5642 70.7124 30.5337 70.8779 30.4662C70.8779 30.4662 70.9076 30.4662 70.8779 30.4917C70.8048 30.5822 70.7083 30.6507 70.599 30.6898C70.4897 30.7289 70.3718 30.737 70.2582 30.7133C70.1654 30.6835 70.0832 30.6275 70.0215 30.5519C69.9597 30.4763 69.9211 30.3843 69.9102 30.2872C69.9186 30.2403 69.9568 30.2318 69.9738 30.2488Z" fill="#263238"/>
<path opacity="0.2" d="M67.9971 17.4556C67.9334 18.5508 67.6745 21.9472 67.1482 22.6376C66.6219 23.328 65.5098 24.9346 64.9453 25.1945C65.0217 22.9317 65.3698 20.7796 65.9512 19.6545C66.428 18.7531 67.1338 17.9945 67.9971 17.4556Z" fill="#263238"/>
<path d="M74.0445 20.7758C73.7477 21.0791 73.3785 21.3011 72.9721 21.4204C72.5657 21.5398 72.1355 21.5526 71.7228 21.4577C71.3003 21.3633 70.9093 21.1612 70.5873 20.8708C70.2654 20.5804 70.0235 20.2116 69.8849 19.7999C69.8849 19.7744 69.8382 19.7999 69.8467 19.7999C69.9546 20.2444 70.1818 20.6506 70.5036 20.9744C70.8254 21.2983 71.2294 21.5273 71.6718 21.6367C72.1135 21.7213 72.5696 21.687 72.9938 21.5373C73.418 21.3876 73.7951 21.1278 74.0869 20.7844C74.1124 20.7886 74.0784 20.7503 74.0445 20.7758Z" fill="#263238"/>
<path d="M71.9148 14.4601C71.2626 14.4158 70.6097 14.537 70.0163 14.8125C69.4229 15.0881 68.9081 15.5091 68.5193 16.0369C68.1881 16.574 68.0475 17.2078 68.1203 17.8352H68.1755C68.1836 17.2846 68.3397 16.7465 68.6273 16.2776C68.915 15.8088 69.3235 15.4267 69.8096 15.1718C70.341 14.8731 70.9339 14.7019 71.5422 14.6716C72.1504 14.6413 72.7573 14.7527 73.3155 14.997C73.8646 15.2243 74.3157 15.6395 74.5888 16.169C74.6143 16.2244 74.7247 16.1988 74.7034 16.1434C74.3554 15.2144 73.2306 14.524 71.9148 14.4601Z" fill="#263238"/>
<path d="M80.0214 18.1761C79.8368 17.4546 79.4037 16.822 78.799 16.3905C77.9501 15.7811 76.9569 15.7896 75.9637 15.8237C75.934 15.8237 75.9383 15.8663 75.9637 15.862C76.8082 15.7735 77.6601 15.9319 78.417 16.318C79.0331 16.6892 79.5024 17.2628 79.7455 17.9417C79.9768 18.6379 79.9501 19.3946 79.6701 20.0726C79.3902 20.7507 78.8759 21.3044 78.2218 21.6322C77.8411 21.8118 77.4277 21.9113 77.0073 21.9245C76.5868 21.9377 76.1681 21.8643 75.777 21.7089C75.7473 21.7089 75.7218 21.7387 75.7515 21.7558C76.2808 21.9905 76.8648 22.0719 77.4378 21.9909C78.0107 21.9099 78.5497 21.6697 78.9938 21.2974C79.4379 20.9251 79.7695 20.4355 79.9511 19.8839C80.1326 19.3323 80.157 18.7408 80.0214 18.1761Z" fill="#263238"/>
<path d="M65.5229 21.0782C65.5229 21.0782 64.3515 18.3977 65.6036 16.9914C66.3124 16.1987 68.4431 16.4715 68.4431 16.4715C69.0796 15.6602 70.0109 15.136 71.0322 15.014C72.8531 14.7285 74.9286 15.9643 74.9286 15.9643C74.9286 15.9643 76.7028 15.112 78.2265 16.1476C80.3487 17.5922 79.8182 20.9717 77.5007 21.8921C75.8708 22.5442 73.842 20.9844 73.842 20.9844C73.6383 20.9844 71.4397 22.1095 69.9923 20.1066C69.9923 20.1066 68.6171 21.1592 67.5178 20.2642C67.3088 20.5891 67.0052 20.8416 66.6483 20.9872C66.2914 21.1328 65.8985 21.1646 65.5229 21.0782Z" fill="#263238"/>
<path d="M66.2146 25.5315C66.2146 25.5315 65.1026 23.03 64.0033 23.4008C62.9039 23.7715 63.4388 27.1722 64.5253 27.837C64.6578 27.9295 64.8073 27.9943 64.9652 28.0277C65.123 28.0611 65.2859 28.0623 65.4442 28.0313C65.6025 28.0003 65.753 27.9377 65.8868 27.8472C66.0206 27.7568 66.135 27.6403 66.2231 27.5046L66.2146 25.5315Z" fill="#D3766A"/>
<path d="M64.1816 24.3638V24.3936C64.9371 24.8837 65.2215 25.7317 65.3701 26.5798C65.3381 26.4884 65.2868 26.4051 65.2196 26.3355C65.1525 26.266 65.0711 26.212 64.9811 26.1771C64.8911 26.1423 64.7946 26.1275 64.6984 26.1337C64.6021 26.14 64.5084 26.1671 64.4236 26.2133C64.3981 26.2133 64.4236 26.2602 64.4236 26.2602C64.5782 26.2422 64.7344 26.2738 64.8701 26.3503C65.0058 26.4268 65.1139 26.5444 65.1791 26.6863C65.2943 26.9168 65.3826 27.1599 65.4422 27.4108C65.4422 27.4917 65.6035 27.479 65.595 27.4108C65.8115 26.3113 65.2809 24.6876 64.1816 24.3638Z" fill="#263238"/>
<path d="M125.046 30.5007L79.3496 44.5542L87.5887 71.5612L133.285 57.5077L125.046 30.5007Z" fill="#4479F0"/>
<path opacity="0.2" d="M125.046 30.5007L79.3496 44.5542L87.5887 71.5612L133.285 57.5077L125.046 30.5007Z" fill="black"/>
<path opacity="0.2" d="M125.042 30.497L109.686 35.2197L117.925 62.2267L133.281 57.5039L125.042 30.497Z" fill="black"/>
<path d="M124.308 31.8726C123.79 34.2647 123.286 36.6569 122.797 39.049L121.349 46.2425L119.949 53.4658C119.49 55.8693 119.043 58.2771 118.607 60.6891C119.125 58.2998 119.629 55.9077 120.118 53.5127L121.566 46.3192L122.966 39.1129C123.425 36.698 123.872 34.2846 124.308 31.8726Z" fill="#4479F0"/>
<path d="M131.849 56.5982C130.152 54.8481 128.438 53.1051 126.709 51.3693L121.531 46.1872L116.319 41.0435C114.576 39.3389 112.824 37.6343 111.064 35.9297C112.762 37.6826 114.476 39.4256 116.204 41.1586L121.383 46.3406L126.595 51.4843C128.341 53.206 130.092 54.9106 131.849 56.5982Z" fill="#4479F0"/>
<path d="M88.1253 48.0305L88.377 47.9531L87.2942 44.4041L87.0426 44.4815L88.1253 48.0305Z" fill="#263238"/>
<path d="M87.5277 48.2107L87.7793 48.1333L86.6966 44.5843L86.445 44.6616L87.5277 48.2107Z" fill="#263238"/>
<path d="M86.9242 48.404L87.1758 48.3267L86.0931 44.7776L85.8414 44.855L86.9242 48.404Z" fill="#263238"/>
<path d="M86.3226 48.5778L86.5742 48.5005L85.4921 44.9512L85.2405 45.0286L86.3226 48.5778Z" fill="#263238"/>
<path d="M85.7249 48.7654L85.9766 48.688L84.8938 45.1389L84.6422 45.2163L85.7249 48.7654Z" fill="#263238"/>
<path d="M85.1273 48.946L85.3789 48.8687L84.2962 45.3196L84.0446 45.397L85.1273 48.946Z" fill="#263238"/>
<path d="M84.5199 49.1443L84.7715 49.0669L83.6888 45.5178L83.4372 45.5952L84.5199 49.1443Z" fill="#263238"/>
<path d="M83.9203 49.3235L84.1719 49.2461L83.0885 45.6972L82.8369 45.7747L83.9203 49.3235Z" fill="#263238"/>
<path d="M83.3148 49.5149L83.5664 49.4375L82.4837 45.8885L82.2321 45.9658L83.3148 49.5149Z" fill="#263238"/>
<path d="M89.8391 43.9159L88.7949 43.9414L91.0572 43.2383L90.1744 43.8093L90.5733 45.1134C91.2906 44.9898 91.7745 45.5907 92.1395 46.7839L89.8773 47.4998C89.5122 46.3109 89.5759 45.5395 90.238 45.2369L89.8391 43.9159Z" fill="#263238"/>
<path d="M92.1133 44.8235L92.7033 44.6402L92.1727 42.9058L93.6837 42.437L94.2143 44.1757L94.8085 43.9925L94.0105 46.217L92.1133 44.8235Z" fill="#263238"/>
<path opacity="0.1" d="M79.3477 44.5507L80.0268 46.7667L111.614 41.5378L109.687 35.2222L79.3477 44.5507Z" fill="black"/>
<path d="M139.205 60.566L123.845 65.2878L117.924 62.228L133.284 57.502L139.205 60.566Z" fill="#4479F0"/>
<path opacity="0.2" d="M139.205 60.566L123.845 65.2878L117.924 62.228L133.284 57.502L139.205 60.566Z" fill="black"/>
<path d="M84.3887 77.4244L99.7492 72.6984L102.945 66.8345L87.5847 71.5563L84.3887 77.4244Z" fill="#4479F0"/>
<path opacity="0.1" d="M84.3887 77.4244L99.7492 72.6984L102.945 66.8345L87.5847 71.5563L84.3887 77.4244Z" fill="black"/>
<path d="M59.1098 40.383C61.3551 47.9217 67.5986 60.8384 69.9161 62.4152C71.9577 63.8258 81.758 62.5431 86.0449 61.6098C87.6493 61.2646 84.3471 48.9658 82.6494 49.3706C80.5951 49.8607 74.4789 51.0752 74.0459 50.7386C73.613 50.4019 67.6793 42.6416 63.4349 38.0903C59.5809 33.9481 58.2609 37.5321 59.1098 40.383Z" fill="#D3766A"/>
<path d="M81.7656 50.3718C81.7656 50.3718 85.0126 46.6983 87.3131 45.2963C89.7414 43.9008 92.471 43.1184 95.2671 43.0164C98.2849 42.897 105.666 44.6954 105.517 46.9199C105.386 48.9356 97.9369 46.7111 97.9369 46.7111C97.9369 46.7111 105.904 47.7211 105.301 50.1203C104.698 52.5196 96.1967 49.4385 96.1967 49.4385C96.1967 49.4385 104.359 50.6573 103.365 53.0395C102.601 54.8336 94.7451 52.4812 94.7451 52.4812C94.7451 52.4812 101.757 53.5807 101.048 55.4643C100.267 57.5397 92.8775 55.8266 92.8775 55.8266C90.2842 60.2927 87.224 61.3666 84.9617 61.8481C84.3972 61.9461 81.7656 50.3718 81.7656 50.3718Z" fill="#D3766A"/>
<path d="M95.2036 46.1831C96.1416 46.2683 97.0966 46.3493 98.0261 46.5155C98.9556 46.6817 99.8767 46.8863 100.789 47.142C101.985 47.4504 103.141 47.8951 104.236 48.4673C102.22 47.5937 98.9005 46.9374 97.9709 46.7627C97.0414 46.588 96.1204 46.3791 95.1951 46.2129C95.1696 46.2215 95.1781 46.1831 95.2036 46.1831Z" fill="#263238"/>
<path d="M94.5365 49.5453C95.7292 49.703 96.9262 49.8181 98.1146 50.0312C99.303 50.2442 100.402 50.5511 101.57 50.8451C101.659 50.8664 101.616 50.909 101.527 50.8877C100.347 50.6406 99.2436 50.5042 98.0637 50.2741C96.8837 50.0439 95.7122 49.7627 94.5281 49.5709C94.5111 49.5709 94.5153 49.5411 94.5365 49.5453Z" fill="#263238"/>
<path d="M93.4472 52.3239C95.2878 52.5246 97.1027 52.9159 98.8631 53.4916C98.9522 53.5172 98.8928 53.564 98.7994 53.5427C97.0082 53.1166 95.6033 52.7757 93.4429 52.3879C93.409 52.3836 93.409 52.3197 93.4472 52.3239Z" fill="#263238"/>
<path d="M85.0737 63.7915L82.2214 49.0807L74.2716 50.3336C71.2326 46.6686 65.1631 39.3388 62.6843 37.1228C59.7769 34.519 57.7863 36.377 58.7837 40.2337C61.0672 49.0508 67.9941 62.0741 69.8702 63.3526C72.5611 65.185 85.0737 63.7915 85.0737 63.7915Z" fill="#4479F0"/>
<path opacity="0.1" d="M79.6902 51.1225C80.0823 51.208 80.4817 51.2551 80.8829 51.2631C81.7318 51.3781 82.1053 52.6353 81.3328 53.1126C80.9271 53.3635 80.4685 53.5154 79.9938 53.5561C79.5191 53.5968 79.0415 53.5252 78.5994 53.347C77.7505 53.0146 77.0332 52.1878 77.2157 51.2162C77.2473 51.0351 77.3251 50.8652 77.4414 50.7232C77.5577 50.5812 77.7087 50.4718 77.8796 50.4058C78.0506 50.3397 78.2356 50.3192 78.4168 50.3462C78.5979 50.3732 78.769 50.4468 78.9135 50.5599C79.1487 50.7784 79.4095 50.9673 79.6902 51.1225ZM78.8413 49.6139C79.1076 49.7428 79.4009 49.8054 79.6964 49.7965C79.9919 49.7876 80.2809 49.7074 80.5391 49.5627C80.6342 49.4989 80.7104 49.4106 80.7598 49.307L78.8413 49.6139ZM74.7115 50.2616C75.0494 50.5095 75.4666 50.6233 75.8829 50.5812C76.0265 50.5615 76.1586 50.4918 76.2563 50.3843C76.354 50.2769 76.4111 50.1385 76.4177 49.9931L74.7115 50.2616ZM83.7097 56.8287C83.5417 56.8993 83.4056 57.0299 83.3277 57.1952C82.9711 57.9154 83.4677 58.691 84.1765 59.1555L83.7097 56.8287ZM70.9255 59.6583C70.7896 60.1314 70.7727 60.5532 70.4204 60.9368C70.041 61.2437 69.7016 61.5974 69.4102 61.9894C69.3609 62.0859 69.3375 62.1936 69.3421 62.302C69.3468 62.4103 69.3793 62.5156 69.4367 62.6075C69.494 62.6994 69.5741 62.7748 69.6692 62.8263C69.7642 62.8779 69.871 62.9037 69.979 62.9014C70.7185 62.81 71.3968 62.443 71.8795 61.8731C72.3622 61.3032 72.614 60.5721 72.585 59.8245C72.5612 59.633 72.4732 59.4552 72.3356 59.3204C72.198 59.1855 72.0189 59.1016 71.8276 59.0822C71.6363 59.0629 71.4441 59.1094 71.2825 59.2141C71.121 59.3187 70.9996 59.4754 70.9382 59.6583H70.9255ZM69.4611 55.5289C69.2234 56.1085 69.2659 56.7647 69.0664 57.3699C68.8913 57.9247 68.683 58.4683 68.4425 58.9978C68.2642 59.3813 68.6207 59.9865 69.0834 59.7819C69.8358 59.4919 70.4513 58.9272 70.8066 58.2009C71.1292 57.5318 71.4857 56.4068 71.1759 55.6951C70.866 54.9834 69.8346 54.6894 69.4739 55.5289H69.4611ZM63.1624 40.4558C63.3996 40.5062 63.6469 40.4624 63.8526 40.3337C64.0584 40.205 64.2065 40.0014 64.266 39.7654C64.5037 38.8492 63.6887 37.9074 63.0436 37.3364C62.3984 36.7653 61.4901 36.2454 60.5861 36.5394C60.4657 36.5786 60.3573 36.648 60.2711 36.741C60.185 36.834 60.1239 36.9476 60.0937 37.071C60.0635 37.1943 60.0652 37.3234 60.0987 37.4459C60.1321 37.5684 60.1961 37.6803 60.2847 37.771C60.6794 38.2654 61.227 38.6233 61.6472 39.1092C62.0674 39.595 62.4366 40.3322 63.1751 40.4558H63.1624ZM66.4391 44.0909C66.7956 43.5753 66.5197 42.8124 66.2651 42.3224C66.1295 42.052 65.9186 41.827 65.6581 41.6746C65.4828 41.562 65.2703 41.5234 65.0668 41.5673C64.8633 41.6112 64.6853 41.734 64.5716 41.909C64.4558 42.1513 64.4376 42.4291 64.5206 42.6846C64.5561 42.8183 64.6044 42.9481 64.6649 43.0724V43.1107V43.1448C64.7408 43.5518 64.9125 43.9346 65.1658 44.2614C65.2534 44.35 65.3603 44.417 65.4781 44.4573C65.5958 44.4976 65.7213 44.5099 65.8446 44.4934C65.9679 44.4769 66.0857 44.432 66.1888 44.3622C66.292 44.2923 66.3776 44.1995 66.4391 44.0909ZM65.4247 48.3524C65.5799 48.3865 65.7406 48.3865 65.8958 48.3524C66.1311 48.2797 66.3299 48.1197 66.4518 47.905C66.5659 47.6764 66.6227 47.4233 66.6174 47.1677C66.6097 46.9256 66.5442 46.6888 66.4264 46.4774L66.2863 46.3026L66.0996 46.1663C65.9827 46.1058 65.8538 46.0725 65.7224 46.0689C65.591 46.0653 65.4605 46.0916 65.3406 46.1456C65.2207 46.1997 65.1145 46.2802 65.0298 46.3811C64.9452 46.4821 64.8843 46.6009 64.8517 46.7288C64.781 46.977 64.7313 47.2308 64.7031 47.4874L64.7413 47.7217C64.7711 47.8393 64.8294 47.9477 64.9111 48.0371C65.0418 48.1796 65.2142 48.2766 65.4035 48.3141L65.4247 48.3524ZM68.9858 44.027L68.1369 43.0681C68.0012 43.0519 67.8644 43.0864 67.7524 43.165C67.6405 43.2436 67.5613 43.3608 67.5299 43.4943C67.496 43.7431 67.496 43.9955 67.5299 44.2443C67.5299 44.3509 67.5299 44.4574 67.5299 44.5682C67.5277 44.7288 67.5448 44.889 67.5809 45.0455C67.6273 45.2077 67.7265 45.3496 67.8627 45.4485C67.9989 45.5473 68.1642 45.5975 68.3321 45.591C68.498 45.5824 68.6567 45.5206 68.7851 45.4148C68.9134 45.3089 69.0046 45.1646 69.0452 45.0029C69.1089 44.6778 69.0885 44.3418 68.9858 44.027Z" fill="#030402"/>
<path d="M82.3322 62.4405C81.9884 61.5669 81.182 57.7741 80.991 56.8238C80.8 55.8735 80.1676 52.0551 79.9766 51.0792C79.9766 51.0281 80.036 50.994 80.0487 51.0494C80.2524 52.0083 81.1905 55.7883 81.39 56.7343C81.5894 57.6804 82.3492 61.4732 82.3831 62.4277C82.3848 62.4345 82.3838 62.4417 82.3802 62.4477C82.3766 62.4537 82.3708 62.458 82.3641 62.4597C82.3573 62.4614 82.3502 62.4603 82.3442 62.4567C82.3382 62.4531 82.3339 62.4473 82.3322 62.4405Z" fill="#263238"/>
<path d="M79.7072 64.205C78.4042 64.2817 77.1012 64.3115 75.7981 64.303C74.4903 64.3087 73.1833 64.2333 71.8848 64.0771C71.2194 64.011 70.5688 63.8384 69.9578 63.5657C69.4085 63.1763 68.9316 62.6931 68.5486 62.1381C67.7793 61.0717 67.083 59.9541 66.4646 58.7928C65.1913 56.4958 64.0962 54.1051 63.0266 51.7272C61.9571 49.3492 60.9851 46.9031 60.0938 44.4399C61.1761 46.8221 62.2457 49.2086 63.3577 51.5738C64.4698 53.9389 65.5945 56.2956 66.8084 58.6011C67.4143 59.751 68.0831 60.8664 68.8118 61.9421C69.152 62.4777 69.5829 62.9493 70.0851 63.3356C70.6639 63.6036 71.2814 63.7777 71.9145 63.8513C74.4995 64.1657 77.1045 64.284 79.7072 64.205Z" fill="#263238"/>
<path d="M60.921 46.5198C60.7466 46.343 60.5889 46.1504 60.4499 45.9445C60.3058 45.7405 60.1955 45.5146 60.123 45.2754C60.187 45.3812 60.2564 45.4837 60.331 45.5822L60.539 45.8848C60.6787 46.0887 60.8063 46.3007 60.921 46.5198Z" fill="#263238"/>
<path d="M67.623 42.5693C68.6969 43.6518 69.6604 44.8407 70.6578 45.9786C71.6553 47.1164 72.6102 48.3182 73.6289 49.4517L74.0067 49.8779C74.0746 49.9418 74.1382 50.0143 74.2019 50.0739C74.2656 50.1336 74.2656 50.1293 74.2953 50.1549C74.2953 50.1549 74.325 50.1549 74.342 50.1549C74.6645 50.1549 75.072 50.0824 75.437 50.0356L77.6951 49.6989C79.1976 49.4773 80.7044 49.2472 82.2111 49.0426L82.2663 49.4176L82.1772 49.0469H82.1984C80.7086 49.3665 79.2273 49.652 77.7163 49.929C76.965 50.0654 76.2138 50.1847 75.4583 50.2998C75.072 50.3671 74.6823 50.4126 74.291 50.4361C74.26 50.4402 74.2287 50.4402 74.1977 50.4361C74.1561 50.4236 74.1172 50.4034 74.0831 50.3765C74.0402 50.3431 73.9992 50.3075 73.96 50.2699L73.752 50.0654C73.6162 49.9248 73.4888 49.7841 73.3615 49.6392C72.3641 48.4758 71.3963 47.2997 70.4456 46.1064L69.0237 44.3123C68.5611 43.7541 68.1366 43.1404 67.623 42.5693Z" fill="#263238"/>
<path d="M68.1797 42.6973C68.3395 42.8944 68.4816 43.1055 68.6041 43.328C68.7238 43.5477 68.8083 43.785 68.8545 44.0311C68.8036 43.9161 68.7399 43.8138 68.6805 43.703L68.5065 43.3749C68.3855 43.1551 68.2764 42.9289 68.1797 42.6973Z" fill="#263238"/>
<path d="M17.2747 154.132C17.1176 150.145 17.1728 146.151 17.4402 142.17C18.0256 133.964 19.2733 125.819 21.1711 117.815C22.2109 113.306 23.4928 108.866 24.8298 104.442C24.868 104.31 25.0802 104.349 25.0462 104.485C20.9164 120.099 17.5251 136.217 17.7585 152.445C17.8265 156.987 18.3485 161.449 18.7772 165.962C18.7772 166.086 18.5904 166.133 18.565 166.009C17.7119 162.135 17.436 158.078 17.2747 154.132Z" fill="#4479F0"/>
<path d="M25.0463 104.464C25.0463 104.464 31.3026 120.411 29.9019 124.156C28.5013 127.902 25.6108 128.704 25.6108 128.704C25.6108 128.704 29.4308 134.192 26.7653 139.357C24.0998 144.522 18.1491 144.258 17.7502 150.096C17.7502 150.079 17.4191 125.678 25.0463 104.464Z" fill="#4479F0"/>
<path d="M18.4325 140.005C18.422 139.977 18.422 139.947 18.4325 139.92C19.2576 129.033 21.2949 118.274 24.5062 107.843C24.5062 107.813 24.5657 107.822 24.5572 107.843C23.3178 112.505 22.2227 117.193 21.272 121.906C22.1081 121.109 23.1294 120.535 24.2431 120.236C24.2431 120.236 24.2728 120.236 24.2431 120.265C23.0676 120.702 22.0117 121.412 21.1616 122.337C20.9805 123.257 20.8037 124.182 20.6311 125.111C22.0275 123.543 23.9672 122.763 25.9069 122.021C25.9324 122.021 25.9493 122.055 25.9069 122.064C23.8866 122.891 21.8705 123.956 20.5038 125.703C20.0227 128.348 19.5983 131.003 19.2304 133.668C20.242 132.61 21.5382 131.869 22.9613 131.537C23.0037 131.537 23.0292 131.593 22.9613 131.605C21.4925 132.032 20.1787 132.877 19.1795 134.039H19.154C19.0295 134.976 18.9121 135.915 18.8017 136.856C19.608 136.187 20.5186 135.658 21.4969 135.287C21.5224 135.287 21.5351 135.317 21.4969 135.326C20.5389 135.752 19.6615 136.342 18.9036 137.069C18.9036 137.069 18.9036 137.069 18.8696 137.069C18.7678 137.959 18.6617 138.854 18.5725 139.749C19.9821 138.04 21.8106 136.728 23.8781 135.944C23.8822 135.942 23.8867 135.941 23.8912 135.941C23.8957 135.941 23.9002 135.942 23.9043 135.944C23.9084 135.946 23.9122 135.948 23.9153 135.952C23.9185 135.955 23.921 135.959 23.9226 135.963C23.9243 135.967 23.9251 135.972 23.9251 135.976C23.925 135.981 23.9241 135.985 23.9223 135.989C23.9205 135.993 23.918 135.997 23.9147 136C23.9115 136.003 23.9077 136.006 23.9035 136.008C21.8614 136.911 20.0672 138.297 18.6744 140.048C18.6601 140.068 18.6395 140.083 18.6157 140.091C18.592 140.099 18.5664 140.098 18.5428 140.09C18.407 141.462 18.2839 142.839 18.1863 144.215H18.1523C18.2203 142.822 18.3179 141.411 18.4325 140.005Z" fill="#263238"/>
<path d="M23.4578 118.667C24.5905 117.959 25.8853 117.554 27.2184 117.491C27.2481 117.491 27.2523 117.534 27.2184 117.538C25.9307 117.777 24.6804 118.187 23.5003 118.757C23.4892 118.759 23.4776 118.758 23.4675 118.752C23.4574 118.747 23.4493 118.739 23.4444 118.729C23.4395 118.718 23.4382 118.707 23.4406 118.696C23.4431 118.685 23.4491 118.675 23.4578 118.667Z" fill="#263238"/>
<path d="M22.6987 135.547C23.5698 135.048 24.5277 134.72 25.5212 134.58C25.5551 134.58 25.5594 134.627 25.5212 134.631C24.5479 134.828 23.6066 135.159 22.7241 135.616C22.6944 135.633 22.6605 135.569 22.6987 135.547Z" fill="#263238"/>
<path d="M0.826587 124.416C3.47195 126.254 5.90115 128.387 8.06757 130.775C10.3076 133.298 12.0375 136.235 13.1609 139.421C15.5349 146.062 16.8123 153.048 16.9427 160.103C17.024 164.01 16.6493 167.913 15.8264 171.732C15.8192 171.759 15.8023 171.782 15.779 171.797C15.7558 171.812 15.7278 171.817 15.7007 171.813C15.6736 171.808 15.6492 171.793 15.6324 171.771C15.6156 171.749 15.6076 171.722 15.6099 171.694C16.6351 164.953 16.6007 158.092 15.508 151.362C14.43 144.765 12.7449 137.589 8.56842 132.228C6.27218 129.322 3.43691 127.016 0.652565 124.634C0.487033 124.515 0.673787 124.31 0.826587 124.416Z" fill="#4479F0"/>
<path d="M16.0097 155.355C14.5049 152.908 12.7356 150.636 10.7339 148.579C7.60149 145.438 4.9657 143.205 4.55823 141.126C4.15077 139.046 7.69486 137.52 7.69486 137.52C7.69486 137.52 3.36131 138.3 2.17711 136.472C0.992919 134.644 0.419922 124.08 0.419922 124.08C0.419922 124.08 8.29333 129.747 11.9732 137.644C15.6532 145.541 16.0097 155.355 16.0097 155.355Z" fill="#4479F0"/>
<path d="M3.23348 134.009C3.75211 133.935 4.27731 133.917 4.79967 133.958C4.86334 133.958 4.85909 134.069 4.79967 134.069C4.28185 134.069 3.76403 134.043 3.24197 134.069C3.19952 134.06 3.19952 134.009 3.23348 134.009Z" fill="#263238"/>
<path d="M8.90499 144.237C9.73818 144.254 10.5617 144.42 11.337 144.727C11.337 144.727 11.337 144.765 11.337 144.761C10.5348 144.569 9.72416 144.488 8.91348 144.356C8.83284 144.356 8.83708 144.237 8.90499 144.237Z" fill="#263238"/>
<path d="M10.6064 140.704C10.9525 140.701 11.2979 140.733 11.6378 140.798C11.6718 140.798 11.6675 140.862 11.6378 140.862C11.2932 140.879 10.9477 140.862 10.6064 140.811C10.5949 140.808 10.5848 140.801 10.5775 140.791C10.5703 140.781 10.5664 140.77 10.5664 140.758C10.5664 140.746 10.5703 140.734 10.5775 140.724C10.5848 140.715 10.5949 140.708 10.6064 140.704Z" fill="#263238"/>
<path d="M39.1086 135.637C36.5457 136.509 34.0895 137.67 31.787 139.097C29.4028 140.626 27.3348 142.603 25.6963 144.919C22.2461 149.743 19.6039 155.101 17.8738 160.78C16.9111 163.923 16.3157 167.168 16.0996 170.449C16.0996 170.474 16.1094 170.498 16.127 170.516C16.1445 170.533 16.1682 170.543 16.193 170.543C16.2178 170.543 16.2415 170.533 16.259 170.516C16.2765 170.498 16.2864 170.474 16.2864 170.449C17.0036 164.764 18.6033 159.227 21.0274 154.038C23.417 148.95 26.4348 143.534 31.0485 140.167C33.5612 138.33 36.3837 137.133 39.1978 135.863C39.3633 135.795 39.2784 135.586 39.1086 135.637Z" fill="#4479F0"/>
<path d="M19.7031 157.149C21.4831 155.517 23.4375 154.088 25.5307 152.888C28.7904 151.072 31.4347 149.875 32.2454 148.289C33.0561 146.704 30.5476 144.642 30.5476 144.642C30.5476 144.642 33.871 146.278 35.2504 145.068C36.6299 143.857 39.5246 135.441 39.5246 135.441C39.5246 135.441 31.8507 138.185 27.0545 143.742C22.2583 149.299 19.7031 157.149 19.7031 157.149Z" fill="#4479F0"/>
<path d="M26.0733 149.41C26.8266 149.358 27.583 149.45 28.3016 149.683C28.3016 149.683 28.3016 149.722 28.3016 149.717C27.5672 149.594 26.8258 149.517 26.0817 149.487C26.0716 149.488 26.0614 149.485 26.0535 149.479C26.0455 149.473 26.0404 149.463 26.0393 149.453C26.0382 149.443 26.0411 149.433 26.0475 149.425C26.0539 149.417 26.0631 149.412 26.0733 149.41Z" fill="#263238"/>
<path d="M32.7715 140.589C33.115 140.564 33.4603 140.584 33.7987 140.649C33.8052 140.651 33.8108 140.655 33.8147 140.661C33.8187 140.667 33.8208 140.674 33.8208 140.681C33.8208 140.688 33.8187 140.694 33.8147 140.7C33.8108 140.706 33.8052 140.71 33.7987 140.713C33.4633 140.674 33.128 140.687 32.7885 140.678C32.778 140.678 32.7681 140.674 32.7602 140.667C32.7523 140.66 32.7469 140.651 32.745 140.64C32.743 140.63 32.7446 140.619 32.7494 140.61C32.7542 140.601 32.762 140.593 32.7715 140.589Z" fill="#263238"/>
<path d="M9.79688 181.078H27.1269L24.6566 162.902L24.0242 158.245H12.8995L12.2714 162.902L9.79688 181.078Z" fill="#455A64"/>
<path d="M12.2695 162.902H24.6548L24.0223 158.245H12.8977L12.2695 162.902Z" fill="#263238"/>
<path d="M11.3073 160.571H25.6152V156.625H11.3073V160.571Z" fill="#455A64"/>
<path d="M102.094 10.3263C102.094 12.0801 101.609 13.7993 100.692 15.2922C99.7755 16.7851 98.4638 17.9929 96.9033 18.781C95.3429 19.569 93.595 19.9062 91.8548 19.755C90.1145 19.6038 88.4504 18.9701 87.048 17.9246L82.4258 19.1093L84.3485 14.7924C83.6718 13.5231 83.2923 12.1155 83.2388 10.6768C83.1853 9.2381 83.4593 7.80607 84.0399 6.48964C84.6205 5.17322 85.4924 4.00704 86.5893 3.07981C87.6863 2.15257 88.9794 1.48869 90.3703 1.13864C91.7612 0.788592 93.2133 0.761598 94.6162 1.05971C96.019 1.35782 97.3357 1.97319 98.4661 2.85902C99.5965 3.74484 100.511 4.87781 101.14 6.17176C101.768 7.4657 102.095 8.88656 102.094 10.3263Z" fill="white"/>
<path d="M102.095 10.3264C102.094 12.0809 101.612 13.8013 100.703 15.2996C100.481 15.6776 100.238 16.0419 99.9728 16.3906C99.6912 16.7244 99.3893 17.0404 99.0687 17.3366C98.4355 17.936 97.721 18.4425 96.9465 18.841C96.1696 19.2391 95.341 19.526 94.4848 19.6933C94.0546 19.7771 93.6192 19.8312 93.1817 19.8552C92.7453 19.8914 92.3066 19.8914 91.8702 19.8552C90.1048 19.7177 88.412 19.0907 86.9806 18.044L87.108 18.0696L82.4985 19.2884L82.125 19.3864L82.282 19.0285L84.1878 14.703V14.882C83.4946 13.588 83.1072 12.1513 83.0557 10.6829C83.0042 9.21458 83.2899 7.75401 83.8907 6.4143C84.4922 5.07834 85.3876 3.89669 86.5095 2.95819C87.63 2.03352 88.9445 1.37565 90.3544 1.03392C91.7644 0.692201 93.233 0.675505 94.6503 0.98509C96.0548 1.30587 97.3701 1.93778 98.5 2.8346C99.6244 3.72914 100.532 4.86809 101.155 6.16575C101.778 7.46341 102.099 8.88598 102.095 10.3264ZM102.095 10.3264C102.095 8.16076 101.349 6.06183 99.9823 4.38617C98.6159 2.71051 96.7139 1.56147 94.5994 1.13425C93.2086 0.856283 91.7731 0.900004 90.4016 1.26209C89.0346 1.61656 87.767 2.28139 86.6962 3.20536C85.6353 4.13932 84.7895 5.29392 84.2175 6.58902C83.6534 7.88047 83.3892 9.28382 83.445 10.6929C83.5104 12.0879 83.8814 13.4513 84.5316 14.686L84.5783 14.7754L84.5358 14.8649L82.5961 19.1776L82.3797 18.9219L87.0103 17.7713H87.0825L87.1377 17.8139C88.5102 18.8606 90.1461 19.5025 91.8617 19.6677C92.2856 19.699 92.7112 19.699 93.135 19.6677C94.4321 19.623 95.7044 19.2989 96.8659 18.7174C97.6406 18.3387 98.3557 17.8476 98.9881 17.2599C99.3085 16.968 99.6105 16.6563 99.8922 16.3266C100.162 15.9876 100.413 15.6333 100.643 15.2655C101.569 13.784 102.072 12.0753 102.095 10.3264Z" fill="#263238"/>
<path d="M93.3222 11.3496V12.3937C93.3251 12.498 93.3068 12.6018 93.2684 12.6988C93.2299 12.7958 93.1722 12.8839 93.0987 12.9577C93.0252 13.0315 92.9375 13.0895 92.8409 13.128C92.7443 13.1666 92.6409 13.185 92.537 13.1821C92.434 13.1821 92.3321 13.1616 92.2371 13.122C92.1421 13.0823 92.0558 13.0242 91.9832 12.9509C91.9106 12.8776 91.8532 12.7907 91.8142 12.6951C91.7752 12.5994 91.7554 12.497 91.756 12.3937V10.7274C91.756 10.7274 91.756 10.7274 91.756 10.6933C91.756 10.6592 91.756 10.6933 91.756 10.6635C91.7613 10.4568 91.8452 10.26 91.9904 10.1134C92.1356 9.96683 92.3311 9.88156 92.537 9.8751C92.7792 9.88695 93.0214 9.84928 93.2487 9.76436C93.476 9.67944 93.6838 9.54904 93.8595 9.38108C94.0351 9.21312 94.1749 9.01109 94.2704 8.78724C94.366 8.5634 94.4153 8.3224 94.4153 8.07886C94.4153 7.83533 94.366 7.59433 94.2704 7.37048C94.1749 7.14664 94.0351 6.94461 93.8595 6.77665C93.6838 6.60868 93.476 6.47829 93.2487 6.39337C93.0214 6.30845 92.7792 6.27077 92.537 6.28262C92.2269 6.28164 91.922 6.36265 91.6531 6.5175C91.3841 6.67236 91.1605 6.89559 91.0047 7.16476C90.9524 7.25555 90.8828 7.33508 90.7999 7.3988C90.7169 7.46252 90.6223 7.50918 90.5213 7.5361C90.4204 7.56303 90.3151 7.56968 90.2116 7.55568C90.1081 7.54169 90.0084 7.50732 89.9181 7.45455C89.8296 7.40187 89.7522 7.33214 89.6906 7.24936C89.629 7.16658 89.5843 7.07238 89.559 6.97218C89.5338 6.87198 89.5285 6.76776 89.5435 6.66551C89.5585 6.56326 89.5935 6.465 89.6465 6.37638C89.9257 5.89364 90.3199 5.48808 90.7938 5.19611C91.2676 4.90413 91.8063 4.73488 92.3614 4.70356C92.9165 4.67223 93.4707 4.7798 93.9741 5.01662C94.4776 5.25343 94.9146 5.61208 95.2459 6.06035C95.5772 6.50863 95.7925 7.0325 95.8724 7.58493C95.9522 8.13736 95.8942 8.70106 95.7035 9.22541C95.5127 9.74976 95.1953 10.2183 94.7797 10.5891C94.3641 10.9599 93.8632 11.2212 93.3222 11.3496ZM93.3222 14.8654V15.1552C93.3245 15.2591 93.3058 15.3625 93.2671 15.459C93.2284 15.5555 93.1706 15.643 93.0971 15.7164C93.0237 15.7897 92.9361 15.8473 92.8398 15.8856C92.7435 15.9239 92.6405 15.9422 92.537 15.9393C92.3298 15.9393 92.1312 15.8567 91.9847 15.7096C91.8383 15.5626 91.756 15.3631 91.756 15.1552V14.8654C91.7582 14.6577 91.841 14.4591 91.9869 14.3118C92.1328 14.1646 92.3301 14.0803 92.537 14.077C92.6404 14.0758 92.743 14.0955 92.8388 14.1347C92.9346 14.1739 93.0216 14.2319 93.0947 14.3054C93.1679 14.3788 93.2257 14.4662 93.2647 14.5623C93.3038 14.6585 93.3233 14.7615 93.3222 14.8654Z" fill="#4479F0"/>
</g>
<defs>
<clipPath id="clip0_1_21492">
<rect width="177.035" height="180.523" fill="white" transform="translate(0.417969 0.767578)"/>
</clipPath>
</defs>
</svg>
