<svg width="160" height="160" viewBox="0 0 160 160" fill="none" xmlns="http://www.w3.org/2000/svg">
<rect x="1.11404" y="1.16747" width="157.772" height="157.772" rx="5.71949" fill="white" stroke="#ACB1C4" stroke-width="1.74419"/>
<path d="M144.099 71.2459H133.072V84.6354H130.238V77.0544H116.218V89.0571H114.362V60.8914H102.178V68.6222H95.9293V78.2403H94.0389V72.1927H82.9639V90.2462H79.7217V75.5688H69.5936V64.4205H62.7044V58.0732H54.7345V86.2293H52.0566V74.4817H38.9317V91.2982H37.1146V77.5708H23.8048V65.2047H16.3418V122.808H144.099V71.2459Z" fill="#EBEBEB"/>
<path d="M140.88 75.4896H142.745V72.9296H140.88V75.4896Z" fill="white"/>
<path d="M137.647 75.4896H139.512V72.9296H137.647V75.4896Z" fill="white"/>
<path d="M134.418 75.4896H136.283V72.9296H134.418V75.4896Z" fill="white"/>
<path d="M140.88 79.3407H142.745V76.7808H140.88V79.3407Z" fill="white"/>
<path d="M137.647 79.3405H139.512V76.7806H137.647V79.3405Z" fill="white"/>
<path d="M134.418 79.3407H136.283V76.7808H134.418V79.3407Z" fill="white"/>
<path d="M140.88 83.1919H142.745V80.632H140.88V83.1919Z" fill="white"/>
<path d="M137.647 83.1919H139.512V80.632H137.647V83.1919Z" fill="white"/>
<path d="M134.418 83.1919H136.283V80.632H134.418V83.1919Z" fill="white"/>
<path d="M140.88 87.0465H142.745V84.4865H140.88V87.0465Z" fill="white"/>
<path d="M137.647 87.0465H139.512V84.4865H137.647V87.0465Z" fill="white"/>
<path d="M134.418 87.0465H136.283V84.4865H134.418V87.0465Z" fill="white"/>
<path d="M76.3008 79.5349H78.1658V77.399H76.3008V79.5349Z" fill="white"/>
<path d="M73.0689 79.5349H74.9338V77.399H73.0689V79.5349Z" fill="white"/>
<path d="M69.8362 79.5349H71.7012V77.399H69.8362V79.5349Z" fill="white"/>
<path d="M76.3008 82.7458H78.1658V80.6098H76.3008V82.7458Z" fill="white"/>
<path d="M73.0689 82.7458H74.9338V80.6098H73.0689V82.7458Z" fill="white"/>
<path d="M69.8362 82.7458H71.7012V80.6098H69.8362V82.7458Z" fill="white"/>
<path d="M76.3008 85.9598H78.1658V83.8239H76.3008V85.9598Z" fill="white"/>
<path d="M73.0689 85.9598H74.9338V83.8239H73.0689V85.9598Z" fill="white"/>
<path d="M69.836 85.9598H71.7009V83.8239H69.836V85.9598Z" fill="white"/>
<path d="M76.3008 89.1722H78.1658V87.0363H76.3008V89.1722Z" fill="white"/>
<path d="M73.0689 89.1722H74.9338V87.0363H73.0689V89.1722Z" fill="white"/>
<path d="M69.836 89.1722H71.7009V87.0363H69.836V89.1722Z" fill="white"/>
<path d="M76.3008 92.4664H78.1658V90.3305H76.3008V92.4664Z" fill="white"/>
<path d="M73.0689 92.4664H74.9338V90.3305H73.0689V92.4664Z" fill="white"/>
<path d="M69.836 92.4664H71.7009V90.3305H69.836V92.4664Z" fill="white"/>
<path d="M76.3008 95.759H78.1658V93.623H76.3008V95.759Z" fill="white"/>
<path d="M73.0689 95.759H74.9338V93.623H73.0689V95.759Z" fill="white"/>
<path d="M69.8362 95.759H71.7012V93.623H69.8362V95.759Z" fill="white"/>
<path d="M76.3008 99.0514H78.1658V96.9155H76.3008V99.0514Z" fill="white"/>
<path d="M73.0689 99.0514H74.9338V96.9155H73.0689V99.0514Z" fill="white"/>
<path d="M69.836 99.0514H71.7009V96.9155H69.836V99.0514Z" fill="white"/>
<path d="M76.3008 102.345H78.1658V100.209H76.3008V102.345Z" fill="white"/>
<path d="M73.0689 102.345H74.9338V100.209H73.0689V102.345Z" fill="white"/>
<path d="M69.8362 102.345H71.7012V100.209H69.8362V102.345Z" fill="white"/>
<path d="M117.908 80.2963H128.645V78.6959H117.908V80.2963Z" fill="white"/>
<path d="M117.908 83.4049H128.645V81.8045H117.908V83.4049Z" fill="white"/>
<path d="M117.908 86.5134H128.645V84.913H117.908V86.5134Z" fill="white"/>
<path d="M117.908 89.6167H128.645V88.0163H117.908V89.6167Z" fill="white"/>
<path d="M117.908 92.7253H128.645V91.1249H117.908V92.7253Z" fill="white"/>
<path d="M117.908 95.8272H128.645V94.2268H117.908V95.8272Z" fill="white"/>
<path d="M117.908 98.9373H128.645V97.3369H117.908V98.9373Z" fill="white"/>
<path d="M117.908 102.042H128.645V100.442H117.908V102.042Z" fill="white"/>
<path d="M40.5995 77.5744H50.4727V75.9741H40.5995V77.5744Z" fill="white"/>
<path d="M40.5995 80.6795H50.4727V79.0792H40.5995V80.6795Z" fill="white"/>
<path d="M40.5995 83.7881H50.4727V82.1877H40.5995V83.7881Z" fill="white"/>
<path d="M40.5995 86.8966H50.4727V85.2962H40.5995V86.8966Z" fill="white"/>
<path d="M40.5995 89.9983H50.4727V88.398H40.5995V89.9983Z" fill="white"/>
<path d="M40.5995 93.1068H50.4727V91.5065H40.5995V93.1068Z" fill="white"/>
<path d="M40.5995 96.2103H50.4727V94.6099H40.5995V96.2103Z" fill="white"/>
<path d="M40.5995 99.3205H50.4727V97.7202H40.5995V99.3205Z" fill="white"/>
<path d="M40.5995 102.269H50.4727V100.669H40.5995V102.269Z" fill="white"/>
<path d="M40.5995 105.221H50.4727V103.62H40.5995V105.221Z" fill="white"/>
<path d="M40.5995 108.174H50.4727V106.574H40.5995V108.174Z" fill="white"/>
<path d="M40.5995 111.124H50.4727V109.524H40.5995V111.124Z" fill="white"/>
<path d="M40.5995 114.075H50.4727V112.474H40.5995V114.075Z" fill="white"/>
<path d="M24.6376 81.3268H35.0654V79.7264H24.6376V81.3268Z" fill="white"/>
<path d="M24.6376 84.4319H35.0654V82.8316H24.6376V84.4319Z" fill="white"/>
<path d="M24.6376 87.5404H35.0654V85.9401H24.6376V87.5404Z" fill="white"/>
<path d="M24.6376 90.6473H35.0654V89.0469H24.6376V90.6473Z" fill="white"/>
<path d="M24.6376 93.7507H35.0654V92.1504H24.6376V93.7507Z" fill="white"/>
<path d="M24.6376 96.8593H35.0654V95.2589H24.6376V96.8593Z" fill="white"/>
<path d="M24.6376 99.9678H35.0654V98.3674H24.6376V99.9678Z" fill="white"/>
<path d="M24.6376 103.071H35.0654V101.471H24.6376V103.071Z" fill="white"/>
<path d="M24.6376 105.853H35.0654V104.252H24.6376V105.853Z" fill="white"/>
<path d="M24.6376 108.633H35.0654V107.032H24.6376V108.633Z" fill="white"/>
<path d="M24.6376 111.411H35.0654V109.81H24.6376V111.411Z" fill="white"/>
<path d="M87.4804 75.1864H90.7959V73.6402H87.4804V75.1864Z" fill="white"/>
<path d="M87.4804 78.1876H90.7959V76.6414H87.4804V78.1876Z" fill="white"/>
<path d="M87.4804 81.1871H90.7959V79.6409H87.4804V81.1871Z" fill="white"/>
<path d="M87.4804 84.1866H90.7959V82.6405H87.4804V84.1866Z" fill="white"/>
<path d="M87.4804 87.1862H90.7959V85.64H87.4804V87.1862Z" fill="white"/>
<path d="M87.4804 90.1874H90.7959V88.6412H87.4804V90.1874Z" fill="white"/>
<path d="M87.4804 93.1869H90.7959V91.6407H87.4804V93.1869Z" fill="white"/>
<path d="M87.4804 96.1847H90.7959V94.6386H87.4804V96.1847Z" fill="white"/>
<path d="M82.9709 75.1864H86.2864V73.6402H82.9709V75.1864Z" fill="white"/>
<path d="M82.9709 78.1876H86.2864V76.6414H82.9709V78.1876Z" fill="white"/>
<path d="M82.9709 81.1871H86.2864V79.6409H82.9709V81.1871Z" fill="white"/>
<path d="M82.9709 84.1866H86.2864V82.6405H82.9709V84.1866Z" fill="white"/>
<path d="M82.9709 87.186H86.2864V85.6399H82.9709V87.186Z" fill="white"/>
<path d="M82.9709 90.1874H86.2864V88.6412H82.9709V90.1874Z" fill="white"/>
<path d="M82.9709 93.1867H86.2864V91.6405H82.9709V93.1867Z" fill="white"/>
<path d="M82.9709 96.1847H86.2864V94.6386H82.9709V96.1847Z" fill="white"/>
<path d="M109.057 64.9495H112.513V62.5107H109.057V64.9495Z" fill="white"/>
<path d="M103.906 64.9495H107.361V62.5107H103.906V64.9495Z" fill="white"/>
<path d="M109.057 68.5333H112.513V66.0945H109.057V68.5333Z" fill="white"/>
<path d="M103.906 68.5333H107.361V66.0945H103.906V68.5333Z" fill="white"/>
<path d="M109.057 72.1136H112.513V69.6748H109.057V72.1136Z" fill="white"/>
<path d="M103.906 72.1136H107.361V69.6748H103.906V72.1136Z" fill="white"/>
<path d="M109.057 75.6974H112.513V73.2586H109.057V75.6974Z" fill="white"/>
<path d="M103.906 75.6974H107.361V73.2586H103.906V75.6974Z" fill="white"/>
<path d="M109.057 79.2777H112.513V76.8389H109.057V79.2777Z" fill="white"/>
<path d="M103.906 79.2777H107.361V76.8389H103.906V79.2777Z" fill="white"/>
<path d="M109.057 82.8598H112.513V80.421H109.057V82.8598Z" fill="white"/>
<path d="M103.906 82.8598H107.361V80.421H103.906V82.8598Z" fill="white"/>
<path d="M109.057 86.4401H112.513V84.0013H109.057V86.4401Z" fill="white"/>
<path d="M103.906 86.4401H107.361V84.0013H103.906V86.4401Z" fill="white"/>
<path d="M109.057 90.0256H112.513V87.5868H109.057V90.0256Z" fill="white"/>
<path d="M103.906 90.0256H107.361V87.5868H103.906V90.0256Z" fill="white"/>
<path d="M97.5233 72.1136H100.979V69.6748H97.5233V72.1136Z" fill="white"/>
<path d="M97.5233 75.6974H100.979V73.2586H97.5233V75.6974Z" fill="white"/>
<path d="M97.5233 79.2777H100.979V76.8389H97.5233V79.2777Z" fill="white"/>
<path d="M97.5233 82.8598H100.979V80.421H97.5233V82.8598Z" fill="white"/>
<path d="M97.5233 86.4401H100.979V84.0013H97.5233V86.4401Z" fill="white"/>
<path d="M97.5233 90.0256H100.979V87.5868H97.5233V90.0256Z" fill="white"/>
<path d="M109.057 93.5634H112.513V91.1246H109.057V93.5634Z" fill="white"/>
<path d="M103.906 93.5634H107.361V91.1246H103.906V93.5634Z" fill="white"/>
<path d="M97.5233 93.5634H100.979V91.1246H97.5233V93.5634Z" fill="white"/>
<path d="M109.057 97.1011H112.513V94.6623H109.057V97.1011Z" fill="white"/>
<path d="M103.906 97.1011H107.361V94.6623H103.906V97.1011Z" fill="white"/>
<path d="M97.5233 97.1011H100.979V94.6623H97.5233V97.1011Z" fill="white"/>
<path d="M109.057 100.641H112.513V98.2018H109.057V100.641Z" fill="white"/>
<path d="M103.906 100.641H107.361V98.2018H103.906V100.641Z" fill="white"/>
<path d="M97.5233 100.641H100.979V98.2018H97.5233V100.641Z" fill="white"/>
<path d="M109.057 104.178H112.513V101.74H109.057V104.178Z" fill="white"/>
<path d="M103.906 104.178H107.361V101.74H103.906V104.178Z" fill="white"/>
<path d="M97.5233 104.178H100.979V101.74H97.5233V104.178Z" fill="white"/>
<path d="M109.057 107.714H112.513V105.276H109.057V107.714Z" fill="white"/>
<path d="M103.906 107.714H107.361V105.276H103.906V107.714Z" fill="white"/>
<path d="M97.5233 107.714H100.979V105.276H97.5233V107.714Z" fill="white"/>
<path d="M66.3194 68.1279H68.1843V65.9919H66.3194V68.1279Z" fill="white"/>
<path d="M63.0865 68.1279H64.9514V65.9919H63.0865V68.1279Z" fill="white"/>
<path d="M66.3194 71.3418H68.1843V69.2059H66.3194V71.3418Z" fill="white"/>
<path d="M63.0865 71.342H64.9514V69.2061H63.0865V71.342Z" fill="white"/>
<path d="M66.3194 74.5544H68.1843V72.4185H66.3194V74.5544Z" fill="white"/>
<path d="M63.0865 74.5544H64.9514V72.4185H63.0865V74.5544Z" fill="white"/>
<path d="M66.3194 77.7703H68.1843V75.6343H66.3194V77.7703Z" fill="white"/>
<path d="M63.0865 77.7703H64.9514V75.6343H63.0865V77.7703Z" fill="white"/>
<path d="M66.3194 81.0611H68.1843V78.9251H66.3194V81.0611Z" fill="white"/>
<path d="M63.0865 81.0611H64.9514V78.9251H63.0865V81.0611Z" fill="white"/>
<path d="M66.3194 84.3519H68.1843V82.2159H66.3194V84.3519Z" fill="white"/>
<path d="M63.0865 84.3519H64.9514V82.2159H63.0865V84.3519Z" fill="white"/>
<path d="M66.3194 87.6444H68.1843V85.5084H66.3194V87.6444Z" fill="white"/>
<path d="M63.0865 87.6443H64.9514V85.5084H63.0865V87.6443Z" fill="white"/>
<path d="M66.3194 90.9385H68.1843V88.8026H66.3194V90.9385Z" fill="white"/>
<path d="M63.0865 90.9385H64.9514V88.8026H63.0865V90.9385Z" fill="white"/>
<path d="M66.3194 94.2668H68.1843V92.1309H66.3194V94.2668Z" fill="white"/>
<path d="M63.0865 94.2668H64.9514V92.1309H63.0865V94.2668Z" fill="white"/>
<path d="M66.3194 97.5968H68.1843V95.4608H66.3194V97.5968Z" fill="white"/>
<path d="M63.0865 97.5968H64.9514V95.4608H63.0865V97.5968Z" fill="white"/>
<path d="M66.3194 100.923H68.1843V98.7874H66.3194V100.923Z" fill="white"/>
<path d="M63.0865 100.923H64.9514V98.7874H63.0865V100.923Z" fill="white"/>
<path d="M66.3194 104.252H68.1843V102.116H66.3194V104.252Z" fill="white"/>
<path d="M63.0865 104.252H64.9514V102.116H63.0865V104.252Z" fill="white"/>
<path d="M20.7723 68.8552H22.6372V66.3399H20.7723V68.8552Z" fill="white"/>
<path d="M17.5376 68.8552H19.4026V66.3399H17.5376V68.8552Z" fill="white"/>
<path d="M20.7723 72.6399H22.6372V70.1246H20.7723V72.6399Z" fill="white"/>
<path d="M17.5376 72.6399H19.4026V70.1246H17.5376V72.6399Z" fill="white"/>
<path d="M20.7723 76.4264H22.6372V73.9111H20.7723V76.4264Z" fill="white"/>
<path d="M17.5376 76.4264H19.4026V73.9111H17.5376V76.4264Z" fill="white"/>
<path d="M20.7723 80.2111H22.6372V77.6958H20.7723V80.2111Z" fill="white"/>
<path d="M17.5376 80.2111H19.4026V77.6958H17.5376V80.2111Z" fill="white"/>
<path d="M20.7723 84.093H22.6372V81.5777H20.7723V84.093Z" fill="white"/>
<path d="M17.5376 84.093H19.4026V81.5777H17.5376V84.093Z" fill="white"/>
<path d="M20.7723 87.9748H22.6372V85.4595H20.7723V87.9748Z" fill="white"/>
<path d="M17.5376 87.9748H19.4026V85.4595H17.5376V87.9748Z" fill="white"/>
<path d="M20.7723 91.8498H22.6372V89.3345H20.7723V91.8498Z" fill="white"/>
<path d="M17.5376 91.8498H19.4026V89.3345H17.5376V91.8498Z" fill="white"/>
<path d="M20.7723 95.7317H22.6372V93.2164H20.7723V95.7317Z" fill="white"/>
<path d="M17.5376 95.7317H19.4026V93.2164H17.5376V95.7317Z" fill="white"/>
<path d="M20.7723 99.6526H22.6372V97.1374H20.7723V99.6526Z" fill="white"/>
<path d="M17.5376 99.6526H19.4026V97.1374H17.5376V99.6526Z" fill="white"/>
<path d="M20.7723 103.569H22.6372V101.053H20.7723V103.569Z" fill="white"/>
<path d="M17.5376 103.569H19.4026V101.053H17.5376V103.569Z" fill="white"/>
<path d="M20.7723 107.493H22.6372V104.978H20.7723V107.493Z" fill="white"/>
<path d="M17.5376 107.493H19.4026V104.978H17.5376V107.493Z" fill="white"/>
<path d="M20.7723 111.411H22.6372V108.895H20.7723V111.411Z" fill="white"/>
<path d="M17.5376 111.411H19.4026V108.895H17.5376V111.411Z" fill="white"/>
<path d="M59.4082 68.1279H61.2732V65.9919H59.4082V68.1279Z" fill="white"/>
<path d="M56.1753 68.1279H58.0403V65.9919H56.1753V68.1279Z" fill="white"/>
<path d="M59.4082 64.8337H61.2732V62.6977H59.4082V64.8337Z" fill="white"/>
<path d="M56.1753 64.8337H58.0403V62.6977H56.1753V64.8337Z" fill="white"/>
<path d="M59.4082 61.5412H61.2732V59.4052H59.4082V61.5412Z" fill="white"/>
<path d="M56.1753 61.5412H58.0403V59.4052H56.1753V61.5412Z" fill="white"/>
<path d="M59.4082 71.342H61.2732V69.2061H59.4082V71.342Z" fill="white"/>
<path d="M56.1751 71.3418H58.04V69.2059H56.1751V71.3418Z" fill="white"/>
<path d="M59.4082 74.5544H61.2732V72.4185H59.4082V74.5544Z" fill="white"/>
<path d="M56.1753 74.5544H58.0403V72.4185H56.1753V74.5544Z" fill="white"/>
<path d="M59.4082 77.7703H61.2732V75.6343H59.4082V77.7703Z" fill="white"/>
<path d="M56.1753 77.7703H58.0403V75.6343H56.1753V77.7703Z" fill="white"/>
<path d="M59.4082 81.0611H61.2732V78.9251H59.4082V81.0611Z" fill="white"/>
<path d="M56.1753 81.0611H58.0403V78.9251H56.1753V81.0611Z" fill="white"/>
<path d="M59.4082 84.3519H61.2732V82.2159H59.4082V84.3519Z" fill="white"/>
<path d="M56.1753 84.3519H58.0403V82.2159H56.1753V84.3519Z" fill="white"/>
<path d="M59.4082 87.6443H61.2732V85.5084H59.4082V87.6443Z" fill="white"/>
<path d="M56.1751 87.6444H58.04V85.5084H56.1751V87.6444Z" fill="white"/>
<path d="M59.4082 90.9385H61.2732V88.8026H59.4082V90.9385Z" fill="white"/>
<path d="M56.1753 90.9385H58.0403V88.8026H56.1753V90.9385Z" fill="white"/>
<path d="M59.4082 94.2668H61.2732V92.1309H59.4082V94.2668Z" fill="white"/>
<path d="M56.1751 94.2668H58.04V92.1309H56.1751V94.2668Z" fill="white"/>
<path d="M59.4082 97.5968H61.2732V95.4608H59.4082V97.5968Z" fill="white"/>
<path d="M56.1753 97.5968H58.0403V95.4608H56.1753V97.5968Z" fill="white"/>
<path d="M59.4082 100.923H61.2732V98.7874H59.4082V100.923Z" fill="white"/>
<path d="M56.1753 100.923H58.0403V98.7874H56.1753V100.923Z" fill="white"/>
<path d="M59.4082 104.252H61.2732V102.116H59.4082V104.252Z" fill="white"/>
<path d="M56.1753 104.252H58.0403V102.116H56.1753V104.252Z" fill="white"/>
<path d="M142.741 53.4857H108.417C108.417 53.4857 111.821 44.1896 117.059 44.1896C122.297 44.1896 123.936 50.6069 123.936 50.6069C123.936 50.6069 127.471 47.1193 130.372 47.1193C133.273 47.1193 135.792 51.7259 135.792 51.7259C135.792 51.7259 139.901 49.2489 142.741 53.4857Z" fill="#EBEBEB"/>
<path d="M123.531 35.1005H107.489C107.489 35.1005 111.072 29.9073 113.897 29.9073C116.721 29.9073 117.557 33.3695 117.557 33.3695C117.557 33.3695 119.549 31.7532 121.382 32.0433C123.215 32.3334 123.531 35.1005 123.531 35.1005Z" fill="#EBEBEB"/>
<path d="M48.9447 50.7167H17.7026C17.7026 50.7167 21.9841 41.1528 26.5588 40.5662C31.1335 39.9797 33.3269 47.6658 33.3269 47.6658C33.3269 47.6658 36.2789 44.9465 38.5997 44.9465C40.9206 44.9465 42.7122 48.5298 42.7122 48.5298C42.7122 48.5298 47.3539 46.075 48.9447 50.7167Z" fill="#EBEBEB"/>
<path d="M78.6404 27.0838H57.5361C57.5361 27.0838 61.1608 20.1627 65.0948 20.0703C69.0287 19.9778 71.0945 25.3081 71.0945 25.3081C71.0945 25.3081 77.2122 20.3922 78.6404 27.0838Z" fill="#EBEBEB"/>
<path d="M93.0571 139.377C121.763 139.377 145.034 137.837 145.034 135.937C145.034 134.038 121.763 132.498 93.0571 132.498C64.3513 132.498 41.0806 134.038 41.0806 135.937C41.0806 137.837 64.3513 139.377 93.0571 139.377Z" fill="#EBEBEB"/>
<path d="M154.926 122.808L136.251 122.885L117.572 122.914L80.2221 122.968L42.8688 122.914L24.1905 122.885L5.51538 122.808L24.1905 122.729L42.8688 122.703L80.2221 122.649L117.572 122.703L136.251 122.729L154.926 122.808Z" fill="#263238"/>
<path d="M77.8888 73.5008C83.286 79.1116 99.4904 104.086 100.753 104.832C100.753 104.832 100.753 121.164 91.7277 117.903C82.7026 114.641 74.4298 85.3409 72.6637 76.0001C71.7328 71.0779 73.4862 68.9229 77.8888 73.5008Z" fill="#D3766A"/>
<path d="M76.517 92.8101L93.0561 90.9292C93.0561 90.9292 82.7973 77.3197 77.4925 72.4613C71.9677 67.3988 69.258 68.1097 71.8179 77.6991C74.397 87.3459 76.517 92.8101 76.517 92.8101Z" fill="#0077F9"/>
<path d="M75.74 83.7994C75.5583 84.2557 75.4423 84.7355 75.3957 85.2244C75.6868 84.834 75.9218 84.4048 76.0939 83.9492C76.2753 83.4939 76.3912 83.0152 76.4382 82.5274C76.1442 82.9148 75.909 83.3434 75.74 83.7994ZM85.0298 84.1724C84.5747 83.9903 84.0959 83.8743 83.6079 83.8281C83.9982 84.1193 84.4275 84.3544 84.8831 84.5262C85.3385 84.7073 85.8172 84.8232 86.305 84.8706C85.917 84.5757 85.4872 84.3404 85.0298 84.1724ZM82.5655 90.6057C82.3708 90.156 82.1132 89.7363 81.8004 89.3592C81.8735 89.8433 82.0152 90.3145 82.2212 90.7587C82.4096 91.2112 82.6654 91.6325 82.9799 92.0084C82.9085 91.5237 82.7689 91.0514 82.5655 90.6057ZM72.8613 69.8839C72.7784 69.7086 72.6955 69.5364 72.5999 69.3643C72.4865 69.3532 72.3722 69.3532 72.2588 69.3643C72.3353 69.597 72.4214 69.8202 72.517 70.0433C72.7085 70.4949 72.9652 70.916 73.2789 71.293C73.2071 70.8059 73.0665 70.3315 72.8613 69.8839ZM91.9221 89.4389L91.6034 89.5664C91.1522 89.7606 90.7304 90.017 90.3505 90.3283C90.8365 90.2563 91.3098 90.1157 91.7564 89.9107C91.8839 89.8533 92.0082 89.7928 92.1326 89.7258L91.9221 89.4389ZM79.1703 76.3013C78.7202 76.4944 78.2995 76.7498 77.9206 77.06C78.4067 76.9903 78.8803 76.8507 79.3265 76.6456C79.7771 76.4522 80.1979 76.1956 80.5762 75.8837C80.0877 75.9538 79.612 76.0945 79.1639 76.3013H79.1703ZM78.0609 76.33C78.0421 76.3428 78.024 76.3566 78.0067 76.3714H78.0641C78.0641 76.3714 78.0545 76.3396 78.0545 76.33H78.0609Z" fill="white"/>
<path d="M77.3122 89.8363C77.6979 89.747 78.1028 89.7088 78.4949 89.6546L79.7095 89.4888C80.532 89.374 81.3545 89.272 82.177 89.17C83.822 88.9756 85.467 88.7779 87.1152 88.6121C87.5679 88.5675 88.0206 88.5261 88.4764 88.491C88.9323 88.4559 89.4328 88.4559 89.911 88.4177C89.9397 88.4177 89.9397 88.4591 89.911 88.4655C89.5062 88.5229 89.1045 88.6185 88.6996 88.6791C88.2947 88.7397 87.8644 88.8034 87.4467 88.8544C86.6242 88.9564 85.8017 89.0553 84.9792 89.1445C83.3598 89.3231 81.7371 89.5079 80.1112 89.6514L78.75 89.7662C78.2781 89.8076 77.7936 89.8746 77.3186 89.8746C77.3149 89.8732 77.3116 89.8709 77.3091 89.8679C77.3066 89.8648 77.3049 89.8612 77.3043 89.8573C77.3036 89.8534 77.304 89.8494 77.3054 89.8457C77.3068 89.842 77.3091 89.8388 77.3122 89.8363Z" fill="#263238"/>
<path opacity="0.1" d="M84.5382 91.908L76.5173 92.8198C76.5173 92.8198 74.3973 87.3556 71.8183 77.7088C70.7312 73.641 70.5941 71.1703 71.2189 70.0577L84.5382 91.908Z" fill="black"/>
<path d="M81.1051 126.826H55.9489C55.7417 126.016 55.5408 125.232 55.34 124.435C55.1105 123.533 54.8841 122.653 54.6673 121.795C54.6195 121.604 54.5685 121.413 54.5207 121.225C54.3549 120.568 54.1923 119.93 54.0329 119.312C53.9373 118.933 53.8417 118.56 53.7492 118.19C53.6568 117.82 53.5579 117.444 53.4655 117.084C53.44 116.988 53.4177 116.892 53.3922 116.8L53.3156 116.481L53.22 116.108C53.1849 115.977 53.1531 115.85 53.1212 115.722C53.0574 115.48 52.9968 115.241 52.9395 115.008C52.8502 114.664 52.7641 114.326 52.6812 113.998C52.6462 113.854 52.6079 113.711 52.5728 113.57C52.5123 113.341 52.4549 113.118 52.4007 112.898C52.3624 112.751 52.3274 112.608 52.2923 112.467C52.1435 111.889 52.0054 111.347 51.8779 110.842C51.8428 110.708 51.8109 110.577 51.7759 110.449C51.7217 110.229 51.6675 110.019 51.6165 109.812C51.5803 109.684 51.5484 109.56 51.5208 109.439C51.4092 109.005 51.3072 108.61 51.2211 108.262C51.1956 108.17 51.1733 108.081 51.151 107.995C51.0936 107.765 51.0394 107.561 50.9948 107.379C50.9757 107.306 50.9597 107.236 50.9406 107.172L50.8896 106.971C50.8896 106.927 50.8673 106.882 50.8577 106.844L50.8131 106.672L50.794 106.595L50.7366 106.369H75.2233C75.2233 106.369 76.0299 109.149 77.321 113.631C77.5824 114.543 77.8661 115.528 78.169 116.573C79.0266 119.564 80.0276 123.051 81.1051 126.826Z" fill="#37474F"/>
<path d="M60.0682 126.826H59.4306C58.4997 122.973 57.5975 119.112 56.724 115.244C56.5115 114.303 56.299 113.361 56.0864 112.42L56.0291 112.155C56.028 112.146 56.0303 112.137 56.0355 112.129C56.0407 112.121 56.0485 112.116 56.0574 112.114C56.0663 112.111 56.0758 112.112 56.0841 112.116C56.0923 112.12 56.0989 112.127 56.1024 112.136C56.1024 112.165 56.1183 112.193 56.1279 112.222C56.4106 113.232 56.6922 114.244 56.9727 115.26C58.0481 119.105 59.0799 122.96 60.0682 126.826Z" fill="#263238"/>
<path d="M74.4295 106.373L73.3488 111.793L72.4625 116.23L70.9546 123.792L70.7984 124.567L70.5402 125.842L70.3457 126.821H55.9457C55.7417 126.008 55.5376 125.227 55.34 124.43C55.1105 123.528 54.8841 122.648 54.6673 121.79C54.6195 121.599 54.5685 121.408 54.5207 121.22C54.3549 120.563 54.1923 119.925 54.0329 119.307C53.9373 118.927 53.8417 118.554 53.7492 118.185C53.6568 117.815 53.5579 117.439 53.4655 117.078C53.44 116.983 53.4177 116.887 53.3922 116.795L53.3156 116.476L53.22 116.103C53.1849 115.972 53.1531 115.845 53.1212 115.717C53.0574 115.475 52.9968 115.236 52.9395 115.003C52.8502 114.659 52.7641 114.321 52.6812 113.992C52.643 113.846 52.6079 113.706 52.5728 113.565C52.5123 113.336 52.4549 113.113 52.4007 112.893C52.3624 112.746 52.3274 112.603 52.2923 112.462C52.1435 111.884 52.0054 111.342 51.8779 110.836C51.8428 110.702 51.8109 110.572 51.7759 110.444C51.7217 110.224 51.6675 110.014 51.6165 109.807C51.5803 109.679 51.5484 109.555 51.5208 109.434C51.4092 109 51.3072 108.605 51.2211 108.257C51.1956 108.165 51.1733 108.076 51.151 107.99C51.0936 107.76 51.0394 107.556 50.9948 107.374C50.9757 107.301 50.9597 107.231 50.9406 107.167L50.8896 106.966C50.8896 106.922 50.8673 106.877 50.8577 106.839L50.8131 106.667L50.794 106.59L50.7366 106.364L74.4295 106.373Z" fill="#263238"/>
<path d="M74.4327 106.362C74.4327 106.495 74.3306 107.956 74.0947 110.187C74.0278 110.825 73.9481 111.552 73.8556 112.317C73.7122 113.525 73.5368 114.867 73.3137 116.267C72.9375 118.724 72.4466 121.406 71.809 124.026C71.5826 124.982 71.334 125.904 71.0694 126.819H39.4607C39.8337 122.002 40.1748 117.647 40.4458 114.213C40.8252 109.381 41.0834 106.355 41.0834 106.355H69.7559L74.4327 106.362Z" fill="#37474F"/>
<path d="M74.3658 109.266C74.3307 110.398 74.2829 111.527 74.2095 112.652C74.133 113.873 74.0215 115.091 73.8621 116.309C73.8621 116.353 73.8621 116.398 73.8461 116.442C73.6952 117.584 73.5241 118.722 73.3329 119.857C73.1511 120.915 73.0141 122.056 72.5486 123.045C72.3717 123.424 72.1202 123.763 71.809 124.043C71.5243 124.303 71.1756 124.483 70.7984 124.565C70.7367 124.581 70.6738 124.592 70.6103 124.597H70.5561C70.5678 124.604 70.5772 124.614 70.5835 124.626C70.5897 124.637 70.5924 124.651 70.5912 124.664C70.5912 125.044 70.5912 125.429 70.5466 125.805C70.5466 125.805 70.5466 125.837 70.5466 125.853C70.5083 126.172 70.4478 126.491 70.3872 126.832H69.8452V126.813C69.9409 126.456 70.0206 126.096 70.1098 125.735C70.1991 125.375 70.3266 125.008 70.4127 124.635C70.4175 124.621 70.4263 124.609 70.4382 124.6C70.0942 124.617 69.7534 124.528 69.4616 124.345C69.1698 124.162 68.941 123.894 68.8059 123.577C68.6699 123.092 68.6611 122.581 68.7804 122.091C68.8793 121.454 68.9749 120.797 69.0737 120.15C69.2586 118.961 69.4977 117.785 69.7113 116.602L69.807 116.063C70.231 113.656 70.6741 111.249 71.2065 108.865C71.2256 108.766 71.2479 108.667 71.2702 108.568C71.2926 108.469 71.3914 108.52 71.385 108.568C71.3691 108.728 71.3531 108.887 71.334 109.05C71.2405 109.966 71.1342 110.877 71.0152 111.785C70.8622 112.853 70.757 113.927 70.6072 114.995C70.5561 115.359 70.5051 115.722 70.4509 116.085C70.2055 117.842 69.9504 119.592 69.6508 121.349C69.5105 122.162 69.0132 123.619 70.1736 123.87C70.4417 123.93 70.7221 123.895 70.9674 123.772C71.4841 123.46 71.8703 122.972 72.0545 122.398C72.3415 121.441 72.5494 120.462 72.6761 119.471C72.8674 118.408 73.0374 117.336 73.1862 116.254C73.3775 114.911 73.5773 113.571 73.7855 112.234C73.8897 111.552 73.9959 110.87 74.1043 110.188L74.2574 109.231C74.2606 109.18 74.3658 109.199 74.3658 109.266Z" fill="#263238"/>
<path d="M46.3942 117.669C47.7105 117.655 49.0201 117.478 50.2931 117.143C50.8797 116.993 51.4599 116.805 52.0369 116.613C52.6074 116.457 53.1415 116.189 53.6086 115.826C54.4948 115.061 54.9092 113.856 55.295 112.788C55.7159 111.582 56.0567 110.35 56.3151 109.099C56.3194 109.088 56.3276 109.078 56.3384 109.071C56.3492 109.065 56.3619 109.062 56.3743 109.064C56.3868 109.066 56.3981 109.072 56.4065 109.081C56.4149 109.091 56.4198 109.103 56.4204 109.115C56.4537 110.53 56.2753 111.942 55.8911 113.304C55.5724 114.458 55.1452 115.75 54.2111 116.559C53.277 117.369 51.8966 117.71 50.6374 117.866C49.2243 118.031 47.7959 118.011 46.3878 117.809C46.3692 117.808 46.3517 117.8 46.3392 117.786C46.3266 117.772 46.32 117.754 46.3209 117.736C46.3217 117.717 46.3299 117.699 46.3437 117.687C46.3574 117.674 46.3756 117.668 46.3942 117.669Z" fill="#263238"/>
<path d="M44.2047 109.138C44.1346 110.909 44.0602 112.679 43.9816 114.449C43.7988 118.575 43.6001 122.7 43.3854 126.825H42.7925C43.0645 122.689 43.3504 118.558 43.65 114.43C43.7818 112.664 43.9157 110.899 44.0517 109.135C44.0521 109.115 44.0606 109.095 44.0753 109.081C44.0899 109.067 44.1095 109.06 44.1298 109.06C44.1501 109.06 44.1694 109.069 44.1835 109.084C44.1975 109.098 44.2052 109.118 44.2047 109.138Z" fill="#263238"/>
<path d="M79.8755 119.455L36.991 116.204C36.991 116.204 45.6176 82.0096 62.6541 69.4426C67.0088 66.2292 71.7748 68.2918 73.9203 70.6923C79.3718 76.7877 79.9998 119.325 79.8755 119.455Z" fill="#0077F9"/>
<path d="M64.6359 70.9965C64.456 71.4523 64.3401 71.9308 64.2916 72.4184C64.5852 72.029 64.8213 71.5996 64.993 71.1432C65.1729 70.6874 65.2888 70.2089 65.3373 69.7213C65.0449 70.1115 64.8089 70.5407 64.6359 70.9965ZM59.9815 89.4421C59.7982 89.8977 59.6832 90.3779 59.6404 90.8671C59.9299 90.4762 60.1638 90.0471 60.3354 89.5919C60.5153 89.1362 60.6312 88.6577 60.6797 88.1701C60.388 88.559 60.153 88.9872 59.9815 89.4421ZM44.6601 97.3514C44.4787 97.8078 44.3628 98.2876 44.3158 98.7764C44.6075 98.3864 44.8426 97.9571 45.014 97.5013C45.1961 97.0462 45.3121 96.5674 45.3583 96.0794C45.0691 96.4699 44.8342 96.8978 44.6601 97.3514ZM57.0263 109.01C56.8412 109.464 56.7251 109.943 56.682 110.432C56.9732 110.042 57.2073 109.612 57.3769 109.156C57.5598 108.702 57.6758 108.223 57.7212 107.735C57.4255 108.124 57.1871 108.553 57.0135 109.01H57.0263ZM75.7396 83.7994C75.5578 84.2557 75.4419 84.7355 75.3953 85.2244C75.6864 84.834 75.9214 84.4048 76.0935 83.9492C76.2749 83.4939 76.3908 83.0152 76.4378 82.5274C76.1438 82.9148 75.9086 83.3434 75.7396 83.7994ZM68.1204 106.985C67.935 107.44 67.8179 107.919 67.7729 108.407C68.066 108.018 68.3011 107.589 68.4711 107.132C68.6525 106.677 68.7684 106.198 68.8153 105.71C68.5233 106.1 68.2892 106.529 68.1204 106.985ZM52.6556 82.9259C52.4738 83.3811 52.3578 83.8598 52.3113 84.3477C52.6037 83.9582 52.8388 83.5287 53.0094 83.0725C53.1912 82.6176 53.3061 82.1387 53.3505 81.6507C53.058 82.0397 52.8239 82.4693 52.6556 82.9259ZM69.7877 76.8177C69.3331 76.6341 68.8541 76.5182 68.3658 76.4735C68.7556 76.7648 69.185 76.9988 69.641 77.1684C70.0965 77.3528 70.5767 77.4688 71.0661 77.5127C70.6757 77.2206 70.2451 76.9865 69.7877 76.8177ZM74.6461 92.1869C74.1913 92.0041 73.7124 91.8881 73.2243 91.8426C73.6132 92.1352 74.0428 92.3694 74.4995 92.5376C74.9542 92.7215 75.4331 92.8386 75.9213 92.8851C75.5326 92.5914 75.103 92.3562 74.6461 92.1869ZM75.95 110.556C75.4948 110.374 75.0161 110.258 74.5282 110.212C74.917 110.505 75.3466 110.741 75.8034 110.91C76.2588 111.091 76.7374 111.207 77.2252 111.254C76.835 110.963 76.4057 110.728 75.95 110.556ZM45.4253 109.045C44.9702 108.863 44.4914 108.747 44.0034 108.701C44.3937 108.992 44.823 109.227 45.2786 109.399C45.734 109.58 46.2127 109.696 46.7004 109.743C46.3109 109.451 45.8815 109.216 45.4253 109.045ZM56.4588 97.2494C56.0038 97.0666 55.525 96.9496 55.037 96.9019C55.4265 97.1952 55.8559 97.4314 56.3121 97.6033C56.7679 97.7832 57.2464 97.8991 57.734 97.9476C57.3446 97.6541 56.9152 97.4179 56.4588 97.2462V97.2494ZM72.8609 69.8871C72.8162 69.7915 72.7716 69.699 72.7238 69.6066C72.5676 69.4886 72.405 69.3738 72.2297 69.2623C72.3086 69.5295 72.4044 69.7914 72.5166 70.0465C72.7081 70.4981 72.9648 70.9191 73.2785 71.2962C73.207 70.808 73.0664 70.3325 72.8609 69.8839V69.8871ZM60.329 79.7921C60.1368 79.3409 59.8801 78.92 59.5671 78.5424C59.6385 79.0272 59.778 79.4994 59.9815 79.9451C60.1761 80.3958 60.4337 80.8166 60.7466 81.1948C60.6765 80.7094 60.5358 80.2369 60.329 79.7921ZM71.3944 117.515C71.2021 117.065 70.9466 116.644 70.6357 116.266C70.7062 116.751 70.8458 117.223 71.0501 117.668C71.2318 118.088 71.4665 118.482 71.7483 118.841H71.7993C71.726 118.382 71.5898 117.935 71.3944 117.512V117.515ZM67.3234 95.3079C67.1294 94.8576 66.873 94.4369 66.5615 94.0583C66.6325 94.5435 66.7732 95.0159 66.9791 95.461C67.1709 95.9117 67.4264 96.3325 67.7378 96.7107C67.6676 96.2246 67.528 95.7512 67.3234 95.3048V95.3079ZM38.1152 112.249C38.0961 112.316 38.077 112.383 38.0547 112.446C38.0961 112.491 38.1344 112.539 38.1726 112.584C38.1604 112.47 38.1412 112.357 38.1152 112.246V112.249ZM50.8671 103.743C50.6736 103.294 50.417 102.874 50.1052 102.497C50.1751 102.981 50.3147 103.452 50.5196 103.896C50.7127 104.348 50.9705 104.769 51.2847 105.146C51.2099 104.659 51.0661 104.186 50.8575 103.74L50.8671 103.743ZM53.6024 116.017C53.4089 115.566 53.1524 115.146 52.8405 114.767C52.9121 115.252 53.0527 115.725 53.2581 116.17C53.451 116.622 53.7076 117.044 54.02 117.423C53.9465 116.935 53.8026 116.46 53.5928 116.014L53.6024 116.017ZM75.0478 101.25C74.5976 101.445 74.177 101.701 73.7981 102.012C74.2832 101.941 74.7556 101.8 75.2008 101.595C75.6552 101.403 76.0794 101.146 76.4601 100.833C75.9685 100.901 75.4895 101.041 75.0383 101.247L75.0478 101.25ZM41.2235 103.112L41.0609 103.552C41.4048 103.386 41.7261 103.177 42.0173 102.93C41.7441 102.962 41.4749 103.022 41.214 103.109L41.2235 103.112ZM63.0866 113.734C62.6359 113.926 62.215 114.182 61.8369 114.493C62.3228 114.422 62.7961 114.283 63.2428 114.079C63.6931 113.883 64.1137 113.626 64.4925 113.314C64.0004 113.381 63.5211 113.522 63.0706 113.731L63.0866 113.734ZM43.5348 116.578L43.3148 116.683L44.064 116.741C44.3771 116.583 44.6704 116.388 44.9375 116.16C44.4495 116.231 43.974 116.371 43.5252 116.575L43.5348 116.578ZM51.0456 90.3634C50.5965 90.5597 50.1761 90.816 49.7959 91.1253C50.2822 91.0546 50.7558 90.9139 51.2018 90.7077C51.6526 90.5159 52.0734 90.2604 52.4515 89.949C51.9623 90.0168 51.4855 90.1553 51.0361 90.3602L51.0456 90.3634ZM62.0377 102.573C61.5871 102.768 61.1663 103.026 60.7881 103.338C61.2744 103.268 61.7479 103.127 62.1939 102.921C62.6448 102.728 63.0656 102.471 63.4436 102.159C62.9547 102.228 62.478 102.366 62.0282 102.57L62.0377 102.573ZM67.7761 85.7887C67.3265 85.9841 66.906 86.2405 66.5264 86.5506C67.0112 86.4796 67.4835 86.3401 67.9291 86.1362C68.3797 85.9427 68.8005 85.6862 69.1788 85.3743C68.6876 85.4424 68.2087 85.5809 67.757 85.7855L67.7761 85.7887Z" fill="white"/>
<path d="M71.4895 77.8323C69.0157 77.4689 66.5035 72.4765 66.07 69.0686C66.0413 68.8359 69.8955 61.4812 70.4981 59.9446C70.6224 59.6258 79.2171 66.1197 79.2171 66.1197C79.2171 66.1197 76.9856 68.9634 75.9399 71.6476C75.8698 71.874 73.8805 78.1989 71.4895 77.8323Z" fill="#D3766A"/>
<path d="M79.231 66.1184C79.231 66.1184 76.9994 68.9653 75.9538 71.6496C75.9346 71.7038 75.8071 72.0959 75.5967 72.6633C71.1782 70.4318 69.377 66.4468 68.6501 63.8135C69.4854 62.143 70.2633 60.5714 70.5087 59.9497C70.6362 59.6309 79.231 66.1184 79.231 66.1184Z" fill="#263238"/>
<path d="M72.4818 48.0009C69.9697 50.9083 67.4544 61.4095 68.8922 64.6325C70.9771 69.3061 76.5433 72.1178 81.0447 69.1307C85.4186 66.2328 88.4535 52.4895 86.6491 49.3398C83.9904 44.7013 76.1958 43.7035 72.4818 48.0009Z" fill="#D3766A"/>
<path d="M79.2015 56.5231C78.8828 56.5518 78.564 56.5231 78.2452 56.5231C77.9068 56.5676 77.5632 56.5004 77.2665 56.3319C77.1834 56.2604 77.1264 56.1634 77.1045 56.0561C77.0826 55.9488 77.0969 55.8372 77.1453 55.7389C77.3748 55.3308 77.8275 55.2256 78.2738 55.2129C78.7213 55.1875 79.1623 55.3295 79.5108 55.6114C79.586 55.6803 79.6396 55.7697 79.6649 55.8685C79.6902 55.9674 79.6863 56.0715 79.6535 56.1681C79.6207 56.2648 79.5605 56.3498 79.4803 56.4128C79.4001 56.4759 79.3032 56.5142 79.2015 56.5231Z" fill="#263238"/>
<path d="M78.9212 58.0698C78.9212 58.0411 78.8606 58.0921 78.8543 58.1208C78.7363 58.8413 78.4781 59.6446 77.7863 59.753C77.764 59.753 77.7576 59.7913 77.7863 59.7945C78.5928 59.8391 78.9244 58.768 78.9212 58.0698Z" fill="#263238"/>
<path d="M78.4341 57.1958C77.3024 56.877 76.7541 59.1659 77.7965 59.4592C78.839 59.7525 79.3809 57.4763 78.4341 57.1958Z" fill="#263238"/>
<path d="M83.0377 58.9523C83.0377 58.9268 83.0855 59.0001 83.0791 59.0288C82.8847 59.7302 82.7858 60.5686 83.3692 60.9416C83.3884 60.9416 83.3692 60.9862 83.3533 60.9799C82.5977 60.6961 82.7444 59.5867 83.0377 58.9523Z" fill="#263238"/>
<path d="M83.8467 58.3653C85.0071 58.5534 84.548 60.8583 83.4737 60.6861C82.3994 60.514 82.8744 58.2091 83.8467 58.3653Z" fill="#263238"/>
<path d="M85.0243 57.2288C84.732 57.0925 84.4468 56.9414 84.1699 56.7761C83.8466 56.6551 83.5721 56.431 83.3889 56.1385C83.3492 56.0362 83.3442 55.9236 83.3747 55.8182C83.4053 55.7128 83.4696 55.6204 83.5578 55.5551C83.9531 55.3001 84.4058 55.418 84.8075 55.6157C85.2175 55.8005 85.543 56.1328 85.7193 56.5466C85.7588 56.6433 85.7687 56.7495 85.7476 56.8518C85.7265 56.9541 85.6754 57.0479 85.6009 57.1211C85.5263 57.1942 85.4317 57.2436 85.329 57.2627C85.2263 57.2819 85.1202 57.2701 85.0243 57.2288Z" fill="#263238"/>
<path d="M76.5498 64.2055C76.6805 64.4127 76.7953 64.6837 77.0471 64.7666C77.312 64.8224 77.5856 64.8224 77.8505 64.7666C77.8562 64.7651 77.8622 64.7657 77.8675 64.7681C77.8728 64.7705 77.8771 64.7747 77.8798 64.7799C77.8824 64.7851 77.8831 64.7911 77.8818 64.7968C77.8806 64.8025 77.8774 64.8076 77.8728 64.8112C77.7378 64.9256 77.5746 65.0016 77.4002 65.0313C77.2258 65.061 77.0466 65.0434 76.8814 64.9802C76.7462 64.9074 76.6357 64.7961 76.5636 64.6605C76.4916 64.5249 76.4613 64.3711 76.4765 64.2183C76.4606 64.1737 76.5339 64.1736 76.5498 64.2055Z" fill="#263238"/>
<path d="M77.8024 62.2607C77.9151 62.5845 78.0936 62.8814 78.3268 63.1327C78.56 63.384 78.8428 63.5843 79.1573 63.7208C79.4295 63.8443 79.7185 63.927 80.0149 63.9662C80.0705 63.9782 80.127 63.9856 80.1838 63.9886H80.3464C80.3855 63.9894 80.4238 63.9778 80.4559 63.9554C80.488 63.9331 80.5121 63.9012 80.5249 63.8642C80.5283 63.8399 80.5283 63.8152 80.5249 63.7909V63.7303C80.6716 63.1884 80.8182 62.3468 80.8182 62.3468C80.9936 62.4934 81.8989 63.1948 81.95 62.9047C82.374 60.5137 82.8458 57.8517 82.7629 55.3842C82.7629 55.3665 82.7558 55.3495 82.7433 55.3369C82.7307 55.3243 82.7137 55.3173 82.6959 55.3173C82.6782 55.3173 82.6611 55.3243 82.6486 55.3369C82.636 55.3495 82.629 55.3665 82.629 55.3842C82.1317 57.6668 82.036 60.0195 81.5738 62.3213C81.2525 62.0671 80.8973 61.8589 80.5186 61.7028C80.4357 61.7028 80.2667 63.335 80.1806 63.5741V63.5996C79.2242 63.4976 78.6122 63.0545 77.8694 62.2256C77.8407 62.1651 77.7737 62.1969 77.8024 62.2607Z" fill="#263238"/>
<path d="M79.7598 63.6157C79.3675 63.9341 78.8998 64.146 78.4017 64.231C78.1289 64.2683 77.8513 64.2193 77.6079 64.0907C77.0755 63.807 77.1871 63.2841 77.3975 62.8665C77.5115 62.6452 77.6505 62.4376 77.8119 62.248C78.2993 62.8994 78.9816 63.3785 79.7598 63.6157Z" fill="#263238"/>
<path d="M78.4017 64.2291C78.1289 64.2665 77.8513 64.2174 77.6079 64.0888C77.0755 63.8051 77.1871 63.2823 77.3975 62.8647C77.9873 63.0719 78.491 63.6266 78.4017 64.2291Z" fill="#FF97B8"/>
<path d="M87.6186 53.4329C83.1555 55.301 78.6413 50.1302 78.6413 50.1302C78.1305 50.9144 77.3801 51.5127 76.5018 51.8361C75.6235 52.1595 74.6643 52.1907 73.7669 51.925C73.7669 51.925 71.6182 58.387 69.8776 58.0108C67.222 57.4402 68.2836 48.2397 69.4855 46.6393C70.6873 45.039 73.0432 45.0453 73.0432 45.0453C73.0432 45.0453 73.4959 43.7064 75.4023 42.7915C77.5064 41.7777 83.3722 44.9561 83.3722 44.9561C83.9058 44.1935 84.6098 43.5658 85.4285 43.123C85.6264 43.0116 85.8448 42.9416 86.0705 42.917C86.2962 42.8924 86.5246 42.9138 86.7418 42.98C86.959 43.0461 87.1606 43.1556 87.3343 43.3019C87.508 43.4481 87.6503 43.628 87.7525 43.8307C87.3177 44.2514 86.9832 44.7646 86.7738 45.3323C86.0565 47.2036 87.6409 47.532 87.9916 45.7722C88.1477 45.1173 88.0628 44.4282 87.7525 43.8307C88.7726 42.8457 90.1275 42.7373 90.7715 43.5119C91.9479 44.9338 91.3262 51.8803 87.6186 53.4329Z" fill="#263238"/>
<path d="M76.6613 61.6213C76.0111 61.4094 75.4495 60.9877 75.0647 60.4223C74.6799 59.8569 74.4936 59.1798 74.535 58.4971C74.5899 57.6847 74.964 56.927 75.5756 56.3894C76.1872 55.8519 76.9867 55.5781 77.7995 55.628C78.6119 55.6829 79.3696 56.057 79.9072 56.6686C80.4447 57.2802 80.7185 58.0797 80.6686 58.8925C80.6145 59.7052 80.2407 60.4634 79.6289 61.0012C79.017 61.5389 78.2171 61.8123 77.4041 61.7616C77.1517 61.7455 76.9022 61.6984 76.6613 61.6213ZM78.4243 56.154C78.2178 56.0859 78.0036 56.0441 77.7867 56.0297C77.0813 55.986 76.3874 56.224 75.8573 56.6913C75.3271 57.1587 75.0041 57.8174 74.959 58.5227C74.9369 58.872 74.9839 59.2223 75.0973 59.5535C75.2107 59.8847 75.3882 60.1904 75.6197 60.4529C75.8512 60.7155 76.1322 60.93 76.4465 61.0839C76.7609 61.2379 77.1026 61.3285 77.452 61.3504C78.1574 61.394 78.8513 61.1561 79.3814 60.6887C79.9115 60.2213 80.2346 59.5627 80.2797 58.8574C80.3172 58.2638 80.1549 57.6748 79.8186 57.1842C79.4823 56.6936 78.9915 56.3298 78.4243 56.1508V56.154Z" fill="#0077F9"/>
<path d="M83.4548 62.897C82.355 62.4826 81.778 60.9843 82.1797 59.419C82.3508 58.6701 82.7535 57.9942 83.3305 57.4871C83.57 57.2634 83.86 57.1008 84.1758 57.0131C84.4916 56.9254 84.8239 56.9152 85.1445 56.9834C85.4606 57.0722 85.7504 57.2364 85.9892 57.4618C86.2279 57.6872 86.4085 57.9672 86.5153 58.2777C86.7827 58.992 86.8217 59.7718 86.6269 60.5093C86.2188 62.1574 84.8862 63.2477 83.6621 62.9449C83.5922 62.9327 83.523 62.9167 83.4548 62.897ZM85.1827 57.4297C85.1339 57.4104 85.0838 57.3944 85.0329 57.3819C84.7751 57.3303 84.5086 57.3415 84.2561 57.4148C84.0036 57.488 83.7725 57.6211 83.5824 57.8027C83.0718 58.2535 82.716 58.8536 82.5654 59.5178C82.2115 60.9428 82.7375 62.3073 83.7481 62.5591C84.7587 62.811 85.8586 61.8514 86.2156 60.4232C86.3911 59.7652 86.3577 59.0689 86.12 58.4307C86.0407 58.2097 85.9165 58.0074 85.7552 57.8368C85.5939 57.6661 85.399 57.5308 85.1827 57.4393V57.4297Z" fill="#0077F9"/>
<path d="M80.5097 59.2082L80.312 58.848C80.8444 58.5547 82.0048 58.2454 82.5882 59.1668L82.2375 59.3867C81.7179 58.5611 80.5575 59.1827 80.5097 59.2082Z" fill="#0077F9"/>
<path d="M66.8962 57.3311L66.5774 57.0761C66.6953 56.9231 67.7697 55.6096 68.7006 55.6415C69.5709 55.6734 74.882 57.2355 75.1052 57.3152L74.9872 57.7073C73.4666 57.2546 69.3573 56.0751 68.6878 56.0528C68.0757 56.0304 67.1927 56.9677 66.8962 57.3311Z" fill="#0077F9"/>
<path d="M71.0059 57.395C71.0059 57.395 70.1484 53.2921 68.3758 53.4643C66.6033 53.6364 66.3037 58.9253 67.7191 60.2738C67.8891 60.4588 68.0946 60.6077 68.3234 60.7115C68.5523 60.8153 68.7997 60.8719 69.0509 60.8778C69.3021 60.8838 69.5519 60.839 69.7854 60.7462C70.0189 60.6533 70.2312 60.5143 70.4098 60.3375L71.0059 57.395Z" fill="#D3766A"/>
<path d="M68.3284 54.9825C68.3229 54.9799 68.3167 54.9793 68.3108 54.9808C68.3049 54.9824 68.2998 54.986 68.2963 54.991C68.2928 54.996 68.2913 55.002 68.2919 55.0081C68.2925 55.0142 68.2953 55.0198 68.2997 55.024C69.2752 56.0091 69.4282 57.3671 69.3772 58.6869C69.2147 58.1004 68.8385 57.6572 68.0734 57.823C68.0658 57.8262 68.0594 57.8315 68.0548 57.8383C68.0503 57.8451 68.0479 57.8531 68.0479 57.8613C68.0479 57.8695 68.0503 57.8774 68.0548 57.8843C68.0594 57.8911 68.0658 57.8964 68.0734 57.8995C68.3089 57.9227 68.5316 58.0182 68.7108 58.1729C68.89 58.3275 69.017 58.5338 69.0744 58.7635C69.1686 59.1488 69.2199 59.5433 69.2274 59.9398C69.2274 60.0673 69.4537 60.0928 69.4665 59.9398V59.9079C70.1487 58.4351 69.8809 55.8273 68.3284 54.9825Z" fill="#263238"/>
<path d="M92.8629 86.2177C93.6662 84.0945 112.37 87.936 111.624 91.1941C108.886 103.117 101.254 113.768 99.3249 116.204C96.7936 119.392 91.7567 118.684 89.9204 116.752C87.2584 113.953 92.0627 88.3186 92.8629 86.2177Z" fill="#D3766A"/>
<path d="M91.5461 92.0699C91.13 93.2124 90.8007 94.3846 90.561 95.5767C90.29 96.7562 90.0541 97.9389 89.8597 99.1344C89.4833 101.545 89.2703 103.979 89.2221 106.419C89.187 107.783 89.2221 109.148 89.2061 110.509C89.2061 110.516 89.2088 110.522 89.2136 110.527C89.2184 110.532 89.2249 110.535 89.2316 110.535C89.2384 110.535 89.2449 110.532 89.2497 110.527C89.2545 110.522 89.2571 110.516 89.2571 110.509C89.2571 109.298 89.3305 108.083 89.4293 106.878C89.5281 105.673 89.6493 104.446 89.8055 103.234C90.1243 100.862 90.4431 98.4905 90.8734 96.1346C90.9924 95.4757 91.1168 94.8169 91.2464 94.158C91.3835 93.4758 91.5397 92.7968 91.6258 92.1018C91.6449 92.054 91.5684 92.0093 91.5461 92.0699Z" fill="#263238"/>
<path d="M88.3522 52.6121C88.2271 54.2357 87.982 55.8479 87.619 57.4354C87.5584 57.7064 87.4915 57.9838 87.4245 58.2579C87.1568 59.3482 86.838 60.4449 86.4682 61.5001C86.3831 61.7551 86.2939 62.007 86.2004 62.2556C85.0686 65.3129 83.5735 67.943 81.8902 69.0588C81.4576 69.3452 80.9986 69.5897 80.5194 69.7888C78.5537 68.6459 76.8469 67.107 75.5073 65.2696C74.1677 63.4323 73.2245 61.3366 72.7376 59.1155C72.5164 58.1126 72.3894 57.0912 72.3582 56.0646L71.8481 55.9244C71.9278 55.8 72.0107 55.6725 72.0904 55.5386C72.1701 55.4047 72.269 55.2357 72.355 55.0763C72.4828 50.9719 74.1407 47.0636 77.0031 44.1193C81.0104 43.0418 85.8082 44.5816 87.8262 48.0979C88.3395 48.9714 88.4893 50.61 88.3522 52.6121Z" fill="#D3766A"/>
<path d="M79.9678 55.7084C79.628 55.7259 79.2875 55.7259 78.9477 55.7084C78.5893 55.7563 78.2251 55.6846 77.9116 55.5044C77.8219 55.4278 77.7606 55.3233 77.7375 55.2076C77.7144 55.092 77.7308 54.972 77.7841 54.8668C78.0263 54.4364 78.5077 54.3248 78.9796 54.3121C79.4534 54.2849 79.9204 54.4349 80.2898 54.7329C80.3722 54.8051 80.4315 54.9 80.4603 55.0057C80.4891 55.1114 80.4862 55.2232 80.4518 55.3272C80.4175 55.4313 80.3533 55.5229 80.2672 55.5907C80.1811 55.6585 80.077 55.6994 79.9678 55.7084Z" fill="#263238"/>
<path d="M79.6477 57.3437C79.6477 57.3118 79.584 57.366 79.5776 57.3979C79.4501 58.1598 79.1791 59.011 78.4459 59.1258C78.4204 59.1258 78.4172 59.1672 78.4459 59.1672C79.3034 59.2182 79.6477 58.0833 79.6477 57.3437Z" fill="#263238"/>
<path d="M79.135 56.4194C77.9364 56.1006 77.3562 58.5075 78.4656 58.8167C79.575 59.126 80.1393 56.6999 79.135 56.4194Z" fill="#263238"/>
<path d="M84.0126 58.2794C84.0126 58.2539 84.0604 58.3304 84.054 58.3591C83.85 59.105 83.7352 59.9913 84.3728 60.4025C84.392 60.4025 84.3728 60.4535 84.3728 60.444C83.544 60.1284 83.7002 58.952 84.0126 58.2794Z" fill="#263238"/>
<path d="M84.8693 57.6567C86.0967 57.8544 85.6121 60.2963 84.474 60.1114C83.3359 59.9265 83.8396 57.4782 84.8693 57.6567Z" fill="#263238"/>
<path d="M86.1136 56.4511C85.8044 56.3082 85.5032 56.1485 85.2114 55.9729C84.8697 55.8474 84.5785 55.6133 84.3825 55.3066C84.3402 55.1982 84.3347 55.0789 84.367 54.9671C84.3992 54.8553 84.4674 54.7572 84.5611 54.6881C84.9819 54.4171 85.4601 54.5447 85.8841 54.7519C86.3129 54.9533 86.6532 55.3049 86.8405 55.7401C86.8758 55.8409 86.8816 55.9496 86.8574 56.0535C86.8331 56.1575 86.7796 56.2523 86.7033 56.327C86.627 56.4016 86.531 56.4529 86.4265 56.4749C86.3221 56.4969 86.2135 56.4886 86.1136 56.4511Z" fill="#263238"/>
<path d="M77.1419 63.8545C77.279 64.0745 77.4002 64.3582 77.6648 64.4475C77.9465 64.5065 78.2374 64.5065 78.5191 64.4475C78.5248 64.4473 78.5303 64.4488 78.5351 64.4517C78.5399 64.4547 78.5437 64.4589 78.5461 64.464C78.5485 64.4691 78.5493 64.4748 78.5485 64.4804C78.5476 64.4859 78.5452 64.4911 78.5415 64.4953C78.3986 64.6162 78.2259 64.6965 78.0414 64.7279C77.857 64.7593 77.6674 64.7407 77.4926 64.6738C77.3485 64.5975 77.2304 64.4801 77.1532 64.3365C77.076 64.1929 77.0432 64.0296 77.0591 63.8673C77.0591 63.8131 77.1196 63.8099 77.1419 63.8545Z" fill="#263238"/>
<path d="M78.4694 61.7857C78.5873 62.1284 78.7756 62.4427 79.0221 62.7084C79.2686 62.9741 79.5679 63.1854 79.9008 63.3287C80.1893 63.4604 80.4953 63.5495 80.8094 63.5933C80.8691 63.6058 80.93 63.6122 80.9911 63.6124C81.0473 63.616 81.1038 63.616 81.16 63.6124C81.2015 63.613 81.2422 63.6008 81.2764 63.5774C81.3107 63.554 81.3368 63.5206 81.3513 63.4817C81.3544 63.4552 81.3544 63.4285 81.3513 63.402L81.3673 63.3382C81.5203 62.7644 81.6861 61.8718 81.6861 61.8718C81.8741 62.028 82.8337 62.7708 82.8879 62.4647C83.3374 59.9303 83.8443 57.1121 83.7487 54.4948C83.7452 54.4784 83.7361 54.4636 83.7231 54.4531C83.71 54.4425 83.6937 54.4367 83.6769 54.4367C83.6601 54.4367 83.6438 54.4425 83.6308 54.4531C83.6177 54.4636 83.6087 54.4784 83.6052 54.4948C83.0792 56.9145 82.9676 59.4075 82.4894 61.8463C82.1491 61.5759 81.7724 61.3548 81.3704 61.1896C81.2812 61.1896 81.1027 62.9206 81.0134 63.1725V63.198C80.0156 63.0896 79.3525 62.6209 78.5682 61.7443C78.5076 61.6773 78.4375 61.7156 78.4694 61.7857Z" fill="#263238"/>
<path d="M80.538 63.2157C80.121 63.5474 79.6261 63.7669 79.1002 63.8533C78.8113 63.8929 78.5171 63.8416 78.2586 63.7066C77.6975 63.4069 77.8155 62.8522 78.0386 62.4091C78.1589 62.1736 78.3066 61.9532 78.4786 61.7524C78.9903 62.4484 79.7123 62.9615 80.538 63.2157Z" fill="#263238"/>
<path d="M79.1002 63.854C78.8113 63.8936 78.5171 63.8424 78.2586 63.7074C77.6975 63.4077 77.8155 62.853 78.0386 62.4099C78.6635 62.6426 79.1959 63.2164 79.1002 63.854Z" fill="#FF97B8"/>
<path d="M88.8551 52.4309C88.6861 52.5011 88.5172 52.5616 88.3514 52.6126C83.7862 54.0281 79.3454 48.9337 79.3454 48.9337C78.8061 49.7671 78.0118 50.4036 77.081 50.7484C76.1502 51.0931 75.1329 51.1275 74.1809 50.8465C73.6858 52.3053 73.0794 53.7239 72.3669 55.0897C72.4947 50.9853 74.1526 47.077 77.015 44.1327C77.9472 43.1705 78.9944 42.3268 80.1328 41.6205C81.5878 42.1265 83.0038 42.7381 84.3696 43.4504C84.9348 42.6418 85.6816 41.9768 86.5502 41.509C86.7595 41.391 86.9905 41.3168 87.2293 41.2908C87.4681 41.2648 87.7097 41.2875 87.9395 41.3575C88.1693 41.4275 88.3825 41.5435 88.5661 41.6983C88.7498 41.8531 88.9002 42.0435 89.0081 42.2581C88.548 42.7054 88.194 43.2501 87.972 43.8521C87.2133 45.835 88.8902 46.1825 89.2632 44.3176C89.4279 43.6238 89.3374 42.8938 89.0081 42.2613C90.0888 41.2189 91.5234 41.1041 92.1961 41.9425C93.4489 43.4281 92.7922 50.7827 88.8551 52.4309Z" fill="#263238"/>
<path d="M80.3406 55.4923C79.81 55.0502 79.1522 54.7889 78.4629 54.7464C78.2555 54.7329 78.0472 54.7404 77.8412 54.7687C77.3245 54.8355 76.8314 55.0252 76.4032 55.322C75.9749 55.6187 75.6241 56.0139 75.3801 56.4742C75.3096 56.603 75.2499 56.7373 75.2016 56.8759C75.0909 57.1704 75.0253 57.48 75.0071 57.7941C74.9626 58.5175 75.1599 59.2352 75.5679 59.8342C75.9759 60.4333 76.5716 60.8797 77.261 61.1032C77.5198 61.1845 77.7874 61.2348 78.058 61.253H78.2621C79.0423 61.2512 79.7962 60.9703 80.3873 60.461C80.9785 59.9517 81.3679 59.2477 81.4851 58.4763C81.4851 58.3838 81.5074 58.2914 81.5138 58.1957C81.5202 58.1001 81.5138 58.0555 81.5138 57.9885C81.5133 57.5119 81.408 57.0411 81.2053 56.6098C81.0025 56.1784 80.7073 55.7969 80.3406 55.4923ZM78.0835 60.8162C77.3365 60.7687 76.6388 60.4269 76.1434 59.8657C75.648 59.3046 75.3953 58.5699 75.4407 57.8228C75.4818 57.1982 75.7282 56.6048 76.1416 56.1348C76.5551 55.6649 77.1123 55.3449 77.7265 55.2246C77.9605 55.1792 78.1995 55.1642 78.4374 55.1799C78.6714 55.1952 78.9027 55.2391 79.126 55.3106C79.4106 55.4021 79.6786 55.5388 79.9198 55.7155C80.3048 55.9948 80.613 56.3669 80.8159 56.7971C81.0187 57.2274 81.1097 57.7019 81.0802 58.1766C81.0319 58.9236 80.6892 59.621 80.1275 60.1159C79.5657 60.6107 78.8307 60.8625 78.0835 60.8162Z" fill="#0077F9"/>
<path d="M87.6821 57.5725L87.6247 57.4354C87.4295 56.9872 87.0938 56.6146 86.6683 56.3738C86.531 56.2974 86.3841 56.2395 86.2316 56.2016C86.0094 56.1476 85.7793 56.1346 85.5525 56.1634C85.0903 56.228 84.657 56.4264 84.306 56.734C84.0424 56.9586 83.8145 57.2219 83.6302 57.5151C83.4896 57.7323 83.3711 57.963 83.2763 58.2037C83.2113 58.3589 83.158 58.5187 83.1169 58.6819C83.1055 58.7143 83.0959 58.7473 83.0882 58.7807C82.9011 59.5065 82.9243 60.2705 83.1552 60.9836C83.2496 61.3133 83.4162 61.618 83.6428 61.8754C83.8694 62.1329 84.1504 62.3368 84.4654 62.4724C84.5324 62.4979 84.5993 62.517 84.6695 62.5361C84.9335 62.5961 85.2068 62.6027 85.4734 62.5556C85.74 62.5085 85.9945 62.4087 86.222 62.262C87.0339 61.7313 87.606 60.904 87.816 59.9571C88.0223 59.1678 87.9755 58.3337 87.6821 57.5725ZM87.3633 59.8455C87.2183 60.4673 86.9089 61.0387 86.4675 61.5C86.2596 61.7423 85.9918 61.9257 85.6908 62.032C85.3899 62.1383 85.0662 62.1637 84.7524 62.1058C83.6812 61.8412 83.1233 60.397 83.4995 58.8859C83.6603 58.1834 84.0358 57.5483 84.5738 57.0688C84.7764 56.8772 85.0219 56.737 85.2898 56.6599C85.5577 56.5828 85.8402 56.571 86.1136 56.6257C86.1667 56.6382 86.2188 56.6542 86.2698 56.6735C86.5006 56.7719 86.7083 56.9174 86.8796 57.1008C87.0509 57.2842 87.182 57.5013 87.2645 57.7382C87.3326 57.9059 87.3839 58.08 87.4175 58.2579C87.5193 58.7838 87.5052 59.3256 87.376 59.8455H87.3633Z" fill="#0077F9"/>
<path d="M81.3315 58.5472L81.1211 58.1646C81.6886 57.8458 82.9159 57.527 83.5344 58.5185L83.155 58.7512C82.6131 57.8617 81.3857 58.5185 81.3315 58.5472Z" fill="#0077F9"/>
<path d="M75.6165 56.5447L75.4922 56.9623L75.2021 56.8762C74.4848 56.6658 73.4264 56.3598 72.3712 56.0665L71.8611 55.9262C71.9408 55.8019 72.0237 55.6743 72.1034 55.5404L72.3616 55.6138C73.6368 55.9644 74.8705 56.3247 75.3806 56.4745L75.6165 56.5447Z" fill="#0077F9"/>
<g opacity="0.3">
<path d="M92.3392 71.6354C88.0813 72.5728 83.6254 71.7805 79.9516 69.4327C76.2778 67.085 73.6871 63.3741 72.7491 59.1163C72.2845 57.0078 72.2398 54.8284 72.6175 52.7025C72.9953 50.5767 73.788 48.5461 74.9505 46.7267C76.1131 44.9073 77.6226 43.3347 79.3929 42.0987C81.1632 40.8626 83.1597 39.9875 85.2683 39.5231C87.3779 39.0591 89.5582 39.0154 91.6848 39.3943C93.8113 39.7732 95.8423 40.5674 97.6618 41.7314C99.4813 42.8955 101.054 44.4066 102.289 46.1785C103.524 47.9504 104.399 49.9483 104.862 52.0581C105.794 56.3146 104.999 60.7671 102.651 64.4379C100.303 68.1086 96.5944 70.6973 92.3392 71.6354Z" fill="white"/>
<path d="M74.3794 63.4727C76.0875 66.5937 78.7619 69.0763 82.0011 70.5479C85.2402 72.0194 88.8694 72.4005 92.3436 71.6339C93.8177 71.3112 95.2402 70.7867 96.5708 70.075L74.3794 63.4727Z" fill="#EBEBEB"/>
<path d="M74.8665 46.8874L105.261 55.9316C105.287 54.6257 105.159 53.3212 104.878 52.0455C104.559 50.5824 104.038 49.1705 103.332 47.8501L80.8917 41.1713C78.4267 42.5289 76.3519 44.4972 74.8665 46.8874Z" fill="#EBEBEB"/>
<path d="M72.4785 57.4953L101.428 66.1028C102.117 65.2736 102.725 64.3801 103.242 63.4345L72.4148 54.2596C72.3257 55.3375 72.347 56.4217 72.4785 57.4953Z" fill="#EBEBEB"/>
<path d="M73.7952 48.8709L105.037 58.1734C105.069 57.9757 105.101 57.778 105.123 57.5804L74.047 48.3353C73.9609 48.5106 73.8717 48.6892 73.7952 48.8709Z" fill="#EBEBEB"/>
<path d="M86.0818 39.3647L99.9494 43.509C99.5892 43.1903 99.2098 42.8715 98.8177 42.5527L87.5387 39.1989C87.0541 39.2212 86.5695 39.2818 86.0818 39.3647Z" fill="#EBEBEB"/>
</g>
<path d="M94.5822 91.9569L98.804 91.0271L94.7154 72.4621L90.4937 73.3919L94.5822 91.9569Z" fill="#EBEBEB"/>
<path d="M106.657 51.6485C105.612 46.9151 102.731 42.7901 98.6462 40.1802C94.5615 37.5702 89.6077 36.6889 84.8735 37.7298C82.5291 38.2459 80.3093 39.2188 78.341 40.593C76.3727 41.9671 74.6943 43.7155 73.4018 45.7383C72.1093 47.7612 71.228 50.0188 70.8081 52.3823C70.3882 54.7459 70.4381 57.1689 70.9548 59.5132C71.9993 64.2453 74.8807 68.3687 78.9652 70.9765C83.0497 73.5844 88.0027 74.463 92.735 73.4191C97.4667 72.3758 101.591 69.4968 104.201 65.4148C106.812 61.3327 107.695 56.3814 106.657 51.6485ZM92.3397 71.6402C88.081 72.5767 83.6247 71.7836 79.9506 69.4354C76.2764 67.0872 73.6852 63.3761 72.7465 59.1179C71.809 54.8587 72.6016 50.4016 74.9499 46.7268C77.2982 43.0519 81.0099 40.4601 85.2688 39.5215C87.3786 39.058 89.559 39.0147 91.6856 39.394C93.8121 39.7733 95.8431 40.5678 97.6625 41.7321C99.482 42.8964 101.054 44.4077 102.29 46.1798C103.525 47.9518 104.399 49.9498 104.862 52.0597C105.795 56.3165 105 60.7695 102.652 64.4408C100.304 68.112 96.5952 70.7013 92.3397 71.6402Z" fill="#455A64"/>
<path d="M96.3444 105.026L102.73 103.62L99.1052 87.164L92.7197 88.5699L96.3444 105.026Z" fill="#263238"/>
<path d="M99.1266 53.4271C99.1266 53.408 99.1266 53.3857 99.1266 53.3665C99.0501 53.0956 99.2095 53.6343 99.1521 53.4526C99.0947 53.2709 99.0119 53.0254 98.9322 52.815C98.6526 52.0757 98.3113 51.3612 97.912 50.6791C97.8578 50.5834 97.7972 50.491 97.743 50.3954C97.7239 50.3635 97.8833 50.6153 97.743 50.4145L97.6347 50.2423C97.488 50.0224 97.3382 49.8088 97.182 49.6047C96.8365 49.1383 96.4606 48.6953 96.0566 48.2786C95.961 48.1797 95.8621 48.0809 95.7633 47.9853C95.6645 47.8896 95.9195 48.1255 95.7346 47.9566L95.5465 47.7908C95.3106 47.5804 95.0652 47.3795 94.8101 47.1915C94.5551 47.0034 94.2522 46.7898 93.9621 46.6081L93.5573 46.3658C93.3213 46.2319 93.6593 46.4168 93.4839 46.3275L93.2321 46.1968C92.4704 45.8231 91.6738 45.5252 90.8539 45.3074C90.8379 45.3074 90.6881 45.2659 90.8124 45.3074C90.9367 45.3488 90.7455 45.3074 90.7231 45.2882C90.602 45.2627 90.4777 45.2341 90.3533 45.2117C90.1174 45.1639 89.8783 45.1225 89.6392 45.0874C89.1329 45.0151 88.6232 44.9683 88.1122 44.9471C87.8269 44.9112 87.567 44.7649 87.3883 44.5396C87.2095 44.3144 87.126 44.0281 87.1558 43.7421C87.1941 43.4584 87.3405 43.2005 87.5645 43.0223C87.7885 42.844 88.0727 42.7593 88.3577 42.7857C91.6123 42.8837 94.7257 44.137 97.1405 46.3211C98.7442 47.8229 99.998 49.659 100.813 51.6992C100.999 52.1546 101.153 52.6222 101.275 53.0988C101.319 53.3836 101.249 53.6743 101.079 53.9073C100.91 54.1402 100.655 54.2966 100.37 54.3421C100.086 54.3787 99.7993 54.3052 99.5681 54.1368C99.3368 53.9685 99.1789 53.7179 99.1266 53.4367V53.4271Z" fill="white"/>
<path d="M99.5765 56.6311C99.5982 56.7696 99.6471 56.9026 99.7202 57.0223C99.7933 57.142 99.8893 57.2461 100.003 57.3287C100.116 57.4113 100.245 57.4708 100.381 57.5037C100.517 57.5366 100.659 57.5423 100.797 57.5205C100.936 57.4991 101.07 57.4506 101.19 57.3776C101.31 57.3046 101.414 57.2087 101.497 57.0952C101.58 56.9818 101.64 56.8531 101.673 56.7166C101.706 56.5801 101.712 56.4383 101.69 56.2995C101.668 56.1605 101.619 56.0271 101.546 55.9071C101.473 55.787 101.377 55.6825 101.263 55.5996C101.149 55.5167 101.02 55.457 100.884 55.424C100.747 55.3909 100.605 55.3851 100.466 55.4069C100.186 55.4516 99.9348 55.6055 99.7681 55.835C99.6013 56.0645 99.5324 56.3508 99.5765 56.6311Z" fill="white"/>
<path d="M110.368 94.9209C110.368 94.9209 114.933 87.4165 109.249 80.2563C106.909 77.3106 101.387 72.025 90.1817 72.7646C87.5262 72.9367 83.8632 75.0727 88.3072 76.3638C91.4633 77.2787 93.7267 76.9057 95.4801 77.7761C95.4801 77.7761 91.1445 81.0405 91.425 83.6961C91.5494 84.8852 91.6418 87.477 92.324 89.9445C92.324 89.9445 93.2262 90.5821 93.9563 90.4705C93.9563 90.4705 95.9232 96.1451 102.997 97.8921L110.368 94.9209Z" fill="#D3766A"/>
<path d="M106.849 79.292C105.019 78.562 101.11 77.0796 97.4921 76.9807C93.4721 76.8692 85.6966 77.7395 85.6488 80.7075C85.6105 82.8817 88.6072 82.8115 88.6072 82.8115C88.6072 82.8115 85.4703 83.8476 85.8656 85.821C86.229 87.619 88.5435 87.415 88.5435 87.415C88.5435 87.415 86.7486 88.3714 87.4277 90.0355C88.247 92.0407 91.8908 89.7167 94.4571 91.0174C95.0374 91.3234 106.849 79.292 106.849 79.292Z" fill="#D3766A"/>
<path d="M98.0812 81.2457C96.2481 80.8408 91.8424 80.9938 88.648 82.7376C88.5779 82.7791 88.5683 82.8556 88.648 82.8333C91.7201 81.9358 94.8899 81.4155 98.0876 81.2839C98.1035 81.2839 98.1035 81.2521 98.0812 81.2457Z" fill="#263238"/>
<path d="M97.8518 85.3013C96.2323 85.1164 91.7022 85.4735 88.5238 87.3544C88.4536 87.3958 88.4505 87.4723 88.5238 87.4468C91.5431 86.3929 94.6726 85.6859 97.8518 85.3396C97.8741 85.3364 97.8741 85.3013 97.8518 85.3013Z" fill="#263238"/>
<path d="M104.378 98.3792C103.57 98.1951 102.776 97.9522 102.003 97.6524C101.217 97.3634 100.453 97.0171 99.7171 96.6163C98.2355 95.8143 96.9243 94.7315 95.8565 93.4283C95.5377 93.0298 95.2189 92.6154 94.9416 92.1946C94.6642 91.7738 94.3582 91.2892 94.0298 90.8652C94.0043 90.8365 93.9437 90.8652 93.9597 90.8971C94.3314 91.7814 94.7873 92.628 95.3209 93.4251C95.8012 94.1687 96.3731 94.8488 97.0233 95.4495C98.3091 96.5943 99.8337 97.4383 101.486 97.9202C102.425 98.1828 103.385 98.3578 104.356 98.443C104.403 98.4526 104.423 98.3888 104.378 98.3792Z" fill="#263238"/>
<path d="M57.8429 74.3743C49.6307 85.4047 35.9257 114.144 33.9109 118.368C32.5432 121.237 47.5362 128.796 48.1706 126.711C48.9868 124.04 62.3922 88.7744 64.2667 75.9141C65.3028 68.856 60.6834 70.5488 57.8429 74.3743Z" fill="#D3766A"/>
<path d="M48.5755 125.257C48.228 127.858 46.4619 133.093 45.1453 133.89C43.8286 134.687 36.9331 134.528 33.455 134.528C29.9769 134.528 29.2915 133.571 29.3489 132.363C29.4063 131.155 36.7035 130.935 36.7035 130.935C36.7035 130.935 26.9579 133.731 24.5064 134.187C22.0549 134.642 16.409 136.067 15.5801 134.034C15.2135 133.119 16.7596 132.191 16.7596 132.191C16.7596 132.191 14.3878 132.883 14.0116 131.703C13.5844 130.364 15.4653 129.625 15.4653 129.625C15.4653 129.625 13.9861 129.924 13.951 128.831C13.8745 126.389 23.1451 125.187 23.1451 125.187C23.1451 125.187 16.0487 128.643 15.8128 126.65C15.494 123.893 30.0439 120.867 31.5582 119.665C32.6589 118.746 33.6883 117.744 34.6377 116.669L48.5755 125.257Z" fill="#D3766A"/>
<path d="M29.4032 132.958C29.3778 132.789 29.3935 132.616 29.449 132.454C29.5045 132.292 29.5981 132.146 29.722 132.027C29.9715 131.798 30.2582 131.612 30.57 131.479C31.2131 131.206 31.8801 130.992 32.5625 130.842C33.9333 130.494 35.3392 130.245 36.7387 129.885C35.2927 129.862 33.8496 130.024 32.4445 130.367C31.7283 130.532 31.0385 130.796 30.3947 131.151C30.0622 131.336 29.7705 131.586 29.5371 131.887C29.4254 132.04 29.3545 132.218 29.3311 132.405C29.3076 132.593 29.3325 132.783 29.4032 132.958Z" fill="#263238"/>
<path d="M16.7683 132.183C17.7693 131.937 18.7576 131.653 19.7459 131.37C20.7341 131.086 21.7128 130.783 22.6947 130.487L25.6308 129.565C26.6096 129.247 27.5883 128.953 28.5765 128.66C27.5506 128.773 26.5334 128.955 25.532 129.205C24.5246 129.431 23.5364 129.722 22.5513 130.021C21.5662 130.321 20.5907 130.659 19.6279 131.013C18.6651 131.367 17.7056 131.759 16.7683 132.183Z" fill="#263238"/>
<path d="M26.2244 126.223C25.2791 126.285 24.3394 126.415 23.4126 126.611C22.4839 126.799 21.5655 127.035 20.6614 127.319C19.7562 127.601 18.8675 127.933 17.9995 128.314C17.1285 128.688 16.2848 129.123 15.4746 129.615C16.3736 129.296 17.2439 128.977 18.1366 128.658C19.0292 128.339 19.9122 128.052 20.8081 127.781C21.7039 127.51 22.5997 127.233 23.5019 126.969C24.4041 126.704 25.3095 126.471 26.2244 126.223Z" fill="#263238"/>
<path d="M24.7902 123.898C23.2669 124.018 21.7662 124.34 20.3271 124.854C18.8724 125.333 17.4882 126.004 16.2114 126.85C17.6524 126.336 19.0519 125.794 20.4833 125.316C21.9147 124.838 23.3365 124.363 24.7902 123.898Z" fill="#263238"/>
<path d="M61.3335 93.2659L44.6924 92.8068C44.6924 92.8068 53.7526 78.3685 58.6206 73.0765C63.6926 67.5581 66.4534 68.0363 64.7192 77.8074C62.9785 87.6391 61.3335 93.2659 61.3335 93.2659Z" fill="#0077F9"/>
<path d="M51.0368 90.3609C50.5877 90.5572 50.1673 90.8135 49.7871 91.1229C50.2734 91.0521 50.7469 90.9114 51.193 90.7052C51.6437 90.5134 52.0646 90.2579 52.4427 89.9465C51.9566 90.0162 51.483 90.1558 51.0368 90.3609ZM60.3297 79.7928C60.1375 79.3416 59.8808 78.9207 59.5678 78.5432C59.6392 79.0279 59.7788 79.5001 59.9822 79.9458C60.1768 80.3965 60.4344 80.8173 60.7473 81.1955C60.6772 80.7101 60.5365 80.2376 60.3297 79.7928ZM52.6563 82.9298C52.4745 83.385 52.3586 83.8637 52.312 84.3516C52.6044 83.9621 52.8395 83.5326 53.0101 83.0764C53.192 82.6215 53.3069 82.1426 53.3513 81.6546C53.059 82.0426 52.8249 82.4711 52.6563 82.9266V82.9298ZM59.9886 89.446C59.8053 89.9016 59.6903 90.3818 59.6475 90.871C59.937 90.4801 60.1709 90.051 60.3425 89.5958C60.5224 89.1401 60.6382 88.6616 60.6868 88.174C60.3931 88.5615 60.1559 88.9887 59.9822 89.4428L59.9886 89.446ZM64.8662 70.4935C64.7865 70.6593 64.7132 70.8123 64.643 71.0004C64.4631 71.4562 64.3472 71.9347 64.2987 72.4223C64.5923 72.0329 64.8284 71.6035 65.0001 71.1471C65.016 71.1056 65.0288 71.0674 65.0415 71.0259C64.9962 70.8426 64.9354 70.6634 64.8598 70.4904L64.8662 70.4935Z" fill="white"/>
<path d="M60.2882 90.3713C59.8961 90.3139 59.4912 90.3107 59.0927 90.2916L57.8685 90.2278C57.0397 90.1832 56.2108 90.1545 55.3819 90.129C53.7274 90.078 52.0728 90.0206 50.4183 89.9983C49.9624 89.9983 49.5065 89.9983 49.0506 89.9983C48.5947 89.9983 48.0942 90.0429 47.616 90.0493C47.5874 90.0493 47.5905 90.094 47.616 90.094C48.0241 90.1195 48.4322 90.1768 48.8434 90.2055C49.2547 90.2342 49.6819 90.2565 50.1027 90.2725C50.9315 90.3044 51.7593 90.3309 52.5861 90.3522C54.2183 90.3904 55.8506 90.4351 57.4796 90.4383H58.8441C59.3222 90.4383 59.8004 90.467 60.2818 90.4383C60.3105 90.4128 60.3169 90.3745 60.2882 90.3713Z" fill="#263238"/>
<path d="M64.5596 82.4427C64.5596 82.4108 64.5181 82.3916 64.5054 82.4203C64.1973 82.9892 63.933 83.5807 63.7148 84.1897C63.7721 83.8995 63.8359 83.6095 63.8933 83.3193C64.075 82.3821 64.2408 81.4384 64.4257 80.5012C64.4237 80.4956 64.4201 80.4907 64.4152 80.4872C64.4104 80.4838 64.4045 80.4819 64.3986 80.4819C64.3926 80.4819 64.3868 80.4838 64.382 80.4872C64.3771 80.4907 64.3734 80.4956 64.3715 80.5012C63.9379 82.1143 63.4406 83.7115 63.058 85.3373C62.6755 86.9632 62.2897 88.5891 61.9327 90.2213C61.735 91.1203 61.5597 92.2488 61.3652 93.1478C60.8839 93.202 60.2654 93.1478 59.7458 93.2116C59.6979 93.2116 59.7139 93.2913 59.7458 93.2945C60.2941 93.3104 60.9444 93.4316 61.5246 93.3965C61.598 93.3965 62.9943 87.5976 63.5745 84.8241C63.9315 84.0303 64.2599 83.2428 64.5596 82.4427Z" fill="#263238"/>
<path d="M76.4032 73.4176C76.1737 74.1806 75.908 74.9308 75.6062 75.6683C75.3517 76.3315 75.0402 76.9715 74.6754 77.581C73.9899 78.6681 72.9283 79.564 71.5862 79.5608C70.311 79.5608 69.1474 78.8212 68.3281 77.8807C67.4355 76.851 66.8425 75.5599 66.3133 74.3166C65.9945 73.5451 65.6757 72.764 65.4207 71.9702C65.2868 71.5686 65.1529 71.1669 65.0349 70.7588C64.917 70.3507 64.8245 69.9395 64.6843 69.5378C64.6843 69.5059 64.6141 69.5123 64.6237 69.5378C64.8596 70.4591 65.5418 73.3634 65.8192 74.103C66.3229 75.4611 66.8903 76.8606 67.7989 78.0019C68.6597 79.0794 69.8296 79.8923 71.2292 80.0294C72.6287 80.1665 73.8274 79.4269 74.5957 78.3175C75.0509 77.6191 75.4061 76.8605 75.6509 76.0636C75.9442 75.1869 76.1928 74.2943 76.4224 73.3984C76.4255 73.4176 76.4064 73.4176 76.4032 73.4176Z" fill="#263238"/>
<path d="M128.634 135.301H105.774L104.75 115.207H128.634V135.301Z" fill="#DBDBDB"/>
<path d="M128.635 115.209L136.844 104.924L143.382 115.209L142.362 135.302H128.635V115.209Z" fill="#C7C7C7"/>
<path d="M112.734 101.663H137.138L145.936 116.018H143.102L137.138 106.078L130.252 117.207H102.74L112.734 101.663Z" fill="#A6A6A6"/>
<path d="M115.561 106.205H110.313L107.514 109.559H113.572L115.561 106.205Z" fill="#C7C7C7"/>
<path d="M111.582 108.981V113.065H108.662V108.981L110.122 107.157L111.582 108.981Z" fill="#DBDBDB"/>
<path d="M111.583 108.983H113.882L111.583 113.067V108.983Z" fill="#C7C7C7"/>
<path d="M110.878 109.046H109.217V111.849H110.878V109.046Z" fill="#FBFAFF"/>
<path d="M109.955 109.239H109.42V110.141H109.955V109.239Z" fill="#EBEBEB"/>
<path d="M110.674 109.239H110.139V110.141H110.674V109.239Z" fill="#EBEBEB"/>
<path d="M109.955 110.309H109.42V111.644H109.955V110.309Z" fill="#EBEBEB"/>
<path d="M110.674 110.309H110.139V111.644H110.674V110.309Z" fill="#EBEBEB"/>
<path d="M128.423 106.205H123.176L120.549 109.559H126.421L128.423 106.205Z" fill="#C7C7C7"/>
<path d="M124.433 108.981V113.065H121.513V108.981L122.973 107.157L124.433 108.981Z" fill="#DBDBDB"/>
<path d="M124.433 108.983H126.728L124.433 113.067V108.983Z" fill="#C7C7C7"/>
<path d="M123.725 109.046H122.064V111.849H123.725V109.046Z" fill="#FBFAFF"/>
<path d="M122.804 109.239H122.269V110.141H122.804V109.239Z" fill="#EBEBEB"/>
<path d="M123.521 109.239H122.986V110.141H123.521V109.239Z" fill="#EBEBEB"/>
<path d="M122.804 110.309H122.269V111.644H122.804V110.309Z" fill="#EBEBEB"/>
<path d="M123.521 110.309H122.986V111.644H123.521V110.309Z" fill="#EBEBEB"/>
<path d="M132.757 101.078H129.836V104.923H132.757V101.078Z" fill="#DBDBDB"/>
<path d="M132.757 101.078H135.055V101.697L132.757 104.923V101.078Z" fill="#C7C7C7"/>
<path d="M132.759 99.7719H129.51V101.079H132.759V99.7719Z" fill="#C7C7C7"/>
<path d="M135.304 99.7719H132.757V101.079H135.304V99.7719Z" fill="#A6A6A6"/>
<path d="M111.805 118.849H108.19V124.954H111.805V118.849Z" fill="#FBFAFF"/>
<path d="M109.797 119.273H108.634V121.24H109.797V119.273Z" fill="#EBEBEB"/>
<path d="M111.36 119.273H110.197V121.24H111.36V119.273Z" fill="#EBEBEB"/>
<path d="M109.797 121.598H108.634V124.512H109.797V121.598Z" fill="#EBEBEB"/>
<path d="M111.36 121.598H110.197V124.512H111.36V121.598Z" fill="#EBEBEB"/>
<path d="M125.233 118.849H121.618V124.954H125.233V118.849Z" fill="#FBFAFF"/>
<path d="M123.225 119.273H122.062V121.24H123.225V119.273Z" fill="#EBEBEB"/>
<path d="M124.787 119.273H123.624V121.24H124.787V119.273Z" fill="#EBEBEB"/>
<path d="M123.225 121.598H122.062V124.512H123.225V121.598Z" fill="#EBEBEB"/>
<path d="M124.787 121.598H123.624V124.512H124.787V121.598Z" fill="#EBEBEB"/>
<path d="M111.805 127.331H108.19V133.436H111.805V127.331Z" fill="#FBFAFF"/>
<path d="M109.797 127.757H108.634V129.724H109.797V127.757Z" fill="#EBEBEB"/>
<path d="M111.36 127.757H110.197V129.724H111.36V127.757Z" fill="#EBEBEB"/>
<path d="M109.797 130.081H108.634V132.994H109.797V130.081Z" fill="#EBEBEB"/>
<path d="M111.36 130.081H110.197V132.994H111.36V130.081Z" fill="#EBEBEB"/>
<path d="M125.233 127.331H121.618V133.436H125.233V127.331Z" fill="#FBFAFF"/>
<path d="M123.225 127.757H122.062V129.724H123.225V127.757Z" fill="#EBEBEB"/>
<path d="M124.787 127.757H123.624V129.724H124.787V127.757Z" fill="#EBEBEB"/>
<path d="M123.225 130.081H122.062V132.994H123.225V130.081Z" fill="#EBEBEB"/>
<path d="M124.787 130.081H123.624V132.994H124.787V130.081Z" fill="#EBEBEB"/>
<path d="M118.5 118.849H114.885V124.954H118.5V118.849Z" fill="#FBFAFF"/>
<path d="M116.492 119.273H115.329V121.24H116.492V119.273Z" fill="#EBEBEB"/>
<path d="M118.054 119.273H116.89V121.24H118.054V119.273Z" fill="#EBEBEB"/>
<path d="M116.492 121.598H115.329V124.512H116.492V121.598Z" fill="#EBEBEB"/>
<path d="M118.054 121.598H116.89V124.512H118.054V121.598Z" fill="#EBEBEB"/>
<path d="M118.5 127.372H114.885V133.477H118.5V127.372Z" fill="#FBFAFF"/>
<path d="M116.492 127.798H115.329V129.765H116.492V127.798Z" fill="#EBEBEB"/>
<path d="M118.054 127.798H116.89V129.765H118.054V127.798Z" fill="#EBEBEB"/>
<path d="M116.492 130.121H115.329V133.035H116.492V130.121Z" fill="#EBEBEB"/>
<path d="M118.054 130.121H116.89V133.035H118.054V130.121Z" fill="#EBEBEB"/>
<path d="M135.131 124.954H138.747V118.849H135.131V124.954Z" fill="#FBFAFF"/>
<path d="M138.301 119.273H137.138V121.24H138.301V119.273Z" fill="#EBEBEB"/>
<path d="M136.739 119.273H135.575V121.24H136.739V119.273Z" fill="#EBEBEB"/>
<path d="M138.301 121.598H137.138V124.512H138.301V121.598Z" fill="#EBEBEB"/>
<path d="M136.739 121.598H135.575V124.512H136.739V121.598Z" fill="#EBEBEB"/>
<path d="M135.131 115.521H138.747V110.353H135.131V115.521Z" fill="#FBFAFF"/>
<path d="M138.301 110.774H137.138V112.741H138.301V110.774Z" fill="#EBEBEB"/>
<path d="M136.739 110.774H135.575V112.741H136.739V110.774Z" fill="#EBEBEB"/>
<path d="M138.301 113.117H137.138V115.084H138.301V113.117Z" fill="#EBEBEB"/>
<path d="M136.739 113.117H135.575V115.084H136.739V113.117Z" fill="#EBEBEB"/>
<path d="M134.609 135.342L138.993 135.363L139.03 127.402L134.647 127.382L134.609 135.342Z" fill="#FBFAFF"/>
<path d="M136.373 127.926L136.368 129.118L137.311 129.123L137.317 127.93L136.373 127.926Z" fill="#EBEBEB"/>
<path d="M135.137 127.919L135.131 129.111L136.075 129.116L136.08 127.924L135.137 127.919Z" fill="#EBEBEB"/>
<path d="M135.814 133.442L137.806 133.451L137.808 133.165L135.815 133.155L135.814 133.442Z" fill="#EBEBEB"/>
<path d="M137.926 126.328V127.52H138.869V126.328H137.926Z" fill="#EBEBEB"/>
<path d="M136.367 129.437L136.362 130.629L137.305 130.633L137.311 129.441L136.367 129.437Z" fill="#EBEBEB"/>
<path d="M135.134 129.418L135.129 130.61L136.072 130.615L136.078 129.422L135.134 129.418Z" fill="#EBEBEB"/>
<path d="M137.607 129.442L137.602 130.634L138.545 130.639L138.551 129.446L137.607 129.442Z" fill="#EBEBEB"/>
<path d="M136.357 130.941L136.352 132.133L137.295 132.137L137.301 130.945L136.357 130.941Z" fill="#EBEBEB"/>
<path d="M135.124 130.937L135.118 132.13L136.062 132.134L136.068 130.942L135.124 130.937Z" fill="#EBEBEB"/>
<path d="M137.597 130.948L137.592 132.14L138.535 132.144L138.541 130.952L137.597 130.948Z" fill="#EBEBEB"/>
<path d="M65.7134 135.36H45.4093L44.5007 125.519H65.7134V135.36Z" fill="#DBDBDB"/>
<path d="M65.7104 125.506L73.0045 116.372L78.8098 125.506L77.9044 135.347H65.7104V125.506Z" fill="#C7C7C7"/>
<path d="M51.4699 113.484H73.5274L81.6982 127.291H79.4698L73.2246 116.898L67.2312 127.291H42.7891L51.4699 113.484Z" fill="#A6A6A6"/>
<path d="M50.816 129.169H47.6025V133.76H50.816V129.169Z" fill="#FBFAFF"/>
<path d="M49.0314 129.544H47.9985V131.291H49.0314V129.544Z" fill="#DBDBDB"/>
<path d="M50.4186 129.544H49.3857V131.291H50.4186V129.544Z" fill="#DBDBDB"/>
<path d="M49.0314 131.625H47.9985V133.372H49.0314V131.625Z" fill="#DBDBDB"/>
<path d="M50.4186 131.625H49.3857V133.372H50.4186V131.625Z" fill="#DBDBDB"/>
<path d="M62.6148 129.169H59.4014V133.76H62.6148V129.169Z" fill="#FBFAFF"/>
<path d="M60.8303 129.544H59.7974V131.291H60.8303V129.544Z" fill="#DBDBDB"/>
<path d="M62.2167 129.544H61.1838V131.291H62.2167V129.544Z" fill="#DBDBDB"/>
<path d="M60.8303 131.625H59.7974V133.372H60.8303V131.625Z" fill="#DBDBDB"/>
<path d="M62.2167 131.625H61.1838V133.372H62.2167V131.625Z" fill="#DBDBDB"/>
<path d="M56.733 128.924H53.1912V135.357H56.733V128.924Z" fill="#FBFAFF"/>
<path d="M55.3471 129.365H54.5852V130.328H55.3471V129.365Z" fill="#DBDBDB"/>
<path d="M56.3444 129.365H55.5825V130.328H56.3444V129.365Z" fill="#DBDBDB"/>
<path d="M55.7701 133.591H54.1602V133.824H55.7701V133.591Z" fill="#DBDBDB"/>
<path d="M54.3457 129.365H53.5837V130.328H54.3457V129.365Z" fill="#DBDBDB"/>
<path d="M55.3471 130.583H54.5852V131.546H55.3471V130.583Z" fill="#DBDBDB"/>
<path d="M56.3444 130.583H55.5825V131.546H56.3444V130.583Z" fill="#DBDBDB"/>
<path d="M54.3457 130.583H53.5837V131.546H54.3457V130.583Z" fill="#DBDBDB"/>
<path d="M55.3471 131.801H54.5852V132.764H55.3471V131.801Z" fill="#DBDBDB"/>
<path d="M56.3444 131.801H55.5825V132.764H56.3444V131.801Z" fill="#DBDBDB"/>
<path d="M54.3457 131.801H53.5837V132.764H54.3457V131.801Z" fill="#DBDBDB"/>
<path d="M56.1336 112.932H53.5386V116.346H56.1336V112.932Z" fill="#DBDBDB"/>
<path d="M56.1335 112.932H58.1738V113.48L56.1335 116.346V112.932Z" fill="#C7C7C7"/>
<path d="M56.1344 111.772H53.2493V112.932H56.1344V111.772Z" fill="#C7C7C7"/>
<path d="M58.397 111.772H56.1335V112.932H58.397V111.772Z" fill="#A6A6A6"/>
<path d="M73.7441 135.364H80.3305L80.9553 128.577H73.7441V135.364Z" fill="#C7C7C7"/>
<path d="M73.7439 128.576L70.489 127.103L70.5623 135.363H73.7439V128.576Z" fill="#DBDBDB"/>
<path d="M78.7874 130.329H76.0171V135.357H78.7874V130.329Z" fill="#FBFAFF"/>
<path d="M77.7009 130.677H77.1047V131.429H77.7009V130.677Z" fill="#DBDBDB"/>
<path d="M78.4817 130.677H77.8855V131.429H78.4817V130.677Z" fill="#DBDBDB"/>
<path d="M78.0317 133.639H76.7725V133.82H78.0317V133.639Z" fill="#DBDBDB"/>
<path d="M76.9189 130.677H76.3228V131.429H76.9189V130.677Z" fill="#DBDBDB"/>
<path d="M69.989 126.766H79.5593L82.6548 129.119H73.4639L69.989 126.766Z" fill="#A6A6A6"/>
<path d="M73.4639 129.119H69.989V126.766L73.4639 129.119Z" fill="#C7C7C7"/>
<path d="M71.408 123.327C71.408 123.543 71.4504 123.756 71.5329 123.955C71.6154 124.154 71.7364 124.335 71.8888 124.488C72.0413 124.64 72.2223 124.761 72.4215 124.844C72.6207 124.926 72.8342 124.969 73.0498 124.969C73.2655 124.969 73.4792 124.927 73.6785 124.845C73.8779 124.762 74.0591 124.641 74.2116 124.489C74.3642 124.336 74.4851 124.155 74.5674 123.956C74.6498 123.756 74.692 123.543 74.6916 123.327C74.6916 123.112 74.6491 122.898 74.5665 122.699C74.484 122.5 74.363 122.319 74.2105 122.167C74.058 122.015 73.877 121.894 73.6778 121.812C73.4786 121.73 73.2652 121.688 73.0498 121.688C72.6149 121.688 72.1978 121.861 71.89 122.168C71.5822 122.475 71.4088 122.892 71.408 123.327Z" fill="#FBFAFF"/>
<path d="M71.7742 123.329C71.7742 123.667 71.9085 123.991 72.1477 124.231C72.3868 124.47 72.7112 124.604 73.0494 124.604C73.1573 124.606 73.2648 124.591 73.3682 124.559C73.5693 124.511 73.7548 124.413 73.9069 124.273C74.0401 124.152 74.1461 124.004 74.2181 123.839C74.29 123.674 74.3263 123.496 74.3246 123.316C74.3246 122.978 74.1902 122.654 73.9511 122.414C73.7119 122.175 73.3876 122.041 73.0494 122.041C72.9415 122.04 72.834 122.055 72.7306 122.086C72.5822 122.122 72.4425 122.187 72.3193 122.277C72.1501 122.395 72.0121 122.553 71.9172 122.736C71.8222 122.919 71.7731 123.123 71.7742 123.329Z" fill="#C7C7C7"/>
<path d="M72.8715 124.824H73.2253V121.802H72.8715V124.824Z" fill="#FBFAFF"/>
<path d="M74.5608 123.492V123.138H71.5386V123.492H74.5608Z" fill="#FBFAFF"/>
<path d="M83.1302 135.363H72.8649L72.1667 127.769H83.1302V135.363Z" fill="#0077F9"/>
<path opacity="0.2" d="M83.1302 135.363H72.8649L72.1667 127.769H83.1302V135.363Z" fill="black"/>
<path d="M83.1301 127.77L88.7569 120.728L93.2328 127.77L92.5346 135.364H83.1301V127.77Z" fill="#0077F9"/>
<path d="M83.8054 128.698H69.8835L78.354 118.047H88.8137L95.1003 128.698H93.5032L88.8137 121.4L83.8054 128.698Z" fill="#0077F9"/>
<path opacity="0.4" d="M83.8054 128.698H69.8835L78.354 118.047H88.8137L95.1003 128.698H93.5032L88.8137 121.4L83.8054 128.698Z" fill="black"/>
<path d="M97.8622 108.626H94.9612V112.445H97.8622V108.626Z" fill="#0077F9"/>
<path opacity="0.2" d="M97.8622 108.626H94.9612V112.445H97.8622V108.626Z" fill="black"/>
<path d="M100.144 108.626H97.8611V112.445H100.144V108.626Z" fill="#0077F9"/>
<path d="M97.8612 107.328H94.635V108.625H97.8612V107.328Z" fill="#0077F9"/>
<path opacity="0.5" d="M97.8612 107.328H94.635V108.625H97.8612V107.328Z" fill="black"/>
<path d="M100.392 107.328H97.8611V108.625H100.392V107.328Z" fill="#0077F9"/>
<path opacity="0.4" d="M100.392 107.328H97.8611V108.625H100.392V107.328Z" fill="black"/>
<path d="M108.053 135.35H85.3385L84.3247 124.342H108.053V135.35Z" fill="#0077F9"/>
<path opacity="0.2" d="M108.053 135.35H85.3385L84.3247 124.342H108.053V135.35Z" fill="black"/>
<path d="M108.053 124.342L116.214 114.127L122.708 124.342L121.694 135.35H108.053V124.342Z" fill="#0077F9"/>
<path d="M116.116 114.77L122.82 125.144H125.163L116.317 110.884H92.1519L79.9133 126.327H109.424L116.116 114.77Z" fill="#0077F9"/>
<path opacity="0.5" d="M116.116 114.77L122.82 125.144H125.163L116.317 110.884H92.1519L79.9133 126.327H109.424L116.116 114.77Z" fill="black"/>
<path d="M114.091 125.887H117.683V120.751H114.091V125.887Z" fill="#FBFAFF"/>
<path d="M117.244 121.172H116.086V123.126H117.244V121.172Z" fill="#0077F9"/>
<path d="M115.692 121.172H114.535V123.126H115.692V121.172Z" fill="#0077F9"/>
<path d="M117.244 123.501H116.086V125.455H117.244V123.501Z" fill="#0077F9"/>
<path d="M115.692 123.501H114.535V125.455H115.692V123.501Z" fill="#0077F9"/>
<path d="M91.3865 128.43H87.7937V133.566H91.3865V128.43Z" fill="#FBFAFF"/>
<path d="M89.3948 128.847H88.2375V130.802H89.3948V128.847Z" fill="#0077F9"/>
<path d="M90.9429 128.847H89.7856V130.802H90.9429V128.847Z" fill="#0077F9"/>
<path d="M89.3948 131.177H88.2375V133.132H89.3948V131.177Z" fill="#0077F9"/>
<path d="M90.9429 131.177H89.7856V133.132H90.9429V131.177Z" fill="#0077F9"/>
<path d="M97.9852 128.43H94.3923V133.566H97.9852V128.43Z" fill="#FBFAFF"/>
<path d="M95.9932 128.847H94.8359V130.802H95.9932V128.847Z" fill="#0077F9"/>
<path d="M97.5449 128.847H96.3877V130.802H97.5449V128.847Z" fill="#0077F9"/>
<path d="M95.9932 131.177H94.8359V133.132H95.9932V131.177Z" fill="#0077F9"/>
<path d="M97.5449 131.177H96.3877V133.132H97.5449V131.177Z" fill="#0077F9"/>
<path d="M104.586 128.43H100.993V133.566H104.586V128.43Z" fill="#FBFAFF"/>
<path d="M102.592 128.847H101.435V130.802H102.592V128.847Z" fill="#0077F9"/>
<path d="M104.145 128.847H102.988V130.802H104.145V128.847Z" fill="#0077F9"/>
<path d="M102.592 131.177H101.435V133.132H102.592V131.177Z" fill="#0077F9"/>
<path d="M104.145 131.177H102.988V133.132H104.145V131.177Z" fill="#0077F9"/>
<path d="M113.91 135.352H117.872V128.157H113.91V135.352Z" fill="#FBFAFF"/>
<path d="M116.317 128.65H115.462V129.727H116.317V128.65Z" fill="#0077F9"/>
<path d="M115.198 128.65H114.343V129.727H115.198V128.65Z" fill="#0077F9"/>
<path d="M114.987 133.635H116.788V133.374H114.987V133.635Z" fill="#0077F9"/>
<path d="M117.436 128.65H116.581V129.727H117.436V128.65Z" fill="#0077F9"/>
<path d="M116.317 130.009H115.462V131.087H116.317V130.009Z" fill="#0077F9"/>
<path d="M115.198 130.009H114.343V131.087H115.198V130.009Z" fill="#0077F9"/>
<path d="M117.436 130.009H116.581V131.087H117.436V130.009Z" fill="#0077F9"/>
<path d="M116.317 131.373H115.462V132.451H116.317V131.373Z" fill="#0077F9"/>
<path d="M115.198 131.373H114.343V132.451H115.198V131.373Z" fill="#0077F9"/>
<path d="M117.436 131.373H116.581V132.451H117.436V131.373Z" fill="#0077F9"/>
<path d="M101.508 114.584H96.2924L93.6113 117.915H99.5154L101.508 114.584Z" fill="#0077F9"/>
<path opacity="0.4" d="M101.508 114.584H96.2924L93.6113 117.915H99.5154L101.508 114.584Z" fill="black"/>
<path d="M97.5556 117.34V121.398H94.6545V117.34L96.1051 115.529L97.5556 117.34Z" fill="#0077F9"/>
<path opacity="0.2" d="M97.5556 117.34V121.398H94.6545V117.34L96.1051 115.529L97.5556 117.34Z" fill="black"/>
<path d="M97.5554 117.341H99.838L97.5554 121.4V117.341Z" fill="#0077F9"/>
<path d="M96.8537 117.406H95.2056V120.189H96.8537V117.406Z" fill="#FBFAFF"/>
<path d="M95.9391 117.6H95.4067V118.496H95.9391V117.6Z" fill="#0077F9"/>
<path d="M96.6535 117.6H96.1211V118.496H96.6535V117.6Z" fill="#0077F9"/>
<path d="M95.9391 118.658H95.4067V119.988H95.9391V118.658Z" fill="#0077F9"/>
<path d="M96.6535 118.658H96.1211V119.988H96.6535V118.658Z" fill="#0077F9"/>
<path d="M131.746 75.824C133.775 77.5526 135.035 80.016 135.249 82.6731C135.463 85.3301 134.614 87.9634 132.887 89.9945C131.491 91.6426 129.599 92.7936 127.493 93.2749L125.262 97.8433L123.097 93.3068C121.478 92.9587 119.97 92.2138 118.71 91.139C116.68 89.4092 115.419 86.944 115.205 84.2852C114.991 81.6263 115.841 78.9912 117.569 76.9589C119.299 74.9295 121.764 73.6701 124.423 73.4573C127.081 73.2444 129.715 74.0957 131.746 75.824Z" fill="white"/>
<path d="M131.746 75.8252C133.164 77.0336 134.221 78.6101 134.8 80.3808C134.944 80.8217 135.062 81.271 135.151 81.7261C135.226 82.184 135.273 82.6461 135.291 83.1097C135.337 84.0385 135.251 84.969 135.036 85.8737C134.825 86.7815 134.489 87.6559 134.038 88.4718C133.808 88.8784 133.552 89.2693 133.27 89.6418C132.996 90.0204 132.692 90.3765 132.362 90.7066C131.033 92.0452 129.357 92.9859 127.522 93.4228L127.621 93.3463L125.415 97.9274L125.256 98.2462L125.093 97.9274L122.916 93.3973L123.05 93.5057C121.526 93.1772 120.099 92.5033 118.878 91.5361C117.656 90.5688 116.673 89.334 116.004 87.9267C115.341 86.5219 115.004 84.9852 115.019 83.4317C115.039 81.8793 115.415 80.3522 116.119 78.9685C116.813 77.5939 117.811 76.3949 119.036 75.4618C120.262 74.5424 121.678 73.9095 123.18 73.6096C124.683 73.305 126.235 73.3462 127.719 73.7301C129.203 74.114 130.58 74.8304 131.746 75.8252ZM131.746 75.8252C130.579 74.8432 129.203 74.1392 127.724 73.7665C126.244 73.3937 124.699 73.3618 123.206 73.6733C121.719 73.9972 120.325 74.6509 119.125 75.5861C117.936 76.5275 116.977 77.7266 116.32 79.0929C115.662 80.4488 115.321 81.9371 115.325 83.4444C115.343 84.9404 115.687 86.4144 116.332 87.7641C116.988 89.1128 117.941 90.2954 119.119 91.2231C120.3 92.1457 121.672 92.7927 123.136 93.1167L123.228 93.1358L123.269 93.2219L125.418 97.768H125.099L127.363 93.2155L127.395 93.1518H127.462C129.264 92.7585 130.921 91.8684 132.244 90.5823C132.573 90.2635 132.877 89.9192 133.152 89.5526C133.437 89.1924 133.696 88.812 133.927 88.4145C134.388 87.6165 134.736 86.7581 134.96 85.8641C135.191 84.9707 135.289 84.0478 135.25 83.1256C135.237 82.6642 135.193 82.2041 135.119 81.7484C135.036 81.2943 134.923 80.8459 134.781 80.4063C134.212 78.6282 133.162 77.0425 131.746 75.8252Z" fill="#263238"/>
<path d="M127.959 80.9274C127.85 80.8132 127.727 80.7135 127.592 80.6309C127.414 80.5096 127.227 80.403 127.031 80.3121C126.806 80.2085 126.573 80.1243 126.333 80.0603C126.078 79.9923 125.816 79.9485 125.552 79.9296V82.7987L125.817 82.8561C126.274 82.9626 126.724 83.0957 127.165 83.2546C127.529 83.3842 127.872 83.5668 128.182 83.7966C128.452 84.0042 128.67 84.2716 128.82 84.5776C128.982 84.9301 129.06 85.3152 129.049 85.703C129.061 86.1353 128.971 86.5643 128.788 86.9558C128.616 87.2965 128.367 87.5924 128.061 87.8198C127.737 88.0593 127.37 88.2356 126.98 88.3394C126.55 88.4579 126.107 88.5211 125.661 88.5275V89.994H124.94V88.5148C124.294 88.4711 123.656 88.3381 123.046 88.1195C122.453 87.9065 121.896 87.601 121.398 87.2141L122.106 85.8879C122.239 86.0235 122.388 86.1433 122.549 86.2449C122.764 86.3881 122.99 86.5138 123.225 86.6211C123.501 86.7468 123.785 86.8534 124.076 86.9399C124.389 87.0314 124.709 87.0954 125.032 87.1312V84.262C124.975 84.2427 124.916 84.2268 124.857 84.2142L124.685 84.1664C124.253 84.0542 123.827 83.918 123.41 83.7583C123.081 83.6368 122.775 83.4612 122.504 83.2387C122.27 83.0452 122.082 82.801 121.956 82.5246C121.824 82.2123 121.761 81.8752 121.771 81.5363C121.763 81.1237 121.842 80.7141 122.004 80.3345C122.159 79.9879 122.386 79.6782 122.67 79.4259C122.964 79.1681 123.304 78.9671 123.671 78.8329C124.082 78.684 124.511 78.5928 124.946 78.5619V77.1656H125.667V78.5619C126.235 78.5937 126.795 78.7153 127.325 78.9222C127.802 79.1074 128.253 79.3539 128.667 79.6554L127.959 80.9274ZM123.394 81.2877C123.383 81.4554 123.414 81.6232 123.486 81.7754C123.557 81.9276 123.666 82.0592 123.802 82.158C124.183 82.399 124.602 82.5727 125.042 82.6712V79.9455C124.594 79.9345 124.155 80.0737 123.796 80.3408C123.663 80.4589 123.557 80.6052 123.488 80.769C123.419 80.9327 123.386 81.1099 123.394 81.2877ZM127.392 85.8815C127.4 85.699 127.36 85.5176 127.276 85.3557C127.191 85.1938 127.065 85.0573 126.91 84.9602C126.486 84.71 126.029 84.5211 125.552 84.3991V87.1248C126.028 87.151 126.502 87.0404 126.917 86.806C127.07 86.7069 127.194 86.5694 127.278 86.4072C127.361 86.245 127.4 86.0637 127.392 85.8815Z" fill="#0077F9"/>
</svg>
