<svg width="160" height="160" viewBox="0 0 160 160" fill="none" xmlns="http://www.w3.org/2000/svg">
<rect x="1.11379" y="0.88372" width="157.772" height="157.772" rx="5.71949" fill="#BDDBFB" stroke="#0077F9" stroke-width="1.74419"/>
<path d="M55.4404 33.3443H19.4678C19.4678 33.3443 23.0364 23.6044 28.5245 23.6044C34.0125 23.6044 35.7381 30.3254 35.7381 30.3254C35.7381 30.3254 39.4402 26.6741 42.4813 26.6741C45.5225 26.6741 48.1696 31.5012 48.1696 31.5012C48.1696 31.5012 52.466 28.9049 55.4404 33.3443Z" fill="white"/>
<path d="M139.947 54.8485H123.14C123.14 54.8485 126.896 49.4081 129.855 49.4081C132.813 49.4081 133.687 53.0371 133.687 53.0371C133.687 53.0371 135.775 51.3434 137.71 51.6453C139.646 51.9472 139.947 54.8485 139.947 54.8485Z" fill="white"/>
<path d="M79.2385 19.9562H62.4312C62.4312 19.9562 66.1873 14.5126 69.1458 14.5126C72.1044 14.5126 72.9782 18.1417 72.9782 18.1417C72.9782 18.1417 75.0788 16.4416 77.0013 16.7593C78.9239 17.0771 79.2385 19.9562 79.2385 19.9562Z" fill="white"/>
<path d="M122.558 35.2664H89.8271C89.8271 35.2664 94.311 25.2564 99.1063 24.6303C103.902 24.0043 106.196 32.0695 106.196 32.0695C106.196 32.0695 109.291 29.2095 111.722 29.2095C114.153 29.2095 116.025 32.9657 116.025 32.9657C116.025 32.9657 120.89 30.4012 122.558 35.2664Z" fill="white"/>
<path d="M108.652 144.366C127.75 144.366 143.233 142.584 143.233 140.385C143.233 138.186 127.75 136.403 108.652 136.403C89.5536 136.403 74.0713 138.186 74.0713 140.385C74.0713 142.584 89.5536 144.366 108.652 144.366Z" fill="#EBEBEB"/>
<path d="M81.6632 54.2411H53.9751V91.9933H81.6632V54.2411Z" fill="#0077F9"/>
<path d="M23.5156 91.9907H53.9747V54.2417L23.5156 42.8938V55.4397V91.9907Z" fill="#0077F9"/>
<g opacity="0.3">
<path d="M23.5156 91.99H53.9747V54.241L23.5156 42.8931V55.439V91.99Z" fill="white"/>
</g>
<path d="M51.15 41.5459H21.9365L55.3891 53.9964H84.6026L51.15 41.5459Z" fill="#455A64"/>
<path d="M84.6026 53.9965H55.3892V54.7591H84.6026V53.9965Z" fill="#263238"/>
<path d="M55.3891 54.7591L21.9365 42.3085V41.5459L55.3891 53.9964V54.7591Z" fill="#37474F"/>
<path d="M79.3243 57.2961H53.9751V64.694H79.3243V57.2961Z" fill="#455A64"/>
<path d="M79.3244 57.2961H78.1772V64.694H79.3244V57.2961Z" fill="#263238"/>
<path d="M59.1388 57.2961H58.6177V64.694H59.1388V57.2961Z" fill="#0077F9"/>
<path d="M64.319 57.2961H63.7979V64.694H64.319V57.2961Z" fill="#0077F9"/>
<path d="M69.4987 57.2961H68.9775V64.694H69.4987V57.2961Z" fill="#0077F9"/>
<path d="M74.6779 57.2961H74.1567V64.694H74.6779V57.2961Z" fill="#0077F9"/>
<path d="M48.8617 70.2245H23.5156V48.1516L48.8617 57.2941V70.2245Z" fill="#455A64"/>
<path d="M28.6801 50.0146V70.2286H28.1558V49.824L28.6801 50.0146Z" fill="#0077F9"/>
<path d="M48.8649 64.6936H23.5156V65.218H48.8649V64.6936Z" fill="#0077F9"/>
<path d="M33.86 51.8834V70.2287H33.3389V51.6959L33.86 51.8834Z" fill="#0077F9"/>
<path d="M39.0392 53.7514V70.2282H38.5181V53.5639L39.0392 53.7514Z" fill="#0077F9"/>
<path d="M44.2226 55.6239V70.229H43.6982V55.4332L44.2226 55.6239Z" fill="#0077F9"/>
<path d="M52.44 70.227H18.7046V91.9916H52.44V70.227Z" fill="#0077F9"/>
<path opacity="0.5" d="M50.3014 70.227H18.7046V91.9916H50.3014V70.227Z" fill="white"/>
<path d="M46.924 76.543H40.1172V91.9903H46.924V76.543Z" fill="white"/>
<path d="M46.5204 84.8971H45.2588V85.2466H46.5204V84.8971Z" fill="#DBDBDB"/>
<path d="M46.0404 77.3374H41.0068V84.551H46.0404V77.3374Z" fill="#37474F"/>
<path d="M45.9511 85.4803H40.9175V91.0796H45.9511V85.4803Z" fill="#37474F"/>
<g opacity="0.1">
<path d="M46.0363 77.6446V80.209L41.6986 84.5499H41.0059V82.6782L46.0363 77.6446Z" fill="white"/>
<path d="M45.8902 85.4785L40.917 90.4518V89.1711L44.6096 85.4785H45.8902Z" fill="white"/>
<path d="M46.0365 84.0482V84.5503H45.5376L46.0365 84.0482Z" fill="white"/>
<path d="M43.9612 77.3369L41.0059 80.2922V79.0116L42.6774 77.3369H43.9612Z" fill="white"/>
<path d="M45.9501 86.4248V86.7457L41.6188 91.0771H41.2979L45.9501 86.4248Z" fill="white"/>
</g>
<path d="M40.1162 76.543H39.166V91.9903H40.1162V76.543Z" fill="#0077F9"/>
<path d="M21.1932 83.9418H25.8359V76.5439H21.1932V83.9418Z" fill="#455A64"/>
<path d="M21.1927 83.9418H22.3398V76.5439H21.1927V83.9418Z" fill="#263238"/>
<path d="M26.6556 83.9418H31.2983V76.5439H26.6556V83.9418Z" fill="#455A64"/>
<path d="M26.6556 83.9418H27.8027V76.5439H26.6556V83.9418Z" fill="#263238"/>
<path d="M32.1209 83.9418H36.7637V76.5439H32.1209V83.9418Z" fill="#455A64"/>
<path d="M32.1214 83.9418H33.2686V76.5439H32.1214V83.9418Z" fill="#263238"/>
<path d="M82.6547 70.227H60.1719V91.9916H82.6547V70.227Z" fill="#0077F9"/>
<path opacity="0.3" d="M82.6547 70.227H60.1719V91.9916H82.6547V70.227Z" fill="white"/>
<path d="M98.8923 70.227H82.6538V91.9916H98.8923V70.227Z" fill="#0077F9"/>
<path d="M80.1062 76.525H62.7236V91.9945H80.1062V76.525Z" fill="#455A64"/>
<path d="M63.7822 77.627H80.1065" stroke="#37474F" stroke-width="0.659158" stroke-miterlimit="10"/>
<path d="M63.7822 78.7329H80.1065" stroke="#37474F" stroke-width="0.659158" stroke-miterlimit="10"/>
<path d="M63.7822 79.8388H80.1065" stroke="#37474F" stroke-width="0.659158" stroke-miterlimit="10"/>
<path d="M63.7822 80.9409H80.1065" stroke="#37474F" stroke-width="0.659158" stroke-miterlimit="10"/>
<path d="M63.7822 82.0468H80.1065" stroke="#37474F" stroke-width="0.659158" stroke-miterlimit="10"/>
<path d="M63.7822 83.1539H80.1065" stroke="#37474F" stroke-width="0.659158" stroke-miterlimit="10"/>
<path d="M63.7822 84.256H80.1065" stroke="#37474F" stroke-width="0.659158" stroke-miterlimit="10"/>
<path d="M63.7822 85.3606H80.1065" stroke="#37474F" stroke-width="0.659158" stroke-miterlimit="10"/>
<path d="M63.7822 86.4677H80.1065" stroke="#37474F" stroke-width="0.659158" stroke-miterlimit="10"/>
<path d="M63.7822 87.5736H80.1065" stroke="#37474F" stroke-width="0.659158" stroke-miterlimit="10"/>
<path d="M63.7822 88.6757H80.1065" stroke="#37474F" stroke-width="0.659158" stroke-miterlimit="10"/>
<path d="M63.7822 89.7829H80.1065" stroke="#37474F" stroke-width="0.659158" stroke-miterlimit="10"/>
<path d="M63.7822 90.8875H80.1065" stroke="#37474F" stroke-width="0.659158" stroke-miterlimit="10"/>
<path d="M63.7818 76.525H62.7236V91.9945H63.7818V76.525Z" fill="#263238"/>
<path d="M62.7238 74.7162H67.0806V72.8572H62.7238V74.7162Z" fill="#455A64"/>
<path d="M62.724 74.7162H63.7822V72.8572H62.724V74.7162Z" fill="#263238"/>
<path d="M69.235 74.7162H73.5918V72.8572H69.235V74.7162Z" fill="#455A64"/>
<path d="M69.2353 74.7162H70.2935V72.8572H69.2353V74.7162Z" fill="#263238"/>
<path d="M75.7492 74.7162H80.106V72.8572H75.7492V74.7162Z" fill="#455A64"/>
<path d="M75.7489 74.7162H76.8071V72.8572H75.7489V74.7162Z" fill="#263238"/>
<path d="M97.2885 72.8559H94.0249V74.7149H97.2885V72.8559Z" fill="#455A64"/>
<path d="M97.2881 72.8559H96.4937V74.7149H97.2881V72.8559Z" fill="#263238"/>
<path d="M92.4072 72.8559H89.1436V74.7149H92.4072V72.8559Z" fill="#455A64"/>
<path d="M92.4077 72.8559H91.6133V74.7149H92.4077V72.8559Z" fill="#263238"/>
<path d="M87.5263 72.8559H84.2627V74.7149H87.5263V72.8559Z" fill="#455A64"/>
<path d="M87.5293 72.8559H86.7349V74.7149H87.5293V72.8559Z" fill="#263238"/>
<path d="M39.6239 91.9908H46.9519L65.9487 135.644H34.6538L39.6239 91.9908Z" fill="#DBDBDB"/>
<path d="M34.6538 135.644L38.5657 135.587L42.4775 135.552L50.3012 135.526L58.125 135.552L62.0368 135.587L65.9487 135.644L62.0368 135.701L58.125 135.736L50.3012 135.764L42.4775 135.736L38.5657 135.701L34.6538 135.644Z" fill="#C7C7C7"/>
<path d="M61.2232 124.785L58.055 124.842L54.8899 124.874L48.5566 124.902L42.2201 124.877L39.055 124.842L35.8867 124.785L39.055 124.725L42.2201 124.693L48.5566 124.664L54.8899 124.693L58.055 124.725L61.2232 124.785Z" fill="#C7C7C7"/>
<path d="M57.0604 115.211C55.3857 115.262 53.7142 115.284 52.0395 115.303L47.0186 115.332L41.9977 115.303C40.3262 115.284 38.6515 115.262 36.98 115.211C38.6515 115.163 40.3262 115.141 41.9977 115.122L47.0186 115.094L52.0395 115.122C53.7142 115.141 55.3762 115.163 57.0604 115.211Z" fill="#C7C7C7"/>
<path d="M53.1678 106.274C51.8967 106.322 50.6256 106.344 49.3767 106.363L45.5825 106.392L41.7914 106.373C40.5202 106.351 39.2491 106.329 37.9971 106.281C39.2682 106.23 40.5393 106.208 41.7914 106.189L45.5825 106.16L49.3767 106.189C50.6415 106.201 51.9031 106.224 53.1678 106.274Z" fill="#C7C7C7"/>
<path d="M50.2663 99.6079C49.3129 99.6556 48.3596 99.6778 47.4063 99.6969C46.4529 99.7159 45.4996 99.7159 44.5272 99.7255C43.5548 99.735 42.6205 99.7255 41.6672 99.7C40.7138 99.6746 39.7605 99.6556 38.7881 99.6079C39.7414 99.557 40.6948 99.5348 41.6672 99.5157C42.6396 99.4967 43.5738 99.4967 44.5272 99.4871C45.4805 99.4776 46.4339 99.4871 47.4063 99.5157C48.3787 99.5443 49.3066 99.557 50.2663 99.6079Z" fill="#C7C7C7"/>
<path d="M48.0397 94.4859C47.3151 94.5368 46.5906 94.559 45.8661 94.5781C45.1415 94.5972 44.417 94.5972 43.6893 94.6067C42.9615 94.6162 42.2402 94.6067 41.5157 94.5781C40.7911 94.5495 40.0666 94.5368 39.3389 94.4859C40.0666 94.4383 40.7911 94.416 41.5157 94.397C42.2402 94.3779 42.9647 94.3779 43.6893 94.3684C44.4138 94.3588 45.1415 94.3684 45.8661 94.397C46.5906 94.4256 47.3151 94.4383 48.0397 94.4859Z" fill="#C7C7C7"/>
<path d="M15.4028 91.99L31.4793 91.9138L47.5557 91.8852L79.7118 91.8311L111.865 91.8852L127.941 91.9138L144.018 91.99L127.941 92.0695L111.865 92.0981L79.7118 92.1489L47.5557 92.0981L31.4793 92.0695L15.4028 91.99Z" fill="#263238"/>
<path d="M35.744 97.4345H24.4819C24.4819 97.4345 24.5105 95.7566 25.6164 95.3117C25.9164 95.181 26.2508 95.1516 26.569 95.2278C26.8872 95.3041 27.1719 95.4819 27.3801 95.7344C27.3801 95.7344 27.8313 92.6551 29.8969 92.6551C31.9625 92.6551 32.9444 95.3117 32.9444 95.3117C33.12 95.0584 33.3656 94.8616 33.6511 94.7454C33.9366 94.6291 34.2497 94.5985 34.5524 94.6571C35.6995 94.8064 35.744 97.4345 35.744 97.4345Z" fill="#37474F"/>
<path d="M92.9315 124.227C92.9315 124.227 92.3658 121.586 91.2377 121.179C90.1096 120.772 89.42 121.958 89.42 121.958C89.42 121.958 89.1531 119.438 87.5515 118.682C85.9499 117.925 84.7487 119.473 84.7487 119.473C84.7487 119.473 83.5189 116.273 81.323 116.273C79.1272 116.273 78.0181 120.954 78.0181 120.954C78.0181 120.954 76.7248 119.559 75.3933 120.347C74.0618 121.135 74.0649 124.227 74.0649 124.227H92.9315Z" fill="#37474F"/>
<path d="M26.4995 97.4335H16.1177C16.1177 97.4335 16.4577 95.9686 17.1473 95.8637C17.3543 95.8452 17.5619 95.8904 17.7425 95.9932C17.9231 96.096 18.068 96.2515 18.1578 96.4389C18.1578 96.4389 18.126 94.3987 19.413 94.0492C20.7001 93.6996 21.7773 95.5078 21.7773 95.5078C21.7773 95.5078 22.5813 94.4782 23.684 94.5544C24.7867 94.6307 25.0632 96.3181 25.0632 96.3181C25.0632 96.3181 26.0578 95.7175 26.4995 97.4335Z" fill="#455A64"/>
<path d="M75.9205 124.225H62.9233C62.9233 124.225 62.9519 122.29 64.2294 121.778C64.5756 121.627 64.9618 121.593 65.3293 121.68C65.6969 121.768 66.0258 121.973 66.2664 122.265C66.2664 122.265 66.7875 118.709 69.1709 118.709C71.5542 118.709 72.6919 121.778 72.6919 121.778C72.8931 121.485 73.1758 121.257 73.505 121.123C73.8342 120.988 74.1956 120.953 74.5445 121.022C75.8665 121.197 75.9205 124.225 75.9205 124.225Z" fill="#455A64"/>
<path d="M52.6211 94.2367C52.6211 94.2367 52.9675 92.6224 53.6602 92.3745C54.353 92.1266 54.7725 92.848 54.7725 92.848C54.7725 92.848 54.9345 91.3067 55.9165 90.8428C56.8984 90.3788 57.6325 91.329 57.6325 91.329C57.6325 91.329 58.3856 89.3683 59.7298 89.3683C61.074 89.3683 61.7541 92.2283 61.7541 92.2283C61.7541 92.2283 62.5453 91.3735 63.3588 91.8565C64.1724 92.3395 64.1724 94.2303 64.1724 94.2303L52.6211 94.2367Z" fill="#37474F"/>
<path d="M63.4258 94.2373H69.8259C69.8259 94.2373 69.81 93.2839 69.1903 93.0329C69.0198 92.9594 68.83 92.9432 68.6495 92.9868C68.469 93.0303 68.3075 93.1313 68.1893 93.2744C68.1893 93.2744 67.9319 91.5234 66.7593 91.5234C65.5867 91.5234 65.0242 93.0329 65.0242 93.0329C64.9254 92.8883 64.7863 92.776 64.6241 92.7099C64.4619 92.6438 64.2839 92.6268 64.1122 92.6611C63.4512 92.7469 63.4258 94.2373 63.4258 94.2373Z" fill="#455A64"/>
<path d="M113.642 81.5228H111.026V136.2H113.642V81.5228Z" fill="#DBDBDB"/>
<path d="M113.645 136.199H114.232V81.5224H113.645V136.199Z" fill="#A6A6A6"/>
<path d="M142.943 84.1375H143.531V81.5222H142.943V84.1375Z" fill="#A6A6A6"/>
<path d="M111.026 81.5222V84.1375H142.941V81.5222H111.026Z" fill="#DBDBDB"/>
<path d="M140.951 85.743H116.104V100.224H140.951V85.743Z" fill="#0077F9"/>
<g opacity="0.2">
<path d="M139.765 86.9686H117.292V98.9997H139.765V86.9686Z" fill="white"/>
</g>
<path d="M118.599 93.4968C118.882 93.4968 119.111 93.2677 119.111 92.9852C119.111 92.7026 118.882 92.4736 118.599 92.4736C118.316 92.4736 118.087 92.7026 118.087 92.9852C118.087 93.2677 118.316 93.4968 118.599 93.4968Z" fill="#0077F9"/>
<path d="M138.457 93.4968C138.739 93.4968 138.969 93.2677 138.969 92.9852C138.969 92.7026 138.739 92.4736 138.457 92.4736C138.174 92.4736 137.945 92.7026 137.945 92.9852C137.945 93.2677 138.174 93.4968 138.457 93.4968Z" fill="#0077F9"/>
<path d="M123.857 92.2997V88.6293H126.304V89.141H124.436V90.2373H125.999V90.7171H124.436V92.306L123.857 92.2997Z" fill="white"/>
<path d="M128.295 92.3281C128.047 92.3305 127.803 92.2761 127.58 92.1692C127.368 92.0675 127.179 91.9249 127.023 91.7497C126.787 91.4828 126.629 91.1558 126.567 90.8047C126.505 90.4537 126.541 90.0923 126.671 89.7604C126.758 89.5418 126.884 89.3405 127.042 89.1662C127.2 88.9937 127.39 88.8544 127.602 88.7562C127.822 88.6528 128.064 88.6007 128.307 88.6037C128.555 88.6012 128.8 88.6568 129.022 88.7658C129.233 88.87 129.421 89.0147 129.575 89.1916C129.729 89.3678 129.851 89.5701 129.934 89.789C130.017 90.0117 130.057 90.2476 130.055 90.485C130.057 90.7262 130.012 90.9656 129.925 91.1904C129.838 91.408 129.713 91.6082 129.556 91.7815C129.397 91.9533 129.206 92.0925 128.994 92.1914C128.774 92.2883 128.535 92.3349 128.295 92.3281ZM127.128 90.4659C127.127 90.6367 127.155 90.8065 127.211 90.968C127.262 91.1242 127.342 91.2696 127.446 91.397C127.546 91.5207 127.672 91.6214 127.815 91.6925C127.965 91.7687 128.132 91.8069 128.301 91.8037C128.473 91.807 128.643 91.7677 128.797 91.6893C128.938 91.6097 129.061 91.5015 129.159 91.3715C129.261 91.2438 129.338 91.0984 129.388 90.9426C129.438 90.7854 129.464 90.6214 129.464 90.4563C129.466 90.2844 129.438 90.1135 129.381 89.9511C129.33 89.7968 129.25 89.6534 129.146 89.5284C129.046 89.4056 128.922 89.3049 128.781 89.2329C128.629 89.1588 128.462 89.1202 128.293 89.1202C128.124 89.1202 127.957 89.1588 127.805 89.2329C127.662 89.3132 127.537 89.4213 127.437 89.5507C127.336 89.6784 127.259 89.8224 127.208 89.9765C127.155 90.1342 127.128 90.2995 127.128 90.4659Z" fill="white"/>
<path d="M130.658 92.2997V88.6294H132.247C132.405 88.6283 132.561 88.6631 132.704 88.731C132.84 88.7982 132.962 88.891 133.063 89.0044C133.164 89.1161 133.244 89.2453 133.298 89.3857C133.355 89.525 133.384 89.6739 133.384 89.8242C133.385 89.9447 133.368 90.0647 133.333 90.1801C133.301 90.2927 133.251 90.3998 133.187 90.4979C133.128 90.5943 133.051 90.6794 132.962 90.749C132.874 90.8202 132.774 90.8741 132.666 90.9078L133.53 92.3029H132.882L132.088 91.0318H131.239V92.3029L130.658 92.2997ZM131.239 90.5106H132.253C132.331 90.5128 132.407 90.4941 132.475 90.4566C132.545 90.4213 132.605 90.3701 132.65 90.3072C132.699 90.2405 132.738 90.1666 132.765 90.088C132.791 90.0026 132.805 89.9137 132.806 89.8242C132.807 89.7338 132.79 89.6441 132.755 89.5605C132.725 89.4819 132.682 89.4089 132.628 89.3444C132.575 89.2831 132.512 89.2325 132.44 89.195C132.373 89.16 132.298 89.1415 132.221 89.141H131.239V90.5106Z" fill="white"/>
<path d="M124.776 94.5219C124.73 94.4776 124.68 94.4372 124.627 94.4012C124.552 94.3551 124.475 94.3148 124.395 94.2804C124.302 94.2398 124.205 94.2089 124.105 94.1882C124.001 94.1631 123.895 94.1503 123.788 94.1501C123.597 94.1345 123.407 94.1826 123.247 94.2867C123.19 94.3297 123.144 94.3861 123.114 94.4509C123.083 94.5157 123.069 94.587 123.073 94.6586C123.07 94.7352 123.089 94.8111 123.127 94.8778C123.17 94.9408 123.228 94.9921 123.295 95.0272C123.384 95.0768 123.479 95.1152 123.578 95.1416L123.978 95.2464C124.148 95.287 124.316 95.3369 124.48 95.3958C124.617 95.4439 124.746 95.5125 124.862 95.5992C124.964 95.6765 125.047 95.7766 125.103 95.8915C125.164 96.0238 125.194 96.1685 125.189 96.3142C125.194 96.4807 125.157 96.6457 125.081 96.794C125.013 96.9224 124.913 97.0317 124.792 97.1118C124.663 97.2 124.518 97.2635 124.366 97.2993C124.194 97.3396 124.018 97.3599 123.842 97.3597C123.568 97.3591 123.295 97.3162 123.035 97.2326C122.78 97.1499 122.541 97.0241 122.329 96.8608L122.593 96.365C122.652 96.4218 122.717 96.4718 122.787 96.5144C122.878 96.576 122.976 96.6271 123.079 96.6669C123.198 96.7152 123.32 96.7556 123.445 96.7877C123.579 96.8199 123.716 96.8359 123.854 96.8353C124.038 96.8463 124.221 96.8055 124.382 96.7178C124.441 96.6809 124.49 96.6287 124.522 96.5666C124.555 96.5046 124.57 96.4349 124.566 96.365C124.57 96.282 124.545 96.2002 124.496 96.1331C124.445 96.064 124.377 96.0084 124.299 95.971C124.198 95.9174 124.092 95.8748 123.982 95.8439C123.858 95.8057 123.718 95.7644 123.559 95.7231C123.391 95.6817 123.225 95.6297 123.063 95.5674C122.941 95.5212 122.827 95.4558 122.726 95.3736C122.639 95.3003 122.569 95.2093 122.52 95.1066C122.472 94.9897 122.449 94.8642 122.453 94.738C122.449 94.5733 122.484 94.41 122.555 94.2613C122.622 94.1241 122.718 94.0036 122.838 93.9086C122.962 93.8094 123.104 93.7359 123.257 93.6925C123.43 93.6429 123.608 93.6183 123.788 93.6194C124.022 93.6175 124.255 93.6584 124.474 93.7402C124.671 93.8128 124.857 93.9123 125.027 94.0357L124.776 94.5219Z" fill="white"/>
<path d="M126.781 93.6618H127.29L128.739 97.3322H128.129L127.741 96.3343H126.324L125.939 97.3322H125.323L126.781 93.6618ZM127.627 95.9054L127.036 94.3165L126.425 95.9054H127.627Z" fill="white"/>
<path d="M129.194 97.3322V93.6618H129.772V96.8206H131.742V97.3322H129.194Z" fill="white"/>
<path d="M134.732 96.8206V97.3322H132.212V93.6618H134.685V94.1735H132.794V95.2158H134.434V95.6988H132.794V96.8206H134.732Z" fill="white"/>
<path d="M121.303 84.1375H120.105V85.7455H121.303V84.1375Z" fill="#0077F9"/>
<path d="M136.95 84.1375H135.752V85.7455H136.95V84.1375Z" fill="#0077F9"/>
<path d="M141.723 85.743H140.951V100.224H141.723V85.743Z" fill="#0077F9"/>
<path opacity="0.1" d="M141.723 85.743H140.951V100.224H141.723V85.743Z" fill="black"/>
<path d="M105.016 111.502L113.847 118.648C115.547 120.005 117.025 121.226 117.708 121.928C117.889 122.075 118.034 122.261 118.134 122.471C118.134 122.471 118.134 122.471 118.134 122.49C118.07 123.269 107.625 137.146 107.097 137.509C106.57 137.871 105.508 136.396 105.474 135.532C105.439 134.668 107.062 127.568 107.062 127.568L98.333 120.355L105.016 111.502Z" fill="#D3766A"/>
<path d="M112.046 117.178L113.857 118.643C115.557 120 117.035 121.22 117.718 121.922C117.88 122.087 118.023 122.269 118.144 122.466C118.144 122.466 118.144 122.466 118.144 122.485C118.08 123.263 107.635 137.141 107.108 137.503C106.58 137.865 105.519 136.391 105.484 135.526C105.449 134.662 107.073 127.563 107.073 127.563L105.21 126.098L112.046 117.178Z" fill="#EBEBEB"/>
<path d="M107.12 137.514C107.648 137.152 118.093 123.278 118.157 122.496C118.186 122.201 116.25 120.561 113.857 118.645L113.784 118.588L106.943 127.463L107.098 127.574C107.098 127.574 105.474 134.674 105.509 135.541C105.544 136.409 106.593 137.883 107.12 137.514Z" fill="#333333"/>
<path d="M106.701 136.955C108.404 134.575 115.5 125.124 117.362 122.9C117.378 122.881 117.391 122.9 117.378 122.9C115.742 125.296 108.569 134.686 106.739 136.971C106.701 137.035 106.663 137.006 106.701 136.955Z" fill="#263238"/>
<path d="M106.558 128.351C107.079 127.302 108.068 126.282 109.253 126.073C109.301 126.073 109.31 126.13 109.278 126.152C108.333 126.817 107.461 127.582 106.679 128.434C106.668 128.45 106.651 128.461 106.632 128.464C106.613 128.468 106.593 128.464 106.577 128.453C106.561 128.442 106.55 128.425 106.547 128.406C106.543 128.387 106.547 128.367 106.558 128.351Z" fill="#263238"/>
<path d="M106.46 129.317C106.981 128.268 107.969 127.248 109.154 127.038C109.199 127.038 109.212 127.095 109.18 127.118C108.234 127.784 107.361 128.548 106.577 129.399C106.565 129.411 106.549 129.418 106.532 129.42C106.515 129.421 106.498 129.417 106.484 129.407C106.47 129.397 106.46 129.383 106.456 129.366C106.451 129.35 106.453 129.332 106.46 129.317Z" fill="#263238"/>
<path d="M106.358 130.283C106.879 129.235 107.871 128.215 109.056 128.005C109.1 128.005 109.11 128.062 109.078 128.084C108.132 128.75 107.261 129.515 106.479 130.366C106.468 130.382 106.451 130.393 106.432 130.397C106.413 130.4 106.393 130.396 106.377 130.385C106.361 130.374 106.35 130.357 106.346 130.338C106.343 130.319 106.347 130.3 106.358 130.283Z" fill="#263238"/>
<path d="M100.237 102.991C100.873 106.083 113.689 118.42 113.689 118.42L104.747 128.744C104.747 128.744 86.5379 110.564 87.4881 103.735C88.3143 97.7925 97.2089 73.8987 97.2089 73.8987H107.473C107.473 73.8987 99.6209 99.9534 100.237 102.991Z" fill="#37474F"/>
<path d="M103.729 126.289C104.918 124.811 104.556 125.218 105.76 123.746C106.351 123.028 110.228 118.319 110.895 117.747C110.899 117.745 110.904 117.744 110.908 117.744C110.912 117.745 110.916 117.746 110.92 117.749C110.923 117.752 110.925 117.755 110.927 117.76C110.928 117.764 110.928 117.768 110.927 117.772C110.479 118.529 106.52 123.174 105.916 123.877C104.683 125.316 105.023 124.89 103.774 126.317C103.769 126.321 103.764 126.322 103.758 126.322C103.752 126.323 103.747 126.321 103.742 126.318C103.737 126.315 103.734 126.31 103.731 126.305C103.729 126.3 103.728 126.294 103.729 126.289Z" fill="#263238"/>
<path d="M98.4741 101.975C98.6202 101.202 98.7918 100.433 98.9507 99.6643C99.2855 98.0987 99.6382 96.5341 100.009 94.9707C100.748 91.8755 101.552 88.7973 102.421 85.736C103.295 82.6631 104.22 79.5965 105.281 76.5872C105.411 76.2154 105.548 75.8436 105.681 75.4718C105.683 75.4669 105.686 75.4627 105.691 75.4597C105.695 75.4568 105.7 75.4552 105.705 75.4552C105.71 75.4552 105.715 75.4568 105.72 75.4597C105.724 75.4627 105.727 75.4669 105.729 75.4718C104.804 78.4875 103.854 81.5096 102.99 84.5285C102.125 87.5474 101.331 90.5885 100.581 93.6392C100.203 95.1709 99.8532 96.7089 99.51 98.247C99.3384 99.0033 99.1922 99.7628 99.0143 100.519C98.8172 101.294 98.677 102.082 98.5948 102.877C98.5679 103.627 98.7793 104.365 99.1986 104.987C99.5831 105.623 100.034 106.207 100.47 106.802C101.347 107.99 109.685 117.288 109.968 117.552C109.99 117.571 109.968 117.603 109.936 117.584C108.815 116.576 101.728 108.905 100.826 107.733C100.381 107.148 99.9486 106.551 99.5227 105.95C99.095 105.405 98.7511 104.798 98.5027 104.151C98.3029 103.441 98.2931 102.69 98.4741 101.975Z" fill="#263238"/>
<path d="M103.386 124.242L101.161 135.046C101.133 137.22 101.069 139.124 100.942 140.105V140.121C100.937 140.355 100.878 140.584 100.771 140.792C100.119 141.221 82.7494 141.491 82.1424 141.297C81.5355 141.103 82.0407 139.352 82.7049 138.803C83.369 138.253 89.9757 135.177 89.9757 135.177L92.2986 124.398L103.386 124.242Z" fill="#D3766A"/>
<path d="M82.1336 141.3C82.7438 141.493 100.114 141.223 100.765 140.794H100.781C100.886 140.586 100.943 140.357 100.949 140.124C100.951 140.119 100.951 140.113 100.949 140.108C101.073 139.126 101.137 137.223 101.169 135.052L101.55 133.174H90.4054L89.9732 135.192C89.9732 135.192 83.3698 138.271 82.6993 138.818C82.0288 139.364 81.5235 141.106 82.1336 141.3Z" fill="#EBEBEB"/>
<path d="M82.1364 141.3C82.7465 141.494 100.113 141.224 100.765 140.795C101.019 140.636 101.127 138.103 101.168 135.037V134.942L89.9633 134.992V135.18C89.9633 135.18 83.363 138.259 82.6925 138.806C82.022 139.352 81.5262 141.107 82.1364 141.3Z" fill="#0077F9"/>
<path d="M82.3207 140.624C85.2474 140.506 97.0624 140.306 99.9638 140.417C99.9892 140.417 99.986 140.417 99.9638 140.417C97.0656 140.598 85.2506 140.7 82.3207 140.656C82.2603 140.672 82.2603 140.627 82.3207 140.624Z" fill="#263238"/>
<path d="M89.0292 135.231C90.1796 134.996 91.5905 135.151 92.4835 135.958C92.5184 135.99 92.4835 136.038 92.4358 136.028C91.3289 135.69 90.189 135.47 89.0356 135.374C89.019 135.371 89.0038 135.363 88.9926 135.35C88.9815 135.338 88.9749 135.322 88.9742 135.305C88.9734 135.288 88.9785 135.271 88.9885 135.258C88.9986 135.245 89.0129 135.235 89.0292 135.231Z" fill="#263238"/>
<path d="M88.2062 135.743C89.3534 135.511 90.7675 135.666 91.6605 136.473C91.6954 136.505 91.6605 136.553 91.6128 136.543C90.5063 136.203 89.3662 135.984 88.2126 135.889C88.203 135.889 88.1934 135.888 88.1844 135.884C88.1753 135.881 88.167 135.876 88.16 135.87C88.1529 135.863 88.1471 135.855 88.1431 135.847C88.139 135.838 88.1367 135.828 88.1363 135.819C88.1359 135.809 88.1374 135.8 88.1406 135.791C88.1439 135.782 88.149 135.773 88.1555 135.766C88.162 135.759 88.1698 135.753 88.1785 135.749C88.1872 135.745 88.1966 135.743 88.2062 135.743Z" fill="#263238"/>
<path d="M87.3836 136.245C88.5308 136.013 89.9258 136.168 90.8347 136.975C90.8696 137.004 90.8347 137.055 90.787 137.042C89.6805 136.71 88.5417 136.497 87.3899 136.407C87.3684 136.407 87.3475 136.4 87.3317 136.385C87.3159 136.371 87.3066 136.35 87.3057 136.329C87.3049 136.307 87.3126 136.286 87.3272 136.271C87.3418 136.255 87.3621 136.245 87.3836 136.245Z" fill="#263238"/>
<path d="M98.197 73.8991C98.5988 75.5853 98.8939 77.2951 99.0805 79.0185C99.2934 81.1667 99.5635 83.067 99.8495 83.3022C100.136 83.5373 101.794 84.6114 102.341 84.9451C102.341 84.9451 97.285 100.275 95.9853 105.385C94.0945 112.792 89.563 135.014 89.563 135.014H101.639C101.639 135.014 105.309 113.857 106.914 106.805C108.29 100.767 113.562 82.6189 113.562 82.6189C114.118 81.2194 114.368 79.7167 114.294 78.2124C114.22 76.7081 113.824 75.2373 113.133 73.8991C113.133 73.8991 98.197 73.8895 98.197 73.8991Z" fill="#37474F"/>
<path d="M89.9919 132.666C91.8985 132.666 91.3456 132.631 93.2427 132.644C94.1707 132.644 100.272 132.691 101.136 132.847C101.141 132.847 101.146 132.849 101.15 132.853C101.153 132.856 101.155 132.861 101.155 132.866C101.155 132.871 101.153 132.876 101.15 132.88C101.146 132.883 101.141 132.885 101.136 132.885C100.266 133.016 94.1675 132.885 93.2396 132.844C91.3329 132.796 91.889 132.79 89.9919 132.72C89.9862 132.718 89.9814 132.714 89.978 132.71C89.9745 132.705 89.9727 132.699 89.9727 132.693C89.9727 132.687 89.9745 132.681 89.978 132.676C89.9814 132.672 89.9862 132.668 89.9919 132.666Z" fill="#263238"/>
<path d="M98.9946 82.6995C100.167 83.3433 101.281 84.0875 102.325 84.9239C102.366 84.9557 102.325 85.0224 102.28 84.9938C101.149 84.2852 99.9956 83.5988 98.9056 82.8297C98.891 82.817 98.8815 82.7993 98.8791 82.78C98.8766 82.7607 98.8813 82.7412 98.8923 82.7251C98.9032 82.709 98.9197 82.6976 98.9386 82.6928C98.9574 82.6881 98.9774 82.6905 98.9946 82.6995Z" fill="#263238"/>
<path d="M99.9169 74.3559C99.9169 74.3146 99.9995 74.3178 99.9931 74.3559C99.7612 75.7923 99.6563 77.0697 99.5673 78.4298C99.5292 79.0654 99.4942 82.58 100.613 82.4974C100.8 82.4974 100.931 82.3194 100.991 82.0525C101.043 81.6957 101.05 81.3339 101.013 80.9752C101.013 80.2348 101.013 79.4976 101.07 78.7508C101.155 77.3752 101.382 76.0121 101.747 74.6832C101.747 74.674 101.751 74.665 101.758 74.6585C101.764 74.6519 101.773 74.6483 101.782 74.6483C101.792 74.6483 101.8 74.6519 101.807 74.6585C101.814 74.665 101.817 74.674 101.817 74.6832C101.493 76.5576 101.312 78.4538 101.274 80.3556C101.274 81.2708 101.512 82.6912 100.552 82.6817C99.5927 82.6722 99.3099 80.3206 99.2813 79.6851C99.2634 77.8888 99.477 76.0976 99.9169 74.3559Z" fill="#263238"/>
<path d="M100.571 82.5926C100.63 82.8395 100.673 83.09 100.701 83.3425C100.739 83.542 100.739 83.7468 100.701 83.9463C100.697 83.9536 100.692 83.9598 100.684 83.9641C100.677 83.9685 100.669 83.9708 100.661 83.9708C100.653 83.9708 100.645 83.9685 100.638 83.9641C100.631 83.9598 100.625 83.9536 100.621 83.9463C100.537 83.7523 100.482 83.5466 100.459 83.3362C100.412 83.1042 100.358 82.8722 100.316 82.637C100.31 82.6033 100.318 82.5687 100.338 82.5406C100.358 82.5126 100.388 82.4936 100.421 82.4877C100.455 82.4818 100.49 82.4895 100.518 82.5092C100.546 82.5289 100.565 82.5588 100.571 82.5926Z" fill="#263238"/>
<path d="M103.043 126.014C103.075 125.734 103.113 125.455 103.151 125.178C103.227 124.641 103.316 124.11 103.399 123.589C103.564 122.518 103.748 121.447 103.939 120.38C104.317 118.247 104.756 116.121 105.21 114.024C105.471 112.826 105.773 111.644 106.094 110.465C106.116 110.382 106.23 110.42 106.218 110.503C106.024 111.584 105.836 112.664 105.614 113.741C105.391 114.819 105.175 115.886 104.959 116.96C104.54 119.086 104.146 121.215 103.726 123.338C103.609 123.939 103.501 124.539 103.383 125.14C103.323 125.439 103.262 125.737 103.199 126.036C103.135 126.335 103.043 126.627 102.992 126.926C102.992 126.955 102.948 126.942 102.951 126.926C102.995 126.595 102.999 126.303 103.043 126.014Z" fill="#263238"/>
<path d="M94.7078 109.973C95.1114 107.971 95.6611 105.995 96.1982 104.027C97.2945 100.065 98.5847 96.1593 99.8749 92.2697C100.246 91.1468 100.616 90.023 100.987 88.898C101.175 88.3356 102.083 85.3039 102.198 85.0179C102.2 85.0131 102.203 85.0089 102.207 85.0059C102.211 85.0029 102.217 85.0014 102.222 85.0014C102.227 85.0014 102.232 85.0029 102.236 85.0059C102.24 85.0089 102.244 85.0131 102.246 85.0179C101.985 86.0507 101.626 87.5602 101.324 88.5771C101.022 89.594 100.688 90.5918 100.387 91.596C99.77 93.5726 99.144 95.546 98.5434 97.5289C97.3613 101.447 96.1855 105.362 95.2258 109.341C94.9557 110.456 94.6887 111.565 94.444 112.69C94.1994 113.815 93.9864 114.93 93.7545 116.052C93.7545 116.084 93.6973 116.074 93.6973 116.052C93.9006 113.999 94.3042 111.985 94.7078 109.973Z" fill="#263238"/>
<path d="M102.214 120.453C102.878 116.64 103.673 112.826 104.556 109.054C105.44 105.282 106.428 101.485 107.515 97.7445C108.601 94.0043 109.809 90.2926 111.102 86.6223C111.753 84.8915 112.301 83.1237 112.742 81.3281C113.139 79.5421 113.343 77.6132 112.926 75.8114C112.824 75.3543 112.686 74.9059 112.513 74.4704C112.513 74.4386 112.545 74.4132 112.558 74.445C114.01 77.8293 113.069 81.5283 111.964 84.865C111.357 86.6922 110.712 88.5035 110.114 90.3339C109.502 92.2152 108.914 94.1017 108.35 95.9936C107.238 99.7497 106.202 103.525 105.277 107.332C104.353 111.139 103.523 114.959 102.799 118.813C102.074 122.668 101.458 126.551 100.835 130.431C100.755 130.933 100.692 131.442 100.625 131.947C100.625 131.976 100.578 131.976 100.581 131.947C101.045 128.099 101.55 124.27 102.214 120.453Z" fill="#263238"/>
<path d="M100.015 59.873C97.5336 61.7797 88.7597 67.5474 85.7853 66.5718C83.8341 65.9363 77.4976 60.7151 76.6174 59.7141C75.9373 58.9356 80.7485 53.2569 81.5525 53.9941C82.3565 54.7314 87.5426 58.7608 88.3466 58.9737C89.1506 59.1866 97.8005 56.2599 100.594 55.9167C105.411 55.332 101.353 58.8434 100.015 59.873Z" fill="#D3766A"/>
<path d="M77.4335 60.4384C76.7185 59.8919 72.8225 56.981 72.1488 56.0118C71.4751 55.0426 69.7273 52.1221 70.4137 51.5279C71.1001 50.9337 71.6849 51.7504 71.6849 51.7504C71.6849 51.7504 71.1415 50.3998 71.8882 49.8659C72.635 49.3321 73.4962 50.6286 73.4962 50.6286C73.4962 50.6286 73.0418 49.2018 73.814 48.7219C74.5862 48.2421 75.244 49.6753 75.244 49.6753C75.244 49.6753 74.7673 48.4041 75.5776 48.2675C76.5532 48.1181 77.1665 50.5873 77.9928 51.601C78.1803 51.8298 82.1239 55.9864 82.1239 55.9864L77.4335 60.4384Z" fill="#D3766A"/>
<path d="M75.1928 49.5691C75.6441 51.3836 76.1462 52.1114 77.4904 53.3825C77.5158 53.4079 77.4904 53.4524 77.4554 53.427C76.0381 52.2989 75.2659 51.4949 75.1038 49.5946C75.0943 49.4897 75.1706 49.4897 75.1928 49.5691Z" fill="#263238"/>
<path d="M73.4578 50.4856C74.0934 52.3287 74.6431 53.1104 75.9397 54.5468C75.9588 54.569 75.9397 54.6008 75.9079 54.5818C74.516 53.2789 73.7629 52.459 73.3657 50.5301C73.353 50.4443 73.4292 50.3998 73.4578 50.4856Z" fill="#263238"/>
<path d="M71.7487 51.8227C72.4955 53.5641 73.058 54.4475 74.4975 55.6805C74.5025 55.6866 74.5052 55.6942 74.5054 55.7021C74.5055 55.7099 74.503 55.7176 74.4982 55.7239C74.4934 55.7301 74.4867 55.7346 74.4791 55.7365C74.4714 55.7384 74.4634 55.7378 74.4562 55.7346C72.8673 54.6192 72.1523 53.5101 71.6979 51.8513C71.6693 51.7369 71.7042 51.7147 71.7487 51.8227Z" fill="#263238"/>
<path d="M83.6106 56.1985C83.6106 56.1985 83.172 53.8946 82.7557 52.9254C82.3394 51.9562 79.4572 48.915 78.7644 49.4902C77.8683 50.2433 79.1871 52.328 79.9656 53.2654C79.9656 53.2654 77.8969 55.01 78.5197 56.7101C79.1426 58.4103 83.6106 56.1985 83.6106 56.1985Z" fill="#D3766A"/>
<path d="M78.5747 49.787C78.2569 51.0582 79.3565 52.2276 80.046 53.1937C80.0565 53.2075 80.0635 53.2236 80.0664 53.2407C80.0693 53.2578 80.0681 53.2754 80.0628 53.2919C80.0575 53.3084 80.0483 53.3234 80.036 53.3356C80.0237 53.3478 80.0086 53.3569 79.992 53.3621C79.1753 54.1533 78.2506 55.5039 78.4412 56.6892C78.4393 56.6948 78.4356 56.6997 78.4308 56.7031C78.426 56.7066 78.4202 56.7084 78.4142 56.7084C78.4083 56.7084 78.4025 56.7066 78.3977 56.7031C78.3928 56.6997 78.3892 56.6948 78.3872 56.6892C78.0091 55.4467 78.8099 54.0453 79.7632 53.2381C79.0419 52.2594 77.9868 51.0455 78.562 49.7712C78.5747 49.7775 78.5906 49.7807 78.5747 49.787Z" fill="#263238"/>
<path d="M83.8813 54.8925L79.0605 62.7417C79.0605 62.7417 84.2531 66.609 87.1607 67.0857C90.6913 67.6609 100.015 60.7905 101.426 59.5988C103.746 57.6381 104.286 55.9857 102.697 55.6075C102.084 55.455 101.146 55.4963 99.8655 55.795C98.5277 56.1128 90.5165 58.4612 88.3429 58.5502C87.129 58.601 83.8813 54.8925 83.8813 54.8925Z" fill="#0077F9"/>
<path opacity="0.2" d="M83.8813 54.8925L79.0605 62.7417C79.0605 62.7417 84.2531 66.609 87.1607 67.0857C90.6913 67.6609 100.015 60.7905 101.426 59.5988C103.746 57.6381 104.286 55.9857 102.697 55.6075C102.084 55.455 101.146 55.4963 99.8655 55.795C98.5277 56.1128 90.5165 58.4612 88.3429 58.5502C87.129 58.601 83.8813 54.8925 83.8813 54.8925Z" fill="black"/>
<path d="M80.7126 63.1954C81.4212 62.1118 84.1637 57.5739 84.6912 56.5538C84.7261 56.4807 84.6912 56.4426 84.6435 56.5093C83.198 58.6494 81.8719 60.8677 80.6713 63.1541C80.6554 63.1922 80.6935 63.224 80.7126 63.1954Z" fill="#263238"/>
<path opacity="0.1" d="M86.7319 66.9908C86.8726 67.0315 87.016 67.0622 87.1609 67.0829C90.6915 67.6613 100.015 60.7909 101.426 59.5961C103.625 57.7434 104.226 56.1609 102.935 55.6778C99.4495 58.1057 91.8259 63.4317 86.7319 66.9908Z" fill="black"/>
<path d="M96.9644 74.4995C97.349 74.8745 113.791 76.5842 113.87 76.4761C114.09 76.1774 111.01 60.7492 104.432 55.4328C103.272 54.4795 101.337 54.8894 100.463 55.4519C100.025 55.7315 98.8107 57.9464 98.4644 59.9008C98.118 61.8551 96.7229 74.2771 96.9644 74.4995Z" fill="#EBEBEB"/>
<path d="M103.997 55.0457C103.997 55.0457 102.202 64.3694 102.144 64.7507C102.087 65.132 102.348 75.5107 102.348 75.5107L114.557 77.017C114.557 77.017 113.178 71.8626 113.101 71.6147C113.025 71.3669 110.445 62.8122 107.664 58.9766C105.116 55.4556 103.997 55.0457 103.997 55.0457Z" fill="#0077F9"/>
<path opacity="0.2" d="M103.997 55.0457C103.997 55.0457 102.202 64.3694 102.144 64.7507C102.087 65.132 102.348 75.5107 102.348 75.5107L114.557 77.017C114.557 77.017 113.178 71.8626 113.101 71.6147C113.025 71.3669 110.445 62.8122 107.664 58.9766C105.116 55.4556 103.997 55.0457 103.997 55.0457Z" fill="black"/>
<path d="M100.209 55.589C100.209 55.589 98.9758 63.8513 98.9376 64.3819C98.8995 64.9126 97.9843 74.9608 97.9843 74.9608L96.478 74.3952C96.478 74.3952 97.317 67.8489 97.4155 67.2801C97.514 66.7113 98.2163 60.6067 98.48 59.485C98.8868 57.6832 100.209 55.589 100.209 55.589Z" fill="#0077F9"/>
<path opacity="0.2" d="M100.209 55.589C100.209 55.589 98.9758 63.8513 98.9376 64.3819C98.8995 64.9126 97.9843 74.9608 97.9843 74.9608L96.478 74.3952C96.478 74.3952 97.317 67.8489 97.4155 67.2801C97.514 66.7113 98.2163 60.6067 98.48 59.485C98.8868 57.6832 100.209 55.589 100.209 55.589Z" fill="black"/>
<path d="M90.332 75.7934V75.8378L90.7356 75.7902V75.7457L90.332 75.7934ZM91.4951 74.8591C91.3586 74.8686 91.2216 74.8686 91.0852 74.8591L91.1169 75.1324C91.2535 75.1403 91.3904 75.1403 91.5269 75.1324L91.4951 74.8591Z" fill="#C7C7C7"/>
<path d="M89.3789 74.3319L89.5664 75.9208L90.3164 75.8319V75.7874L90.7199 75.7397V75.7842L91.5684 75.6857L91.5048 75.1232C91.3683 75.1311 91.2314 75.1311 91.0949 75.1232L91.1172 75.3139L89.9223 75.4569L89.8302 74.6688L91.025 74.529L91.0631 74.8467C91.1996 74.8562 91.3366 74.8562 91.4731 74.8467L91.3809 74.0841L89.3789 74.3319Z" fill="#C7C7C7"/>
<path d="M90.7028 75.7527L90.2988 75.8002L90.8279 80.3039L91.2319 80.2565L90.7028 75.7527Z" fill="#C7C7C7"/>
<path d="M91.0689 80.2666L92.0693 80.1491L92.0308 79.8208L91.0303 79.9384L91.0689 80.2666Z" fill="#C7C7C7"/>
<path d="M91.0029 79.7388L92.0034 79.6212L91.9649 79.293L90.9644 79.4105L91.0029 79.7388Z" fill="#C7C7C7"/>
<path d="M92.9155 75.3102L92.9378 75.3484L93.2905 75.1386L93.2651 75.1005L92.9155 75.3102ZM93.513 73.8485C93.4205 73.952 93.3207 74.0486 93.2142 74.1376L93.3541 74.376C93.4661 74.2887 93.5722 74.1943 93.6718 74.0931L93.513 73.8485Z" fill="white"/>
<path d="M92.9155 75.3109L92.9378 75.3458L95.2417 79.2068L95.5881 79.0003V78.9971L95.4196 78.7175L95.3179 78.5395L95.1463 78.2567L93.2905 75.1393L93.2651 75.1011L92.9155 75.3109Z" fill="white"/>
<path d="M95.4004 79.1137L96.2656 78.5977L96.0963 78.3139L95.2312 78.8298L95.4004 79.1137Z" fill="white"/>
<path d="M95.1387 78.6451L96.0039 78.1291L95.8346 77.8453L94.9694 78.3612L95.1387 78.6451Z" fill="white"/>
<path d="M87.8531 72.1549C87.9122 72.6573 88.0834 73.14 88.354 73.5673C88.6246 73.9947 88.9877 74.3558 89.4166 74.6241L89.3848 74.3317H89.4547C88.9316 73.9742 88.5301 73.4655 88.3039 72.8737C88.0778 72.2818 88.0377 71.635 88.1891 71.0198C88.3405 70.4045 88.6761 69.8502 89.1511 69.4308C89.6261 69.0115 90.2178 68.7472 90.8471 68.6733C91.4764 68.5994 92.1132 68.7194 92.6724 69.0172C93.2317 69.3151 93.6866 69.7766 93.9765 70.34C94.2663 70.9034 94.3772 71.5419 94.2944 72.17C94.2115 72.7982 93.9388 73.3861 93.5128 73.855C93.4203 73.9585 93.3205 74.0552 93.214 74.1442C92.9046 74.4071 92.546 74.6059 92.159 74.7289L92.2988 74.9704C92.6831 74.8397 93.0405 74.6405 93.3539 74.3826C93.4659 74.2953 93.572 74.2009 93.6717 74.0997C94.0644 73.6876 94.3467 73.183 94.4925 72.6326C94.6382 72.0823 94.6426 71.5041 94.5053 70.9516C94.3679 70.3991 94.0933 69.8902 93.7069 69.4721C93.3205 69.054 92.8347 68.7403 92.2947 68.56C91.7547 68.3797 91.1779 68.3387 90.6179 68.4407C90.0578 68.5428 89.5325 68.7846 89.0908 69.1438C88.6491 69.5029 88.3052 69.9678 88.0911 70.4953C87.8769 71.0228 87.7995 71.5959 87.8658 72.1613L87.8531 72.1549ZM90.0776 74.659L89.8265 74.6876L89.8456 74.856C90.2386 75.0304 90.6616 75.1275 91.0913 75.142C91.2278 75.1499 91.3647 75.1499 91.5012 75.142H91.5966C91.6951 75.142 91.7904 75.1134 91.8857 75.0944L91.7364 74.8497L91.5648 74.8719H91.4694C91.333 74.8814 91.196 74.8814 91.0595 74.8719C90.726 74.8542 90.3975 74.7823 90.0871 74.659H90.0776Z" fill="#EBEBEB"/>
<path d="M91.4702 74.3573L91.7467 74.8276L91.896 75.0723L92.2901 75.7333L92.9256 75.3487L92.9034 75.3106L93.253 75.1009L93.2784 75.139L94.0093 74.7005L93.647 74.0935C93.5474 74.1946 93.4412 74.2891 93.3292 74.3763L93.4404 74.5607L92.4045 75.1772L92.2742 74.9642L92.1344 74.7227L92.0009 74.4971L93.0337 73.8806L93.1894 74.138C93.2959 74.049 93.3957 73.9523 93.4881 73.8488L93.1926 73.3245L91.4702 74.3573Z" fill="white"/>
<path d="M106.641 57.7807C111.493 63.3577 116.908 72.7163 114.474 74.623C112.25 76.3803 104.855 74.623 99.8753 72.5542C98.922 72.1634 100.165 64.6098 101.242 64.81C103.222 65.1913 106.835 66.4942 106.962 66.5291C107.238 66.6118 105.516 62.4648 103.93 58.4512C102.163 53.9769 103.867 54.5965 106.641 57.7807Z" fill="#D3766A"/>
<path d="M102.662 65.1602C102.662 65.1602 99.6527 64.4389 97.6761 64.0766C96.5734 63.8764 94.6509 63.6984 93.7706 63.9177C92.4582 64.2514 87.1735 66.4822 87.6852 67.7724C88.1491 68.945 92.4518 66.4536 92.4518 66.4536C92.4518 66.4536 87.8949 68.5827 88.7148 69.8888C89.5346 71.1948 94.0121 67.7342 94.0121 67.7342C94.0121 67.7342 89.3789 70.0286 90.4339 71.2298C91.2316 72.1482 95.4676 69.2437 95.4676 69.2437C95.4676 69.2437 91.4985 71.2425 92.2898 72.2213C93.151 73.3017 97.2281 70.8643 97.2281 70.8643C99.6305 73.0189 101.655 73.0602 103.101 72.9204C103.434 72.8981 102.662 65.1602 102.662 65.1602Z" fill="#D3766A"/>
<path d="M93.9769 65.6141C93.4303 65.8461 92.8774 66.0749 92.3562 66.3546C91.835 66.6342 91.3202 66.9298 90.8277 67.2539C90.1745 67.6689 89.5701 68.156 89.0259 68.7061C90.0618 67.7973 91.9145 66.774 92.4388 66.4817C92.9632 66.1893 93.4653 65.9001 93.9864 65.6205L93.9769 65.6141Z" fill="#263238"/>
<path d="M95.016 67.4788C94.3328 67.7965 93.6432 68.1143 92.9759 68.4575C92.3085 68.8007 91.387 69.3378 90.7514 69.7286C90.7038 69.7604 90.726 69.843 90.7768 69.8144C91.4315 69.4426 92.3912 68.9501 93.049 68.5846C93.7068 68.2192 94.3519 67.8283 95.0224 67.4883C95.0351 67.4915 95.0255 67.4756 95.016 67.4788Z" fill="#263238"/>
<path d="M96.1946 68.9218C95.1368 69.3957 94.1305 69.9771 93.1916 70.6568C93.144 70.6886 93.1916 70.7045 93.2393 70.6568C94.2276 70.0626 94.9966 69.5891 96.2105 68.944C96.2296 68.9503 96.2201 68.9122 96.1946 68.9218Z" fill="#263238"/>
<path d="M104.245 55.3214C107.791 57.5459 116.854 70.5748 115.135 74.1181C113.416 77.6613 101.954 73.6414 101.954 73.6414L102.859 64.6609C102.859 64.6609 106.059 65.7064 106.164 65.5539C106.269 65.4014 104.54 60.9715 103.838 59.1666C103.136 57.3616 102.36 54.1329 104.245 55.3214Z" fill="#0077F9"/>
<path opacity="0.2" d="M104.245 55.3214C107.791 57.5459 116.854 70.5748 115.135 74.1181C113.416 77.6613 101.954 73.6414 101.954 73.6414L102.859 64.6609C102.859 64.6609 106.059 65.7064 106.164 65.5539C106.269 65.4014 104.54 60.9715 103.838 59.1666C103.136 57.3616 102.36 54.1329 104.245 55.3214Z" fill="black"/>
<path d="M103.415 73.1113C103.638 71.8402 104.369 66.5842 104.442 65.4402C104.442 65.3607 104.4 65.3353 104.381 65.4179C103.902 67.9587 103.561 70.5238 103.361 73.1018C103.361 73.1336 103.409 73.1463 103.415 73.1113Z" fill="#263238"/>
<path d="M102.795 64.547C103.147 64.6111 103.494 64.7025 103.831 64.8203C104.149 64.9092 104.441 65.0014 104.743 65.0967C105.404 65.3033 106.056 65.5257 106.71 65.7545C107.365 65.9833 108.01 66.2153 108.655 66.4568C109.3 66.6984 109.926 66.9812 110.562 67.2259C110.59 67.2259 110.562 67.2799 110.543 67.2704C109.888 67.0384 109.221 66.8477 108.563 66.6348L106.628 65.9992L104.692 65.3637L103.739 65.0459C103.421 64.9442 103.132 64.8298 102.833 64.7091C102.825 64.874 102.808 65.0384 102.783 65.2016C102.725 65.1667 102.725 64.5374 102.795 64.547Z" fill="#263238"/>
<path d="M104.162 61.2266C104.343 61.4681 104.524 61.7064 104.696 61.9543C104.728 62.0019 104.756 62.0496 104.788 62.0941L104.648 61.7128C104.467 61.2729 104.311 60.823 104.181 60.3654C104.181 60.3463 104.207 60.3368 104.216 60.3654C104.438 60.809 104.637 61.264 104.81 61.7287C104.995 62.1767 105.185 62.6216 105.36 63.0729C105.535 63.5241 105.723 63.9722 105.888 64.4266C106.071 64.8674 106.222 65.3209 106.339 65.7835C106.337 65.7884 106.334 65.7926 106.33 65.7955C106.325 65.7985 106.32 65.8001 106.315 65.8001C106.31 65.8001 106.305 65.7985 106.301 65.7955C106.296 65.7926 106.293 65.7884 106.291 65.7835C106.055 65.3467 105.851 64.8932 105.681 64.4266C105.497 63.9785 105.328 63.5241 105.154 63.0729L104.95 62.5199L104.861 62.3896C104.776 62.2721 104.693 62.1481 104.617 62.0242C104.455 61.77 104.299 61.5094 104.159 61.2456C104.143 61.2297 104.156 61.2202 104.162 61.2266Z" fill="#263238"/>
<path d="M101.934 73.435C101.934 73.3714 101.972 73.3587 101.985 73.435C101.998 73.5112 101.985 73.5398 102.001 73.578C102.392 73.686 103.818 74.1373 104.168 74.2421C104.899 74.4688 105.64 74.6669 106.392 74.8364C107.139 75.008 107.889 75.1541 108.649 75.2813C110.109 75.4518 111.581 75.5039 113.05 75.437C113.082 75.437 113.075 75.4783 113.05 75.4846C111.573 75.679 110.078 75.679 108.601 75.4846C107.845 75.3893 107.093 75.2601 106.345 75.097C105.588 74.9285 104.835 74.7283 104.095 74.4963C103.723 74.3788 103.358 74.2548 102.992 74.1214C102.634 74.0153 102.288 73.8726 101.959 73.6955C101.948 73.6874 101.939 73.6764 101.932 73.6636C101.926 73.6508 101.924 73.6366 101.924 73.6225L101.934 73.435Z" fill="#263238"/>
<path d="M100.984 58.0703C101.937 58.2769 103.526 56.7992 104.162 55.6298C104.203 55.5503 103.816 52.3535 103.806 51.7116C103.806 51.5781 99.7925 52.7571 99.7925 52.7571C100.036 53.5552 100.181 54.3801 100.225 55.2135C100.212 55.2993 100.069 57.8638 100.984 58.0703Z" fill="#D3766A"/>
<path d="M99.7798 52.7482C99.7798 52.7704 99.8084 52.8467 99.8433 52.9738C99.9005 53.1867 99.9927 53.5363 100.066 53.9271C100.149 54.346 100.197 54.7712 100.209 55.1982C100.209 55.2268 100.209 55.2586 100.209 55.2872C100.209 55.3412 100.209 55.4111 100.209 55.4938C100.339 55.5038 100.47 55.5038 100.6 55.4938C102.792 55.4048 103.485 52.7037 103.673 51.6804H103.603C103.495 51.6995 103.355 51.7313 103.19 51.7694L103.059 51.8012C102.792 51.8679 102.475 51.9537 102.141 52.0427L101.823 52.1317L101.121 52.3287L100.841 52.4081L100.558 52.4876L100.425 52.5257L100.364 52.5448L100.047 52.6433L99.8878 52.6878L99.8211 52.71L99.7798 52.7482Z" fill="#263238"/>
<path d="M99.271 45.4339C99.271 45.4339 97.9268 45.8787 97.59 47.1848C97.2531 48.4909 97.4565 49.9018 97.5646 49.9781C97.6726 50.0544 99.271 45.4339 99.271 45.4339Z" fill="#A6A6A6"/>
<path d="M104.365 47.4563C104.746 48.899 103.843 52.9888 102.795 53.8723C101.273 55.1434 98.8575 55.1879 97.7898 53.3765C96.7538 51.6256 98.0281 46.3123 99.1912 45.521C100.907 44.3516 103.796 45.3272 104.365 47.4563Z" fill="#D3766A"/>
<path d="M101.026 49.8085C101.026 49.8085 101.045 49.8276 101.041 49.8371C100.965 50.1104 100.924 50.4345 101.149 50.5871C100.851 50.4695 100.911 50.0405 101.026 49.8085Z" fill="#263238"/>
<path d="M101.343 49.5697C101.791 49.6428 101.607 50.523 101.191 50.4658C100.774 50.4086 100.965 49.5061 101.343 49.5697Z" fill="#263238"/>
<path d="M99.3287 49.466C99.3287 49.466 99.3033 49.4661 99.3001 49.4883C99.2524 49.7648 99.1507 50.0762 98.8838 50.1239C99.1952 50.1525 99.3255 49.7393 99.3287 49.466Z" fill="#263238"/>
<path d="M99.1408 49.1283C98.7023 49.0012 98.483 49.8878 98.8898 50.0022C99.2966 50.1166 99.5063 49.2332 99.1408 49.1283Z" fill="#263238"/>
<path d="M101.75 49.2207C101.634 49.1753 101.52 49.1233 101.41 49.065C101.283 49.0249 101.172 48.946 101.092 48.8394C101.075 48.8001 101.071 48.7562 101.08 48.7143C101.09 48.6724 101.113 48.6349 101.146 48.6074C101.22 48.5644 101.303 48.5417 101.388 48.5417C101.473 48.5417 101.556 48.5644 101.629 48.6074C101.792 48.6702 101.926 48.7914 102.004 48.9474C102.02 48.9838 102.025 49.024 102.019 49.0631C102.012 49.1022 101.994 49.1385 101.967 49.1675C101.94 49.1966 101.905 49.2171 101.867 49.2265C101.828 49.236 101.788 49.234 101.75 49.2207Z" fill="#263238"/>
<path d="M98.9118 48.5695C99.0389 48.5695 99.1565 48.5695 99.2836 48.5505C99.4162 48.56 99.5485 48.5278 99.6618 48.4583C99.6929 48.4286 99.7132 48.3893 99.7195 48.3467C99.7259 48.3041 99.7178 48.2607 99.6967 48.2232C99.6449 48.1557 99.5762 48.1031 99.4975 48.0708C99.4188 48.0384 99.333 48.0274 99.2487 48.0388C99.0745 48.0388 98.9062 48.102 98.7752 48.2168C98.7467 48.2451 98.7272 48.2811 98.7189 48.3203C98.7105 48.3596 98.7138 48.4004 98.7283 48.4378C98.7428 48.4752 98.7679 48.5076 98.8005 48.531C98.833 48.5544 98.8717 48.5678 98.9118 48.5695Z" fill="#263238"/>
<path d="M100.628 52.3503C100.549 52.4011 100.463 52.4774 100.361 52.4647C100.258 52.4432 100.162 52.3986 100.078 52.3344C100.059 52.3344 100.078 52.3344 100.078 52.3344C100.106 52.3969 100.15 52.4507 100.206 52.4899C100.262 52.5291 100.328 52.5523 100.396 52.5569C100.455 52.5521 100.512 52.5308 100.56 52.4954C100.608 52.46 100.644 52.4119 100.666 52.3567C100.666 52.3567 100.641 52.3503 100.628 52.3503Z" fill="#263238"/>
<path d="M100.501 51.4557C100.409 51.551 100.297 51.626 100.174 51.6758C100.051 51.7256 99.9189 51.7491 99.7861 51.7449C99.6697 51.7443 99.554 51.726 99.4429 51.6908C99.4222 51.6864 99.402 51.68 99.3825 51.6718L99.3222 51.6495C99.308 51.6439 99.2961 51.6336 99.2886 51.6203C99.2811 51.607 99.2783 51.5915 99.2809 51.5765C99.2794 51.567 99.2794 51.5573 99.2809 51.5478V51.5224C99.319 51.3095 99.408 50.9886 99.408 50.9886C99.3222 51.0108 98.8868 51.1093 98.9154 50.9886C99.1382 50.0339 99.4577 49.1043 99.8687 48.2143C99.8687 48.2076 99.8714 48.2011 99.8762 48.1964C99.881 48.1916 99.8874 48.1889 99.8942 48.1889C99.9009 48.1889 99.9074 48.1916 99.9121 48.1964C99.9169 48.2011 99.9196 48.2076 99.9196 48.2143C99.7194 49.0978 99.3635 49.9399 99.1506 50.8265C99.3055 50.7893 99.4649 50.7743 99.6241 50.782C99.6495 50.782 99.4429 51.3985 99.4334 51.4938C99.6042 51.5472 99.7841 51.5654 99.9621 51.5474C100.14 51.5294 100.313 51.4755 100.469 51.389C100.501 51.4144 100.53 51.4366 100.501 51.4557Z" fill="#263238"/>
<path d="M99.5981 51.6069C99.6831 51.783 99.8123 51.9341 99.9731 52.0454C100.067 52.1065 100.179 52.1354 100.291 52.128C100.526 52.128 100.571 51.9151 100.567 51.7308C100.564 51.634 100.549 51.538 100.523 51.4448C100.241 51.5993 99.9158 51.6562 99.5981 51.6069Z" fill="#263238"/>
<path d="M99.9736 52.0329C100.068 52.094 100.179 52.123 100.291 52.1156C100.527 52.1156 100.571 51.9027 100.568 51.7183C100.448 51.6953 100.323 51.7139 100.215 51.7711C100.107 51.8283 100.022 51.9207 99.9736 52.0329Z" fill="#FF9ABB"/>
<g opacity="0.2">
<path d="M100.753 47.7554C100.593 47.7433 100.435 47.7199 100.279 47.6855C100.123 47.6442 99.9772 47.5743 99.8183 47.5393C99.5176 47.4869 99.2101 47.4869 98.9094 47.5393C98.8808 47.5393 98.884 47.5616 98.9094 47.5584C99.229 47.5144 99.5543 47.5404 99.8628 47.6347C100.109 47.7325 100.368 47.7946 100.632 47.819C101.234 47.8212 101.819 48.0149 102.303 48.3719C101.859 48.0168 101.319 47.8022 100.753 47.7554Z" fill="black"/>
<path d="M100.855 47.3397C100.704 47.3299 100.554 47.3087 100.407 47.2762C100.257 47.2381 100.118 47.1713 99.9681 47.1364C99.6835 47.0839 99.3916 47.0839 99.107 47.1364C99.0815 47.1554 99.0815 47.1364 99.107 47.1364C99.4085 47.0951 99.7154 47.12 100.006 47.2095C100.239 47.3013 100.484 47.359 100.734 47.381C101.306 47.3835 101.863 47.5683 102.323 47.9086C101.901 47.5775 101.39 47.3795 100.855 47.3397Z" fill="black"/>
</g>
<path d="M103.847 51.1934C103.336 51.2188 103.148 49.6585 103.132 49.0738C103.132 48.559 103.342 46.9892 103.345 46.8779C103.348 46.7667 100.943 47.7169 99.8496 47.0686C98.7565 46.4203 98.2131 45.1619 98.3211 44.6471C98.4292 44.1323 100.228 43.2457 101.528 43.4999C102.827 43.7542 104.156 45.8197 104.156 45.8197C104.005 45.5295 103.877 45.2277 103.774 44.9172C103.987 45.023 104.17 45.1801 104.307 45.3742C104.444 45.5684 104.531 45.7935 104.559 46.0295C104.559 46.0295 104.581 45.2477 104.648 45.2509C104.715 45.2541 105.198 46.0453 104.934 46.4902C104.934 46.4902 105.516 47.3228 105.408 48.0474C105.3 48.7719 104.445 51.1616 103.847 51.1934Z" fill="#A6A6A6"/>
<path d="M99.0523 46.608C99.3587 46.8861 99.7046 47.1174 100.079 47.2944C100.508 47.4418 100.968 47.4811 101.417 47.4088C101.866 47.3514 102.302 47.2215 102.71 47.0243C103.072 46.8527 103.409 46.6207 103.784 46.4809C103.876 46.4459 103.94 46.5858 103.873 46.6461C103.153 47.2626 102.254 47.6314 101.308 47.698C100.87 47.7288 100.431 47.6455 100.035 47.4561C99.6382 47.2667 99.2975 46.9778 99.0459 46.6175C99.0459 46.6175 99.0459 46.6048 99.0523 46.608Z" fill="#A6A6A6"/>
<path d="M103.32 50.778C103.32 50.778 104.328 49.5069 104.909 49.866C105.491 50.2251 104.683 52.119 103.956 52.3447C103.864 52.3813 103.767 52.3989 103.668 52.3964C103.57 52.3938 103.473 52.3712 103.384 52.3298C103.294 52.2884 103.214 52.2292 103.149 52.1558C103.083 52.0824 103.034 51.9963 103.002 51.903L103.32 50.778Z" fill="#D3766A"/>
<path d="M100.183 55.5435L101.136 57.9396L104.111 54.908L104.956 55.8804C104.956 55.8804 102.045 60.6947 102.026 60.4786L101.038 58.4131L99.6143 59.8494L99.7287 56.2458L100.183 55.5435Z" fill="#EBEBEB"/>
<path d="M99.5866 58.0708C99.6248 57.4766 99.6502 56.876 99.7137 56.2849C99.7137 56.2627 99.7519 56.2532 99.7551 56.2849C99.8758 56.8601 99.7137 59.1449 99.7169 59.6788C99.7773 59.6184 101.039 58.4077 101.048 58.4331C101.265 58.7509 102.002 60.2635 102.04 60.4034C102.497 59.6375 104.264 56.8569 104.808 56.1324C104.809 56.1301 104.811 56.1281 104.813 56.1264C104.815 56.1248 104.817 56.1236 104.82 56.1228C104.822 56.1221 104.825 56.1218 104.827 56.1221C104.83 56.1224 104.832 56.1232 104.835 56.1244C104.837 56.1257 104.839 56.1274 104.841 56.1294C104.842 56.1315 104.844 56.1338 104.844 56.1363C104.845 56.1388 104.845 56.1414 104.845 56.144C104.845 56.1466 104.844 56.1492 104.843 56.1515C104.436 56.9618 102.103 60.7052 102.065 60.6957C101.685 59.9858 101.34 59.2572 101.033 58.5126C100.82 58.7731 99.5485 60.1301 99.5421 60.0411C99.5232 59.384 99.538 58.7264 99.5866 58.0708Z" fill="#263238"/>
</svg>
