<svg width="161" height="160" viewBox="0 0 161 160" fill="none" xmlns="http://www.w3.org/2000/svg">
<rect x="1.61379" y="1.27908" width="157.772" height="157.772" rx="5.71949" fill="#BDDBFB" stroke="#0077F9" stroke-width="1.74419"/>
<path d="M144.599 71.3575H133.572V84.747H130.738V77.166H116.717V89.1687H114.862V61.003H102.677V68.7338H96.4288V78.3519H94.5384V72.3043H83.4634V90.3578H80.2212V75.6804H70.0931V64.5321H63.2039V58.1848H55.234V86.3409H52.5561V74.5933H39.4312V91.4098H37.6141V77.6824H24.3043V65.3163H16.8413V122.92H144.599V71.3575Z" fill="#EBEBEB"/>
<path d="M141.38 75.6012H143.245V73.0412H141.38V75.6012Z" fill="white"/>
<path d="M138.147 75.6012H140.012V73.0412H138.147V75.6012Z" fill="white"/>
<path d="M134.918 75.6012H136.783V73.0412H134.918V75.6012Z" fill="white"/>
<path d="M141.38 79.4523H143.245V76.8924H141.38V79.4523Z" fill="white"/>
<path d="M138.147 79.4521H140.012V76.8922H138.147V79.4521Z" fill="white"/>
<path d="M134.918 79.4523H136.783V76.8924H134.918V79.4523Z" fill="white"/>
<path d="M141.38 83.3035H143.245V80.7436H141.38V83.3035Z" fill="white"/>
<path d="M138.147 83.3035H140.012V80.7436H138.147V83.3035Z" fill="white"/>
<path d="M134.918 83.3035H136.783V80.7436H134.918V83.3035Z" fill="white"/>
<path d="M141.38 87.1581H143.245V84.5981H141.38V87.1581Z" fill="white"/>
<path d="M138.147 87.1581H140.012V84.5981H138.147V87.1581Z" fill="white"/>
<path d="M134.918 87.1581H136.783V84.5981H134.918V87.1581Z" fill="white"/>
<path d="M76.8006 79.6465H78.6655V77.5106H76.8006V79.6465Z" fill="white"/>
<path d="M73.5686 79.6465H75.4336V77.5106H73.5686V79.6465Z" fill="white"/>
<path d="M70.3357 79.6465H72.2007V77.5106H70.3357V79.6465Z" fill="white"/>
<path d="M76.8006 82.8573H78.6655V80.7214H76.8006V82.8573Z" fill="white"/>
<path d="M73.5686 82.8573H75.4336V80.7214H73.5686V82.8573Z" fill="white"/>
<path d="M70.3357 82.8573H72.2007V80.7214H70.3357V82.8573Z" fill="white"/>
<path d="M76.8006 86.0714H78.6655V83.9355H76.8006V86.0714Z" fill="white"/>
<path d="M73.5686 86.0714H75.4336V83.9355H73.5686V86.0714Z" fill="white"/>
<path d="M70.3357 86.0714H72.2007V83.9355H70.3357V86.0714Z" fill="white"/>
<path d="M76.8006 89.2838H78.6655V87.1479H76.8006V89.2838Z" fill="white"/>
<path d="M73.5686 89.2838H75.4336V87.1479H73.5686V89.2838Z" fill="white"/>
<path d="M70.3357 89.2838H72.2007V87.1479H70.3357V89.2838Z" fill="white"/>
<path d="M76.8006 92.578H78.6655V90.4421H76.8006V92.578Z" fill="white"/>
<path d="M73.5686 92.578H75.4336V90.4421H73.5686V92.578Z" fill="white"/>
<path d="M70.3357 92.578H72.2007V90.4421H70.3357V92.578Z" fill="white"/>
<path d="M76.8006 95.8705H78.6655V93.7346H76.8006V95.8705Z" fill="white"/>
<path d="M73.5686 95.8705H75.4336V93.7346H73.5686V95.8705Z" fill="white"/>
<path d="M70.3357 95.8705H72.2007V93.7346H70.3357V95.8705Z" fill="white"/>
<path d="M76.8006 99.163H78.6655V97.0271H76.8006V99.163Z" fill="white"/>
<path d="M73.5686 99.163H75.4336V97.0271H73.5686V99.163Z" fill="white"/>
<path d="M70.3357 99.163H72.2007V97.0271H70.3357V99.163Z" fill="white"/>
<path d="M76.8006 102.457H78.6655V100.321H76.8006V102.457Z" fill="white"/>
<path d="M73.5686 102.457H75.4336V100.321H73.5686V102.457Z" fill="white"/>
<path d="M70.3357 102.457H72.2007V100.321H70.3357V102.457Z" fill="white"/>
<path d="M118.407 80.4079H129.145V78.8075H118.407V80.4079Z" fill="white"/>
<path d="M118.407 83.5165H129.145V81.9162H118.407V83.5165Z" fill="white"/>
<path d="M118.407 86.625H129.145V85.0246H118.407V86.625Z" fill="white"/>
<path d="M118.407 89.7283H129.145V88.128H118.407V89.7283Z" fill="white"/>
<path d="M118.407 92.8369H129.145V91.2365H118.407V92.8369Z" fill="white"/>
<path d="M118.407 95.9388H129.145V94.3384H118.407V95.9388Z" fill="white"/>
<path d="M118.407 99.0489H129.145V97.4485H118.407V99.0489Z" fill="white"/>
<path d="M118.407 102.154H129.145V100.554H118.407V102.154Z" fill="white"/>
<path d="M41.099 77.686H50.9722V76.0857H41.099V77.686Z" fill="white"/>
<path d="M41.099 80.7911H50.9722V79.1908H41.099V80.7911Z" fill="white"/>
<path d="M41.099 83.8997H50.9722V82.2993H41.099V83.8997Z" fill="white"/>
<path d="M41.099 87.0082H50.9722V85.4078H41.099V87.0082Z" fill="white"/>
<path d="M41.099 90.1099H50.9722V88.5096H41.099V90.1099Z" fill="white"/>
<path d="M41.099 93.2184H50.9722V91.6181H41.099V93.2184Z" fill="white"/>
<path d="M41.099 96.3219H50.9722V94.7215H41.099V96.3219Z" fill="white"/>
<path d="M41.099 99.4321H50.9722V97.8317H41.099V99.4321Z" fill="white"/>
<path d="M41.099 102.381H50.9722V100.78H41.099V102.381Z" fill="white"/>
<path d="M41.099 105.332H50.9722V103.732H41.099V105.332Z" fill="white"/>
<path d="M41.099 108.286H50.9722V106.686H41.099V108.286Z" fill="white"/>
<path d="M41.099 111.236H50.9722V109.636H41.099V111.236Z" fill="white"/>
<path d="M41.099 114.186H50.9722V112.586H41.099V114.186Z" fill="white"/>
<path d="M25.1371 81.4384H35.5649V79.838H25.1371V81.4384Z" fill="white"/>
<path d="M25.1371 84.5435H35.5649V82.9432H25.1371V84.5435Z" fill="white"/>
<path d="M25.1371 87.652H35.5649V86.0517H25.1371V87.652Z" fill="white"/>
<path d="M25.1371 90.7589H35.5649V89.1585H25.1371V90.7589Z" fill="white"/>
<path d="M25.1371 93.8623H35.5649V92.262H25.1371V93.8623Z" fill="white"/>
<path d="M25.1371 96.9708H35.5649V95.3705H25.1371V96.9708Z" fill="white"/>
<path d="M25.1371 100.079H35.5649V98.479H25.1371V100.079Z" fill="white"/>
<path d="M25.1371 103.183H35.5649V101.582H25.1371V103.183Z" fill="white"/>
<path d="M25.1371 105.964H35.5649V104.364H25.1371V105.964Z" fill="white"/>
<path d="M25.1371 108.744H35.5649V107.144H25.1371V108.744Z" fill="white"/>
<path d="M25.1371 111.522H35.5649V109.922H25.1371V111.522Z" fill="white"/>
<path d="M87.9799 75.298H91.2954V73.7518H87.9799V75.298Z" fill="white"/>
<path d="M87.9799 78.2992H91.2954V76.753H87.9799V78.2992Z" fill="white"/>
<path d="M87.9799 81.2987H91.2954V79.7526H87.9799V81.2987Z" fill="white"/>
<path d="M87.9799 84.2982H91.2954V82.7521H87.9799V84.2982Z" fill="white"/>
<path d="M87.9799 87.2978H91.2954V85.7516H87.9799V87.2978Z" fill="white"/>
<path d="M87.9799 90.299H91.2954V88.7528H87.9799V90.299Z" fill="white"/>
<path d="M87.9799 93.2985H91.2954V91.7523H87.9799V93.2985Z" fill="white"/>
<path d="M87.9799 96.2963H91.2954V94.7502H87.9799V96.2963Z" fill="white"/>
<path d="M83.4707 75.298H86.7861V73.7518H83.4707V75.298Z" fill="white"/>
<path d="M83.4707 78.2992H86.7861V76.753H83.4707V78.2992Z" fill="white"/>
<path d="M83.4707 81.2987H86.7861V79.7526H83.4707V81.2987Z" fill="white"/>
<path d="M83.4707 84.2982H86.7861V82.7521H83.4707V84.2982Z" fill="white"/>
<path d="M83.4707 87.2977H86.7861V85.7515H83.4707V87.2977Z" fill="white"/>
<path d="M83.4707 90.299H86.7861V88.7528H83.4707V90.299Z" fill="white"/>
<path d="M83.4707 93.2983H86.7861V91.7521H83.4707V93.2983Z" fill="white"/>
<path d="M83.4707 96.2963H86.7861V94.7502H83.4707V96.2963Z" fill="white"/>
<path d="M109.557 65.0611H113.013V62.6223H109.557V65.0611Z" fill="white"/>
<path d="M104.405 65.0611H107.861V62.6223H104.405V65.0611Z" fill="white"/>
<path d="M109.557 68.6449H113.013V66.2061H109.557V68.6449Z" fill="white"/>
<path d="M104.405 68.6449H107.861V66.2061H104.405V68.6449Z" fill="white"/>
<path d="M109.557 72.2252H113.013V69.7864H109.557V72.2252Z" fill="white"/>
<path d="M104.405 72.2252H107.861V69.7864H104.405V72.2252Z" fill="white"/>
<path d="M109.557 75.809H113.013V73.3702H109.557V75.809Z" fill="white"/>
<path d="M104.405 75.809H107.861V73.3702H104.405V75.809Z" fill="white"/>
<path d="M109.557 79.3893H113.013V76.9505H109.557V79.3893Z" fill="white"/>
<path d="M104.405 79.3893H107.861V76.9505H104.405V79.3893Z" fill="white"/>
<path d="M109.557 82.9714H113.013V80.5326H109.557V82.9714Z" fill="white"/>
<path d="M104.405 82.9714H107.861V80.5326H104.405V82.9714Z" fill="white"/>
<path d="M109.557 86.5517H113.013V84.1129H109.557V86.5517Z" fill="white"/>
<path d="M104.405 86.5517H107.861V84.1129H104.405V86.5517Z" fill="white"/>
<path d="M109.557 90.1372H113.013V87.6984H109.557V90.1372Z" fill="white"/>
<path d="M104.405 90.1372H107.861V87.6984H104.405V90.1372Z" fill="white"/>
<path d="M98.0233 72.2252H101.479V69.7864H98.0233V72.2252Z" fill="white"/>
<path d="M98.0233 75.809H101.479V73.3702H98.0233V75.809Z" fill="white"/>
<path d="M98.0233 79.3893H101.479V76.9505H98.0233V79.3893Z" fill="white"/>
<path d="M98.0233 82.9714H101.479V80.5326H98.0233V82.9714Z" fill="white"/>
<path d="M98.0233 86.5517H101.479V84.1129H98.0233V86.5517Z" fill="white"/>
<path d="M98.0233 90.1372H101.479V87.6984H98.0233V90.1372Z" fill="white"/>
<path d="M109.557 93.6749H113.013V91.2361H109.557V93.6749Z" fill="white"/>
<path d="M104.405 93.6749H107.861V91.2361H104.405V93.6749Z" fill="white"/>
<path d="M98.0233 93.6749H101.479V91.2361H98.0233V93.6749Z" fill="white"/>
<path d="M109.557 97.2127H113.013V94.7739H109.557V97.2127Z" fill="white"/>
<path d="M104.405 97.2127H107.861V94.7739H104.405V97.2127Z" fill="white"/>
<path d="M98.0233 97.2127H101.479V94.7739H98.0233V97.2127Z" fill="white"/>
<path d="M109.557 100.752H113.013V98.3134H109.557V100.752Z" fill="white"/>
<path d="M104.405 100.752H107.861V98.3134H104.405V100.752Z" fill="white"/>
<path d="M98.0233 100.752H101.479V98.3134H98.0233V100.752Z" fill="white"/>
<path d="M109.557 104.29H113.013V101.851H109.557V104.29Z" fill="white"/>
<path d="M104.405 104.29H107.861V101.851H104.405V104.29Z" fill="white"/>
<path d="M98.0233 104.29H101.479V101.851H98.0233V104.29Z" fill="white"/>
<path d="M109.557 107.826H113.013V105.387H109.557V107.826Z" fill="white"/>
<path d="M104.405 107.826H107.861V105.387H104.405V107.826Z" fill="white"/>
<path d="M98.0233 107.826H101.479V105.387H98.0233V107.826Z" fill="white"/>
<path d="M66.8191 68.2395H68.6841V66.1035H66.8191V68.2395Z" fill="white"/>
<path d="M63.5862 68.2395H65.4512V66.1035H63.5862V68.2395Z" fill="white"/>
<path d="M66.8191 71.4534H68.6841V69.3174H66.8191V71.4534Z" fill="white"/>
<path d="M63.5862 71.4536H65.4512V69.3177H63.5862V71.4536Z" fill="white"/>
<path d="M66.8191 74.666H68.6841V72.5301H66.8191V74.666Z" fill="white"/>
<path d="M63.5862 74.666H65.4512V72.5301H63.5862V74.666Z" fill="white"/>
<path d="M66.8191 77.8819H68.6841V75.7459H66.8191V77.8819Z" fill="white"/>
<path d="M63.5862 77.8819H65.4512V75.7459H63.5862V77.8819Z" fill="white"/>
<path d="M66.8191 81.1727H68.6841V79.0367H66.8191V81.1727Z" fill="white"/>
<path d="M63.5862 81.1727H65.4512V79.0367H63.5862V81.1727Z" fill="white"/>
<path d="M66.8191 84.4635H68.6841V82.3275H66.8191V84.4635Z" fill="white"/>
<path d="M63.5862 84.4635H65.4512V82.3275H63.5862V84.4635Z" fill="white"/>
<path d="M66.8191 87.756H68.6841V85.6201H66.8191V87.756Z" fill="white"/>
<path d="M63.5862 87.756H65.4512V85.62H63.5862V87.756Z" fill="white"/>
<path d="M66.8191 91.0501H68.6841V88.9142H66.8191V91.0501Z" fill="white"/>
<path d="M63.5862 91.0501H65.4512V88.9142H63.5862V91.0501Z" fill="white"/>
<path d="M66.8191 94.3784H68.6841V92.2425H66.8191V94.3784Z" fill="white"/>
<path d="M63.5862 94.3784H65.4512V92.2425H63.5862V94.3784Z" fill="white"/>
<path d="M66.8191 97.7084H68.6841V95.5724H66.8191V97.7084Z" fill="white"/>
<path d="M63.5862 97.7084H65.4512V95.5724H63.5862V97.7084Z" fill="white"/>
<path d="M66.8191 101.035H68.6841V98.899H66.8191V101.035Z" fill="white"/>
<path d="M63.5862 101.035H65.4512V98.899H63.5862V101.035Z" fill="white"/>
<path d="M66.8191 104.363H68.6841V102.227H66.8191V104.363Z" fill="white"/>
<path d="M63.5862 104.363H65.4512V102.227H63.5862V104.363Z" fill="white"/>
<path d="M21.2718 68.9668H23.1367V66.4515H21.2718V68.9668Z" fill="white"/>
<path d="M18.0374 68.9668H19.9023V66.4515H18.0374V68.9668Z" fill="white"/>
<path d="M21.2718 72.7515H23.1367V70.2362H21.2718V72.7515Z" fill="white"/>
<path d="M18.0374 72.7515H19.9023V70.2362H18.0374V72.7515Z" fill="white"/>
<path d="M21.2718 76.538H23.1367V74.0227H21.2718V76.538Z" fill="white"/>
<path d="M18.0374 76.538H19.9023V74.0227H18.0374V76.538Z" fill="white"/>
<path d="M21.2718 80.3227H23.1367V77.8074H21.2718V80.3227Z" fill="white"/>
<path d="M18.0374 80.3227H19.9023V77.8074H18.0374V80.3227Z" fill="white"/>
<path d="M21.2718 84.2046H23.1367V81.6893H21.2718V84.2046Z" fill="white"/>
<path d="M18.0374 84.2046H19.9023V81.6893H18.0374V84.2046Z" fill="white"/>
<path d="M21.2718 88.0864H23.1367V85.5711H21.2718V88.0864Z" fill="white"/>
<path d="M18.0374 88.0864H19.9023V85.5711H18.0374V88.0864Z" fill="white"/>
<path d="M21.2718 91.9614H23.1367V89.4461H21.2718V91.9614Z" fill="white"/>
<path d="M18.0374 91.9614H19.9023V89.4461H18.0374V91.9614Z" fill="white"/>
<path d="M21.2718 95.8432H23.1367V93.3279H21.2718V95.8432Z" fill="white"/>
<path d="M18.0374 95.8432H19.9023V93.3279H18.0374V95.8432Z" fill="white"/>
<path d="M21.2718 99.7643H23.1367V97.249H21.2718V99.7643Z" fill="white"/>
<path d="M18.0374 99.7643H19.9023V97.249H18.0374V99.7643Z" fill="white"/>
<path d="M21.2718 103.68H23.1367V101.165H21.2718V103.68Z" fill="white"/>
<path d="M18.0374 103.68H19.9023V101.165H18.0374V103.68Z" fill="white"/>
<path d="M21.2718 107.605H23.1367V105.089H21.2718V107.605Z" fill="white"/>
<path d="M18.0374 107.605H19.9023V105.089H18.0374V107.605Z" fill="white"/>
<path d="M21.2718 111.522H23.1367V109.007H21.2718V111.522Z" fill="white"/>
<path d="M18.0374 111.522H19.9023V109.007H18.0374V111.522Z" fill="white"/>
<path d="M59.908 68.2395H61.7729V66.1035H59.908V68.2395Z" fill="white"/>
<path d="M56.6751 68.2395H58.54V66.1035H56.6751V68.2395Z" fill="white"/>
<path d="M59.908 64.9453H61.7729V62.8093H59.908V64.9453Z" fill="white"/>
<path d="M56.6751 64.9453H58.54V62.8093H56.6751V64.9453Z" fill="white"/>
<path d="M59.908 61.6528H61.7729V59.5168H59.908V61.6528Z" fill="white"/>
<path d="M56.6751 61.6528H58.54V59.5168H56.6751V61.6528Z" fill="white"/>
<path d="M59.908 71.4536H61.7729V69.3177H59.908V71.4536Z" fill="white"/>
<path d="M56.6751 71.4534H58.54V69.3174H56.6751V71.4534Z" fill="white"/>
<path d="M59.908 74.666H61.7729V72.5301H59.908V74.666Z" fill="white"/>
<path d="M56.6751 74.666H58.54V72.5301H56.6751V74.666Z" fill="white"/>
<path d="M59.908 77.8819H61.7729V75.7459H59.908V77.8819Z" fill="white"/>
<path d="M56.6751 77.8819H58.54V75.7459H56.6751V77.8819Z" fill="white"/>
<path d="M59.908 81.1727H61.7729V79.0367H59.908V81.1727Z" fill="white"/>
<path d="M56.6751 81.1727H58.54V79.0367H56.6751V81.1727Z" fill="white"/>
<path d="M59.908 84.4635H61.7729V82.3275H59.908V84.4635Z" fill="white"/>
<path d="M56.6751 84.4635H58.54V82.3275H56.6751V84.4635Z" fill="white"/>
<path d="M59.908 87.756H61.7729V85.62H59.908V87.756Z" fill="white"/>
<path d="M56.6751 87.756H58.54V85.6201H56.6751V87.756Z" fill="white"/>
<path d="M59.908 91.0501H61.7729V88.9142H59.908V91.0501Z" fill="white"/>
<path d="M56.6751 91.0501H58.54V88.9142H56.6751V91.0501Z" fill="white"/>
<path d="M59.908 94.3784H61.7729V92.2425H59.908V94.3784Z" fill="white"/>
<path d="M56.6751 94.3784H58.54V92.2425H56.6751V94.3784Z" fill="white"/>
<path d="M59.908 97.7084H61.7729V95.5724H59.908V97.7084Z" fill="white"/>
<path d="M56.6751 97.7084H58.54V95.5724H56.6751V97.7084Z" fill="white"/>
<path d="M59.908 101.035H61.7729V98.899H59.908V101.035Z" fill="white"/>
<path d="M56.6751 101.035H58.54V98.899H56.6751V101.035Z" fill="white"/>
<path d="M59.908 104.363H61.7729V102.227H59.908V104.363Z" fill="white"/>
<path d="M56.6751 104.363H58.54V102.227H56.6751V104.363Z" fill="white"/>
<path d="M143.241 53.5973H108.917C108.917 53.5973 112.321 44.3012 117.559 44.3012C122.797 44.3012 124.436 50.7186 124.436 50.7186C124.436 50.7186 127.971 47.2309 130.872 47.2309C133.773 47.2309 136.292 51.8375 136.292 51.8375C136.292 51.8375 140.401 49.3605 143.241 53.5973Z" fill="white"/>
<path d="M124.031 35.2122H107.989C107.989 35.2122 111.572 30.019 114.397 30.019C117.221 30.019 118.056 33.4811 118.056 33.4811C118.056 33.4811 120.049 31.8648 121.882 32.1549C123.715 32.445 124.031 35.2122 124.031 35.2122Z" fill="white"/>
<path d="M49.4447 50.8283H18.2026C18.2026 50.8283 22.4841 41.2644 27.0588 40.6778C31.6335 40.0912 33.8269 47.7774 33.8269 47.7774C33.8269 47.7774 36.7789 45.0581 39.0997 45.0581C41.4206 45.0581 43.2122 48.6414 43.2122 48.6414C43.2122 48.6414 47.8539 46.1866 49.4447 50.8283Z" fill="white"/>
<path d="M79.1404 27.1954H58.0361C58.0361 27.1954 61.6608 20.2743 65.5948 20.1819C69.5287 20.0894 71.5945 25.4197 71.5945 25.4197C71.5945 25.4197 77.7122 20.5038 79.1404 27.1954Z" fill="white"/>
<path d="M93.5567 139.489C122.263 139.489 145.533 137.949 145.533 136.049C145.533 134.149 122.263 132.609 93.5567 132.609C64.8508 132.609 41.5801 134.149 41.5801 136.049C41.5801 137.949 64.8508 139.489 93.5567 139.489Z" fill="#EBEBEB"/>
<path d="M155.425 122.92L136.75 122.997L118.072 123.025L80.7219 123.079L43.3685 123.025L24.6902 122.997L6.01514 122.92L24.6902 122.84L43.3685 122.815L80.7219 122.761L118.072 122.815L136.75 122.84L155.425 122.92Z" fill="#263238"/>
<path d="M78.3883 73.6124C83.7855 79.2232 99.9899 104.198 101.252 104.944C101.252 104.944 101.252 121.276 92.2272 118.014C83.2021 114.753 74.9293 85.4525 73.1632 76.1117C72.2323 71.1895 73.9857 69.0345 78.3883 73.6124Z" fill="#D3766A"/>
<path d="M77.0165 92.9217L93.5556 91.0407C93.5556 91.0407 83.2968 77.4313 77.992 72.5729C72.4673 67.5104 69.7575 68.2213 72.3174 77.8107C74.8965 87.4575 77.0165 92.9217 77.0165 92.9217Z" fill="#0077F9"/>
<path d="M76.2396 83.911C76.0578 84.3673 75.9418 84.8471 75.8953 85.336C76.1863 84.9456 76.4213 84.5163 76.5934 84.0608C76.7748 83.6055 76.8907 83.1268 76.9377 82.639C76.6438 83.0264 76.4085 83.455 76.2396 83.911ZM85.5293 84.284C85.0742 84.1019 84.5954 83.9859 84.1075 83.9397C84.4977 84.2309 84.927 84.4659 85.3826 84.6378C85.838 84.8189 86.3167 84.9348 86.8045 84.9821C86.4165 84.6873 85.9867 84.4519 85.5293 84.284ZM83.065 90.7173C82.8703 90.2676 82.6127 89.8479 82.2999 89.4708C82.3731 89.9549 82.5147 90.4261 82.7207 90.8703C82.9091 91.3228 83.1649 91.7441 83.4794 92.12C83.408 91.6353 83.2685 91.163 83.065 90.7173ZM73.3608 69.9955C73.2779 69.8202 73.1951 69.648 73.0994 69.4759C72.986 69.4648 72.8717 69.4648 72.7583 69.4759C72.8348 69.7086 72.9209 69.9318 73.0165 70.1549C73.208 70.6065 73.4647 71.0276 73.7784 71.4046C73.7067 70.9175 73.566 70.4431 73.3608 69.9955ZM92.4217 89.5505L92.1029 89.678C91.6517 89.8722 91.2299 90.1286 90.85 90.4399C91.336 90.3678 91.8093 90.2272 92.2559 90.0223C92.3834 89.9649 92.5077 89.9043 92.6321 89.8374L92.4217 89.5505ZM79.6698 76.4129C79.2197 76.6059 78.799 76.8614 78.4201 77.1716C78.9063 77.1019 79.3798 76.9623 79.826 76.7572C80.2766 76.5638 80.6974 76.3072 81.0757 75.9953C80.5872 76.0654 80.1115 76.2061 79.6634 76.4129H79.6698ZM78.5604 76.4416C78.5416 76.4544 78.5235 76.4682 78.5062 76.483H78.5636C78.5636 76.483 78.554 76.4512 78.554 76.4416H78.5604Z" fill="white"/>
<path d="M77.812 89.9479C78.1977 89.8586 78.6026 89.8204 78.9947 89.7662L80.2093 89.6004C81.0318 89.4856 81.8543 89.3836 82.6768 89.2816C84.3218 89.0871 85.9668 88.8895 87.6149 88.7237C88.0676 88.6791 88.5203 88.6377 88.9762 88.6026C89.4321 88.5675 89.9326 88.5675 90.4108 88.5293C90.4395 88.5293 90.4395 88.5707 90.4108 88.5771C90.0059 88.6345 89.6042 88.7301 89.1994 88.7907C88.7945 88.8512 88.3641 88.915 87.9465 88.966C87.124 89.068 86.3015 89.1669 85.479 89.2561C83.8595 89.4346 82.2368 89.6195 80.611 89.763L79.2497 89.8778C78.7779 89.9192 78.2933 89.9862 77.8183 89.9862C77.8146 89.9848 77.8114 89.9825 77.8088 89.9794C77.8063 89.9764 77.8047 89.9728 77.804 89.9689C77.8034 89.965 77.8038 89.961 77.8052 89.9573C77.8065 89.9536 77.8089 89.9504 77.812 89.9479Z" fill="#263238"/>
<path opacity="0.1" d="M85.0378 92.0196L77.0168 92.9314C77.0168 92.9314 74.8968 87.4672 72.3178 77.8204C71.2307 73.7526 71.0936 71.2819 71.7184 70.1693L85.0378 92.0196Z" fill="black"/>
<path d="M81.6049 126.938H56.4487C56.2414 126.128 56.0406 125.344 55.8398 124.547C55.6102 123.644 55.3839 122.765 55.1671 121.907C55.1193 121.716 55.0683 121.524 55.0204 121.336C54.8547 120.68 54.6921 120.042 54.5327 119.424C54.437 119.044 54.3414 118.671 54.249 118.301C54.1565 117.932 54.0577 117.555 53.9652 117.195C53.9397 117.1 53.9174 117.004 53.8919 116.911L53.8154 116.593L53.7198 116.22C53.6847 116.089 53.6528 115.961 53.6209 115.834C53.5572 115.592 53.4966 115.353 53.4392 115.12C53.35 114.775 53.2639 114.438 53.181 114.109C53.1459 113.966 53.1077 113.822 53.0726 113.682C53.012 113.452 52.9546 113.229 52.9004 113.009C52.8622 112.863 52.8271 112.719 52.7921 112.579C52.6433 112.001 52.5051 111.459 52.3776 110.953C52.3426 110.819 52.3107 110.689 52.2756 110.561C52.2214 110.341 52.1672 110.131 52.1162 109.923C52.0801 109.796 52.0482 109.672 52.0206 109.55C51.909 109.117 51.807 108.722 51.7209 108.374C51.6954 108.282 51.6731 108.192 51.6508 108.106C51.5934 107.877 51.5392 107.673 51.4946 107.491C51.4754 107.418 51.4595 107.348 51.4404 107.284L51.3894 107.083C51.3894 107.038 51.367 106.994 51.3575 106.955L51.3128 106.783L51.2937 106.707L51.2363 106.48H75.7231C75.7231 106.48 76.5296 109.26 77.8208 113.743C78.0822 114.654 78.3659 115.639 78.6688 116.685C79.5263 119.675 80.5274 123.163 81.6049 126.938Z" fill="#37474F"/>
<path d="M60.5677 126.938H59.9301C58.9992 123.084 58.0971 119.224 57.2236 115.356C57.011 114.414 56.7985 113.473 56.586 112.531L56.5286 112.267C56.5275 112.257 56.5298 112.248 56.535 112.241C56.5402 112.233 56.548 112.228 56.5569 112.225C56.5659 112.223 56.5753 112.224 56.5836 112.228C56.5919 112.232 56.5984 112.239 56.6019 112.248C56.6019 112.276 56.6178 112.305 56.6274 112.334C56.9101 113.343 57.1917 114.356 57.4722 115.372C58.5476 119.216 59.5795 123.072 60.5677 126.938Z" fill="#263238"/>
<path d="M74.9293 106.485L73.8486 111.904L72.9623 116.342L71.4544 123.904L71.2982 124.679L71.04 125.954L70.8455 126.932H56.4455C56.2414 126.12 56.0374 125.338 55.8397 124.541C55.6102 123.639 55.3839 122.759 55.1671 121.902C55.1193 121.711 55.0683 121.519 55.0204 121.331C54.8547 120.674 54.6921 120.037 54.5327 119.418C54.437 119.039 54.3414 118.666 54.249 118.296C54.1565 117.926 54.0577 117.55 53.9652 117.19C53.9397 117.094 53.9174 116.999 53.8919 116.906L53.8154 116.588L53.7198 116.215C53.6847 116.084 53.6528 115.956 53.6209 115.829C53.5572 115.586 53.4966 115.347 53.4392 115.115C53.3499 114.77 53.2639 114.432 53.181 114.104C53.1427 113.957 53.1077 113.817 53.0726 113.677C53.012 113.447 52.9546 113.224 52.9004 113.004C52.8622 112.858 52.8271 112.714 52.7921 112.574C52.6433 111.996 52.5051 111.454 52.3776 110.948C52.3426 110.814 52.3107 110.683 52.2756 110.556C52.2214 110.336 52.1672 110.125 52.1162 109.918C52.0801 109.791 52.0482 109.666 52.0206 109.545C51.909 109.112 51.807 108.716 51.7209 108.369C51.6954 108.276 51.6731 108.187 51.6508 108.101C51.5934 107.872 51.5392 107.668 51.4946 107.486C51.4754 107.413 51.4595 107.342 51.4404 107.279L51.3894 107.078C51.3894 107.033 51.367 106.989 51.3575 106.95L51.3128 106.778L51.2937 106.702L51.2363 106.475L74.9293 106.485Z" fill="#263238"/>
<path d="M74.9324 106.473C74.9324 106.607 74.8304 108.067 74.5945 110.299C74.5275 110.936 74.4478 111.663 74.3554 112.428C74.2119 113.637 74.0366 114.979 73.8134 116.378C73.4373 118.836 72.9463 121.517 72.3087 124.138C72.0824 125.094 71.8337 126.015 71.5691 126.93H39.9604C40.3334 122.113 40.6746 117.759 40.9455 114.325C41.3249 109.492 41.5831 106.467 41.5831 106.467H70.2557L74.9324 106.473Z" fill="#37474F"/>
<path d="M74.8655 109.378C74.8304 110.51 74.7826 111.638 74.7093 112.764C74.6328 113.985 74.5212 115.202 74.3618 116.42C74.3618 116.465 74.3618 116.509 74.3459 116.554C74.195 117.695 74.0239 118.833 73.8326 119.968C73.6509 121.027 73.5138 122.168 73.0484 123.156C72.8715 123.535 72.6199 123.875 72.3088 124.154C72.024 124.415 71.6753 124.595 71.2982 124.677C71.2364 124.692 71.1735 124.703 71.1101 124.709H71.0559C71.0675 124.715 71.077 124.725 71.0832 124.737C71.0894 124.749 71.0921 124.762 71.091 124.776C71.091 125.155 71.091 125.541 71.0463 125.917C71.0463 125.917 71.0463 125.949 71.0463 125.965C71.0081 126.284 70.9475 126.602 70.8869 126.944H70.345V126.924C70.4406 126.567 70.5203 126.207 70.6096 125.847C70.6988 125.487 70.8264 125.12 70.9124 124.747C70.9172 124.733 70.9261 124.721 70.9379 124.712C70.5939 124.729 70.2531 124.639 69.9613 124.456C69.6695 124.273 69.4407 124.005 69.3057 123.689C69.1697 123.204 69.1609 122.692 69.2802 122.203C69.379 121.565 69.4747 120.909 69.5735 120.262C69.7584 119.072 69.9975 117.896 70.2111 116.713L70.3067 116.175C70.7307 113.768 71.1738 111.361 71.7062 108.976C71.7254 108.877 71.7477 108.779 71.77 108.68C71.7923 108.581 71.8911 108.632 71.8848 108.68C71.8688 108.839 71.8529 108.999 71.8338 109.161C71.7402 110.077 71.634 110.989 71.515 111.896C71.3619 112.964 71.2567 114.039 71.1069 115.107C71.0559 115.47 71.0049 115.834 70.9507 116.197C70.7052 117.954 70.4502 119.704 70.1505 121.46C70.0102 122.273 69.5129 123.73 70.6733 123.982C70.9414 124.041 71.2218 124.006 71.4671 123.883C71.9838 123.572 72.37 123.084 72.5542 122.509C72.8413 121.552 73.0492 120.573 73.1759 119.583C73.3672 118.52 73.5372 117.448 73.686 116.366C73.8772 115.023 74.077 113.683 74.2853 112.346C74.3894 111.664 74.4957 110.981 74.6041 110.299L74.7571 109.343C74.7603 109.292 74.8655 109.311 74.8655 109.378Z" fill="#263238"/>
<path d="M46.8937 117.78C48.21 117.766 49.5196 117.59 50.7926 117.254C51.3792 117.104 51.9594 116.916 52.5364 116.725C53.1069 116.568 53.641 116.301 54.1081 115.938C54.9943 115.173 55.4088 113.967 55.7945 112.9C56.2154 111.694 56.5562 110.462 56.8147 109.211C56.8189 109.199 56.8271 109.189 56.8379 109.183C56.8487 109.176 56.8614 109.174 56.8738 109.176C56.8863 109.178 56.8977 109.184 56.9061 109.193C56.9145 109.202 56.9193 109.214 56.9199 109.227C56.9532 110.642 56.7748 112.054 56.3907 113.416C56.0719 114.57 55.6447 115.861 54.7106 116.671C53.7765 117.481 52.3961 117.822 51.1369 117.978C49.7238 118.142 48.2955 118.123 46.8873 117.921C46.8687 117.92 46.8512 117.911 46.8387 117.898C46.8261 117.884 46.8195 117.866 46.8204 117.847C46.8212 117.829 46.8294 117.811 46.8432 117.799C46.8569 117.786 46.8751 117.779 46.8937 117.78Z" fill="#263238"/>
<path d="M44.7043 109.25C44.6341 111.02 44.5597 112.791 44.4811 114.561C44.2983 118.686 44.0996 122.811 43.8849 126.937H43.292C43.564 122.801 43.8499 118.669 44.1495 114.542C44.2813 112.776 44.4152 111.011 44.5512 109.247C44.5517 109.226 44.5601 109.207 44.5748 109.193C44.5894 109.179 44.609 109.171 44.6293 109.172C44.6496 109.172 44.6689 109.181 44.683 109.195C44.697 109.21 44.7047 109.229 44.7043 109.25Z" fill="#263238"/>
<path d="M80.3752 119.567L37.4907 116.315C37.4907 116.315 46.1174 82.1212 63.1538 69.5542C67.5086 66.3407 72.2746 68.4033 74.4201 70.8039C79.8715 76.8993 80.4995 119.436 80.3752 119.567Z" fill="#0077F9"/>
<path d="M65.1354 71.1081C64.9555 71.5639 64.8396 72.0424 64.7911 72.53C65.0847 72.1406 65.3209 71.7112 65.4925 71.2548C65.6724 70.799 65.7883 70.3205 65.8368 69.8329C65.5445 70.2231 65.3084 70.6523 65.1354 71.1081ZM60.481 89.5537C60.2977 90.0093 60.1828 90.4895 60.1399 90.9787C60.4294 90.5879 60.6633 90.1587 60.8349 89.7035C61.0148 89.2478 61.1307 88.7693 61.1792 88.2817C60.8875 88.6706 60.6525 89.0989 60.481 89.5537ZM45.1597 97.463C44.9782 97.9194 44.8623 98.3992 44.8154 98.8881C45.107 98.498 45.3421 98.0687 45.5135 97.6129C45.6956 97.1578 45.8116 96.679 45.8578 96.191C45.5686 96.5815 45.3337 97.0094 45.1597 97.463ZM57.5258 109.121C57.3407 109.576 57.2246 110.055 57.1815 110.543C57.4728 110.154 57.7068 109.724 57.8764 109.268C58.0593 108.813 58.1753 108.334 58.2207 107.846C57.925 108.235 57.6866 108.665 57.513 109.121H57.5258ZM76.2391 83.911C76.0573 84.3673 75.9414 84.8471 75.8948 85.336C76.1859 84.9456 76.4209 84.5164 76.593 84.0608C76.7744 83.6055 76.8903 83.1268 76.9373 82.639C76.6433 83.0264 76.4081 83.455 76.2391 83.911ZM68.6199 107.097C68.4345 107.551 68.3174 108.03 68.2724 108.519C68.5655 108.13 68.8006 107.7 68.9706 107.244C69.152 106.788 69.2679 106.31 69.3149 105.822C69.0228 106.211 68.7887 106.641 68.6199 107.097ZM53.1551 83.0375C52.9733 83.4927 52.8574 83.9714 52.8108 84.4593C53.1032 84.0698 53.3383 83.6404 53.5089 83.1841C53.6908 82.7292 53.8057 82.2503 53.85 81.7623C53.5575 82.1513 53.3234 82.5809 53.1551 83.0375ZM70.2872 76.9294C69.8326 76.7457 69.3536 76.6298 68.8654 76.5851C69.2551 76.8764 69.6845 77.1104 70.1405 77.28C70.596 77.4644 71.0762 77.5804 71.5656 77.6243C71.1752 77.3322 70.7446 77.0981 70.2872 76.9294ZM75.1456 92.2985C74.6908 92.1157 74.2119 91.9997 73.7238 91.9542C74.1127 92.2468 74.5423 92.481 74.999 92.6492C75.4537 92.8331 75.9326 92.9502 76.4208 92.9967C76.0321 92.703 75.6025 92.4678 75.1456 92.2985ZM76.4495 110.668C75.9944 110.486 75.5156 110.37 75.0277 110.323C75.4165 110.617 75.8461 110.852 76.3029 111.021C76.7583 111.202 77.2369 111.318 77.7247 111.366C77.3345 111.074 76.9052 110.839 76.4495 110.668ZM45.9248 109.156C45.4697 108.974 44.9909 108.858 44.5029 108.812C44.8932 109.103 45.3225 109.338 45.7781 109.51C46.2335 109.691 46.7122 109.807 47.1999 109.855C46.8104 109.562 46.381 109.327 45.9248 109.156ZM56.9583 97.361C56.5033 97.1782 56.0245 97.0612 55.5365 97.0135C55.926 97.3068 56.3554 97.543 56.8117 97.7149C57.2674 97.8948 57.7459 98.0107 58.2335 98.0592C57.8441 97.7657 57.4147 97.5295 56.9583 97.3578V97.361ZM73.3604 69.9987C73.3158 69.9031 73.2711 69.8106 73.2233 69.7182C73.0671 69.6002 72.9045 69.4854 72.7292 69.3739C72.8081 69.6411 72.9039 69.9031 73.0161 70.1581C73.2076 70.6097 73.4643 71.0307 73.778 71.4078C73.7065 70.9196 73.5659 70.4441 73.3604 69.9955V69.9987ZM60.8285 79.9037C60.6363 79.4525 60.3796 79.0316 60.0666 78.6541C60.138 79.1388 60.2775 79.611 60.481 80.0567C60.6756 80.5074 60.9332 80.9282 61.2461 81.3064C61.176 80.821 61.0353 80.3485 60.8285 79.9037ZM71.8939 117.627C71.7016 117.176 71.4462 116.756 71.1352 116.377C71.2058 116.862 71.3453 117.335 71.5496 117.78C71.7313 118.199 71.966 118.593 72.2478 118.953H72.2988C72.2256 118.493 72.0893 118.046 71.8939 117.624V117.627ZM67.8229 95.4195C67.629 94.9692 67.3725 94.5485 67.061 94.1699C67.132 94.6551 67.2727 95.1275 67.4786 95.5726C67.6704 96.0233 67.9259 96.4441 68.2373 96.8223C68.1671 96.3362 68.0275 95.8628 67.8229 95.4164V95.4195ZM38.6148 112.36C38.5956 112.427 38.5765 112.494 38.5542 112.558C38.5956 112.603 38.6339 112.65 38.6722 112.695C38.6599 112.581 38.6407 112.469 38.6148 112.357V112.36ZM51.3666 103.855C51.1731 103.405 50.9166 102.986 50.6047 102.608C50.6746 103.092 50.8142 103.564 51.0191 104.008C51.2123 104.459 51.47 104.88 51.7842 105.258C51.7094 104.771 51.5656 104.298 51.3571 103.852L51.3666 103.855ZM54.1019 116.129C53.9085 115.678 53.6519 115.257 53.34 114.879C53.4116 115.364 53.5522 115.836 53.7576 116.282C53.9505 116.733 54.2071 117.155 54.5195 117.534C54.446 117.047 54.3021 116.572 54.0923 116.125L54.1019 116.129ZM75.5473 101.362C75.0971 101.556 74.6765 101.813 74.2976 102.124C74.7827 102.052 75.2551 101.912 75.7004 101.706C76.1547 101.514 76.5789 101.258 76.9596 100.944C76.468 101.013 75.989 101.152 75.5378 101.359L75.5473 101.362ZM41.723 103.224L41.5604 103.664C41.9043 103.498 42.2256 103.289 42.5168 103.042C42.2436 103.074 41.9744 103.133 41.7135 103.221L41.723 103.224ZM63.5861 113.846C63.1354 114.038 62.7145 114.293 62.3364 114.605C62.8223 114.534 63.2956 114.394 63.7423 114.19C64.1926 113.995 64.6133 113.737 64.992 113.425C64.4999 113.493 64.0206 113.634 63.5702 113.843L63.5861 113.846ZM44.0343 116.69L43.8143 116.795L44.5635 116.852C44.8766 116.694 45.1699 116.499 45.437 116.272C44.949 116.343 44.4735 116.482 44.0247 116.686L44.0343 116.69ZM51.5451 90.475C51.096 90.6713 50.6757 90.9276 50.2955 91.2369C50.7818 91.1662 51.2553 91.0255 51.7014 90.8193C52.1521 90.6275 52.5729 90.372 52.951 90.0606C52.4618 90.1284 51.985 90.2669 51.5356 90.4718L51.5451 90.475ZM62.5373 102.685C62.0866 102.88 61.6658 103.137 61.2876 103.45C61.7739 103.379 62.2474 103.239 62.6935 103.032C63.1443 102.839 63.5651 102.583 63.9431 102.27C63.4542 102.34 62.9776 102.478 62.5277 102.682L62.5373 102.685ZM68.2756 85.9003C67.826 86.0957 67.4055 86.3521 67.0259 86.6622C67.5107 86.5912 67.983 86.4517 68.4286 86.2478C68.8792 86.0543 69.3 85.7978 69.6783 85.4859C69.1871 85.554 68.7082 85.6925 68.2565 85.8971L68.2756 85.9003Z" fill="white"/>
<path d="M71.989 77.9439C69.5152 77.5805 67.0031 72.5881 66.5695 69.1802C66.5408 68.9475 70.395 61.5928 70.9976 60.0562C71.1219 59.7374 79.7167 66.2313 79.7167 66.2313C79.7167 66.2313 77.4851 69.075 76.4394 71.7592C76.3693 71.9856 74.38 78.3105 71.989 77.9439Z" fill="#D3766A"/>
<path d="M79.7308 66.23C79.7308 66.23 77.4992 69.0769 76.4535 71.7612C76.4344 71.8154 76.3069 72.2075 76.0965 72.7749C71.678 70.5434 69.8768 66.5584 69.1499 63.9251C69.9851 62.2547 70.763 60.683 71.0085 60.0613C71.136 59.7425 79.7308 66.23 79.7308 66.23Z" fill="#263238"/>
<path d="M72.9818 48.1125C70.4697 51.0199 67.9544 61.5211 69.3922 64.7441C71.4771 69.4176 77.0433 72.2294 81.5447 69.2423C85.9186 66.3444 88.9535 52.6011 87.1491 49.4514C84.4904 44.8129 76.6958 43.8151 72.9818 48.1125Z" fill="#D3766A"/>
<path d="M79.7013 56.6347C79.3825 56.6634 79.0637 56.6347 78.7449 56.6347C78.4066 56.6791 78.0629 56.612 77.7662 56.4435C77.6831 56.372 77.6262 56.275 77.6042 56.1677C77.5823 56.0604 77.5967 55.9488 77.6451 55.8505C77.8746 55.4424 78.3273 55.3372 78.7736 55.3245C79.2211 55.2991 79.662 55.4411 80.0105 55.723C80.0858 55.7919 80.1393 55.8813 80.1647 55.9801C80.19 56.079 80.186 56.1831 80.1533 56.2797C80.1205 56.3763 80.0603 56.4614 79.9801 56.5244C79.8998 56.5874 79.803 56.6258 79.7013 56.6347Z" fill="#263238"/>
<path d="M79.4212 58.1814C79.4212 58.1527 79.3606 58.2037 79.3543 58.2324C79.2363 58.9529 78.9781 59.7563 78.2863 59.8646C78.264 59.8646 78.2576 59.9029 78.2863 59.9061C79.0928 59.9507 79.4244 58.8796 79.4212 58.1814Z" fill="#263238"/>
<path d="M78.9341 57.3074C77.8024 56.9886 77.2541 59.2775 78.2965 59.5708C79.339 59.8641 79.8809 57.5879 78.9341 57.3074Z" fill="#263238"/>
<path d="M83.5374 59.0639C83.5374 59.0384 83.5853 59.1118 83.5789 59.1404C83.3844 59.8418 83.2856 60.6802 83.869 61.0532C83.8881 61.0532 83.869 61.0979 83.853 61.0915C83.0975 60.8077 83.2441 59.6983 83.5374 59.0639Z" fill="#263238"/>
<path d="M84.3467 58.4769C85.5071 58.665 85.048 60.9699 83.9737 60.7977C82.8994 60.6256 83.3744 58.3207 84.3467 58.4769Z" fill="#263238"/>
<path d="M85.5238 57.3404C85.2315 57.2041 84.9463 57.053 84.6694 56.8877C84.3461 56.7667 84.0716 56.5426 83.8884 56.2501C83.8487 56.1478 83.8437 56.0353 83.8742 55.9298C83.9048 55.8244 83.9691 55.732 84.0573 55.6667C84.4526 55.4117 84.9053 55.5296 85.307 55.7273C85.717 55.9121 86.0425 56.2444 86.2188 56.6582C86.2583 56.7549 86.2682 56.8611 86.2471 56.9634C86.226 57.0658 86.1749 57.1595 86.1004 57.2327C86.0258 57.3058 85.9312 57.3552 85.8285 57.3743C85.7258 57.3935 85.6197 57.3817 85.5238 57.3404Z" fill="#263238"/>
<path d="M77.0498 64.3171C77.1805 64.5243 77.2953 64.7953 77.5471 64.8782C77.812 64.934 78.0856 64.934 78.3505 64.8782C78.3562 64.8767 78.3622 64.8772 78.3675 64.8797C78.3728 64.8821 78.3771 64.8862 78.3798 64.8915C78.3824 64.8967 78.3831 64.9027 78.3818 64.9084C78.3806 64.9141 78.3774 64.9192 78.3728 64.9228C78.2378 65.0372 78.0746 65.1131 77.9002 65.1429C77.7258 65.1726 77.5466 65.155 77.3814 65.0918C77.2462 65.0189 77.1357 64.9077 77.0636 64.7721C76.9916 64.6365 76.9613 64.4827 76.9765 64.3299C76.9606 64.2852 77.0339 64.2852 77.0498 64.3171Z" fill="#263238"/>
<path d="M78.3019 62.3723C78.4146 62.6961 78.5932 62.993 78.8264 63.2443C79.0596 63.4956 79.3423 63.6959 79.6568 63.8324C79.9291 63.9559 80.218 64.0386 80.5144 64.0778C80.57 64.0898 80.6265 64.0972 80.6833 64.1002H80.8459C80.885 64.101 80.9233 64.0894 80.9554 64.067C80.9875 64.0447 81.0116 64.0128 81.0244 63.9758C81.0278 63.9515 81.0278 63.9268 81.0244 63.9025V63.8419C81.1711 63.3 81.3177 62.4584 81.3177 62.4584C81.4931 62.605 82.3985 63.3064 82.4495 63.0163C82.8735 60.6253 83.3453 57.9633 83.2624 55.4958C83.2624 55.4781 83.2553 55.4611 83.2428 55.4485C83.2302 55.436 83.2132 55.4289 83.1954 55.4289C83.1777 55.4289 83.1607 55.436 83.1481 55.4485C83.1356 55.4611 83.1285 55.4781 83.1285 55.4958C82.6312 57.7784 82.5355 60.1312 82.0733 62.4329C81.752 62.1787 81.3968 61.9705 81.0181 61.8144C80.9352 61.8144 80.7662 63.4466 80.6801 63.6857V63.7112C79.7238 63.6092 79.1117 63.1661 78.3689 62.3372C78.3402 62.2767 78.2732 62.3085 78.3019 62.3723Z" fill="#263238"/>
<path d="M80.2595 63.7273C79.8673 64.0457 79.3995 64.2576 78.9015 64.3426C78.6287 64.3799 78.3511 64.3309 78.1077 64.2023C77.5753 63.9186 77.6868 63.3957 77.8973 62.9781C78.0112 62.7568 78.1503 62.5492 78.3117 62.3596C78.799 63.011 79.4814 63.4901 80.2595 63.7273Z" fill="#263238"/>
<path d="M78.9015 64.3407C78.6287 64.3781 78.3511 64.329 78.1077 64.2004C77.5753 63.9167 77.6868 63.3939 77.8973 62.9762C78.487 63.1835 78.9907 63.7382 78.9015 64.3407Z" fill="#FF97B8"/>
<path d="M88.1184 53.5445C83.6552 55.4126 79.141 50.2418 79.141 50.2418C78.6302 51.026 77.8798 51.6243 77.0016 51.9477C76.1233 52.2711 75.1641 52.3023 74.2666 52.0366C74.2666 52.0366 72.118 58.4986 70.3773 58.1224C67.7218 57.5518 68.7834 48.3513 69.9852 46.7509C71.1871 45.1506 73.543 45.157 73.543 45.157C73.543 45.157 73.9957 43.818 75.9021 42.9031C78.0061 41.8893 83.872 45.0677 83.872 45.0677C84.4055 44.3051 85.1096 43.6774 85.9282 43.2346C86.1261 43.1232 86.3445 43.0532 86.5702 43.0286C86.796 43.004 87.0243 43.0254 87.2416 43.0916C87.4588 43.1577 87.6603 43.2672 87.834 43.4135C88.0077 43.5597 88.15 43.7396 88.2523 43.9423C87.8174 44.363 87.4829 44.8762 87.2736 45.4439C86.5563 47.3152 88.1407 47.6436 88.4914 45.8838C88.6475 45.2289 88.5626 44.5398 88.2523 43.9423C89.2724 42.9573 90.6273 42.8489 91.2713 43.6235C92.4476 45.0454 91.826 51.9919 88.1184 53.5445Z" fill="#263238"/>
<path d="M77.1609 61.7329C76.5106 61.521 75.949 61.0993 75.5642 60.5339C75.1794 59.9685 74.9931 59.2914 75.0345 58.6087C75.0894 57.7963 75.4635 57.0386 76.0751 56.501C76.6867 55.9634 77.4862 55.6897 78.299 55.7396C79.1114 55.7945 79.8691 56.1686 80.4067 56.7802C80.9442 57.3918 81.218 58.1913 81.1681 59.004C81.1141 59.8168 80.7402 60.575 80.1284 61.1127C79.5166 61.6505 78.7166 61.9239 77.9036 61.8732C77.6512 61.8571 77.4018 61.81 77.1609 61.7329ZM78.9238 56.2656C78.7174 56.1975 78.5031 56.1557 78.2862 56.1413C77.5808 56.0976 76.8869 56.3356 76.3568 56.8029C75.8266 57.2703 75.5036 57.9289 75.4585 58.6342C75.4364 58.9836 75.4834 59.3339 75.5968 59.6651C75.7102 59.9963 75.8877 60.3019 76.1192 60.5645C76.3507 60.8271 76.6317 61.0416 76.9461 61.1955C77.2604 61.3495 77.6021 61.44 77.9515 61.462C78.6569 61.5056 79.3508 61.2676 79.8809 60.8003C80.411 60.3329 80.7341 59.6743 80.7792 58.969C80.8168 58.3754 80.6544 57.7863 80.3181 57.2958C79.9819 56.8052 79.491 56.4414 78.9238 56.2624V56.2656Z" fill="#0077F9"/>
<path d="M83.9548 63.0086C82.855 62.5942 82.278 61.0959 82.6797 59.5306C82.8508 58.7817 83.2535 58.1058 83.8305 57.5987C84.07 57.375 84.36 57.2124 84.6758 57.1247C84.9916 57.037 85.3239 57.0268 85.6445 57.095C85.9606 57.1838 86.2504 57.348 86.4892 57.5734C86.7279 57.7988 86.9085 58.0788 87.0153 58.3893C87.2827 59.1036 87.3217 59.8834 87.1269 60.6209C86.7188 62.269 85.3862 63.3593 84.1621 63.0565C84.0922 63.0443 84.023 63.0283 83.9548 63.0086ZM85.6827 57.5413C85.6339 57.522 85.5838 57.506 85.5329 57.4935C85.2751 57.4419 85.0086 57.4531 84.7561 57.5264C84.5036 57.5997 84.2725 57.7327 84.0824 57.9143C83.5718 58.3651 83.216 58.9652 83.0654 59.6294C82.7115 61.0544 83.2375 62.4189 84.2481 62.6707C85.2587 62.9226 86.3586 61.963 86.7156 60.5348C86.8911 59.8768 86.8577 59.1805 86.62 58.5423C86.5407 58.3213 86.4165 58.119 86.2552 57.9484C86.0939 57.7777 85.899 57.6424 85.6827 57.5509V57.5413Z" fill="#0077F9"/>
<path d="M81.0092 59.3198L80.8115 58.9596C81.3439 58.6663 82.5043 58.357 83.0877 59.2784L82.7371 59.4983C82.2174 58.6726 81.057 59.2943 81.0092 59.3198Z" fill="#0077F9"/>
<path d="M67.3959 57.4427L67.0771 57.1877C67.1951 57.0347 68.2694 55.7212 69.2003 55.7531C70.0706 55.785 75.3818 57.3471 75.605 57.4268L75.487 57.8189C73.9663 57.3662 69.8571 56.1867 69.1876 56.1643C68.5755 56.142 67.6924 57.0793 67.3959 57.4427Z" fill="#0077F9"/>
<path d="M71.5054 57.5066C71.5054 57.5066 70.6479 53.4037 68.8754 53.5759C67.1028 53.748 66.8032 59.0369 68.2186 60.3854C68.3886 60.5704 68.5941 60.7193 68.8229 60.8231C69.0518 60.9269 69.2992 60.9835 69.5504 60.9894C69.8016 60.9954 70.0514 60.9506 70.2849 60.8578C70.5184 60.7649 70.7307 60.6259 70.9093 60.4491L71.5054 57.5066Z" fill="#D3766A"/>
<path d="M68.8284 55.0941C68.8229 55.0915 68.8167 55.0909 68.8108 55.0924C68.8049 55.094 68.7998 55.0976 68.7963 55.1026C68.7928 55.1076 68.7913 55.1136 68.7919 55.1197C68.7925 55.1258 68.7953 55.1314 68.7997 55.1356C69.7752 56.1207 69.9282 57.4787 69.8772 58.7985C69.7147 58.212 69.3385 57.7688 68.5734 57.9346C68.5658 57.9378 68.5594 57.9431 68.5548 57.9499C68.5503 57.9567 68.5479 57.9647 68.5479 57.9729C68.5479 57.9811 68.5503 57.989 68.5548 57.9959C68.5594 58.0027 68.5658 58.008 68.5734 58.0111C68.8089 58.0343 69.0316 58.1298 69.2108 58.2845C69.39 58.4391 69.517 58.6454 69.5744 58.8751C69.6686 59.2604 69.7199 59.6549 69.7274 60.0514C69.7274 60.1789 69.9537 60.2044 69.9665 60.0514V60.0195C70.6487 58.5467 70.3809 55.9389 68.8284 55.0941Z" fill="#263238"/>
<path d="M93.3626 86.3293C94.166 84.2061 112.87 88.0476 112.124 91.3057C109.385 103.229 101.753 113.88 99.8246 116.315C97.2934 119.503 92.2564 118.796 90.4201 116.864C87.7582 114.065 92.5625 88.4302 93.3626 86.3293Z" fill="#D3766A"/>
<path d="M92.0459 92.1815C91.6298 93.324 91.3005 94.4962 91.0608 95.6883C90.7898 96.8678 90.5539 98.0505 90.3594 99.246C89.983 101.657 89.77 104.091 89.7218 106.531C89.6868 107.895 89.7218 109.259 89.7059 110.621C89.7059 110.627 89.7086 110.634 89.7133 110.639C89.7181 110.644 89.7246 110.646 89.7314 110.646C89.7382 110.646 89.7446 110.644 89.7494 110.639C89.7542 110.634 89.7569 110.627 89.7569 110.621C89.7569 109.409 89.8302 108.195 89.929 106.99C90.0279 105.785 90.149 104.557 90.3052 103.346C90.624 100.974 90.9428 98.6021 91.3732 96.2462C91.4922 95.5873 91.6165 94.9285 91.7462 94.2696C91.8833 93.5874 92.0395 92.9084 92.1256 92.2134C92.1447 92.1656 92.0682 92.1209 92.0459 92.1815Z" fill="#263238"/>
<path d="M88.8522 52.7237C88.7271 54.3473 88.482 55.9595 88.119 57.547C88.0584 57.818 87.9915 58.0954 87.9245 58.3695C87.6568 59.4598 87.338 60.5565 86.9682 61.6117C86.8831 61.8667 86.7939 62.1186 86.7004 62.3672C85.5686 65.4245 84.0735 68.0546 82.3902 69.1704C81.9576 69.4568 81.4986 69.7013 81.0194 69.9004C79.0537 68.7575 77.3469 67.2186 76.0073 65.3812C74.6677 63.5439 73.7245 61.4482 73.2376 59.2271C73.0164 58.2242 72.8894 57.2028 72.8582 56.1762L72.3481 56.036C72.4278 55.9116 72.5107 55.7841 72.5904 55.6502C72.6701 55.5163 72.769 55.3473 72.855 55.1879C72.9828 51.0835 74.6407 47.1753 77.5031 44.2309C81.5104 43.1534 86.3082 44.6932 88.3262 48.2095C88.8395 49.083 88.9893 50.7216 88.8522 52.7237Z" fill="#D3766A"/>
<path d="M80.4676 55.82C80.1278 55.8375 79.7872 55.8375 79.4474 55.82C79.089 55.8679 78.7248 55.7962 78.4113 55.616C78.3217 55.5394 78.2604 55.4349 78.2373 55.3192C78.2141 55.2036 78.2305 55.0836 78.2838 54.9784C78.5261 54.548 79.0075 54.4364 79.4793 54.4237C79.9531 54.3965 80.4201 54.5465 80.7896 54.8445C80.8719 54.9167 80.9312 55.0116 80.96 55.1173C80.9889 55.223 80.9859 55.3348 80.9516 55.4388C80.9172 55.5429 80.853 55.6345 80.767 55.7023C80.6809 55.7701 80.5768 55.811 80.4676 55.82Z" fill="#263238"/>
<path d="M80.1475 57.4553C80.1475 57.4234 80.0837 57.4776 80.0774 57.5095C79.9498 58.2714 79.6789 59.1226 78.9456 59.2374C78.9201 59.2374 78.9169 59.2788 78.9456 59.2788C79.8032 59.3298 80.1475 58.1949 80.1475 57.4553Z" fill="#263238"/>
<path d="M79.6348 56.531C78.4361 56.2122 77.8559 58.6191 78.9653 58.9283C80.0747 59.2376 80.639 56.8115 79.6348 56.531Z" fill="#263238"/>
<path d="M84.5121 58.391C84.5121 58.3655 84.5599 58.442 84.5535 58.4707C84.3495 59.2166 84.2348 60.1029 84.8723 60.5141C84.8915 60.5141 84.8723 60.5651 84.8723 60.5556C84.0435 60.24 84.1997 59.0636 84.5121 58.391Z" fill="#263238"/>
<path d="M85.3691 57.7683C86.5965 57.966 86.1119 60.408 84.9738 60.2231C83.8357 60.0382 84.3394 57.5898 85.3691 57.7683Z" fill="#263238"/>
<path d="M86.6136 56.5626C86.3044 56.4198 86.0032 56.2601 85.7114 56.0845C85.3697 55.959 85.0785 55.7249 84.8825 55.4182C84.8402 55.3098 84.8347 55.1905 84.867 55.0787C84.8992 54.9669 84.9674 54.8688 85.0611 54.7997C85.4819 54.5287 85.9601 54.6562 86.3841 54.8635C86.8129 55.0649 87.1532 55.4165 87.3405 55.8517C87.3758 55.9524 87.3816 56.0612 87.3574 56.1651C87.3331 56.269 87.2796 56.3639 87.2033 56.4385C87.127 56.5132 87.031 56.5645 86.9265 56.5865C86.8221 56.6085 86.7135 56.6002 86.6136 56.5626Z" fill="#263238"/>
<path d="M77.6419 63.9661C77.779 64.1861 77.9002 64.4698 78.1648 64.5591C78.4465 64.6181 78.7374 64.6181 79.0191 64.5591C79.0248 64.5589 79.0303 64.5604 79.0351 64.5633C79.0399 64.5663 79.0437 64.5705 79.0461 64.5756C79.0485 64.5807 79.0493 64.5864 79.0485 64.592C79.0476 64.5975 79.0452 64.6027 79.0415 64.6069C78.8986 64.7278 78.7259 64.8081 78.5414 64.8395C78.357 64.8709 78.1674 64.8523 77.9926 64.7854C77.8485 64.7091 77.7304 64.5917 77.6532 64.4481C77.576 64.3045 77.5432 64.1412 77.5591 63.9789C77.5591 63.9247 77.6196 63.9215 77.6419 63.9661Z" fill="#263238"/>
<path d="M78.9689 61.8973C79.0868 62.24 79.2751 62.5543 79.5216 62.82C79.7681 63.0857 80.0674 63.297 80.4003 63.4402C80.6888 63.5719 80.9948 63.6611 81.3089 63.7048C81.3686 63.7174 81.4295 63.7238 81.4906 63.724C81.5468 63.7276 81.6033 63.7276 81.6595 63.724C81.701 63.7246 81.7417 63.7124 81.7759 63.689C81.8102 63.6656 81.8363 63.6321 81.8508 63.5933C81.8539 63.5668 81.8539 63.5401 81.8508 63.5136L81.8668 63.4498C82.0198 62.876 82.1856 61.9834 82.1856 61.9834C82.3737 62.1396 83.3332 62.8824 83.3874 62.5763C83.8369 60.0419 84.3438 57.2237 84.2482 54.6064C84.2447 54.59 84.2357 54.5752 84.2226 54.5646C84.2095 54.554 84.1933 54.5483 84.1764 54.5483C84.1596 54.5483 84.1433 54.554 84.1303 54.5646C84.1172 54.5752 84.1082 54.59 84.1047 54.6064C83.5787 57.0261 83.4671 59.5191 82.9889 61.9578C82.6486 61.6875 82.2719 61.4664 81.87 61.3011C81.7807 61.3011 81.6022 63.0322 81.5129 63.284V63.3095C80.5151 63.2011 79.852 62.7325 79.0677 61.8558C79.0072 61.7889 78.937 61.8271 78.9689 61.8973Z" fill="#263238"/>
<path d="M81.0378 63.3273C80.6208 63.6591 80.1258 63.8786 79.6 63.9649C79.311 64.0045 79.0169 63.9532 78.7584 63.8182C78.1973 63.5185 78.3152 62.9638 78.5384 62.5207C78.6587 62.2852 78.8063 62.0648 78.9783 61.864C79.49 62.5601 80.2121 63.0731 81.0378 63.3273Z" fill="#263238"/>
<path d="M79.6 63.9656C79.311 64.0052 79.0169 63.954 78.7584 63.819C78.1973 63.5193 78.3152 62.9646 78.5384 62.5215C79.1632 62.7542 79.6956 63.328 79.6 63.9656Z" fill="#FF97B8"/>
<path d="M89.3549 52.5425C89.1859 52.6127 89.0169 52.6732 88.8511 52.7242C84.286 54.1397 79.8451 49.0453 79.8451 49.0453C79.3059 49.8787 78.5116 50.5152 77.5808 50.86C76.65 51.2047 75.6326 51.2391 74.6807 50.9581C74.1856 52.4169 73.5792 53.8355 72.8667 55.2013C72.9944 51.0969 74.6523 47.1886 77.5147 44.2443C78.447 43.2821 79.4941 42.4384 80.6326 41.7321C82.0875 42.2381 83.5036 42.8497 84.8694 43.562C85.4345 42.7534 86.1814 42.0884 87.0499 41.6206C87.2592 41.5026 87.4903 41.4284 87.7291 41.4024C87.9679 41.3764 88.2095 41.3991 88.4393 41.4691C88.669 41.5391 88.8822 41.6551 89.0659 41.8099C89.2496 41.9647 89.3999 42.1551 89.5079 42.3697C89.0478 42.817 88.6937 43.3617 88.4718 43.9637C87.713 45.9466 89.3899 46.2941 89.7629 44.4292C89.9277 43.7354 89.8371 43.0055 89.5079 42.3729C90.5886 41.3305 92.0232 41.2157 92.6958 42.0541C93.9487 43.5397 93.292 50.8943 89.3549 52.5425Z" fill="#263238"/>
<path d="M80.8406 55.604C80.31 55.1618 79.6522 54.9005 78.9629 54.858C78.7555 54.8445 78.5472 54.852 78.3412 54.8803C77.8245 54.9471 77.3314 55.1368 76.9032 55.4336C76.4749 55.7303 76.1241 56.1255 75.8801 56.5858C75.8096 56.7146 75.7499 56.8489 75.7016 56.9875C75.5909 57.282 75.5253 57.5916 75.5071 57.9057C75.4626 58.6291 75.6599 59.3468 76.0679 59.9458C76.4759 60.5449 77.0716 60.9913 77.761 61.2148C78.0198 61.2961 78.2874 61.3464 78.558 61.3646H78.7621C79.5423 61.3628 80.2962 61.0819 80.8873 60.5726C81.4785 60.0633 81.8679 59.3593 81.9851 58.5879C81.9851 58.4954 82.0074 58.403 82.0138 58.3073C82.0202 58.2117 82.0138 58.1671 82.0138 58.1001C82.0133 57.6235 81.908 57.1527 81.7053 56.7214C81.5025 56.29 81.2073 55.9085 80.8406 55.604ZM78.5835 60.9278C77.8365 60.8803 77.1388 60.5385 76.6434 59.9773C76.148 59.4162 75.8953 58.6815 75.9407 57.9344C75.9818 57.3098 76.2282 56.7164 76.6416 56.2464C77.0551 55.7765 77.6123 55.4565 78.2265 55.3362C78.4605 55.2908 78.6995 55.2758 78.9374 55.2915C79.1714 55.3068 79.4027 55.3507 79.626 55.4222C79.9106 55.5137 80.1786 55.6504 80.4198 55.8271C80.8048 56.1064 81.113 56.4785 81.3159 56.9087C81.5187 57.339 81.6097 57.8135 81.5802 58.2882C81.5319 59.0353 81.1892 59.7326 80.6275 60.2275C80.0657 60.7223 79.3307 60.9741 78.5835 60.9278Z" fill="#0077F9"/>
<path d="M88.1819 57.6841L88.1245 57.547C87.9292 57.0988 87.5936 56.7262 87.1681 56.4854C87.0307 56.409 86.8839 56.3511 86.7313 56.3132C86.5092 56.2592 86.2791 56.2462 86.0523 56.275C85.59 56.3396 85.1568 56.538 84.8058 56.8456C84.5422 57.0702 84.3143 57.3335 84.1299 57.6267C83.9894 57.8439 83.8709 58.0746 83.7761 58.3153C83.7111 58.4705 83.6578 58.6303 83.6167 58.7935C83.6052 58.8259 83.5957 58.8589 83.588 58.8923C83.4009 59.6181 83.4241 60.3821 83.6549 61.0952C83.7494 61.4249 83.9159 61.7296 84.1425 61.987C84.3691 62.2445 84.6501 62.4484 84.9652 62.584C85.0321 62.6095 85.0991 62.6286 85.1692 62.6477C85.4332 62.7077 85.7065 62.7143 85.9731 62.6672C86.2397 62.6201 86.4942 62.5203 86.7218 62.3736C87.5337 61.8429 88.1058 61.0157 88.3157 60.0687C88.5221 59.2794 88.4753 58.4453 88.1819 57.6841ZM87.8631 59.9571C87.718 60.5789 87.4087 61.1503 86.9672 61.6116C86.7594 61.8539 86.4916 62.0373 86.1906 62.1436C85.8896 62.2499 85.566 62.2753 85.2521 62.2174C84.181 61.9528 83.6231 60.5086 83.9992 58.9975C84.1601 58.295 84.5355 57.6599 85.0736 57.1804C85.2761 56.9888 85.5217 56.8486 85.7896 56.7715C86.0575 56.6944 86.34 56.6827 86.6134 56.7373C86.6664 56.7498 86.7186 56.7658 86.7696 56.7851C87.0004 56.8835 87.2081 57.029 87.3794 57.2124C87.5507 57.3958 87.6817 57.6129 87.7642 57.8499C87.8324 58.0176 87.8836 58.1916 87.9172 58.3695C88.0191 58.8954 88.0049 59.4372 87.8758 59.9571H87.8631Z" fill="#0077F9"/>
<path d="M81.831 58.6588L81.6206 58.2762C82.1881 57.9574 83.4154 57.6386 84.0339 58.6301L83.6545 58.8628C83.1126 57.9733 81.8852 58.6301 81.831 58.6588Z" fill="#0077F9"/>
<path d="M76.1163 56.6562L75.9919 57.0739L75.7018 56.9878C74.9845 56.7774 73.9261 56.4713 72.8709 56.178L72.3608 56.0378C72.4405 55.9134 72.5234 55.7859 72.6031 55.652L72.8614 55.7254C74.1365 56.076 75.3703 56.4363 75.8803 56.5861L76.1163 56.6562Z" fill="#0077F9"/>
<g opacity="0.3">
<path d="M92.8394 71.7471C88.5815 72.6844 84.1256 71.8921 80.4519 69.5444C76.7781 67.1966 74.1873 63.4857 73.2494 59.2279C72.7848 57.1194 72.7401 54.94 73.1178 52.8142C73.4955 50.6884 74.2883 48.6578 75.4508 46.8383C76.6133 45.0189 78.1228 43.4463 79.8932 42.2103C81.6635 40.9743 83.66 40.0991 85.7685 39.6347C87.8781 39.1707 90.0585 39.127 92.185 39.5059C94.3115 39.8848 96.3426 40.679 98.1621 41.8431C99.9816 43.0071 101.554 44.5183 102.789 46.2902C104.025 48.062 104.899 50.06 105.362 52.1698C106.294 56.4262 105.499 60.8788 103.151 64.5495C100.804 68.2202 97.0947 70.8089 92.8394 71.7471Z" fill="white"/>
<path d="M74.8789 63.5844C76.587 66.7053 79.2614 69.1879 82.5006 70.6595C85.7397 72.1311 89.3689 72.5121 92.8431 71.7455C94.3172 71.4229 95.7397 70.8983 97.0703 70.1866L74.8789 63.5844Z" fill="#EBEBEB"/>
<path d="M75.3662 46.999L105.76 56.0432C105.787 54.7373 105.658 53.4328 105.378 52.1571C105.058 50.694 104.538 49.2821 103.832 47.9617L81.3915 41.283C78.9264 42.6405 76.8517 44.6089 75.3662 46.999Z" fill="#EBEBEB"/>
<path d="M72.9785 57.607L101.928 66.2145C102.617 65.3852 103.225 64.4917 103.742 63.5461L72.9148 54.3712C72.8257 55.4491 72.847 56.5334 72.9785 57.607Z" fill="#EBEBEB"/>
<path d="M74.2949 48.9825L105.537 58.285C105.569 58.0874 105.601 57.8897 105.623 57.6921L74.5468 48.447C74.4607 48.6223 74.3714 48.8008 74.2949 48.9825Z" fill="#EBEBEB"/>
<path d="M86.5815 39.4763L100.449 43.6207C100.089 43.3019 99.7096 42.9831 99.3175 42.6643L88.0384 39.3105C87.5539 39.3328 87.0693 39.3934 86.5815 39.4763Z" fill="#EBEBEB"/>
</g>
<path d="M95.082 92.0685L99.3037 91.1387L95.2151 72.5738L90.9934 73.5035L95.082 92.0685Z" fill="#EBEBEB"/>
<path d="M107.157 51.7601C106.112 47.0267 103.231 42.9017 99.1462 40.2917C95.0615 37.6818 90.1077 36.8005 85.3735 37.8414C83.0291 38.3575 80.8093 39.3304 78.841 40.7045C76.8727 42.0787 75.1943 43.8271 73.9018 45.8499C72.6093 47.8727 71.728 50.1304 71.3081 52.4939C70.8882 54.8574 70.9381 57.2805 71.4548 59.6248C72.4993 64.3569 75.3807 68.4803 79.4652 71.0881C83.5497 73.6959 88.5027 74.5745 93.235 73.5307C97.9667 72.4874 102.091 69.6084 104.701 65.5264C107.312 61.4443 108.195 56.493 107.157 51.7601ZM92.8397 71.7518C88.581 72.6882 84.1247 71.8952 80.4506 69.547C76.7764 67.1988 74.1852 63.4877 73.2465 59.2295C72.309 54.9703 73.1016 50.5132 75.4499 46.8383C77.7982 43.1635 81.5099 40.5717 85.7688 39.633C87.8786 39.1696 90.059 39.1263 92.1856 39.5056C94.3121 39.8849 96.3431 40.6794 98.1625 41.8437C99.982 43.008 101.554 44.5193 102.79 46.2914C104.025 48.0634 104.899 50.0614 105.362 52.1713C106.295 56.4281 105.5 60.8811 103.152 64.5523C100.804 68.2236 97.0952 70.8129 92.8397 71.7518Z" fill="#455A64"/>
<path d="M96.844 105.138L103.229 103.732L99.6047 87.2756L93.2192 88.6815L96.844 105.138Z" fill="#263238"/>
<path d="M99.6261 53.5387C99.6261 53.5196 99.6261 53.4973 99.6261 53.4781C99.5496 53.2072 99.709 53.7459 99.6516 53.5642C99.5943 53.3825 99.5114 53.137 99.4317 52.9266C99.1521 52.1873 98.8108 51.4728 98.4115 50.7907C98.3573 50.6951 98.2968 50.6026 98.2426 50.507C98.2234 50.4751 98.3828 50.7269 98.2426 50.5261L98.1342 50.3539C97.9875 50.134 97.8377 49.9204 97.6815 49.7163C97.336 49.2499 96.9601 48.8069 96.5561 48.3902C96.4605 48.2913 96.3617 48.1925 96.2628 48.0969C96.164 48.0012 96.419 48.2371 96.2341 48.0682L96.046 47.9024C95.8101 47.692 95.5647 47.4911 95.3096 47.3031C95.0546 47.115 94.7517 46.9014 94.4616 46.7197L94.0568 46.4774C93.8209 46.3435 94.1588 46.5284 93.9834 46.4391L93.7316 46.3084C92.9699 45.9347 92.1733 45.6368 91.3534 45.419C91.3374 45.419 91.1876 45.3775 91.3119 45.419C91.4363 45.4604 91.245 45.419 91.2227 45.3999C91.1015 45.3743 90.9772 45.3457 90.8529 45.3233C90.6169 45.2755 90.3778 45.2341 90.1388 45.199C89.6324 45.1267 89.1228 45.0799 88.6117 45.0587C88.3264 45.0228 88.0665 44.8765 87.8878 44.6513C87.709 44.426 87.6256 44.1397 87.6553 43.8537C87.6936 43.57 87.84 43.3121 88.064 43.1339C88.288 42.9556 88.5722 42.8709 88.8572 42.8973C92.1118 42.9953 95.2252 44.2486 97.64 46.4327C99.2437 47.9345 100.498 49.7706 101.313 51.8108C101.499 52.2662 101.653 52.7338 101.775 53.2104C101.819 53.4952 101.748 53.7859 101.579 54.0189C101.409 54.2518 101.154 54.4082 100.869 54.4537C100.586 54.4903 100.299 54.4168 100.068 54.2484C99.8364 54.0801 99.6784 53.8295 99.6261 53.5483V53.5387Z" fill="white"/>
<path d="M100.076 56.7427C100.098 56.8812 100.147 57.0142 100.22 57.1339C100.293 57.2536 100.389 57.3577 100.503 57.4403C100.616 57.5229 100.745 57.5823 100.881 57.6153C101.017 57.6482 101.159 57.6539 101.297 57.6321C101.436 57.6107 101.57 57.5621 101.69 57.4892C101.81 57.4162 101.914 57.3203 101.997 57.2068C102.08 57.0934 102.14 56.9647 102.173 56.8282C102.206 56.6916 102.212 56.5499 102.19 56.4111C102.168 56.2721 102.119 56.1387 102.046 56.0186C101.973 55.8986 101.877 55.7941 101.763 55.7112C101.649 55.6283 101.52 55.5686 101.384 55.5355C101.247 55.5025 101.105 55.4967 100.966 55.5185C100.686 55.5631 100.435 55.7171 100.268 55.9466C100.101 56.1761 100.032 56.4624 100.076 56.7427Z" fill="white"/>
<path d="M110.867 95.0325C110.867 95.0325 115.433 87.5281 109.748 80.3679C107.408 77.4222 101.887 72.1366 90.6812 72.8762C88.0257 73.0483 84.3627 75.1843 88.8067 76.4754C91.9628 77.3903 94.2263 77.0173 95.9796 77.8877C95.9796 77.8877 91.644 81.1521 91.9245 83.8077C92.0489 84.9968 92.1413 87.5887 92.8236 90.0561C92.8236 90.0561 93.7257 90.6937 94.4558 90.5821C94.4558 90.5821 96.4228 96.2567 103.497 98.0037L110.867 95.0325Z" fill="#D3766A"/>
<path d="M107.348 79.4036C105.518 78.6736 101.61 77.1912 97.9916 77.0923C93.9716 76.9808 86.1961 77.8511 86.1483 80.8191C86.1101 82.9933 89.1067 82.9231 89.1067 82.9231C89.1067 82.9231 85.9698 83.9592 86.3651 85.9326C86.7285 87.7306 89.043 87.5265 89.043 87.5265C89.043 87.5265 87.2482 88.4829 87.9272 90.1471C88.7465 92.1523 92.3903 89.8283 94.9567 91.129C95.5369 91.435 107.348 79.4036 107.348 79.4036Z" fill="#D3766A"/>
<path d="M98.5807 81.3573C96.7477 80.9524 92.3419 81.1054 89.1476 82.8492C89.0774 82.8907 89.0679 82.9672 89.1476 82.9449C92.2196 82.0474 95.3894 81.5271 98.5871 81.3955C98.6031 81.3955 98.6031 81.3637 98.5807 81.3573Z" fill="#263238"/>
<path d="M98.3515 85.4129C96.732 85.228 92.2019 85.5851 89.0235 87.466C88.9534 87.5074 88.9502 87.5839 89.0235 87.5584C92.0429 86.5045 95.1723 85.7975 98.3515 85.4512C98.3738 85.448 98.3738 85.4129 98.3515 85.4129Z" fill="#263238"/>
<path d="M104.878 98.4908C104.07 98.3067 103.276 98.0638 102.503 97.764C101.717 97.4749 100.953 97.1287 100.217 96.7279C98.7355 95.9259 97.4243 94.8431 96.3565 93.5399C96.0377 93.1414 95.7189 92.727 95.4416 92.3062C95.1642 91.8854 94.8582 91.4008 94.5298 90.9768C94.5043 90.9481 94.4437 90.9768 94.4597 91.0087C94.8314 91.893 95.2873 92.7396 95.8209 93.5367C96.3012 94.2803 96.8731 94.9604 97.5233 95.5611C98.8091 96.7058 100.334 97.5498 101.986 98.0318C102.925 98.2944 103.885 98.4694 104.856 98.5546C104.903 98.5641 104.923 98.5004 104.878 98.4908Z" fill="#263238"/>
<path d="M58.3424 74.486C50.1302 85.5163 36.4252 114.256 34.4104 118.48C33.0428 121.349 48.0358 128.908 48.6702 126.823C49.4863 124.151 62.8917 88.886 64.7662 76.0257C65.8023 68.9676 61.1829 70.6604 58.3424 74.486Z" fill="#D3766A"/>
<path d="M49.0753 125.369C48.7278 127.97 46.9617 133.205 45.645 134.002C44.3284 134.799 37.4328 134.639 33.9548 134.639C30.4767 134.639 29.7913 133.683 29.8487 132.475C29.906 131.266 37.2033 131.046 37.2033 131.046C37.2033 131.046 27.4577 133.842 25.0062 134.298C22.5546 134.754 16.9087 136.179 16.0799 134.145C15.7132 133.23 17.2594 132.302 17.2594 132.302C17.2594 132.302 14.8875 132.994 14.5114 131.815C14.0842 130.476 15.9651 129.736 15.9651 129.736C15.9651 129.736 14.4859 130.036 14.4508 128.942C14.3743 126.5 23.6449 125.299 23.6449 125.299C23.6449 125.299 16.5485 128.754 16.3126 126.762C15.9938 124.004 30.5437 120.979 32.0579 119.777C33.1586 118.857 34.1881 117.855 35.1375 116.78L49.0753 125.369Z" fill="#D3766A"/>
<path d="M29.903 133.07C29.8776 132.901 29.8933 132.728 29.9488 132.566C30.0042 132.404 30.0979 132.257 30.2218 132.139C30.4712 131.909 30.758 131.724 31.0697 131.591C31.7129 131.317 32.3799 131.104 33.0622 130.953C34.4331 130.606 35.839 130.357 37.2385 129.997C35.7924 129.974 34.3493 130.135 32.9443 130.478C32.2281 130.644 31.5383 130.908 30.8944 131.262C30.5619 131.448 30.2702 131.698 30.0369 131.999C29.9252 132.151 29.8543 132.33 29.8308 132.517C29.8074 132.704 29.8322 132.895 29.903 133.07Z" fill="#263238"/>
<path d="M17.2681 132.294C18.2691 132.049 19.2573 131.765 20.2456 131.481C21.2339 131.198 22.2126 130.895 23.1945 130.598L26.1306 129.677C27.1093 129.358 28.088 129.065 29.0763 128.772C28.0503 128.884 27.0332 129.067 26.0318 129.317C25.0244 129.543 24.0361 129.833 23.051 130.133C22.066 130.433 21.0904 130.77 20.1277 131.124C19.1649 131.478 18.2053 131.87 17.2681 132.294Z" fill="#263238"/>
<path d="M26.7244 126.334C25.7791 126.397 24.8394 126.527 23.9126 126.723C22.9839 126.911 22.0655 127.147 21.1614 127.431C20.2562 127.712 19.3675 128.045 18.4995 128.425C17.6285 128.8 16.7848 129.234 15.9746 129.726C16.8736 129.407 17.7439 129.089 18.6366 128.77C19.5292 128.451 20.4122 128.164 21.3081 127.893C22.2039 127.622 23.0997 127.345 24.0019 127.08C24.9041 126.816 25.8095 126.583 26.7244 126.334Z" fill="#263238"/>
<path d="M25.2897 124.009C23.7664 124.13 22.2657 124.451 20.8266 124.966C19.3719 125.444 17.9877 126.115 16.7109 126.961C18.1519 126.448 19.5514 125.906 20.9828 125.428C22.4142 124.95 23.836 124.475 25.2897 124.009Z" fill="#263238"/>
<path d="M61.8335 93.3775L45.1924 92.9184C45.1924 92.9184 54.2526 78.4801 59.1206 73.1881C64.1926 67.6697 66.9534 68.1479 65.2192 77.919C63.4785 87.7507 61.8335 93.3775 61.8335 93.3775Z" fill="#0077F9"/>
<path d="M51.5363 90.4725C51.0872 90.6688 50.6668 90.9251 50.2866 91.2344C50.7729 91.1637 51.2464 91.023 51.6925 90.8168C52.1432 90.625 52.5641 90.3695 52.9422 90.0581C52.4561 90.1278 51.9825 90.2674 51.5363 90.4725ZM60.8292 79.9044C60.637 79.4532 60.3804 79.0323 60.0673 78.6547C60.1387 79.1395 60.2783 79.6117 60.4817 80.0574C60.6763 80.5081 60.9339 80.9289 61.2468 81.3071C61.1767 80.8217 61.036 80.3491 60.8292 79.9044ZM53.1558 83.0414C52.974 83.4966 52.8581 83.9753 52.8115 84.4632C53.1039 84.0737 53.339 83.6442 53.5097 83.188C53.6915 82.7331 53.8064 82.2541 53.8508 81.7662C53.5585 82.1542 53.3244 82.5827 53.1558 83.0382V83.0414ZM60.4881 89.5576C60.3048 90.0132 60.1899 90.4934 60.147 90.9826C60.4365 90.5917 60.6704 90.1626 60.842 89.7074C61.0219 89.2517 61.1378 88.7731 61.1863 88.2856C60.8927 88.6731 60.6555 89.1003 60.4817 89.5544L60.4881 89.5576ZM65.3657 70.6051C65.286 70.7709 65.2127 70.9239 65.1425 71.112C64.9626 71.5678 64.8468 72.0463 64.7982 72.5338C65.0918 72.1445 65.328 71.7151 65.4996 71.2587C65.5155 71.2172 65.5283 71.179 65.541 71.1375C65.4957 70.9542 65.4349 70.775 65.3593 70.6019L65.3657 70.6051Z" fill="white"/>
<path d="M60.7877 90.4829C60.3956 90.4255 59.9907 90.4223 59.5922 90.4032L58.368 90.3394C57.5392 90.2948 56.7103 90.2661 55.8814 90.2406C54.2269 90.1896 52.5723 90.1322 50.9178 90.1099C50.4619 90.1099 50.006 90.1099 49.5501 90.1099C49.0943 90.1099 48.5938 90.1545 48.1156 90.1609C48.0869 90.1609 48.0901 90.2056 48.1156 90.2056C48.5236 90.2311 48.9317 90.2884 49.3429 90.3171C49.7542 90.3458 50.1814 90.3681 50.6022 90.3841C51.431 90.416 52.2588 90.4425 53.0856 90.4638C54.7178 90.502 56.3501 90.5467 57.9791 90.5499H59.3436C59.8218 90.5499 60.3 90.5786 60.7813 90.5499C60.81 90.5244 60.8164 90.4861 60.7877 90.4829Z" fill="#263238"/>
<path d="M65.0593 82.5543C65.0593 82.5224 65.0179 82.5032 65.0051 82.5319C64.6971 83.1008 64.4328 83.6923 64.2145 84.3013C64.2719 84.0112 64.3357 83.7211 64.393 83.4309C64.5748 82.4937 64.7405 81.55 64.9254 80.6128C64.9235 80.6072 64.9198 80.6023 64.915 80.5988C64.9101 80.5954 64.9043 80.5935 64.8983 80.5935C64.8924 80.5935 64.8866 80.5954 64.8817 80.5988C64.8769 80.6023 64.8732 80.6072 64.8712 80.6128C64.4377 82.2259 63.9404 83.8231 63.5578 85.4489C63.1752 87.0748 62.7895 88.7007 62.4325 90.3329C62.2348 91.2319 62.0595 92.3604 61.865 93.2594C61.3836 93.3136 60.7652 93.2595 60.2455 93.3232C60.1977 93.3232 60.2136 93.4029 60.2455 93.4061C60.7938 93.422 61.4442 93.5432 62.0244 93.5081C62.0977 93.5081 63.494 87.7092 64.0743 84.9357C64.4313 84.1419 64.7597 83.3544 65.0593 82.5543Z" fill="#263238"/>
<path d="M76.903 73.5291C76.6735 74.2921 76.4078 75.0424 76.106 75.7798C75.8515 76.4431 75.54 77.0831 75.1751 77.6926C74.4897 78.7797 73.4281 79.6755 72.086 79.6724C70.8108 79.6724 69.6472 78.9327 68.8279 77.9923C67.9352 76.9626 67.3423 75.6715 66.8131 74.4281C66.4943 73.6567 66.1755 72.8756 65.9204 72.0818C65.7866 71.6801 65.6527 71.2784 65.5347 70.8704C65.4168 70.4623 65.3243 70.0511 65.184 69.6494C65.184 69.6175 65.1139 69.6239 65.1235 69.6494C65.3594 70.5707 66.0416 73.475 66.3189 74.2146C66.8226 75.5726 67.3901 76.9721 68.2987 78.1134C69.1594 79.191 70.3294 80.0039 71.7289 80.141C73.1284 80.2781 74.3271 79.5384 75.0954 78.429C75.5507 77.7307 75.9059 76.972 76.1506 76.1751C76.4439 75.2985 76.6926 74.4058 76.9221 73.51C76.9253 73.5291 76.9062 73.5291 76.903 73.5291Z" fill="#263238"/>
<path d="M129.134 135.413H106.273L105.25 115.319H129.134V135.413Z" fill="#DBDBDB"/>
<path d="M129.134 115.32L137.343 105.036L143.882 115.32L142.862 135.414H129.134V115.32Z" fill="#C7C7C7"/>
<path d="M113.234 101.774H137.637L146.436 116.13H143.602L137.637 106.189L130.751 117.319H103.239L113.234 101.774Z" fill="#A6A6A6"/>
<path d="M116.061 106.317H110.813L108.014 109.67H114.071L116.061 106.317Z" fill="#C7C7C7"/>
<path d="M112.082 109.093V113.176H109.162V109.093L110.622 107.269L112.082 109.093Z" fill="#DBDBDB"/>
<path d="M112.083 109.095H114.381L112.083 113.179V109.095Z" fill="#C7C7C7"/>
<path d="M111.378 109.158H109.717V111.96H111.378V109.158Z" fill="#FBFAFF"/>
<path d="M110.455 109.35H109.919V110.253H110.455V109.35Z" fill="#EBEBEB"/>
<path d="M111.174 109.35H110.638V110.253H111.174V109.35Z" fill="#EBEBEB"/>
<path d="M110.455 110.42H109.919V111.756H110.455V110.42Z" fill="#EBEBEB"/>
<path d="M111.174 110.42H110.638V111.756H111.174V110.42Z" fill="#EBEBEB"/>
<path d="M128.923 106.317H123.676L121.049 109.671H126.921L128.923 106.317Z" fill="#C7C7C7"/>
<path d="M124.933 109.093V113.176H122.013V109.093L123.473 107.269L124.933 109.093Z" fill="#DBDBDB"/>
<path d="M124.933 109.095H127.228L124.933 113.179V109.095Z" fill="#C7C7C7"/>
<path d="M124.225 109.158H122.564V111.96H124.225V109.158Z" fill="#FBFAFF"/>
<path d="M123.304 109.35H122.769V110.253H123.304V109.35Z" fill="#EBEBEB"/>
<path d="M124.021 109.35H123.485V110.253H124.021V109.35Z" fill="#EBEBEB"/>
<path d="M123.304 110.42H122.769V111.756H123.304V110.42Z" fill="#EBEBEB"/>
<path d="M124.021 110.42H123.485V111.756H124.021V110.42Z" fill="#EBEBEB"/>
<path d="M133.257 101.19H130.336V105.035H133.257V101.19Z" fill="#DBDBDB"/>
<path d="M133.256 101.19H135.555V101.808L133.256 105.035V101.19Z" fill="#C7C7C7"/>
<path d="M133.259 99.8835H130.01V101.191H133.259V99.8835Z" fill="#C7C7C7"/>
<path d="M135.804 99.8834H133.256V101.191H135.804V99.8834Z" fill="#A6A6A6"/>
<path d="M112.305 118.961H108.69V125.065H112.305V118.961Z" fill="#FBFAFF"/>
<path d="M110.297 119.385H109.133V121.352H110.297V119.385Z" fill="#EBEBEB"/>
<path d="M111.86 119.385H110.696V121.352H111.86V119.385Z" fill="#EBEBEB"/>
<path d="M110.297 121.71H109.133V124.623H110.297V121.71Z" fill="#EBEBEB"/>
<path d="M111.86 121.71H110.696V124.623H111.86V121.71Z" fill="#EBEBEB"/>
<path d="M125.733 118.96H122.118V125.065H125.733V118.96Z" fill="#FBFAFF"/>
<path d="M123.725 119.385H122.562V121.352H123.725V119.385Z" fill="#EBEBEB"/>
<path d="M125.287 119.385H124.124V121.352H125.287V119.385Z" fill="#EBEBEB"/>
<path d="M123.725 121.71H122.562V124.623H123.725V121.71Z" fill="#EBEBEB"/>
<path d="M125.287 121.71H124.124V124.623H125.287V121.71Z" fill="#EBEBEB"/>
<path d="M112.305 127.443H108.69V133.548H112.305V127.443Z" fill="#FBFAFF"/>
<path d="M110.297 127.869H109.133V129.836H110.297V127.869Z" fill="#EBEBEB"/>
<path d="M111.86 127.869H110.696V129.836H111.86V127.869Z" fill="#EBEBEB"/>
<path d="M110.297 130.192H109.133V133.106H110.297V130.192Z" fill="#EBEBEB"/>
<path d="M111.86 130.192H110.696V133.106H111.86V130.192Z" fill="#EBEBEB"/>
<path d="M125.733 127.443H122.118V133.548H125.733V127.443Z" fill="#FBFAFF"/>
<path d="M123.725 127.869H122.562V129.836H123.725V127.869Z" fill="#EBEBEB"/>
<path d="M125.287 127.869H124.124V129.836H125.287V127.869Z" fill="#EBEBEB"/>
<path d="M123.725 130.192H122.562V133.106H123.725V130.192Z" fill="#EBEBEB"/>
<path d="M125.287 130.192H124.124V133.106H125.287V130.192Z" fill="#EBEBEB"/>
<path d="M119 118.96H115.385V125.065H119V118.96Z" fill="#FBFAFF"/>
<path d="M116.992 119.385H115.828V121.352H116.992V119.385Z" fill="#EBEBEB"/>
<path d="M118.554 119.385H117.39V121.352H118.554V119.385Z" fill="#EBEBEB"/>
<path d="M116.992 121.71H115.828V124.623H116.992V121.71Z" fill="#EBEBEB"/>
<path d="M118.554 121.71H117.39V124.623H118.554V121.71Z" fill="#EBEBEB"/>
<path d="M119 127.484H115.385V133.589H119V127.484Z" fill="#FBFAFF"/>
<path d="M116.992 127.91H115.828V129.877H116.992V127.91Z" fill="#EBEBEB"/>
<path d="M118.554 127.91H117.39V129.877H118.554V127.91Z" fill="#EBEBEB"/>
<path d="M116.992 130.233H115.828V133.147H116.992V130.233Z" fill="#EBEBEB"/>
<path d="M118.554 130.233H117.39V133.147H118.554V130.233Z" fill="#EBEBEB"/>
<path d="M135.631 125.065H139.246V118.96H135.631V125.065Z" fill="#FBFAFF"/>
<path d="M138.801 119.385H137.637V121.352H138.801V119.385Z" fill="#EBEBEB"/>
<path d="M137.238 119.385H136.075V121.352H137.238V119.385Z" fill="#EBEBEB"/>
<path d="M138.801 121.71H137.637V124.623H138.801V121.71Z" fill="#EBEBEB"/>
<path d="M137.238 121.71H136.075V124.623H137.238V121.71Z" fill="#EBEBEB"/>
<path d="M135.631 115.632H139.246V110.465H135.631V115.632Z" fill="#FBFAFF"/>
<path d="M138.801 110.885H137.637V112.852H138.801V110.885Z" fill="#EBEBEB"/>
<path d="M137.238 110.885H136.075V112.852H137.238V110.885Z" fill="#EBEBEB"/>
<path d="M138.801 113.229H137.637V115.196H138.801V113.229Z" fill="#EBEBEB"/>
<path d="M137.238 113.229H136.075V115.196H137.238V113.229Z" fill="#EBEBEB"/>
<path d="M135.109 135.453L139.492 135.474L139.53 127.514L135.146 127.493L135.109 135.453Z" fill="#FBFAFF"/>
<path d="M136.873 128.037L136.868 129.23L137.811 129.234L137.817 128.042L136.873 128.037Z" fill="#EBEBEB"/>
<path d="M135.636 128.031L135.631 129.223L136.574 129.227L136.58 128.035L135.636 128.031Z" fill="#EBEBEB"/>
<path d="M136.314 133.554L138.306 133.563L138.308 133.276L136.315 133.267L136.314 133.554Z" fill="#EBEBEB"/>
<path d="M138.425 126.44V127.632H139.369V126.44H138.425Z" fill="#EBEBEB"/>
<path d="M136.867 129.548L136.861 130.741L137.805 130.745L137.811 129.553L136.867 129.548Z" fill="#EBEBEB"/>
<path d="M135.634 129.53L135.628 130.722L136.572 130.726L136.578 129.534L135.634 129.53Z" fill="#EBEBEB"/>
<path d="M138.107 129.553L138.102 130.746L139.045 130.75L139.051 129.558L138.107 129.553Z" fill="#EBEBEB"/>
<path d="M136.857 131.052L136.852 132.245L137.795 132.249L137.801 131.057L136.857 131.052Z" fill="#EBEBEB"/>
<path d="M135.624 131.049L135.618 132.241L136.562 132.246L136.567 131.053L135.624 131.049Z" fill="#EBEBEB"/>
<path d="M138.097 131.059L138.091 132.251L139.035 132.256L139.041 131.064L138.097 131.059Z" fill="#EBEBEB"/>
<path d="M66.2132 135.472H45.9091L45.0005 125.631H66.2132V135.472Z" fill="#DBDBDB"/>
<path d="M66.21 125.617L73.504 116.484L79.3093 125.617L78.4039 135.459H66.21V125.617Z" fill="#C7C7C7"/>
<path d="M51.9694 113.595H74.0269L82.1977 127.402H79.9693L73.7241 117.009L67.7307 127.402H43.2886L51.9694 113.595Z" fill="#A6A6A6"/>
<path d="M51.3155 129.281H48.1021V133.872H51.3155V129.281Z" fill="#FBFAFF"/>
<path d="M49.5309 129.656H48.498V131.403H49.5309V129.656Z" fill="#DBDBDB"/>
<path d="M50.9186 129.656H49.8857V131.403H50.9186V129.656Z" fill="#DBDBDB"/>
<path d="M49.5309 131.737H48.498V133.484H49.5309V131.737Z" fill="#DBDBDB"/>
<path d="M50.9186 131.737H49.8857V133.484H50.9186V131.737Z" fill="#DBDBDB"/>
<path d="M63.1143 129.281H59.9009V133.872H63.1143V129.281Z" fill="#FBFAFF"/>
<path d="M61.3298 129.656H60.2969V131.403H61.3298V129.656Z" fill="#DBDBDB"/>
<path d="M62.7165 129.656H61.6836V131.403H62.7165V129.656Z" fill="#DBDBDB"/>
<path d="M61.3298 131.737H60.2969V133.484H61.3298V131.737Z" fill="#DBDBDB"/>
<path d="M62.7165 131.737H61.6836V133.484H62.7165V131.737Z" fill="#DBDBDB"/>
<path d="M57.2327 129.036H53.6909V135.469H57.2327V129.036Z" fill="#FBFAFF"/>
<path d="M55.8469 129.477H55.085V130.44H55.8469V129.477Z" fill="#DBDBDB"/>
<path d="M56.844 129.477H56.082V130.44H56.844V129.477Z" fill="#DBDBDB"/>
<path d="M56.2701 133.703H54.6602V133.935H56.2701V133.703Z" fill="#DBDBDB"/>
<path d="M54.8454 129.477H54.0835V130.44H54.8454V129.477Z" fill="#DBDBDB"/>
<path d="M55.8469 130.695H55.085V131.657H55.8469V130.695Z" fill="#DBDBDB"/>
<path d="M56.844 130.695H56.082V131.657H56.844V130.695Z" fill="#DBDBDB"/>
<path d="M54.8454 130.695H54.0835V131.657H54.8454V130.695Z" fill="#DBDBDB"/>
<path d="M55.8469 131.913H55.085V132.875H55.8469V131.913Z" fill="#DBDBDB"/>
<path d="M56.844 131.913H56.082V132.875H56.844V131.913Z" fill="#DBDBDB"/>
<path d="M54.8454 131.913H54.0835V132.875H54.8454V131.913Z" fill="#DBDBDB"/>
<path d="M56.6331 113.043H54.0381V116.458H56.6331V113.043Z" fill="#DBDBDB"/>
<path d="M56.6333 113.043H58.6736V113.592L56.6333 116.458V113.043Z" fill="#C7C7C7"/>
<path d="M56.6336 111.883H53.7485V113.044H56.6336V111.883Z" fill="#C7C7C7"/>
<path d="M58.8968 111.883H56.6333V113.044H58.8968V111.883Z" fill="#A6A6A6"/>
<path d="M74.2437 135.475H80.83L81.4548 128.688H74.2437V135.475Z" fill="#C7C7C7"/>
<path d="M74.2437 128.688L70.9888 127.215L71.0621 135.475H74.2437V128.688Z" fill="#DBDBDB"/>
<path d="M79.2869 130.441H76.5166V135.468H79.2869V130.441Z" fill="#FBFAFF"/>
<path d="M78.2006 130.788H77.6045V131.541H78.2006V130.788Z" fill="#DBDBDB"/>
<path d="M78.9814 130.788H78.3853V131.541H78.9814V130.788Z" fill="#DBDBDB"/>
<path d="M78.5317 133.75H77.2725V133.932H78.5317V133.75Z" fill="#DBDBDB"/>
<path d="M77.4189 130.788H76.8228V131.541H77.4189V130.788Z" fill="#DBDBDB"/>
<path d="M70.4888 126.877H80.059L83.1546 129.23H73.9636L70.4888 126.877Z" fill="#A6A6A6"/>
<path d="M73.9636 129.23H70.4888V126.877L73.9636 129.23Z" fill="#C7C7C7"/>
<path d="M71.9077 123.439C71.9077 123.654 71.9502 123.868 72.0327 124.067C72.1152 124.266 72.2361 124.447 72.3886 124.599C72.541 124.752 72.722 124.873 72.9212 124.955C73.1204 125.038 73.3339 125.08 73.5495 125.08C73.7652 125.081 73.9789 125.039 74.1783 124.956C74.3777 124.874 74.5588 124.753 74.7114 124.6C74.8639 124.448 74.9848 124.267 75.0672 124.067C75.1496 123.868 75.1917 123.654 75.1913 123.439C75.1913 123.223 75.1488 123.01 75.0663 122.811C74.9837 122.612 74.8628 122.431 74.7103 122.279C74.5578 122.127 74.3767 122.006 74.1776 121.924C73.9784 121.842 73.765 121.8 73.5495 121.8C73.1146 121.8 72.6975 121.972 72.3897 122.28C72.0819 122.587 71.9086 123.004 71.9077 123.439Z" fill="#FBFAFF"/>
<path d="M72.2739 123.441C72.2739 123.779 72.4083 124.103 72.6474 124.342C72.8866 124.581 73.2109 124.716 73.5491 124.716C73.6571 124.717 73.7646 124.702 73.8679 124.671C74.0691 124.623 74.2545 124.524 74.4067 124.384C74.5398 124.263 74.6458 124.115 74.7178 123.951C74.7898 123.786 74.8261 123.608 74.8243 123.428C74.8243 123.09 74.69 122.765 74.4508 122.526C74.2117 122.287 73.8873 122.153 73.5491 122.153C73.4412 122.151 73.3338 122.166 73.2303 122.197C73.082 122.233 72.9422 122.298 72.8191 122.388C72.6499 122.507 72.5119 122.664 72.4169 122.847C72.322 123.031 72.2729 123.234 72.2739 123.441Z" fill="#C7C7C7"/>
<path d="M73.3712 124.936H73.7251V121.914H73.3712V124.936Z" fill="#FBFAFF"/>
<path d="M75.0605 123.603V123.249H72.0384V123.603H75.0605Z" fill="#FBFAFF"/>
<path d="M83.6299 135.474H73.3647L72.6665 127.881H83.6299V135.474Z" fill="#0077F9"/>
<path opacity="0.2" d="M83.6299 135.474H73.3647L72.6665 127.881H83.6299V135.474Z" fill="black"/>
<path d="M83.6299 127.881L89.2566 120.839L93.7325 127.881L93.0344 135.475H83.6299V127.881Z" fill="#0077F9"/>
<path d="M84.3051 128.809H70.3833L78.8537 118.158H89.3134L95.6001 128.809H94.0029L89.3134 121.512L84.3051 128.809Z" fill="#0077F9"/>
<path opacity="0.4" d="M84.3051 128.809H70.3833L78.8537 118.158H89.3134L95.6001 128.809H94.0029L89.3134 121.512L84.3051 128.809Z" fill="black"/>
<path d="M98.362 108.737H95.4609V112.556H98.362V108.737Z" fill="#0077F9"/>
<path opacity="0.2" d="M98.362 108.737H95.4609V112.556H98.362V108.737Z" fill="black"/>
<path d="M100.643 108.737H98.3608V112.556H100.643V108.737Z" fill="#0077F9"/>
<path d="M98.361 107.439H95.1348V108.737H98.361V107.439Z" fill="#0077F9"/>
<path opacity="0.5" d="M98.361 107.439H95.1348V108.737H98.361V107.439Z" fill="black"/>
<path d="M100.892 107.439H98.3608V108.737H100.892V107.439Z" fill="#0077F9"/>
<path opacity="0.4" d="M100.892 107.439H98.3608V108.737H100.892V107.439Z" fill="black"/>
<path d="M108.553 135.462H85.8385L84.8247 124.454H108.553V135.462Z" fill="#0077F9"/>
<path opacity="0.2" d="M108.553 135.462H85.8385L84.8247 124.454H108.553V135.462Z" fill="black"/>
<path d="M108.553 124.453L116.714 114.239L123.208 124.453L122.194 135.461H108.553V124.453Z" fill="#0077F9"/>
<path d="M116.616 114.882L123.32 125.256H125.663L116.816 110.996H92.6517L80.4131 126.438H109.924L116.616 114.882Z" fill="#0077F9"/>
<path opacity="0.5" d="M116.616 114.882L123.32 125.256H125.663L116.816 110.996H92.6517L80.4131 126.438H109.924L116.616 114.882Z" fill="black"/>
<path d="M114.59 125.999H118.183V120.863H114.59V125.999Z" fill="#FBFAFF"/>
<path d="M117.744 121.284H116.586V123.238H117.744V121.284Z" fill="#0077F9"/>
<path d="M116.192 121.284H115.035V123.238H116.192V121.284Z" fill="#0077F9"/>
<path d="M117.744 123.612H116.586V125.566H117.744V123.612Z" fill="#0077F9"/>
<path d="M116.192 123.612H115.035V125.566H116.192V123.612Z" fill="#0077F9"/>
<path d="M91.8863 128.542H88.2935V133.677H91.8863V128.542Z" fill="#FBFAFF"/>
<path d="M89.8945 128.959H88.7373V130.913H89.8945V128.959Z" fill="#0077F9"/>
<path d="M91.4429 128.959H90.2856V130.913H91.4429V128.959Z" fill="#0077F9"/>
<path d="M89.8945 131.289H88.7373V133.243H89.8945V131.289Z" fill="#0077F9"/>
<path d="M91.4429 131.289H90.2856V133.243H91.4429V131.289Z" fill="#0077F9"/>
<path d="M98.4849 128.542H94.8921V133.677H98.4849V128.542Z" fill="#FBFAFF"/>
<path d="M96.4932 128.959H95.3359V130.913H96.4932V128.959Z" fill="#0077F9"/>
<path d="M98.0449 128.959H96.8877V130.913H98.0449V128.959Z" fill="#0077F9"/>
<path d="M96.4932 131.289H95.3359V133.243H96.4932V131.289Z" fill="#0077F9"/>
<path d="M98.0449 131.289H96.8877V133.243H98.0449V131.289Z" fill="#0077F9"/>
<path d="M105.085 128.542H101.492V133.677H105.085V128.542Z" fill="#FBFAFF"/>
<path d="M103.092 128.959H101.935V130.913H103.092V128.959Z" fill="#0077F9"/>
<path d="M104.645 128.959H103.488V130.913H104.645V128.959Z" fill="#0077F9"/>
<path d="M103.092 131.289H101.935V133.243H103.092V131.289Z" fill="#0077F9"/>
<path d="M104.645 131.289H103.488V133.243H104.645V131.289Z" fill="#0077F9"/>
<path d="M114.409 135.464H118.372V128.269H114.409V135.464Z" fill="#FBFAFF"/>
<path d="M116.816 128.762H115.962V129.839H116.816V128.762Z" fill="#0077F9"/>
<path d="M115.697 128.761H114.843V129.839H115.697V128.761Z" fill="#0077F9"/>
<path d="M115.487 133.747H117.288V133.486H115.487V133.747Z" fill="#0077F9"/>
<path d="M117.935 128.761H117.081V129.839H117.935V128.761Z" fill="#0077F9"/>
<path d="M116.816 130.121H115.962V131.198H116.816V130.121Z" fill="#0077F9"/>
<path d="M115.697 130.121H114.843V131.198H115.697V130.121Z" fill="#0077F9"/>
<path d="M117.935 130.121H117.081V131.198H117.935V130.121Z" fill="#0077F9"/>
<path d="M116.816 131.485H115.962V132.563H116.816V131.485Z" fill="#0077F9"/>
<path d="M115.697 131.485H114.843V132.563H115.697V131.485Z" fill="#0077F9"/>
<path d="M117.935 131.485H117.081V132.563H117.935V131.485Z" fill="#0077F9"/>
<path d="M102.008 114.695H96.7924L94.1113 118.027H100.015L102.008 114.695Z" fill="#0077F9"/>
<path opacity="0.4" d="M102.008 114.695H96.7924L94.1113 118.027H100.015L102.008 114.695Z" fill="black"/>
<path d="M98.0553 117.452V121.51H95.1543V117.452L96.6048 115.641L98.0553 117.452Z" fill="#0077F9"/>
<path opacity="0.2" d="M98.0553 117.452V121.51H95.1543V117.452L96.6048 115.641L98.0553 117.452Z" fill="black"/>
<path d="M98.0552 117.453H100.338L98.0552 121.511V117.453Z" fill="#0077F9"/>
<path d="M97.3537 117.518H95.7056V120.301H97.3537V117.518Z" fill="#FBFAFF"/>
<path d="M96.4386 117.712H95.9062V118.608H96.4386V117.712Z" fill="#0077F9"/>
<path d="M97.1535 117.712H96.6211V118.608H97.1535V117.712Z" fill="#0077F9"/>
<path d="M96.4386 118.77H95.9062V120.099H96.4386V118.77Z" fill="#0077F9"/>
<path d="M97.1535 118.77H96.6211V120.099H97.1535V118.77Z" fill="#0077F9"/>
<path d="M132.246 75.9356C134.275 77.6642 135.535 80.1276 135.749 82.7847C135.963 85.4417 135.113 88.075 133.387 90.1061C131.991 91.7542 130.098 92.9052 127.993 93.3865L125.761 97.9549L123.597 93.4184C121.978 93.0703 120.47 92.3254 119.21 91.2506C117.18 89.5208 115.919 87.0556 115.705 84.3968C115.491 81.7379 116.341 79.1028 118.069 77.0705C119.799 75.0411 122.264 73.7817 124.922 73.5689C127.581 73.356 130.215 74.2073 132.246 75.9356Z" fill="white"/>
<path d="M132.246 75.9368C133.664 77.1452 134.721 78.7217 135.3 80.4924C135.444 80.9333 135.561 81.3826 135.651 81.8377C135.726 82.2956 135.773 82.7577 135.791 83.2213C135.837 84.1501 135.751 85.0806 135.536 85.9853C135.324 86.8932 134.989 87.7675 134.538 88.5835C134.308 88.99 134.051 89.3809 133.77 89.7534C133.496 90.132 133.192 90.4881 132.861 90.8182C131.533 92.1568 129.856 93.0975 128.022 93.5344L128.121 93.4579L125.915 98.039L125.755 98.3578L125.593 98.039L123.415 93.5089L123.549 93.6173C122.026 93.2888 120.599 92.6149 119.377 91.6477C118.156 90.6804 117.173 89.4456 116.504 88.0383C115.84 86.6335 115.503 85.0968 115.519 83.5433C115.538 81.9909 115.914 80.4638 116.618 79.0801C117.313 77.7055 118.31 76.5065 119.535 75.5734C120.761 74.6541 122.177 74.0211 123.68 73.7212C125.182 73.4166 126.734 73.4578 128.218 73.8417C129.702 74.2256 131.08 74.942 132.246 75.9368ZM132.246 75.9368C131.078 74.9548 129.703 74.2508 128.223 73.8781C126.744 73.5053 125.199 73.4734 123.705 73.7849C122.219 74.1088 120.824 74.7625 119.625 75.6977C118.436 76.6391 117.477 77.8382 116.819 79.2045C116.161 80.5604 115.821 82.0487 115.825 83.556C115.843 85.052 116.187 86.526 116.832 87.8757C117.488 89.2244 118.44 90.407 119.618 91.3347C120.799 92.2573 122.172 92.9043 123.635 93.2283L123.728 93.2474L123.769 93.3335L125.918 97.8796H125.599L127.862 93.3271L127.894 93.2634H127.961C129.764 92.8701 131.42 91.98 132.743 90.6939C133.073 90.3751 133.376 90.0308 133.652 89.6642C133.937 89.304 134.196 88.9236 134.426 88.5261C134.888 87.7281 135.235 86.8697 135.459 85.9757C135.691 85.0823 135.789 84.1594 135.749 83.2372C135.736 82.7758 135.693 82.3157 135.619 81.86C135.535 81.4059 135.422 80.9575 135.281 80.5179C134.712 78.7398 133.661 77.1541 132.246 75.9368Z" fill="#263238"/>
<path d="M128.459 81.039C128.35 80.9248 128.227 80.8251 128.092 80.7425C127.914 80.6212 127.726 80.5146 127.531 80.4237C127.306 80.3201 127.072 80.2358 126.833 80.1719C126.577 80.1039 126.316 80.0601 126.052 80.0412V82.9103L126.316 82.9677C126.773 83.0742 127.224 83.2073 127.665 83.3662C128.029 83.4958 128.371 83.6784 128.682 83.9082C128.952 84.1158 129.17 84.3831 129.32 84.6892C129.482 85.0417 129.56 85.4268 129.549 85.8146C129.561 86.2468 129.471 86.6759 129.288 87.0674C129.116 87.4081 128.867 87.704 128.561 87.9314C128.236 88.1709 127.87 88.3472 127.48 88.451C127.05 88.5695 126.606 88.6327 126.16 88.6391V90.1056H125.44V88.6264C124.793 88.5827 124.156 88.4497 123.546 88.231C122.952 88.0181 122.396 87.7125 121.898 87.3257L122.606 85.9995C122.739 86.1351 122.888 86.2549 123.049 86.3565C123.264 86.4996 123.49 86.6254 123.725 86.7327C124.001 86.8584 124.285 86.9649 124.576 87.0515C124.888 87.143 125.208 87.207 125.532 87.2428V84.3736C125.475 84.3543 125.416 84.3383 125.357 84.3258L125.185 84.278C124.752 84.1658 124.327 84.0296 123.91 83.8699C123.581 83.7484 123.275 83.5727 123.004 83.3503C122.77 83.1568 122.582 82.9126 122.456 82.6362C122.324 82.3239 122.261 81.9868 122.271 81.6479C122.263 81.2353 122.342 80.8257 122.504 80.446C122.659 80.0995 122.886 79.7898 123.17 79.5375C123.464 79.2797 123.804 79.0787 124.171 78.9445C124.581 78.7956 125.011 78.7044 125.446 78.6735V77.2772H126.167V78.6735C126.735 78.7053 127.294 78.8269 127.824 79.0338C128.302 79.219 128.753 79.4655 129.167 79.767L128.459 81.039ZM123.894 81.3992C123.883 81.567 123.914 81.7348 123.986 81.887C124.057 82.0392 124.166 82.1708 124.302 82.2695C124.682 82.5106 125.102 82.6843 125.542 82.7828V80.0571C125.094 80.0461 124.655 80.1853 124.295 80.4524C124.162 80.5705 124.057 80.7168 123.988 80.8806C123.918 81.0443 123.886 81.2215 123.894 81.3992ZM127.891 85.9931C127.9 85.8106 127.86 85.6291 127.775 85.4672C127.691 85.3053 127.565 85.1689 127.41 85.0718C126.986 84.8216 126.529 84.6327 126.052 84.5107V87.2364C126.528 87.2626 127.001 87.152 127.416 86.9176C127.569 86.8185 127.694 86.681 127.777 86.5188C127.861 86.3566 127.9 86.1753 127.891 85.9931Z" fill="#0077F9"/>
</svg>
